<svg width="100" height="100" viewBox="0 0 100 100" fill="none" xmlns="http://www.w3.org/2000/svg">
<circle cx="50" cy="50" r="50" fill="#8FCE84"/>
<path d="M31.496 53.712C31.544 53.712 31.568 53.76 31.568 53.856C31.568 53.952 31.544 54 31.496 54C30.952 54 30.512 53.992 30.176 53.976L28.424 53.952L26.384 53.976C26.096 53.992 25.712 54 25.232 54C25.184 54 25.16 53.952 25.16 53.856C25.16 53.76 25.184 53.712 25.232 53.712C25.84 53.712 26.28 53.672 26.552 53.592C26.824 53.512 27.008 53.36 27.104 53.136C27.2 52.912 27.248 52.552 27.248 52.056V46.512H19.016V52.056C19.016 52.536 19.064 52.896 19.16 53.136C19.256 53.36 19.44 53.512 19.712 53.592C20 53.672 20.448 53.712 21.056 53.712C21.088 53.712 21.104 53.76 21.104 53.856C21.104 53.952 21.088 54 21.056 54C20.512 54 20.088 53.992 19.784 53.976L17.792 53.952L16.04 53.976C15.736 53.992 15.312 54 14.768 54C14.736 54 14.72 53.952 14.72 53.856C14.72 53.76 14.736 53.712 14.768 53.712C15.344 53.712 15.768 53.672 16.04 53.592C16.312 53.512 16.496 53.36 16.592 53.136C16.688 52.896 16.736 52.536 16.736 52.056V40.944C16.736 40.464 16.688 40.112 16.592 39.888C16.496 39.664 16.312 39.512 16.04 39.432C15.768 39.336 15.352 39.288 14.792 39.288C14.76 39.288 14.744 39.24 14.744 39.144C14.744 39.048 14.76 39 14.792 39L16.064 39.024C16.8 39.056 17.376 39.072 17.792 39.072C18.352 39.072 19.016 39.056 19.784 39.024L21.056 39C21.088 39 21.104 39.048 21.104 39.144C21.104 39.24 21.088 39.288 21.056 39.288C20.464 39.288 20.024 39.336 19.736 39.432C19.464 39.528 19.272 39.696 19.16 39.936C19.064 40.16 19.016 40.512 19.016 40.992V45.888H27.248V40.992C27.248 40.512 27.2 40.16 27.104 39.936C27.008 39.696 26.816 39.528 26.528 39.432C26.256 39.336 25.824 39.288 25.232 39.288C25.184 39.288 25.16 39.24 25.16 39.144C25.16 39.048 25.184 39 25.232 39L26.384 39.024C27.152 39.056 27.832 39.072 28.424 39.072C28.856 39.072 29.44 39.056 30.176 39.024L31.496 39C31.544 39 31.568 39.048 31.568 39.144C31.568 39.24 31.544 39.288 31.496 39.288C30.92 39.288 30.496 39.336 30.224 39.432C29.968 39.512 29.792 39.664 29.696 39.888C29.6 40.112 29.552 40.464 29.552 40.944V52.056C29.552 52.536 29.6 52.896 29.696 53.136C29.792 53.36 29.968 53.512 30.224 53.592C30.496 53.672 30.92 53.712 31.496 53.712ZM42.3133 52.704C42.3773 52.704 42.4173 52.744 42.4333 52.824C42.4493 52.888 42.4253 52.936 42.3613 52.968L39.8893 54.144C39.8253 54.176 39.7533 54.192 39.6733 54.192C39.4333 54.192 39.2013 54.056 38.9773 53.784C38.7693 53.496 38.6333 53.12 38.5693 52.656L37.4653 53.424C37.0813 53.696 36.7293 53.888 36.4093 54C36.1053 54.112 35.7613 54.168 35.3773 54.168C34.7213 54.168 34.2173 54.016 33.8652 53.712C33.5293 53.392 33.3613 52.976 33.3613 52.464C33.3613 52.032 33.4733 51.68 33.6973 51.408C33.9373 51.136 34.2333 50.92 34.5853 50.76C34.9533 50.584 35.4893 50.368 36.1933 50.112L38.5213 49.248V47.808C38.5213 46.816 38.4173 46.096 38.2093 45.648C38.0173 45.184 37.7053 44.952 37.2733 44.952C36.7453 44.952 36.3613 45.152 36.1213 45.552C35.8973 45.936 35.7613 46.368 35.7133 46.848C35.6173 47.664 35.2093 48.072 34.4893 48.072C34.1373 48.072 33.8733 47.992 33.6973 47.832C33.5373 47.672 33.4573 47.472 33.4573 47.232C33.4573 46.784 33.7213 46.352 34.2493 45.936C34.7933 45.504 35.4413 45.16 36.1933 44.904C36.9613 44.632 37.6333 44.496 38.2093 44.496C38.8973 44.496 39.4413 44.712 39.8413 45.144C40.2573 45.576 40.4653 46.224 40.4653 47.088V51.408C40.4653 51.904 40.5453 52.28 40.7053 52.536C40.8653 52.792 41.0973 52.92 41.4013 52.92C41.6413 52.92 41.9293 52.848 42.2653 52.704H42.3133ZM38.5213 52.272V52.032V49.656L37.0813 50.256C36.6653 50.416 36.3213 50.608 36.0493 50.832C35.7933 51.04 35.6653 51.344 35.6653 51.744C35.6653 52.128 35.7853 52.44 36.0253 52.68C36.2813 52.904 36.5853 53.016 36.9373 53.016C37.2253 53.016 37.5293 52.92 37.8493 52.728L38.5213 52.272ZM59.0154 53.712C59.0634 53.712 59.0874 53.76 59.0874 53.856C59.0874 53.952 59.0634 54 59.0154 54H56.2314C56.0714 54 55.9434 53.968 55.8474 53.904C55.7514 53.824 55.5754 53.6 55.3194 53.232C55.0794 52.864 54.7674 52.352 54.3834 51.696C53.9674 51.024 53.6394 50.536 53.3994 50.232C53.1594 49.912 52.9194 49.696 52.6794 49.584C52.4394 49.456 52.1274 49.392 51.7434 49.392H51.6474V52.056C51.6474 52.536 51.6794 52.896 51.7434 53.136C51.8234 53.36 51.9514 53.512 52.1274 53.592C52.3194 53.672 52.6154 53.712 53.0154 53.712C53.0634 53.712 53.0874 53.76 53.0874 53.856C53.0874 53.952 53.0634 54 53.0154 54C52.5834 54 52.2474 53.992 52.0074 53.976L50.7114 53.952L49.3434 53.976C49.1034 53.992 48.7674 54 48.3354 54C48.2874 54 48.2634 53.952 48.2634 53.856C48.2634 53.76 48.2874 53.712 48.3354 53.712C48.7354 53.712 49.0314 53.672 49.2234 53.592C49.4154 53.512 49.5434 53.36 49.6074 53.136C49.6714 52.896 49.7034 52.536 49.7034 52.056V49.392H49.6314C49.2474 49.392 48.9274 49.456 48.6714 49.584C48.4314 49.696 48.1834 49.912 47.9274 50.232C47.6874 50.536 47.3674 51.024 46.9674 51.696C46.5194 52.464 46.1914 53.008 45.9834 53.328C45.7754 53.632 45.6154 53.824 45.5034 53.904C45.4074 53.968 45.2874 54 45.1434 54H42.3594C42.3114 54 42.2874 53.952 42.2874 53.856C42.2874 53.76 42.3114 53.712 42.3594 53.712C42.8554 53.712 43.2314 53.592 43.4874 53.352C43.7594 53.112 44.0954 52.664 44.4954 52.008C44.7834 51.528 44.9434 51.264 44.9754 51.216C45.5354 50.352 45.9754 49.776 46.2954 49.488C46.6154 49.2 47.0794 49.024 47.6874 48.96C47.4794 48.752 47.2314 48.384 46.9434 47.856C46.6714 47.312 46.4314 46.92 46.2234 46.68C46.0154 46.44 45.7994 46.32 45.5754 46.32C45.4314 46.32 45.2954 46.344 45.1674 46.392C45.0554 46.44 44.9834 46.472 44.9514 46.488C44.6954 46.616 44.4634 46.68 44.2554 46.68C43.9034 46.68 43.6234 46.576 43.4154 46.368C43.2234 46.16 43.1274 45.896 43.1274 45.576C43.1274 45.256 43.2314 45 43.4394 44.808C43.6634 44.6 43.9914 44.496 44.4234 44.496C44.9834 44.496 45.4794 44.728 45.9114 45.192C46.3434 45.64 46.8394 46.472 47.3994 47.688C47.8154 48.52 48.1914 48.936 48.5274 48.936L49.7034 48.984V46.704C49.7034 46.208 49.6634 45.848 49.5834 45.624C49.5194 45.4 49.3674 45.248 49.1274 45.168C48.9034 45.072 48.5434 45.024 48.0474 45.024C48.0154 45.024 47.9994 44.976 47.9994 44.88C47.9994 44.784 48.0154 44.736 48.0474 44.736L49.4154 44.76C49.7034 44.776 50.1354 44.784 50.7114 44.784C51.2554 44.784 51.6714 44.776 51.9594 44.76L53.3034 44.736C53.3354 44.736 53.3514 44.784 53.3514 44.88C53.3514 44.976 53.3354 45.024 53.3034 45.024C52.8074 45.024 52.4474 45.072 52.2234 45.168C51.9994 45.248 51.8474 45.408 51.7674 45.648C51.6874 45.872 51.6474 46.224 51.6474 46.704V48.984L52.8474 48.936C53.0554 48.936 53.2554 48.808 53.4474 48.552C53.6394 48.296 53.8074 48.008 53.9514 47.688C54.5274 46.472 55.0314 45.64 55.4634 45.192C55.8954 44.728 56.3914 44.496 56.9514 44.496C57.3674 44.496 57.6794 44.6 57.8874 44.808C58.1114 45 58.2234 45.256 58.2234 45.576C58.2234 45.896 58.1194 46.16 57.9114 46.368C57.7194 46.576 57.4474 46.68 57.0954 46.68C56.9514 46.68 56.8234 46.664 56.7114 46.632C56.5994 46.584 56.4954 46.536 56.3994 46.488C56.2074 46.376 56.0154 46.32 55.8234 46.32C55.5834 46.32 55.3514 46.448 55.1274 46.704C54.9194 46.944 54.6794 47.328 54.4074 47.856C54.1354 48.4 53.8954 48.768 53.6874 48.96C54.2954 49.024 54.7594 49.2 55.0794 49.488C55.3994 49.776 55.8394 50.352 56.3994 51.216L56.9034 52.032C57.2874 52.672 57.6074 53.112 57.8634 53.352C58.1194 53.592 58.5034 53.712 59.0154 53.712ZM72.2954 53.712C72.3274 53.712 72.3434 53.76 72.3434 53.856C72.3434 53.952 72.3274 54 72.2954 54C71.8314 54 71.4714 53.992 71.2154 53.976L69.9674 53.952L68.7194 53.976C68.5274 53.992 68.2474 54 67.8794 54C67.8314 54 67.8074 53.952 67.8074 53.856C67.8074 53.76 67.8314 53.712 67.8794 53.712C68.2954 53.712 68.5834 53.648 68.7434 53.52C68.9194 53.392 69.0074 53.12 69.0074 52.704C69.0074 52.608 68.9914 52.416 68.9594 52.128L68.4314 47.88L65.5754 54C65.5594 54.064 65.4954 54.096 65.3834 54.096C65.3034 54.096 65.2394 54.064 65.1914 54L61.7354 47.832L61.3994 51.504L61.3754 51.888C61.3754 52.512 61.5034 52.976 61.7594 53.28C62.0314 53.568 62.4394 53.712 62.9834 53.712C63.0314 53.712 63.0554 53.76 63.0554 53.856C63.0554 53.952 63.0314 54 62.9834 54C62.6314 54 62.3594 53.992 62.1674 53.976L61.1354 53.952L60.1274 53.976C59.9354 53.992 59.6634 54 59.3114 54C59.2634 54 59.2394 53.952 59.2394 53.856C59.2394 53.76 59.2634 53.712 59.3114 53.712C59.8234 53.712 60.1994 53.536 60.4394 53.184C60.6954 52.832 60.8474 52.272 60.8954 51.504L61.4234 44.64C61.4234 44.592 61.4634 44.552 61.5434 44.52C61.6234 44.488 61.7114 44.472 61.8074 44.472C61.9674 44.472 62.0714 44.504 62.1194 44.568L66.1274 51.648L69.4154 44.592C69.4474 44.544 69.5194 44.52 69.6314 44.52C69.7114 44.52 69.7914 44.536 69.8714 44.568C69.9674 44.6 70.0234 44.632 70.0394 44.664L70.8794 52.056C70.9434 52.584 71.0074 52.952 71.0714 53.16C71.1354 53.368 71.2554 53.512 71.4314 53.592C71.6074 53.672 71.8954 53.712 72.2954 53.712ZM84.3778 53.712C84.4098 53.712 84.4258 53.76 84.4258 53.856C84.4258 53.952 84.4098 54 84.3778 54C83.9298 54 83.5858 53.992 83.3458 53.976L82.0498 53.952L80.6818 53.976C80.4258 53.992 80.0818 54 79.6497 54C79.6178 54 79.6018 53.952 79.6018 53.856C79.6018 53.76 79.6178 53.712 79.6497 53.712C80.0658 53.712 80.3698 53.672 80.5618 53.592C80.7538 53.512 80.8818 53.36 80.9458 53.136C81.0098 52.896 81.0418 52.536 81.0418 52.056V47.016L75.0898 54.12C75.0418 54.184 74.9538 54.216 74.8258 54.216C74.7458 54.216 74.6738 54.2 74.6098 54.168C74.5458 54.152 74.5138 54.128 74.5138 54.096V46.68C74.5138 46.2 74.4818 45.848 74.4178 45.624C74.3538 45.384 74.2258 45.224 74.0338 45.144C73.8418 45.064 73.5458 45.024 73.1458 45.024C73.1138 45.024 73.0978 44.976 73.0978 44.88C73.0978 44.784 73.1138 44.736 73.1458 44.736C73.5138 44.736 73.8018 44.744 74.0098 44.76L75.4498 44.784L77.2258 44.76C77.4018 44.744 77.6098 44.736 77.8498 44.736C77.8978 44.736 77.9218 44.784 77.9218 44.88C77.9218 44.976 77.8978 45.024 77.8498 45.024C77.4498 45.024 77.1538 45.064 76.9618 45.144C76.7698 45.224 76.6338 45.384 76.5538 45.624C76.4898 45.848 76.4578 46.2 76.4578 46.68V51.744L82.4098 44.64C82.4578 44.56 82.5458 44.52 82.6738 44.52C82.7538 44.52 82.8258 44.536 82.8898 44.568C82.9698 44.584 83.0098 44.608 83.0098 44.64V52.056C83.0098 52.536 83.0418 52.896 83.1058 53.136C83.1698 53.36 83.2978 53.512 83.4898 53.592C83.6818 53.672 83.9778 53.712 84.3778 53.712Z" fill="#242424"/>
</svg>
