<?xml version="1.0" standalone="no"?>
<!DOCTYPE svg PUBLIC "-//W3C//DTD SVG 1.1//EN" "http://www.w3.org/Graphics/SVG/1.1/DTD/svg11.dtd" >
<svg xmlns="http://www.w3.org/2000/svg" xmlns:xlink="http://www.w3.org/1999/xlink" version="1.1">
<metadata>
Created by FontForge 20170812 at Fri May  6 13:43:17 2022
 By www-data
Copyright 2015 The Cormorant Project Authors (github.com/CatharsisFonts/Cormorant)
</metadata>
<defs>
<font id="CormorantGaramond-SemiBold" horiz-adv-x="766" >
  <font-face 
    font-family="Cormorant Garamond SemiBold"
    font-weight="600"
    font-stretch="normal"
    units-per-em="1000"
    panose-1="0 0 0 0 0 0 0 0 0 0"
    ascent="800"
    descent="-200"
    x-height="386"
    cap-height="625"
    bbox="-104.065 -282.167 1451.8 932.333"
    underline-thickness="50"
    underline-position="-175"
    unicode-range="U+0020-FFFB"
  />
<missing-glyph horiz-adv-x="501" 
d="M94 725h317v-1000h-317v1000zM233 626v-38h-66v-32h166v32h-66v38h66v32h-165v-32h65zM333 426v34h-66v69h-100v-103h166zM200 495h33v-35h-33v35zM233 365v-36h-66v-34h100v70h66v33h-166v-33h66zM167 273v-34h166v99h-32v-65h-134zM267 160v24h34v-48h-101v80h-33v-113
h166v113h-100v-56h34zM333 -70v113h-166v-113h166zM200 11h101v-48h-101v48zM237 -126l-70 -47v-33h166v33h-101l69 47h32v34h-166v-34h70z" />
    <glyph glyph-name="T_T.liga" unicode="TT" horiz-adv-x="1155" 
d="M1113.5 654q5.5 0 5.5 -4q-3 -29 -6 -93t-3 -103q0 -2 -5.5 -2t-5.5 2q-13 79 -48.5 114.5t-99.5 35.5q-29 0 -42 -4.5t-18 -17t-5 -40.5v-461q0 -31 6 -45t24 -19t58 -5q2 0 2 -6t-2 -6q-36 0 -56 1l-81 1l-79 -1q-21 -1 -58 -1q-2 0 -2 6t2 6q39 0 57.5 5t25.5 19.5
t7 44.5v463q0 27 -5 39t-17.5 16.5t-38.5 4.5q-54 0 -82 -12t-42 -43.5t-20 -94.5q0 -2 -6 -2t-6 2q-3 63 -16 94.5t-42 43.5t-87 12q-34 0 -45.5 -12.5t-11.5 -49.5v-461q0 -30 5.5 -44.5t21.5 -19.5t50 -5q2 0 2 -6t-2 -6q-32 0 -51 1l-75 1l-79 -1q-20 -1 -57 -1
q-3 0 -3 6t3 6q39 0 57.5 5t25 19.5t6.5 44.5v463q0 37 -13 48.5t-52 11.5q-59 0 -97 -36t-63 -114q0 -3 -5.5 -2.5t-5.5 2.5q5 30 11 95t6 98q0 5 6 5t6 -5q0 -22 53 -22q86 -3 201 -3q56 0 118 2l63 1q42 0 56 1t17.5 6t5.5 19q0 4 5.5 4t5.5 -4q-1 -14 1 -18.5t11.5 -5.5
t41.5 -2q81 -3 190 -3q59 0 125 2l68 1q37 0 54.5 5t22.5 20q1 4 6.5 4z" />
    <glyph glyph-name="T_h.liga" unicode="Th" horiz-adv-x="1041" 
d="M183 6q0 6 2 6q39 0 57.5 5t25 19.5t6.5 44.5v463q0 26 -5 38.5t-18 17t-41 4.5q-61 0 -100 -37.5t-60 -112.5q0 -3 -5.5 -2.5t-5.5 2.5q4 39 9 100.5t5 92.5q0 5 5.5 5t5.5 -5q0 -22 56 -22q86 -3 201 -3q150 0 194 3q61 2 103.5 29.5t60.5 70.5q2 3 7 3q4 0 7 -1.5
t3 -3.5v-642q0 -41 11.5 -55t45.5 -14q3 0 3 -6t-3 -6q-25 0 -39 1l-58 1l-58 -1q-15 -1 -40 -1q-2 0 -2 6t2 6q34 0 45.5 14t11.5 55v508q0 8 -4 11.5t-14 3.5h-162q-28 0 -41.5 -5t-18.5 -17.5t-5 -39.5v-461q0 -30 6.5 -44.5t24.5 -19.5t57 -5q3 0 3 -6t-3 -6
q-35 0 -55 1l-82 1l-78 -1q-21 -1 -58 -1q-2 0 -2 6zM825 6q0 6 2 6q34 0 45.5 14t11.5 55v149q0 56 -21 83t-64 27q-33 0 -67 -18.5t-55 -49.5l-1 17q77 108 173 108q54 0 85 -33t31 -90v-193q0 -41 11.5 -55t45.5 -14q3 0 3 -6t-3 -6q-25 0 -39 1l-58 1l-58 -1
q-15 -1 -40 -1q-2 0 -2 6z" />
    <glyph glyph-name="f_b.liga" unicode="fb" horiz-adv-x="827" 
d="M25 6q0 6 4 6q27 0 40 5.5t18 19.5t5 44v225q0 33 -13 42t-54 9q-3 0 -3 9q0 8 3 8q37 0 50.5 9.5t14.5 34.5q6 152 52 224q28 43 71 63.5t103 20.5q50 0 87.5 -13.5t60.5 -35.5l-57 -64q-21 45 -52.5 70.5t-65.5 25.5q-62 0 -91 -78q-25 -67 -25 -192v-358
q0 -31 6.5 -45t25 -19t60.5 -5q4 0 4 -6t-4 -6l-67 1q-22 1 -67 1l-59 -1q-15 -1 -43 -1q-4 0 -4 6zM136 352v24q61 0 153 10q3 0 5 -7t2 -17q0 -9 -3 -18t-7 -8q-69 16 -150 16zM350 -6q-4 0 -5 3.5t2 5.5q27 17 39.5 39.5t12.5 60.5v553q30 1 50 25t20 49q0 3 5.5 3
t5.5 -3v-677l-128 -59h-2zM421 45l52 73q24 -57 58 -84.5t72 -27.5q49 0 75 44t26 126q0 88 -31.5 132.5t-84.5 44.5q-59 0 -121 -58l-9 8q41 44 80 70t92 26q44 0 81.5 -21t60 -63t22.5 -102q0 -72 -31 -123t-80 -77t-104 -26q-90 0 -158 58z" />
    <glyph glyph-name="f_f.liga" unicode="ff" horiz-adv-x="603" 
d="M25 6q0 6 4 6q27 0 40 5.5t18 19.5t5 44v225q0 33 -13 42t-54 9q-3 0 -3 9q0 8 3 8q37 0 50.5 9.5t14.5 34.5q7 140 69.5 206.5t172.5 66.5q46 0 85 -10.5t60 -25.5l-39 -73q-23 41 -60.5 65.5t-77.5 24.5q-58 0 -92.5 -58t-34.5 -175v-358q0 -31 6.5 -45t25 -19t60.5 -5
q4 0 4 -6t-4 -6l-67 1q-22 1 -67 1l-59 -1q-15 -1 -43 -1q-4 0 -4 6zM384.5 336q-4.5 9 -18 12.5t-44.5 4.5q-37 2 -174 2v21q128 0 174 1q40 1 52.5 9t14.5 32l23 -47l-22 -65q-1 21 -5.5 30zM323 6q0 6 3 6q28 0 40.5 5t17.5 19.5t5 44.5v225q0 23 -5.5 33.5t-19 14
t-42.5 3.5q-3 0 -3 9q0 8 3 8q38 0 51.5 9.5t14.5 34.5q5 163 61 235.5t168 72.5q54 0 85.5 -15.5t31.5 -41.5q0 -20 -13.5 -31.5t-31.5 -11.5q-20 0 -30.5 9t-19.5 28q-12 21 -24.5 31.5t-35.5 10.5q-50 0 -79 -65t-29 -201v-358q0 -31 6.5 -45t25 -19t60.5 -5q3 0 3 -6
t-3 -6l-68 1q-22 1 -66 1l-59 -1q-16 -1 -44 -1q-3 0 -3 6zM434 352v24q61 0 153 10q3 0 5 -7t2 -17q0 -9 -3.5 -18t-6.5 -8q-69 16 -150 16z" />
    <glyph glyph-name="f_f_b.liga" unicode="ffb" horiz-adv-x="1125" 
d="M25 6q0 6 4 6q27 0 40 5.5t18 19.5t5 44v225q0 33 -13 42t-54 9q-3 0 -3 9q0 8 3 8q37 0 50.5 9.5t14.5 34.5q7 140 69.5 206.5t172.5 66.5q46 0 85 -10.5t60 -25.5l-39 -73q-23 41 -60.5 65.5t-77.5 24.5q-58 0 -92.5 -58t-34.5 -175v-358q0 -31 6.5 -45t25 -19t60.5 -5
q4 0 4 -6t-4 -6l-67 1q-22 1 -67 1l-59 -1q-15 -1 -43 -1q-4 0 -4 6zM384.5 336q-4.5 9 -18 12.5t-44.5 4.5q-37 2 -174 2v21q128 0 174 1q40 1 52.5 9t14.5 32l23 -47l-22 -65q-1 21 -5.5 30zM323 6q0 6 3 6q28 0 40.5 5t17.5 19.5t5 44.5v225q0 23 -5.5 33.5t-19 14
t-42.5 3.5q-3 0 -3 9q0 8 3 8q38 0 51.5 9.5t14.5 34.5q5 152 52 224q28 43 71 63.5t103 20.5q49 0 86.5 -13.5t61.5 -35.5l-57 -64q-22 45 -53 70.5t-66 25.5q-63 0 -90 -78q-25 -67 -25 -192v-358q0 -31 6.5 -45t25 -19t60.5 -5q3 0 3 -6t-3 -6l-68 1q-22 1 -66 1l-59 -1
q-16 -1 -44 -1q-3 0 -3 6zM434 352v24q61 0 153 10q3 0 5 -7t2 -17q0 -9 -3.5 -18t-6.5 -8q-69 16 -150 16zM647 -6q-4 0 -5 3.5t2 5.5q27 17 39.5 39.5t12.5 60.5v553q31 1 50.5 24.5t19.5 49.5q0 3 6 3t6 -3v-677l-129 -59h-2zM719 45l51 73q24 -57 58.5 -84.5t72.5 -27.5
q49 0 75 44t26 126q0 88 -32 132.5t-85 44.5q-58 0 -120 -58l-9 8q41 44 80 70t92 26q44 0 81.5 -21t60 -63t22.5 -102q0 -72 -31 -123t-80.5 -77t-104.5 -26q-90 0 -157 58z" />
    <glyph glyph-name="f_f_f.liga" unicode="fff" horiz-adv-x="901" 
d="M323 6q0 6 3 6q28 0 40.5 5t17.5 19.5t5 44.5v225q0 23 -5.5 33.5t-18.5 14t-42 3.5q-2 0 -3 2.5t-1 6.5q0 3 1.5 5.5t2.5 2.5q36 0 50 9.5t15 34.5q6 152 68.5 224.5t172.5 72.5q47 0 85 -18t61 -42l-39 -73q-23 52 -60.5 82.5t-77.5 30.5q-58 0 -92.5 -64t-34.5 -192
v-358q0 -31 6.5 -45t25 -19t60.5 -5q3 0 3 -6t-3 -6l-67 1q-22 1 -66 1l-60 -1q-16 -1 -44 -1q-3 0 -3 6zM25 6q0 6 4 6q27 0 40 5.5t18 19.5t5 44v225q0 33 -13 42t-54 9q-3 0 -3 9q0 8 3 8q37 0 50.5 9.5t14.5 34.5q7 140 69.5 206.5t172.5 66.5q47 0 86 -11t60 -26
l-40 -72q-23 41 -60.5 65.5t-77.5 24.5q-58 0 -92.5 -58t-34.5 -175v-358q0 -31 6.5 -45t25 -19t60.5 -5q4 0 4 -6t-4 -6l-67 1q-22 1 -67 1l-59 -1q-15 -1 -43 -1q-4 0 -4 6zM383.5 336q-4.5 9 -17.5 12.5t-44 4.5q-37 2 -174 2v21q128 0 174 1q40 1 52.5 9t13.5 32l24 -47
l-23 -65q-1 21 -5.5 30zM682.5 336q-4.5 9 -17.5 12.5t-44 4.5q-39 2 -175 2v21q127 0 173 1q41 1 53.5 9t13.5 32l24 -47l-22 -65q-1 21 -5.5 30zM732 352v24q61 0 153 10q3 0 5 -7t2 -17q0 -9 -3 -18t-7 -8q-69 16 -150 16zM621 6q0 6 4 6q27 0 40 5.5t18 19.5t5 44v225
q0 28 -4 37.5t-15.5 11.5t-47.5 2q-3 0 -3 9q0 8 3 8q37 0 50.5 9.5t14.5 34.5q5 163 61 235.5t168 72.5q55 0 86 -15.5t31 -41.5q0 -20 -13.5 -31.5t-31.5 -11.5q-20 0 -30 9t-20 28q-11 21 -24 31.5t-36 10.5q-50 0 -79 -65t-29 -201v-358q0 -31 6.5 -45t25 -19t60.5 -5
q4 0 4 -6t-4 -6l-67 1q-22 1 -67 1l-59 -1q-15 -1 -43 -1q-4 0 -4 6z" />
    <glyph glyph-name="f_f_h.liga" unicode="ffh" horiz-adv-x="1123" 
d="M25 6q0 6 4 6q27 0 40 5.5t18 19.5t5 44v225q0 33 -13 42t-54 9q-3 0 -3 9q0 8 3 8q37 0 50.5 9.5t14.5 34.5q7 140 69.5 206.5t172.5 66.5q46 0 85 -10.5t60 -25.5l-39 -73q-23 41 -60.5 65.5t-77.5 24.5q-58 0 -92.5 -58t-34.5 -175v-358q0 -31 6.5 -45t25 -19t60.5 -5
q4 0 4 -6t-4 -6l-67 1q-22 1 -67 1l-59 -1q-15 -1 -43 -1q-4 0 -4 6zM384.5 336q-4.5 9 -18 12.5t-44.5 4.5q-37 2 -174 2v21q128 0 174 1q40 1 52.5 9t14.5 32l23 -47l-22 -65q-1 21 -5.5 30zM323 6q0 6 3 6q28 0 40.5 5t17.5 19.5t5 44.5v225q0 23 -5.5 33.5t-19 14
t-42.5 3.5q-3 0 -3 9q0 8 3 8q38 0 51.5 9.5t14.5 34.5q5 162 59.5 235t166.5 73q49 0 86.5 -13.5t61.5 -35.5l-57 -64q-22 45 -53 70.5t-66 25.5q-115 0 -115 -270v-358q0 -31 6.5 -45t25 -19t60.5 -5q3 0 3 -6t-3 -6l-68 1q-22 1 -66 1l-59 -1q-16 -1 -44 -1q-3 0 -3 6z
M434 352v24q61 0 153 10q3 0 5 -7t2 -17q0 -9 -3.5 -18t-6.5 -8q-69 16 -150 16zM637 6q0 6 3 6q33 0 44.5 14t11.5 55v575q31 1 50.5 24.5t19.5 49.5q0 3 6 3t6 -3v-649q0 -41 11.5 -55t45.5 -14q3 0 3 -6t-3 -6q-25 0 -40 1l-58 1l-58 -1q-14 -1 -39 -1q-3 0 -3 6zM906 6
q0 6 3 6q33 0 44.5 14t11.5 55v149q0 57 -20.5 83.5t-64.5 26.5q-32 0 -66 -18.5t-55 -48.5l-5 12q80 112 176 112q55 0 86 -33t31 -90v-193q0 -41 11.5 -55t45.5 -14q3 0 3 -6t-3 -6q-25 0 -40 1l-58 1l-58 -1q-14 -1 -39 -1q-3 0 -3 6z" />
    <glyph glyph-name="f_f_i.liga" unicode="ffi" horiz-adv-x="867" 
d="M25 6q0 6 4 6q27 0 40 5.5t18 19.5t5 44v225q0 33 -13 42t-54 9q-3 0 -3 9q0 8 3 8q37 0 50.5 9.5t14.5 34.5q7 140 69.5 206.5t172.5 66.5q46 0 85 -10.5t60 -25.5l-39 -73q-23 41 -60.5 65.5t-77.5 24.5q-58 0 -92.5 -58t-34.5 -175v-358q0 -31 6.5 -45t25 -19t60.5 -5
q4 0 4 -6t-4 -6l-67 1q-22 1 -67 1l-59 -1q-15 -1 -43 -1q-4 0 -4 6zM384.5 336q-4.5 9 -18 12.5t-44.5 4.5q-37 2 -174 2v21q128 0 174 1q40 1 52.5 9t14.5 32l23 -47l-22 -65q-1 21 -5.5 30zM323 6q0 6 3 6q28 0 40.5 5t17.5 19.5t5 44.5v225q0 23 -5.5 33.5t-19 14
t-42.5 3.5q-3 0 -3 9q0 8 3 8q38 0 51.5 9.5t14.5 34.5q6 161 68.5 234.5t178.5 73.5q64 0 101.5 -21.5t37.5 -54.5q0 -18 -11 -28.5t-31 -10.5q-19 0 -30.5 11t-24.5 32q-14 26 -29.5 39.5t-44.5 13.5q-58 0 -95 -66.5t-37 -201.5v-358q0 -31 6.5 -45t25 -19t60.5 -5
q3 0 3 -6t-3 -6l-68 1q-22 1 -66 1l-59 -1q-16 -1 -44 -1q-3 0 -3 6zM437 353v23q60 0 150 10q3 0 5 -7.5t2 -16.5q0 -10 -3.5 -19.5t-6.5 -7.5q-71 18 -147 18zM642 6q0 6 2 6q34 0 45.5 14t11.5 55v182q0 35 -6.5 50.5t-23.5 15.5q-12 0 -40 -13h-1q-4 0 -6.5 5t0.5 7
l144 67q1 1 3 1q5 0 9 -4.5t4 -7.5v-21q-2 -42 -2 -99v-183q0 -41 11.5 -55t45.5 -14q3 0 3 -6t-3 -6q-25 0 -40 1l-57 1l-58 -1q-15 -1 -40 -1q-2 0 -2 6z" />
    <glyph glyph-name="f_f_j.liga" unicode="ffj" horiz-adv-x="873" 
d="M25 6q0 6 4 6q27 0 40 5.5t18 19.5t5 44v225q0 33 -13 42t-54 9q-3 0 -3 9q0 8 3 8q37 0 50.5 9.5t14.5 34.5q7 140 69.5 206.5t172.5 66.5q46 0 85 -10.5t60 -25.5l-39 -73q-23 41 -60.5 65.5t-77.5 24.5q-58 0 -92.5 -58t-34.5 -175v-358q0 -31 6.5 -45t25 -19t60.5 -5
q4 0 4 -6t-4 -6l-67 1q-22 1 -67 1l-59 -1q-15 -1 -43 -1q-4 0 -4 6zM384.5 336q-4.5 9 -18 12.5t-44.5 4.5q-37 2 -174 2v21q128 0 174 1q40 1 52.5 9t14.5 32l23 -47l-22 -65q-1 21 -5.5 30zM323 6q0 6 3 6q28 0 40.5 5t17.5 19.5t5 44.5v225q0 23 -5.5 33.5t-19 14
t-42.5 3.5q-3 0 -3 9q0 8 3 8q38 0 51.5 9.5t14.5 34.5q6 160 69 234t176 74q72 0 112.5 -21.5t40.5 -54.5q0 -18 -11 -28.5t-31 -10.5q-22 0 -34.5 11t-27.5 34q-16 26 -31 38.5t-43 12.5q-62 0 -99.5 -66t-37.5 -202v-358q0 -31 6.5 -45t25 -19t60.5 -5q3 0 3 -6t-3 -6
l-68 1q-22 1 -66 1l-59 -1q-16 -1 -44 -1q-3 0 -3 6zM622.5 -275.5q-2.5 5.5 0.5 6.5q48 21 68.5 66.5t20.5 131.5v334q0 34 -7 50t-23 16q-13 0 -41 -13h-1q-4 0 -6.5 5.5t1.5 6.5l144 67q1 1 3 1q4 0 8.5 -4.5t4.5 -7.5q0 -12 -1 -21q-2 -42 -2 -99v-312q0 -68 -15 -111
t-50.5 -71.5t-99.5 -49.5q-2 -1 -4.5 4.5zM434 352v24q61 0 153 10q3 0 5 -7t2 -17q0 -9 -3.5 -18t-6.5 -8q-69 16 -150 16z" />
    <glyph glyph-name="f_f_k.liga" unicode="ffk" horiz-adv-x="1109" 
d="M25 6q0 6 4 6q27 0 40 5.5t18 19.5t5 44v225q0 33 -13 42t-54 9q-3 0 -3 9q0 8 3 8q37 0 50.5 9.5t14.5 34.5q7 140 69.5 206.5t172.5 66.5q46 0 85 -10.5t60 -25.5l-39 -73q-23 41 -60.5 65.5t-77.5 24.5q-58 0 -92.5 -58t-34.5 -175v-358q0 -31 6.5 -45t25 -19t60.5 -5
q4 0 4 -6t-4 -6l-67 1q-22 1 -67 1l-59 -1q-15 -1 -43 -1q-4 0 -4 6zM384.5 336q-4.5 9 -18 12.5t-44.5 4.5q-37 2 -174 2v21q128 0 174 1q40 1 52.5 9t14.5 32l23 -47l-22 -65q-1 21 -5.5 30zM323 6q0 6 3 6q28 0 40.5 5t17.5 19.5t5 44.5v225q0 23 -5.5 33.5t-19 14
t-42.5 3.5q-3 0 -3 9q0 8 3 8q38 0 51.5 9.5t14.5 34.5q5 162 59.5 235t165.5 73q97 0 149 -49l-57 -64q-22 45 -53 70.5t-66 25.5q-115 0 -115 -270v-358q0 -31 6.5 -45t25 -19t60.5 -5q3 0 3 -6t-3 -6l-68 1q-22 1 -66 1l-59 -1q-16 -1 -44 -1q-3 0 -3 6zM434 352v24
q61 0 153 10q3 0 5 -7t2 -17q0 -9 -3.5 -18t-6.5 -8q-69 16 -150 16zM888 6q0 6 3 6q41 0 41 21q0 9 -8 20l-123 161l60 46l138 -179q51 -69 111 -69q2 0 2 -6t-2 -6q-25 0 -40 1l-58 1l-76 -1q-16 -1 -45 -1q-3 0 -3 6zM637 6q0 6 3 6q33 0 44.5 14t11.5 55v575
q31 1 50.5 24.5t19.5 49.5q0 3 6 3t6 -3v-649q0 -41 11.5 -55t45.5 -14q3 0 3 -6t-3 -6q-25 0 -40 1l-58 1l-58 -1q-14 -1 -39 -1q-3 0 -3 6zM742 170l142 129q28 24 28 46q0 13 -11 21t-33 8q-3 0 -3 6t3 6q29 0 44 -1l77 -1l70 1q14 1 39 1q2 0 2 -6t-2 -6
q-41 0 -93 -20.5t-97 -59.5l-160 -139z" />
    <glyph glyph-name="f_f_l.liga" unicode="ffl" horiz-adv-x="865" 
d="M25 6q0 6 4 6q27 0 40 5.5t18 19.5t5 44v225q0 33 -13 42t-54 9q-3 0 -3 9q0 8 3 8q37 0 50.5 9.5t14.5 34.5q7 140 69.5 206.5t172.5 66.5q46 0 85 -10.5t60 -25.5l-39 -73q-23 41 -60.5 65.5t-77.5 24.5q-58 0 -92.5 -58t-34.5 -175v-358q0 -31 6.5 -45t25 -19t60.5 -5
q4 0 4 -6t-4 -6l-67 1q-22 1 -67 1l-59 -1q-15 -1 -43 -1q-4 0 -4 6zM384.5 336q-4.5 9 -18 12.5t-44.5 4.5q-37 2 -174 2v21q128 0 174 1q40 1 52.5 9t14.5 32l23 -47l-22 -65q-1 21 -5.5 30zM323 6q0 6 3 6q28 0 40.5 5t17.5 19.5t5 44.5v225q0 23 -5.5 33.5t-19 14
t-42.5 3.5q-3 0 -3 9q0 8 3 8q38 0 51.5 9.5t14.5 34.5q5 163 60.5 235.5t166.5 72.5q98 0 150 -49l-57 -64q-23 46 -54 71t-66 25q-55 0 -86 -65t-31 -205v-358q0 -31 6.5 -45t25 -19t60.5 -5q3 0 3 -6t-3 -6l-68 1q-22 1 -66 1l-59 -1q-16 -1 -44 -1q-3 0 -3 6zM437 353
v23q60 0 150 10q3 0 5 -7.5t2 -16.5q0 -10 -3.5 -19.5t-6.5 -7.5q-71 18 -147 18zM641 6q0 6 3 6q33 0 44.5 14t11.5 55v575q31 1 50.5 24.5t19.5 49.5q0 3 6 3t6 -3v-649q0 -41 11.5 -55t45.5 -14q3 0 3 -6t-3 -6q-25 0 -40 1l-58 1l-58 -1q-14 -1 -39 -1q-3 0 -3 6z" />
    <glyph glyph-name="f_f_thorn.liga" unicode="ff&#xfe;" horiz-adv-x="1117" 
d="M25 6q0 6 4 6q27 0 40 5.5t18 19.5t5 44v225q0 33 -13 42t-54 9q-3 0 -3 9q0 8 3 8q37 0 50.5 9.5t14.5 34.5q7 140 69.5 206.5t172.5 66.5q46 0 85 -10.5t60 -25.5l-39 -73q-23 41 -60.5 65.5t-77.5 24.5q-58 0 -92.5 -58t-34.5 -175v-358q0 -31 6.5 -45t25 -19t60.5 -5
q4 0 4 -6t-4 -6l-67 1q-22 1 -67 1l-59 -1q-15 -1 -43 -1q-4 0 -4 6zM384.5 336q-4.5 9 -18 12.5t-44.5 4.5q-37 2 -174 2v21q128 0 174 1q40 1 52.5 9t14.5 32l23 -47l-22 -65q-1 21 -5.5 30zM323 6q0 6 3 6q28 0 40.5 5t17.5 19.5t5 44.5v225q0 23 -5.5 33.5t-19 14
t-42.5 3.5q-3 0 -3 9q0 8 3 8q38 0 51.5 9.5t14.5 34.5q5 162 59.5 235t165.5 73q97 0 149 -49l-57 -64q-22 45 -53 70.5t-66 25.5q-115 0 -115 -270v-358q0 -31 6.5 -45t25 -19t60.5 -5q3 0 3 -6t-3 -6l-68 1q-22 1 -66 1l-59 -1q-16 -1 -44 -1q-3 0 -3 6zM434 352v24
q61 0 153 10q3 0 5 -7t2 -17q0 -9 -3.5 -18t-6.5 -8q-69 16 -150 16zM633 -269q0 6 2 6q25 0 37 5.5t16.5 19.5t4.5 44v850q31 1 50.5 24.5t19.5 49.5q0 3 6 3t6 -3v-924q0 -30 6.5 -44t25.5 -19.5t60 -5.5q2 0 2 -6t-2 -6q-37 0 -58 1l-76 1l-57 -1q-15 -1 -41 -1
q-2 0 -2 6zM799 -6q-28 7 -66 24l28 61q27 -34 55 -51t71 -17q51 0 80 43.5t29 129.5q0 78 -36 121.5t-91 43.5q-37 0 -65.5 -18t-60.5 -54l-9 10q51 58 97.5 85t95.5 27q42 0 78 -22t57.5 -64t21.5 -98q0 -79 -33.5 -130t-83.5 -74.5t-102 -23.5q-38 0 -66 7z" />
    <glyph glyph-name="f_f_t.liga" unicode="fft" horiz-adv-x="925" 
d="M25 6q0 6 4 6q27 0 40 5.5t18 19.5t5 44v225q0 33 -13 42t-54 9q-3 0 -3 9q0 8 3 8q37 0 50.5 9.5t14.5 34.5q7 140 69.5 206.5t172.5 66.5q46 0 85 -10.5t60 -25.5l-39 -73q-23 41 -60.5 65.5t-77.5 24.5q-58 0 -92.5 -58t-34.5 -175v-358q0 -31 6.5 -45t25 -19t60.5 -5
q4 0 4 -6t-4 -6l-67 1q-22 1 -67 1l-59 -1q-15 -1 -43 -1q-4 0 -4 6zM384.5 336q-4.5 9 -18 12.5t-44.5 4.5q-37 2 -174 2v21q128 0 174 1q40 1 52.5 9t14.5 32l23 -47l-22 -65q-1 21 -5.5 30zM323 6q0 6 3 6q28 0 40.5 5t17.5 19.5t5 44.5v225q0 23 -5.5 33.5t-19 14
t-42.5 3.5q-3 0 -3 9q0 8 3 8q38 0 51.5 9.5t14.5 34.5q5 163 60.5 235.5t168.5 72.5q54 0 85.5 -15.5t31.5 -41.5q0 -20 -14 -31.5t-33 -11.5t-30 10.5t-22 31.5q-10 19 -22.5 29t-33.5 10q-50 0 -79 -66t-29 -202v-358q0 -31 6.5 -45t25 -19t60.5 -5q3 0 3 -6t-3 -6l-68 1
q-22 1 -66 1l-59 -1q-16 -1 -44 -1q-3 0 -3 6zM700.5 8.5q-29.5 20.5 -29.5 68.5v229q0 25 -12.5 34.5t-56.5 12.5t-160 3v21q118 0 170 3q54 3 79.5 19.5t46.5 55.5q1 4 8 4t7 -4v-345q0 -39 19.5 -57.5t54.5 -18.5q47 0 77 28q1 1 3 1q4 0 6.5 -4t-0.5 -6
q-37 -34 -70 -49.5t-70 -15.5q-43 0 -72.5 20.5zM725 352v24q64 0 161 10q3 0 5 -7t2 -17q0 -9 -3.5 -18t-6.5 -8q-73 16 -158 16z" />
    <glyph glyph-name="f_h.liga" unicode="fh" horiz-adv-x="825" 
d="M25 6q0 6 4 6q27 0 40 5.5t18 19.5t5 44v225q0 33 -13 42t-54 9q-3 0 -3 9q0 8 3 8q37 0 50.5 9.5t14.5 34.5q5 162 59.5 235t166.5 73q50 0 87.5 -13.5t60.5 -35.5l-57 -64q-21 45 -52.5 70.5t-65.5 25.5q-116 0 -116 -270v-358q0 -31 6.5 -45t25 -19t60.5 -5q4 0 4 -6
t-4 -6l-67 1q-22 1 -67 1l-59 -1q-15 -1 -43 -1q-4 0 -4 6zM136 352v24q61 0 153 10q3 0 5 -7t2 -17q0 -9 -3 -18t-7 -8q-69 16 -150 16zM340 6q0 6 3 6q33 0 44.5 14t11.5 55v575q30 1 49.5 24.5t19.5 49.5q0 3 6 3t6 -3v-649q0 -41 11.5 -55t45.5 -14q3 0 3 -6t-3 -6
q-25 0 -40 1l-57 1l-58 -1q-14 -1 -39 -1q-3 0 -3 6zM609 6q0 6 3 6q33 0 44.5 14t11.5 55v149q0 56 -21 83t-64 27q-33 0 -66 -18.5t-55 -48.5l-6 12q82 112 177 112q54 0 85 -33t31 -90v-193q0 -41 11.5 -55t45.5 -14q3 0 3 -6t-3 -6q-25 0 -40 1l-57 1l-58 -1
q-14 -1 -39 -1q-3 0 -3 6z" />
    <glyph glyph-name="f_j.liga" unicode="fj" horiz-adv-x="575" 
d="M25 6q0 6 4 6q27 0 40 5.5t18 19.5t5 44v225q0 33 -13 42t-54 9q-3 0 -3 9q0 8 3 8q37 0 50.5 9.5t14.5 34.5q11 308 245 308q72 0 113 -21.5t41 -54.5q0 -18 -11 -28.5t-32 -10.5t-33.5 11t-27.5 34q-16 25 -31.5 38t-43.5 13q-62 0 -99.5 -66t-37.5 -202v-358
q0 -31 6.5 -45t25 -19t60.5 -5q4 0 4 -6t-4 -6l-67 1q-22 1 -67 1l-59 -1q-15 -1 -43 -1q-4 0 -4 6zM325.5 -275.5q-2.5 5.5 0.5 6.5q48 21 68 66.5t20 131.5v334q0 35 -6.5 50.5t-23.5 15.5q-12 0 -40 -13h-1q-4 0 -6.5 5t0.5 7l144 67q1 1 3 1q5 0 9 -4.5t4 -7.5v-21
q-2 -42 -2 -99v-312q0 -68 -15.5 -111t-51 -71.5t-98.5 -49.5q-2 -1 -4.5 4.5zM136 352v24q61 0 153 10q3 0 5 -7t2 -17q0 -9 -3 -18t-7 -8q-69 16 -150 16z" />
    <glyph glyph-name="f_k.liga" unicode="fk" horiz-adv-x="811" 
d="M25 6q0 6 4 6q27 0 40 5.5t18 19.5t5 44v225q0 33 -13 42t-54 9q-3 0 -3 9q0 8 3 8q37 0 50.5 9.5t14.5 34.5q5 162 59.5 235t165.5 73q51 0 88.5 -13.5t60.5 -35.5l-57 -64q-21 45 -52 70.5t-66 25.5q-116 0 -116 -270v-358q0 -31 6.5 -45t25 -19t60.5 -5q4 0 4 -6
t-4 -6l-67 1q-22 1 -67 1l-59 -1q-15 -1 -43 -1q-4 0 -4 6zM136 352v24q61 0 153 10q3 0 5 -7t2 -17q0 -9 -3 -18t-7 -8q-69 16 -150 16zM591 6q0 6 3 6q41 0 41 20q0 9 -9 21l-122 161l60 46l137 -179q51 -69 111 -69q2 0 2 -6t-2 -6q-25 0 -40 1l-57 1l-76 -1
q-16 -1 -45 -1q-3 0 -3 6zM340 6q0 6 3 6q33 0 44.5 14t11.5 55v575q30 1 49.5 24.5t19.5 49.5q0 3 6 3t6 -3v-649q0 -41 11.5 -55t45.5 -14q3 0 3 -6t-3 -6q-25 0 -40 1l-57 1l-58 -1q-14 -1 -39 -1q-3 0 -3 6zM445 170l142 129q28 24 28 46q0 13 -11.5 21t-32.5 8
q-3 0 -3 6t3 6q28 0 44 -1l76 -1l71 1q13 1 38 1q2 0 2 -6t-2 -6q-41 0 -93.5 -20.5t-96.5 -59.5l-160 -139z" />
    <glyph glyph-name="f_thorn.liga" unicode="f&#xfe;" horiz-adv-x="819" 
d="M25 6q0 6 4 6q27 0 40 5.5t18 19.5t5 44v225q0 33 -13 42t-54 9q-3 0 -3 9q0 8 3 8q37 0 50.5 9.5t14.5 34.5q5 162 59.5 235t165.5 73q51 0 88.5 -13.5t60.5 -35.5l-57 -64q-21 45 -52 70.5t-66 25.5q-116 0 -116 -270v-358q0 -31 6.5 -45t25 -19t60.5 -5q4 0 4 -6
t-4 -6l-67 1q-22 1 -67 1l-59 -1q-15 -1 -43 -1q-4 0 -4 6zM136 352v24q61 0 153 10q3 0 5 -7t2 -17q0 -9 -3 -18t-7 -8q-69 16 -150 16zM335 -269q0 6 2 6q25 0 37.5 5.5t17 19.5t4.5 44v850q30 1 49.5 24.5t19.5 49.5q0 3 6 3t6 -3v-924q0 -30 7 -44t26 -19.5t59 -5.5
q3 0 3 -6t-3 -6q-36 0 -57 1l-76 1l-59 -1q-15 -1 -40 -1q-2 0 -2 6zM502.5 -6q-27.5 7 -67.5 24l28 61q27 -34 55 -51t71 -17q51 0 80 43.5t29 129.5q0 78 -36 121.5t-91 43.5q-36 0 -64.5 -18t-60.5 -54l-10 10q51 58 97.5 85t95.5 27q42 0 78 -22t57.5 -64t21.5 -98
q0 -79 -33.5 -130t-83.5 -74.5t-102 -23.5q-37 0 -64.5 7z" />
    <glyph glyph-name="f_t.liga" unicode="ft" horiz-adv-x="627" 
d="M25 6q0 6 4 6q27 0 40 5.5t18 19.5t5 44v225q0 33 -13 42t-54 9q-3 0 -3 9q0 8 3 8q37 0 50.5 9.5t14.5 34.5q5 163 61 235.5t168 72.5q55 0 86 -15.5t31 -41.5q0 -20 -13.5 -31.5t-32.5 -11.5t-31 10.5t-21 31.5q-11 20 -23.5 29.5t-33.5 9.5q-50 0 -79 -66t-29 -202
v-358q0 -31 6.5 -45t25 -19t60.5 -5q4 0 4 -6t-4 -6l-67 1q-22 1 -67 1l-59 -1q-15 -1 -43 -1q-4 0 -4 6zM403 8.5q-29 20.5 -29 68.5v229q0 25 -13 34.5t-56.5 12.5t-159.5 3v21q117 0 169 3q54 3 79.5 19.5t46.5 55.5q1 4 8 4q8 0 8 -4v-345q0 -76 73 -76q24 0 44 7.5
t34 20.5q1 1 3 1q3 0 5.5 -4t-0.5 -6q-37 -34 -69.5 -49.5t-70.5 -15.5q-43 0 -72 20.5zM427 352v24q64 0 161 10q3 0 5.5 -7t2.5 -17q0 -9 -3.5 -18t-7.5 -8q-72 16 -158 16z" />
    <glyph glyph-name="g_g.liga" unicode="gg" horiz-adv-x="887" 
d="M508 -250q-42 31 -42 83q0 77 121 156l11 -12q-25 -16 -39 -37t-14 -52q0 -65 36 -101.5t90 -36.5q58 0 92.5 33t34.5 93q0 40 -19.5 59t-50 23.5t-83.5 4.5q-49 0 -80.5 4.5t-51.5 21t-20 50.5q0 70 95 125l11 -7q-39 -26 -39 -63q0 -34 29.5 -44.5t99.5 -10.5
q54 0 91 -6t63.5 -29.5t26.5 -72.5q0 -56 -34.5 -105t-92.5 -78t-124 -29q-69 0 -111 31zM69.5 -250q-42.5 31 -42.5 83q0 77 122 156l11 -12q-26 -16 -40 -36.5t-14 -52.5q0 -66 36.5 -102t90.5 -36q53 0 84 33t31 93q0 40 -18 59t-46 23.5t-77 4.5t-80.5 4.5t-51.5 21
t-20 50.5q0 70 96 125l10 -7q-39 -27 -39 -63q0 -34 29.5 -44.5t99.5 -10.5q50 0 85 -6t60 -29.5t25 -72.5q0 -56 -33 -105t-88.5 -78t-118.5 -29q-69 0 -111.5 31zM120.5 152q-35.5 19 -54 49.5t-18.5 64.5q0 39 24 67.5t62.5 44t80.5 15.5q48 0 83.5 -17t54.5 -46t19 -62
q0 -39 -23.5 -69.5t-62.5 -48t-82 -17.5q-48 0 -83.5 19zM269.5 173q16.5 23 16.5 72q0 56 -29.5 93t-71.5 37q-52 0 -52 -83q0 -60 27.5 -101t68.5 -41q24 0 40.5 23zM372 383q33 12 71 12q4 0 6 -7.5t2 -18.5q0 -13 -4 -28t-7 -13q-43 16 -84 16q-25 0 -47 -7l-7 -22l1 32
q36 24 69 36zM558 152q-36 19 -54.5 49.5t-18.5 64.5q0 39 24.5 67.5t63 44t80.5 15.5q48 0 83.5 -17t54.5 -46t19 -62q0 -39 -23.5 -69.5t-62 -48t-82.5 -17.5q-48 0 -84 19zM707.5 173q16.5 23 16.5 72q0 56 -29.5 93t-71.5 37q-52 0 -52 -83q0 -60 27.5 -101t68.5 -41
q24 0 40.5 23zM804 383q30 12 65 12q8 0 8 -26q0 -13 -4 -28t-7 -13q-37 16 -73 16q-23 0 -47 -7l-6 -22l1 32q33 24 63 36z" />
    <glyph glyph-name="longs_b.liga" unicode="&#x17f;b" horiz-adv-x="816" 
d="M25 6q0 6 4 6q27 0 40 5.5t18 19.5t5 44v225q0 33 -13 42t-54 9q-3 0 -3 9q0 8 3 8q37 0 51 9.5t14 34.5q4 308 223 308q91 0 140 -49l-58 -64q-20 46 -48 71t-61 25q-53 0 -83 -65t-30 -205v-358q0 -31 6.5 -45t25 -19t60.5 -5q4 0 4 -6t-4 -6l-67 1q-22 1 -67 1l-59 -1
q-15 -1 -43 -1q-4 0 -4 6zM338 -6q-4 0 -5 4t3 5q26 17 38.5 39.5t12.5 60.5v553q30 1 49.5 24.5t19.5 49.5q0 3 6 3t6 -3v-677l-128 -59h-2zM409 45l52 73q24 -57 58 -84.5t72 -27.5q49 0 75 44t26 126q0 88 -31.5 132.5t-84.5 44.5q-57 0 -121 -58l-9 8q41 44 80 70t92 26
q44 0 81.5 -21t60 -63t22.5 -102q0 -72 -31 -123t-80 -77t-104 -26q-90 0 -158 58z" />
    <glyph glyph-name="longs_h.liga" unicode="&#x17f;h" horiz-adv-x="813" 
d="M25 6q0 6 3 6q28 0 40.5 5t17.5 19.5t5 44.5l1 225q0 33 -13 42t-54 9q-3 0 -3 9q0 8 3 8q37 0 51 9.5t14 34.5q4 308 222 308q92 0 141 -49l-58 -64q-20 46 -48 71t-61 25q-113 0 -113 -270v-358q0 -31 6.5 -45t25 -19t60.5 -5q4 0 4 -6t-4 -6l-68 1q-22 1 -66 1l-59 -1
q-16 -1 -44 -1q-3 0 -3 6zM327 6q0 6 3 6q34 0 45.5 14t11.5 55v575q30 1 49.5 24.5t19.5 49.5q0 3 6 3t6 -3v-649q0 -41 11.5 -55t45.5 -14q3 0 3 -6t-3 -6q-25 0 -40 1l-58 1l-57 -1q-15 -1 -40 -1q-3 0 -3 6zM596 6q0 6 3 6q34 0 45.5 14t11.5 55v149q0 56 -21 83t-64 27
q-33 0 -66.5 -18.5t-54.5 -48.5l-5 12q80 112 175 112q55 0 86 -33t31 -90v-193q0 -41 11.5 -55t45.5 -14q3 0 3 -6t-3 -6q-25 0 -40 1l-58 1l-57 -1q-15 -1 -40 -1q-3 0 -3 6z" />
    <glyph glyph-name="longs_i.liga" unicode="&#x17f;i" horiz-adv-x="558" 
d="M24 6q0 6 4 6q27 0 40.5 5.5t18.5 19.5t5 44v225q0 33 -13 42t-54 9q-3 0 -3 9q0 8 3 8q37 0 51 9.5t14 34.5q0 158 60 233t172 75q61 0 96 -19.5t35 -50.5q0 -17 -11.5 -27.5t-31.5 -10.5q-19 0 -30 10.5t-24 32.5q-14 24 -27 35.5t-37 11.5q-52 0 -85.5 -67t-33.5 -202
v-358q0 -31 6 -45t24 -19t58 -5q4 0 4 -6t-4 -6l-66 1q-21 1 -64 1l-60 -1q-16 -1 -43 -1q-4 0 -4 6zM322 6q0 6 2 6q34 0 46 14.5t12 54.5v182q0 35 -6.5 50.5t-23.5 15.5q-13 0 -41 -13h-1q-4 0 -6 5t1 7l143 67q1 1 4 1q4 0 8.5 -4.5t4.5 -7.5v-21q-2 -42 -2 -99v-183
q0 -41 11.5 -55t44.5 -14q4 0 4 -6t-4 -6q-25 0 -39 1l-58 1l-57 -1q-15 -1 -41 -1q-2 0 -2 6z" />
    <glyph glyph-name="longs_j.liga" unicode="&#x17f;j" horiz-adv-x="540" 
d="M24 6q0 6 4 6q27 0 40.5 5.5t18.5 19.5t5 44v225q0 33 -13 42t-54 9q-3 0 -3 9q0 8 3 8q37 0 51 9.5t14 34.5q0 158 60 233t172 75q61 0 96 -19.5t35 -50.5q0 -17 -11.5 -27.5t-31.5 -10.5q-19 0 -30 10.5t-24 32.5q-14 24 -27 35.5t-37 11.5q-52 0 -85.5 -67t-33.5 -202
v-358q0 -31 6 -45t24 -19t58 -5q4 0 4 -6t-4 -6l-66 1q-21 1 -64 1l-60 -1q-16 -1 -43 -1q-4 0 -4 6zM289.5 -275.5q-2.5 5.5 0.5 6.5q48 21 68.5 66.5t20.5 131.5v334q0 35 -6.5 50.5t-23.5 15.5q-13 0 -41 -13h-1q-4 0 -6 5t1 7l144 67q1 1 3 1q4 0 8.5 -4.5t4.5 -7.5
q0 -12 -1 -21q-2 -42 -2 -99v-312q0 -68 -15.5 -111t-50.5 -71.5t-98 -49.5q-3 -1 -5.5 4.5z" />
    <glyph glyph-name="longs_k.liga" unicode="&#x17f;k" horiz-adv-x="799" 
d="M25 6q0 6 4 6q27 0 40 5.5t18 19.5t5 44v225q0 33 -13 42t-54 9q-3 0 -3 9q0 8 3 8q37 0 51 9.5t14 34.5q4 308 223 308q91 0 140 -49l-58 -64q-20 46 -48 71t-61 25q-53 0 -83 -65t-30 -205v-358q0 -31 6.5 -45t25 -19t60.5 -5q4 0 4 -6t-4 -6l-67 1q-22 1 -67 1l-59 -1
q-15 -1 -43 -1q-4 0 -4 6zM580 6q0 6 2 6q41 0 41 20q0 9 -9 21l-122 161l60 46l137 -179q52 -69 111 -69q2 0 2 -6t-2 -6q-25 0 -40 1l-57 1l-76 -1q-16 -1 -45 -1q-2 0 -2 6zM328 6q0 6 3 6q33 0 45 14.5t12 54.5v575q30 1 49 24.5t19 49.5q0 3 6 3t6 -3v-649
q0 -41 11.5 -55t45.5 -14q4 0 4 -6t-4 -6q-25 0 -40 1l-57 1l-57 -1q-15 -1 -40 -1q-3 0 -3 6zM433 170l142 129q28 24 28 47q0 12 -11.5 20t-32.5 8q-3 0 -3 6t3 6q28 0 44 -1l77 -1l70 1q14 1 38 1q3 0 3 -6t-3 -6q-41 0 -93.5 -20.5t-96.5 -59.5l-159 -139z" />
    <glyph glyph-name="longs_l.liga" unicode="&#x17f;l" horiz-adv-x="553" 
d="M25 6q0 6 4 6q27 0 40 5.5t18 19.5t5 44v225q0 33 -13 42t-54 9q-3 0 -3 9q0 8 3 8q37 0 51 9.5t14 34.5q4 159 60 233.5t161 74.5q93 0 142 -49l-58 -64q-21 46 -49 71t-61 25q-51 0 -81.5 -65t-30.5 -205v-358q0 -31 6.5 -45t25 -19t60.5 -5q4 0 4 -6t-4 -6l-67 1
q-22 1 -67 1l-59 -1q-15 -1 -43 -1q-4 0 -4 6zM328 6q0 6 3 6q34 0 45.5 14t11.5 55v575q30 1 49.5 24.5t19.5 49.5q0 3 6 3t6 -3v-649q0 -41 12 -55t46 -14q3 0 3 -6t-3 -6q-26 0 -41 1l-57 1l-57 -1q-15 -1 -41 -1q-3 0 -3 6z" />
    <glyph glyph-name="longs_thorn.liga" unicode="&#x17f;&#xfe;" horiz-adv-x="807" 
d="M23 6q0 6 4 6q28 0 40.5 5t17.5 19.5t5 44.5v225q0 23 -5.5 33.5t-19 14t-42.5 3.5q-2 0 -3 2.5t-1 6.5q0 3 1.5 5.5t2.5 2.5q38 0 51.5 9.5t14.5 34.5q6 308 221 308q92 0 141 -49l-57 -64q-20 46 -48 71t-62 25q-53 0 -82.5 -65t-29.5 -205v-358q0 -31 6 -45t25 -19
t61 -5q3 0 3 -6t-3 -6l-68 1q-22 1 -66 1l-60 -1q-16 -1 -43 -1q-4 0 -4 6zM322 -269q0 6 2 6q25 0 37 5.5t16.5 19.5t4.5 44v850q31 1 50.5 24.5t19.5 49.5q0 3 6 3t6 -3v-924q0 -30 6.5 -44t25.5 -19.5t60 -5.5q2 0 2 -6t-2 -6q-37 0 -58 1l-75 1l-59 -1q-15 -1 -40 -1
q-2 0 -2 6zM489.5 -6q-28.5 7 -66.5 24l28 61q27 -34 55 -51t72 -17q50 0 79 43.5t29 129.5q0 78 -36 121.5t-90 43.5q-37 0 -65.5 -18t-60.5 -54l-10 10q51 58 98 85t95 27q42 0 78 -22t57.5 -64t21.5 -98q0 -79 -33.5 -130t-83.5 -74.5t-102 -23.5q-37 0 -65.5 7z" />
    <glyph glyph-name="longs_longs.liga" unicode="&#x17f;&#x17f;" horiz-adv-x="539" 
d="M25 6q0 6 4 6q27 0 40 5.5t18 19.5t5 44v225q0 23 -5.5 33.5t-18.5 14t-42 3.5q-2 0 -3 2.5t-1 6.5q0 3 1.5 5.5t2.5 2.5q37 0 51 9.5t14 34.5q2 134 66.5 203.5t174.5 69.5q41 0 74 -9.5t51 -22.5l-43 -77q-20 41 -50.5 65.5t-63.5 24.5q-58 0 -92.5 -58t-34.5 -175
v-358q0 -31 5 -45t20.5 -19t50.5 -5q2 0 2 -6t-2 -6l-60 1q-19 1 -58 1l-59 -1q-15 -1 -43 -1q-4 0 -4 6zM300 6q0 6 4 6q28 0 40.5 5t17.5 19.5t5 44.5v225q0 23 -5.5 33.5t-19 14t-42.5 3.5q-2 0 -3 2.5t-1 6.5q0 3 1.5 5.5t2.5 2.5q38 0 52 9.5t15 34.5q5 165 58.5 236.5
t159.5 71.5q51 0 79.5 -15.5t28.5 -41.5q0 -20 -14 -31.5t-33 -11.5t-29 10t-20 31q-11 21 -21 30.5t-29 9.5q-46 0 -72 -65t-26 -203v-358q0 -31 5.5 -45t21.5 -19t53 -5q3 0 3 -6t-3 -6l-62 1q-20 1 -60 1l-60 -1q-16 -1 -43 -1q-4 0 -4 6z" />
    <glyph glyph-name="longs_longs_b.liga" unicode="&#x17f;&#x17f;b" horiz-adv-x="1102" 
d="M25 6q0 6 4 6q27 0 40 5.5t18 19.5t5 44v225q0 23 -5.5 33.5t-18.5 14t-42 3.5q-2 0 -3 2.5t-1 6.5q0 3 1.5 5.5t2.5 2.5q37 0 51 9.5t14 34.5q2 134 66.5 203.5t174.5 69.5q41 0 74 -9.5t51 -22.5l-43 -77q-20 41 -50.5 65.5t-63.5 24.5q-58 0 -92.5 -58t-34.5 -175
v-358q0 -31 5 -45t20.5 -19t50.5 -5q2 0 2 -6t-2 -6l-60 1q-19 1 -58 1l-59 -1q-15 -1 -43 -1q-4 0 -4 6zM312 6q0 6 4 6q27 0 40 5.5t18 19.5t5 44v225q0 33 -13 42t-54 9q-3 0 -3 9q0 8 3 8q37 0 51 9.5t14 34.5q4 308 223 308q91 0 140 -49l-58 -64q-20 46 -48 71t-61 25
q-53 0 -83 -65t-30 -205v-358q0 -31 6.5 -45t25 -19t60.5 -5q4 0 4 -6t-4 -6l-67 1q-22 1 -67 1l-59 -1q-15 -1 -43 -1q-4 0 -4 6zM625 -6q-4 0 -5 4t3 5q26 17 38.5 39.5t12.5 60.5v553q30 1 49.5 24.5t19.5 49.5q0 3 6 3t6 -3v-677l-128 -59h-2zM696 45l52 73
q24 -57 58 -84.5t72 -27.5q49 0 75 44t26 126q0 88 -31.5 132.5t-84.5 44.5q-57 0 -121 -58l-9 8q41 44 80 70t92 26q44 0 81.5 -21t60 -63t22.5 -102q0 -72 -31 -123t-80 -77t-104 -26q-90 0 -158 58z" />
    <glyph glyph-name="longs_longs_h.liga" unicode="&#x17f;&#x17f;h" horiz-adv-x="1100" 
d="M25 6q0 6 4 6q27 0 40 5.5t18 19.5t5 44v225q0 23 -5.5 33.5t-18.5 14t-42 3.5q-2 0 -3 2.5t-1 6.5q0 3 1.5 5.5t2.5 2.5q37 0 51 9.5t14 34.5q2 134 66.5 203.5t174.5 69.5q41 0 74 -9.5t51 -22.5l-43 -77q-20 41 -50.5 65.5t-63.5 24.5q-58 0 -92.5 -58t-34.5 -175
v-358q0 -31 5 -45t20.5 -19t50.5 -5q2 0 2 -6t-2 -6l-60 1q-19 1 -58 1l-59 -1q-15 -1 -43 -1q-4 0 -4 6zM312 6q0 6 3 6q28 0 40.5 5t17.5 19.5t5 44.5l1 225q0 33 -13 42t-54 9q-3 0 -3 9q0 8 3 8q37 0 51 9.5t14 34.5q4 308 222 308q92 0 141 -49l-58 -64q-20 46 -48 71
t-61 25q-113 0 -113 -270v-358q0 -31 6.5 -45t25 -19t60.5 -5q4 0 4 -6t-4 -6l-68 1q-22 1 -66 1l-59 -1q-16 -1 -44 -1q-3 0 -3 6zM614 6q0 6 3 6q34 0 45.5 14t11.5 55v575q30 1 49.5 24.5t19.5 49.5q0 3 6 3t6 -3v-649q0 -41 11.5 -55t45.5 -14q3 0 3 -6t-3 -6
q-25 0 -40 1l-58 1l-57 -1q-15 -1 -40 -1q-3 0 -3 6zM883 6q0 6 3 6q34 0 45.5 14t11.5 55v149q0 56 -21 83t-64 27q-33 0 -66.5 -18.5t-54.5 -48.5l-5 12q80 112 175 112q55 0 86 -33t31 -90v-193q0 -41 11.5 -55t45.5 -14q3 0 3 -6t-3 -6q-25 0 -40 1l-58 1l-57 -1
q-15 -1 -40 -1q-3 0 -3 6z" />
    <glyph glyph-name="longs_longs_i.liga" unicode="&#x17f;&#x17f;i" horiz-adv-x="838" 
d="M25 6q0 6 4 6q27 0 40 5.5t18 19.5t5 44v225q0 23 -5.5 33.5t-18.5 14t-42 3.5q-2 0 -3 2.5t-1 6.5q0 3 1.5 5.5t2.5 2.5q37 0 51 9.5t14 34.5q2 134 66.5 203.5t174.5 69.5q41 0 74 -9.5t51 -22.5l-43 -77q-20 41 -50.5 65.5t-63.5 24.5q-58 0 -92.5 -58t-34.5 -175
v-358q0 -31 5 -45t20.5 -19t50.5 -5q2 0 2 -6t-2 -6l-60 1q-19 1 -58 1l-59 -1q-15 -1 -43 -1q-4 0 -4 6zM305 6q0 6 4 6q27 0 40.5 5.5t18.5 19.5t5 44v225q0 33 -13 42t-54 9q-3 0 -3 9q0 8 3 8q37 0 51 9.5t14 34.5q0 158 60 233t172 75q61 0 96 -19.5t35 -50.5
q0 -17 -11.5 -27.5t-31.5 -10.5q-19 0 -30 10.5t-24 32.5q-14 24 -27 35.5t-37 11.5q-52 0 -85.5 -67t-33.5 -202v-358q0 -31 6 -45t24 -19t58 -5q4 0 4 -6t-4 -6l-66 1q-21 1 -64 1l-60 -1q-16 -1 -43 -1q-4 0 -4 6zM603 6q0 6 2 6q34 0 46 14.5t12 54.5v182
q0 35 -6.5 50.5t-23.5 15.5q-13 0 -41 -13h-1q-4 0 -6 5t1 7l143 67q1 1 4 1q4 0 8.5 -4.5t4.5 -7.5v-21q-2 -42 -2 -99v-183q0 -41 11.5 -55t44.5 -14q4 0 4 -6t-4 -6q-25 0 -39 1l-58 1l-57 -1q-15 -1 -41 -1q-2 0 -2 6z" />
    <glyph glyph-name="longs_longs_j.liga" unicode="&#x17f;&#x17f;j" horiz-adv-x="821" 
d="M25 6q0 6 4 6q27 0 40 5.5t18 19.5t5 44v225q0 23 -5.5 33.5t-18.5 14t-42 3.5q-2 0 -3 2.5t-1 6.5q0 3 1.5 5.5t2.5 2.5q37 0 51 9.5t14 34.5q2 134 66.5 203.5t174.5 69.5q41 0 74 -9.5t51 -22.5l-43 -77q-20 41 -50.5 65.5t-63.5 24.5q-58 0 -92.5 -58t-34.5 -175
v-358q0 -31 5 -45t20.5 -19t50.5 -5q2 0 2 -6t-2 -6l-60 1q-19 1 -58 1l-59 -1q-15 -1 -43 -1q-4 0 -4 6zM305 6q0 6 4 6q27 0 40.5 5.5t18.5 19.5t5 44v225q0 33 -13 42t-54 9q-3 0 -3 9q0 8 3 8q37 0 51 9.5t14 34.5q0 158 60 233t172 75q61 0 96 -19.5t35 -50.5
q0 -17 -11.5 -27.5t-31.5 -10.5q-19 0 -30 10.5t-24 32.5q-14 24 -27 35.5t-37 11.5q-52 0 -85.5 -67t-33.5 -202v-358q0 -31 6 -45t24 -19t58 -5q4 0 4 -6t-4 -6l-66 1q-21 1 -64 1l-60 -1q-16 -1 -43 -1q-4 0 -4 6zM570.5 -275.5q-2.5 5.5 0.5 6.5q48 21 68.5 66.5
t20.5 131.5v334q0 35 -6.5 50.5t-23.5 15.5q-13 0 -41 -13h-1q-4 0 -6 5t1 7l144 67q1 1 3 1q4 0 8.5 -4.5t4.5 -7.5q0 -12 -1 -21q-2 -42 -2 -99v-312q0 -68 -15.5 -111t-50.5 -71.5t-98 -49.5q-3 -1 -5.5 4.5z" />
    <glyph glyph-name="longs_longs_k.liga" unicode="&#x17f;&#x17f;k" horiz-adv-x="1080" 
d="M25 6q0 6 4 6q27 0 40 5.5t18 19.5t5 44v225q0 23 -5.5 33.5t-18.5 14t-42 3.5q-2 0 -3 2.5t-1 6.5q0 3 1.5 5.5t2.5 2.5q37 0 51 9.5t14 34.5q2 134 66.5 203.5t174.5 69.5q41 0 74 -9.5t51 -22.5l-43 -77q-20 41 -50.5 65.5t-63.5 24.5q-58 0 -92.5 -58t-34.5 -175
v-358q0 -31 5 -45t20.5 -19t50.5 -5q2 0 2 -6t-2 -6l-60 1q-19 1 -58 1l-59 -1q-15 -1 -43 -1q-4 0 -4 6zM306 6q0 6 4 6q27 0 40 5.5t18 19.5t5 44v225q0 33 -13 42t-54 9q-3 0 -3 9q0 8 3 8q37 0 51 9.5t14 34.5q4 308 223 308q91 0 140 -49l-58 -64q-20 46 -48 71t-61 25
q-53 0 -83 -65t-30 -205v-358q0 -31 6.5 -45t25 -19t60.5 -5q4 0 4 -6t-4 -6l-67 1q-22 1 -67 1l-59 -1q-15 -1 -43 -1q-4 0 -4 6zM861 6q0 6 2 6q41 0 41 20q0 9 -9 21l-122 161l60 46l137 -179q52 -69 111 -69q2 0 2 -6t-2 -6q-25 0 -40 1l-57 1l-76 -1q-16 -1 -45 -1
q-2 0 -2 6zM609 6q0 6 3 6q33 0 45 14.5t12 54.5v575q30 1 49 24.5t19 49.5q0 3 6 3t6 -3v-649q0 -41 11.5 -55t45.5 -14q4 0 4 -6t-4 -6q-25 0 -40 1l-57 1l-57 -1q-15 -1 -40 -1q-3 0 -3 6zM714 170l142 129q28 24 28 47q0 12 -11.5 20t-32.5 8q-3 0 -3 6t3 6q28 0 44 -1
l77 -1l70 1q14 1 38 1q3 0 3 -6t-3 -6q-41 0 -93.5 -20.5t-96.5 -59.5l-159 -139z" />
    <glyph glyph-name="longs_longs_l.liga" unicode="&#x17f;&#x17f;l" horiz-adv-x="833" 
d="M25 6q0 6 4 6q27 0 40 5.5t18 19.5t5 44v225q0 23 -5.5 33.5t-18.5 14t-42 3.5q-2 0 -3 2.5t-1 6.5q0 3 1.5 5.5t2.5 2.5q37 0 51 9.5t14 34.5q2 134 66.5 203.5t174.5 69.5q41 0 74 -9.5t51 -22.5l-43 -77q-20 41 -50.5 65.5t-63.5 24.5q-58 0 -92.5 -58t-34.5 -175
v-358q0 -31 5 -45t20.5 -19t50.5 -5q2 0 2 -6t-2 -6l-60 1q-19 1 -58 1l-59 -1q-15 -1 -43 -1q-4 0 -4 6zM306 6q0 6 4 6q27 0 40 5.5t18 19.5t5 44v225q0 33 -13 42t-54 9q-3 0 -3 9q0 8 3 8q37 0 51 9.5t14 34.5q4 159 60 233.5t161 74.5q93 0 142 -49l-58 -64
q-21 46 -49 71t-61 25q-51 0 -81.5 -65t-30.5 -205v-358q0 -31 6.5 -45t25 -19t60.5 -5q4 0 4 -6t-4 -6l-67 1q-22 1 -67 1l-59 -1q-15 -1 -43 -1q-4 0 -4 6zM609 6q0 6 3 6q34 0 45.5 14t11.5 55v575q30 1 49.5 24.5t19.5 49.5q0 3 6 3t6 -3v-649q0 -41 12 -55t46 -14
q3 0 3 -6t-3 -6q-26 0 -41 1l-57 1l-57 -1q-15 -1 -41 -1q-3 0 -3 6z" />
    <glyph glyph-name="longs_longs_thorn.liga" unicode="&#x17f;&#x17f;&#xfe;" horiz-adv-x="1085" 
d="M22 6q0 6 4 6q27 0 40 5.5t18 19.5t5 44v225q0 23 -5.5 33.5t-18.5 14t-42 3.5q-2 0 -3 2.5t-1 6.5q0 3 1.5 5.5t2.5 2.5q37 0 51 9.5t15 34.5q1 134 65.5 203.5t174.5 69.5q41 0 74 -9.5t51 -22.5l-43 -77q-20 41 -50.5 65.5t-63.5 24.5q-58 0 -92.5 -58t-34.5 -175
v-358q0 -31 5 -45t20.5 -19t50.5 -5q2 0 2 -6t-2 -6l-60 1q-19 1 -58 1l-58 -1q-16 -1 -44 -1q-4 0 -4 6zM302 6q0 6 3 6q28 0 40.5 5t17.5 19.5t5 44.5v225q0 23 -5.5 33.5t-19 14t-42.5 3.5q-3 0 -3 9q0 8 3 8q38 0 51.5 9.5t14.5 34.5q6 308 221 308q92 0 141 -49
l-57 -64q-20 46 -48 71t-62 25q-53 0 -82.5 -65t-29.5 -205v-358q0 -31 6 -45t25 -19t61 -5q3 0 3 -6t-3 -6l-68 1q-22 1 -66 1l-60 -1q-16 -1 -43 -1q-3 0 -3 6zM600 -269q0 6 2 6q25 0 37 5.5t16.5 19.5t4.5 44v850q31 1 50.5 24.5t19.5 49.5q0 3 6 3t6 -3v-924
q0 -30 6.5 -44t25.5 -19.5t60 -5.5q2 0 2 -6t-2 -6q-37 0 -57 1l-76 1l-59 -1q-15 -1 -40 -1q-2 0 -2 6zM767.5 -6q-28.5 7 -66.5 24l28 61q27 -34 55 -51t72 -17q50 0 79 43.5t29 129.5q0 78 -36 121.5t-90 43.5q-37 0 -65.5 -18t-60.5 -54l-10 10q51 58 98 85t95 27
q42 0 78 -22t57.5 -64t21.5 -98q0 -79 -33.5 -130t-83.5 -74.5t-102 -23.5q-37 0 -65.5 7z" />
    <glyph glyph-name="fi.liga" unicode="fi" horiz-adv-x="569" 
d="M25 6q0 6 4 6q27 0 40 5.5t18 19.5t5 44v225q0 33 -13 42t-54 9q-3 0 -3 9q0 8 3 8q37 0 50.5 9.5t14.5 34.5q6 161 69 234.5t179 73.5q63 0 101 -21.5t38 -54.5q0 -18 -11 -28.5t-32 -10.5q-19 0 -30.5 11t-24.5 32q-14 26 -29.5 39.5t-44.5 13.5q-58 0 -95 -66.5
t-37 -201.5v-358q0 -31 6.5 -45t25 -19t60.5 -5q4 0 4 -6t-4 -6l-67 1q-22 1 -67 1l-59 -1q-15 -1 -43 -1q-4 0 -4 6zM140 353v23q59 0 149 10q3 0 5 -7.5t2 -16.5q0 -10 -3.5 -19.5t-6.5 -7.5q-71 18 -146 18zM344 6q0 6 3 6q34 0 45.5 14t11.5 55v182q0 35 -6.5 50.5
t-23.5 15.5q-13 0 -41 -13h-1q-4 0 -6 5t1 7l144 67q1 1 3 1q4 0 8.5 -4.5t4.5 -7.5q0 -12 -1 -21q-2 -42 -2 -99v-183q0 -41 11.5 -55t45.5 -14q4 0 4 -6t-4 -6q-25 0 -40 1l-57 1l-57 -1q-15 -1 -40 -1q-3 0 -3 6z" />
    <glyph glyph-name="fl.liga" unicode="fl" horiz-adv-x="567" 
d="M25 6q0 6 4 6q27 0 40 5.5t18 19.5t5 44v225q0 33 -13 42t-54 9q-3 0 -3 9q0 8 3 8q37 0 50.5 9.5t14.5 34.5q5 163 60.5 235.5t166.5 72.5q98 0 150 -49l-56 -64q-23 46 -54.5 71t-66.5 25q-55 0 -86 -65t-31 -205v-358q0 -31 6.5 -45t25 -19t60.5 -5q4 0 4 -6t-4 -6
l-67 1q-22 1 -67 1l-59 -1q-15 -1 -43 -1q-4 0 -4 6zM140 353v23q59 0 149 10q3 0 5 -7.5t2 -16.5q0 -10 -3.5 -19.5t-6.5 -7.5q-71 18 -146 18zM343 6q0 6 3 6q34 0 45.5 14t11.5 55v575q30 1 50 25t20 49q0 3 6 3t6 -3v-649q0 -41 11.5 -55t45.5 -14q3 0 3 -6t-3 -6
q-25 0 -40 1l-59 1l-56 -1q-15 -1 -41 -1q-3 0 -3 6z" />
    <glyph glyph-name=".notdef" horiz-adv-x="501" 
d="M94 725h317v-1000h-317v1000zM233 626v-38h-66v-32h166v32h-66v38h66v32h-165v-32h65zM333 426v34h-66v69h-100v-103h166zM200 495h33v-35h-33v35zM233 365v-36h-66v-34h100v70h66v33h-166v-33h66zM167 273v-34h166v99h-32v-65h-134zM267 160v24h34v-48h-101v80h-33v-113
h166v113h-100v-56h34zM333 -70v113h-166v-113h166zM200 11h101v-48h-101v48zM237 -126l-70 -47v-33h166v33h-101l69 47h32v34h-166v-34h70z" />
    <glyph glyph-name=".null" horiz-adv-x="0" 
 />
    <glyph glyph-name="nonmarkingreturn" horiz-adv-x="333" 
 />
    <glyph glyph-name="space" unicode=" " horiz-adv-x="234" 
 />
    <glyph glyph-name="exclam" unicode="!" horiz-adv-x="258" 
d="M86 626q20 3 43 3q22 0 42.5 -3.5t19.5 -8.5q-20 -78 -29.5 -168t-19.5 -228l-2 -32q0 -4 -13 -4q-14 0 -14 4q-7 140 -16.5 241.5t-29.5 186.5q-1 6 19 9zM83 4q-15 15 -15 40q0 24 15 38t40 14q26 0 40 -14t14 -38q0 -26 -14 -40.5t-40 -14.5q-25 0 -40 15z" />
    <glyph glyph-name="quotedbl" unicode="&#x22;" horiz-adv-x="295" 
d="M62.5 629q30.5 11 53.5 11q15 0 14 -7l-59 -267q-2 -2 -8.5 -3t-6.5 2l-23 242q-1 11 29.5 22zM211 629q30 11 53 11q16 0 15 -7l-59 -267q-2 -2 -8.5 -3t-6.5 2l-23 242q-1 11 29 22z" />
    <glyph glyph-name="numbersign" unicode="#" horiz-adv-x="526" 
d="M123 -82.5q-24 3.5 -22 7.5l99 557q0 5 23 -0.5t22 -9.5l-98 -554q0 -4 -24 -0.5zM310 -82.5q-24 3.5 -22 7.5l99 557q0 5 23 -0.5t22 -9.5l-98 -554q0 -4 -24 -0.5zM59.5 82.5q-1.5 7.5 -1.5 16.5q0 8 1 14.5t3 6.5h366q2 0 3.5 -7t1.5 -15q0 -9 -1.5 -16t-3.5 -7h-365
q-2 0 -3.5 7.5zM94.5 281.5q-1.5 7.5 -1.5 16.5q0 7 1.5 13.5t2.5 6.5h366q2 0 3.5 -7t1.5 -15t-1.5 -15t-3.5 -7h-365q-2 0 -3.5 7.5z" />
    <glyph glyph-name="dollar" unicode="$" horiz-adv-x="418" 
d="M208 567q4 2 10 2q5 0 9 -2t4 -6v-663q0 -7 -13 -7q-14 0 -14 7v663q0 4 4 6zM148 340q16 -21 40 -35.5t64 -34.5q43 -22 68.5 -39t43.5 -42.5t18 -60.5q0 -39 -22 -71t-62 -50.5t-91 -18.5q-42 0 -81.5 10.5t-58.5 25.5q-8 5 -8 21l-7 108q0 4 5 5t7 -3q27 -60 68 -103
t92 -43q34 0 57 19t23 58q0 32 -17 56t-41.5 40.5t-65.5 38.5q-39 21 -63 37.5t-40.5 40.5t-16.5 56q0 58 48.5 91.5t117.5 33.5q29 0 60.5 -6.5t53.5 -16.5q9 -4 12 -8t3 -11l3 -92q0 -4 -5 -5t-7 2q-6 20 -24 47t-47.5 48.5t-66.5 21.5t-56.5 -19.5t-19.5 -50.5
q0 -29 16 -50z" />
    <glyph glyph-name="percent" unicode="%" horiz-adv-x="574" 
d="M57.5 340.5q-36.5 37.5 -36.5 92.5q0 53 36.5 90t92.5 37q55 0 91 -37.5t36 -92.5q0 -54 -36 -90.5t-91 -36.5q-56 0 -92.5 37.5zM194 344q9 27 9 79q0 60 -15 91.5t-44 31.5t-39.5 -29t-10.5 -81q0 -119 63 -119q28 0 37 27zM334.5 32.5q-36.5 37.5 -36.5 92.5
q0 53 37 90.5t92 37.5t91 -38t36 -92t-36 -91t-91 -37q-56 0 -92.5 37.5zM471 36.5q9 26.5 9 79.5q0 60 -15 91t-44 31q-28 0 -38.5 -29t-10.5 -80q0 -119 62 -119q28 0 37 26.5zM93 -1q-14 9 -12 12l370 544q3 3 17 -7t12 -12l-371 -543q-2 -3 -16 6z" />
    <glyph glyph-name="ampersand" unicode="&#x26;" horiz-adv-x="709" 
d="M339.5 596q-21.5 25 -56.5 25q-61 0 -61 -80q0 -101 83 -211t206 -203q66 -49 119 -78.5t85 -36.5q4 -1 3.5 -6.5t-3.5 -5.5h-144q-43 0 -161 96q-74 59 -140.5 130.5t-100.5 135.5q-14 29 -21.5 54.5t-7.5 53.5q0 50 22.5 90t64 63t96.5 23q57 0 92.5 -25t35.5 -75
q0 -38 -20 -69t-49.5 -54t-78.5 -56q-50 -33 -79.5 -57t-50 -56t-20.5 -71q0 -40 22 -75.5t63 -56.5t94 -21q85 0 131.5 57t46.5 152q0 51 -17.5 74.5t-60.5 23.5q-2 0 -2.5 6t2.5 6l228 1q4 0 4 -6t-4 -6q-31 0 -46.5 -6.5t-22.5 -20t-16 -43.5q-20 -72 -50.5 -131.5
t-94 -104t-164.5 -44.5q-67 0 -112 20.5t-67 53.5t-22 71q0 37 19 68.5t47.5 56.5t75.5 60q51 38 81.5 65.5t51.5 63.5t21 80t-21.5 69z" />
    <glyph glyph-name="quotesingle" unicode="'" horiz-adv-x="147" 
d="M62.5 629q30.5 11 53.5 11q15 0 14 -7l-59 -267q-2 -2 -8.5 -3t-6.5 2l-23 242q-1 11 29.5 22z" />
    <glyph glyph-name="parenleft" unicode="(" horiz-adv-x="309" 
d="M110 559q59 113 164 166q2 1 4 -1.5t0 -4.5q-67 -70 -98 -173.5t-31 -241.5t31 -241.5t98 -173.5q2 -1 0 -4t-4 -2q-105 54 -164 166.5t-59 254.5t59 255z" />
    <glyph glyph-name="parenright" unicode=")" horiz-adv-x="309" 
d="M199 49q-59 -113 -164 -166q-2 -1 -4 1.5t0 4.5q67 70 98 173.5t31 241.5t-31 241.5t-98 173.5q-2 1 0 4t4 2q105 -54 164 -166.5t59 -254.5t-59 -255z" />
    <glyph glyph-name="asterisk" unicode="*" horiz-adv-x="448" 
d="M142 368q-13 0 -36 9t-40 19.5t-13 12.5l153 82l2 1q3 0 5.5 -2.5t1.5 -4.5l-63 -113q-1 -4 -10 -4zM235 486.5q4 3.5 6 1.5l89 -95q6 -7 -9.5 -29t-35.5 -40.5t-21 -12.5l-32 170q-1 2 3 5.5zM66 569q0 25 5.5 50.5t9.5 21.5l126 -121q2 -1 0.5 -5.5t-3.5 -3.5l-128 24
q-10 1 -10 34zM247 508q-1 4 1 5l117 56q9 4 25.5 -18t28 -46.5t5.5 -24.5l-174 24q-2 0 -3 4zM244 678.5q35 10.5 58 10.5q11 0 10 -4l-76 -156q-1 -3 -5.5 -3t-4.5 3l-16 128q-1 11 34 21.5z" />
    <glyph glyph-name="plus" unicode="+" horiz-adv-x="398" 
d="M30.5 174.5q-1.5 7.5 -1.5 16.5q0 8 1 14.5t3 6.5h331q2 0 3.5 -7t1.5 -15q0 -9 -1.5 -16t-3.5 -7h-330q-2 0 -3.5 7.5zM213.5 21.5q-8.5 -1.5 -17.5 -1.5q-20 0 -20 3v331q0 2 7.5 3.5t15.5 1.5q9 0 16 -1.5t7 -3.5v-329q0 -2 -8.5 -3.5z" />
    <glyph glyph-name="comma" unicode="," horiz-adv-x="222" 
d="M153.5 70.5q18.5 -23.5 18.5 -70.5q0 -50 -23.5 -95.5t-67.5 -90.5q-1 -1 -3 -1q-3 0 -4.5 2.5t-0.5 5.5q25 32 34.5 63.5t9.5 68.5q0 28 -6 42.5t-17 24.5l37 7q1 -17 -9.5 -26t-28.5 -9q-24 0 -37 13.5t-13 36.5q0 25 15.5 38.5t42.5 13.5q34 0 52.5 -23.5z" />
    <glyph glyph-name="hyphen" unicode="-" horiz-adv-x="323" 
d="M28.5 166.5q-1.5 9.5 -1.5 19.5q0 22 3 22l261 47q2 1 3.5 -7t1.5 -17t-1.5 -17t-3.5 -9l-259 -47q-2 -1 -3.5 8.5z" />
    <glyph glyph-name="period" unicode="." horiz-adv-x="204" 
d="M63 4q-15 15 -15 40q0 24 15 38t40 14q26 0 40 -14t14 -38q0 -26 -14 -40.5t-40 -14.5q-25 0 -40 15z" />
    <glyph glyph-name="slash" unicode="/" horiz-adv-x="348" 
d="M47 -162q-22 6 -21 10l252 882q2 4 23.5 -2t20.5 -11l-251 -881q-2 -4 -24 2z" />
    <glyph glyph-name="zero" unicode="0" horiz-adv-x="477" 
d="M131 14q-48 27 -75 74.5t-27 106.5t27 105.5t75 72.5t109 26t108 -26.5t73.5 -73.5t26.5 -106t-26.5 -106t-74 -73.5t-107.5 -26.5q-61 0 -109 27zM327 52q26 46 26 128q0 100 -34.5 150t-87.5 50q-52 0 -80 -47.5t-28 -127.5q0 -88 35 -143.5t92 -55.5q51 0 77 46z" />
    <glyph glyph-name="one" unicode="1" horiz-adv-x="332" 
d="M120.5 350q-5.5 14 -22 19t-53.5 5q-2 0 -2 6t2 6q32 0 50 -1l71 -1l70 1q19 1 51 1q3 0 3 -6t-3 -6q-35 0 -51.5 -5.5t-23 -19.5t-6.5 -44v-224q0 -31 5.5 -45t22 -19t53.5 -5q3 0 3 -6t-3 -6q-32 0 -50 1l-71 1l-70 -1q-19 -1 -51 -1q-2 0 -2 6t2 6q35 0 51.5 5.5
t23 19.5t6.5 44v224q0 31 -5.5 45z" />
    <glyph glyph-name="two" unicode="2" horiz-adv-x="402" 
d="M167.5 142.5q42.5 42.5 60.5 73.5t18 63q0 39 -21 65.5t-57 26.5q-38 0 -63.5 -32.5t-46.5 -97.5q0 -1 -4 -1q-9 0 -8 4l42 164q0 2 4 2q3 0 5.5 -1.5t1.5 -2.5q-1 -5 -1 -12q0 -16 15 -16q9 0 30 7q44 14 77 14q54 0 84.5 -26.5t30.5 -69.5q0 -36 -22 -69.5t-54 -61.5
t-87 -69l-36 -27q-3 -3 -1.5 -5t6.5 -2q90 0 131.5 3t63.5 14.5t29 38.5q0 2 5 2q7 0 7 -3l-19 -113q0 -4 -2.5 -7.5t-6.5 -3.5h-306q-5 0 -7.5 9.5t1.5 13.5q88 77 130.5 119.5z" />
    <glyph glyph-name="three" unicode="3" horiz-adv-x="392" 
d="M49.5 -270.5q-2.5 5.5 1.5 6.5q113 42 162 108.5t49 132.5q0 57 -29.5 93t-82.5 36q-20 0 -43 -6q-3 -1 -5 5t1 7q72 19 104.5 55.5t32.5 100.5q0 50 -17 77.5t-52 27.5q-42 0 -75 -29t-54 -86q-1 -1 -4 -1q-9 0 -8 4l37 146q2 2 4 2q3 0 6 -1.5t2 -2.5q-2 -8 -2 -11
q0 -17 17 -17q12 0 33 8q23 7 39.5 10.5t37.5 3.5q58 0 91 -33.5t33 -80.5q0 -57 -40.5 -104.5t-108.5 -61.5l6 15q85 -2 129 -44t44 -101q0 -48 -33 -97.5t-101 -93.5t-168 -73q-4 -1 -6.5 4.5z" />
    <glyph glyph-name="four" unicode="4" horiz-adv-x="454" 
d="M24 12q-3 4 1 8l304 376q2 2 6 2q3 0 6 -1.5t3 -4.5v-533q0 -11 -8 -14l-66 -33l-6 -2q-3 0 -3 8v473l63 47l-240 -290q-6 -7 5 -7q164 0 329 6q4 0 4 -17q0 -10 -2 -19.5t-4 -9.5q-74 4 -155 5.5t-229 1.5q-5 0 -8 4z" />
    <glyph glyph-name="five" unicode="5" horiz-adv-x="409" 
d="M289.5 146q67.5 -50 67.5 -137q0 -57 -29.5 -103.5t-92.5 -90t-167 -90.5h-1q-4 0 -6.5 4.5t1.5 6.5q113 61 159 123.5t46 132.5q0 83 -51.5 129t-147.5 46q-5 0 -8 3.5t-2 8.5l32 178q1 7 3 8.5t10 2.5q126 15 169 21t55.5 12.5t17.5 21.5q1 3 6.5 2.5t4.5 -4.5l-20 -98
q-3 -11 -9 -14.5t-19 -3.5l-190 -4q-13 0 -15 -14l-20 -111l-5 20q144 0 211.5 -50z" />
    <glyph glyph-name="six" unicode="6" horiz-adv-x="465" 
d="M404 248.5q33 -37.5 33 -89.5q0 -47 -28 -86.5t-75.5 -62.5t-103.5 -23q-88 0 -139 58.5t-51 161.5q0 94 43.5 184.5t125 161.5t191.5 108q4 1 6 -4t-1 -7q-89 -43 -151 -112.5t-93.5 -151.5t-31.5 -164q0 -91 35 -152t93 -61q42 0 66.5 32.5t24.5 89.5q0 54 -22.5 86
t-67.5 32q-20 0 -38.5 -8t-42.5 -26q-1 -1 -3 -1q-3 0 -5.5 3t-1.5 5q56 64 138 64q66 0 99 -37.5z" />
    <glyph glyph-name="seven" unicode="7" horiz-adv-x="429" 
d="M151 -238l-71 -37h-1q-2 0 -4.5 2.5t-1.5 4.5l262 572q4 7 -4 7q-144 0 -200 -4t-74.5 -17t-28.5 -47q0 -2 -4 -2q-3 0 -5.5 1.5t-1.5 3.5l41 167q1 2 7 1.5t5 -2.5q-1 -4 -1 -10q0 -10 9.5 -13t38.5 -3h265q4 0 7.5 -4.5t1.5 -8.5l-219 -587q-6 -17 -21 -24z" />
    <glyph glyph-name="eight" unicode="8" horiz-adv-x="489" 
d="M327 453q0 45 -24 73.5t-59 28.5q-30 0 -49 -19t-19 -49t18 -54t44 -42.5t70 -44.5q50 -30 80 -52t51 -55t21 -76q0 -50 -29.5 -90.5t-80 -63t-109.5 -22.5t-105 22.5t-71 60.5t-25 82q0 64 49.5 120t125.5 80l6 -9q-42 -23 -66.5 -67t-24.5 -97q0 -45 18 -84.5t49.5 -63
t71.5 -23.5q49 0 80 34t31 84q0 40 -20.5 69.5t-47 48.5t-80.5 50q-44 27 -70 47t-44 47t-18 62q0 41 24 69t60.5 41.5t73.5 13.5q43 0 76 -15.5t50.5 -39.5t17.5 -49q0 -34 -28.5 -70t-78.5 -58l-5 6q37 56 37 105z" />
    <glyph glyph-name="nine" unicode="9" horiz-adv-x="465" 
d="M89.5 126.5q-31.5 20.5 -46 52t-14.5 64.5q0 45 23.5 80.5t66 55.5t96.5 20q97 0 153.5 -62t56.5 -167q0 -91 -43 -180.5t-124.5 -160t-192.5 -104.5q-3 -1 -5.5 4t1.5 7q88 39 150 107.5t93.5 149.5t31.5 158q0 52 -14 104.5t-44.5 88t-77.5 35.5q-41 0 -62 -30t-21 -83
q0 -56 23.5 -90.5t69.5 -34.5q21 0 38.5 7.5t39.5 25.5q1 1 3 1q3 0 6 -3t2 -5q-49 -61 -131 -61q-47 0 -78.5 20.5z" />
    <glyph glyph-name="colon" unicode=":" horiz-adv-x="204" 
d="M63 4q-15 15 -15 40q0 24 15 38t40 14q26 0 40 -14t14 -38q0 -26 -14 -40.5t-40 -14.5q-25 0 -40 15zM63 285q-15 15 -15 40q0 24 15 38t40 14q26 0 40 -14t14 -38q0 -26 -14 -40.5t-40 -14.5q-25 0 -40 15z" />
    <glyph glyph-name="semicolon" unicode=";" horiz-adv-x="229" 
d="M160.5 70.5q18.5 -23.5 18.5 -70.5q0 -50 -23.5 -95.5t-68.5 -90.5q-1 -1 -3 -1q-3 0 -4.5 2.5t-0.5 5.5q25 32 34.5 63t9.5 69q0 28 -5.5 42.5t-17.5 24.5l38 7q1 -17 -10 -26t-29 -9q-24 0 -37 13.5t-13 36.5q0 25 16 38.5t43 13.5q34 0 52.5 -23.5zM65 285
q-15 15 -15 40q0 24 15 38t40 14q26 0 40 -14t14 -38q0 -26 -14 -40.5t-40 -14.5q-25 0 -40 15z" />
    <glyph glyph-name="less" unicode="&#x3c;" horiz-adv-x="407" 
d="M31 190q0 15 5 17l334 147q7 4 7 -19q0 -22 -7 -26l-315 -135v32l315 -135q7 -3 7 -26t-7 -20l-334 148q-5 3 -5 17z" />
    <glyph glyph-name="equal" unicode="=" horiz-adv-x="468" 
d="M30.5 104.5q-1.5 7.5 -1.5 16.5q0 8 1 14.5t3 6.5h401q2 0 3.5 -7t1.5 -15q0 -9 -1.5 -16t-3.5 -7h-400q-2 0 -3.5 7.5zM30.5 244.5q-1.5 7.5 -1.5 16.5q0 8 1 14.5t3 6.5h401q2 0 3.5 -7t1.5 -15q0 -9 -1.5 -16t-3.5 -7h-400q-2 0 -3.5 7.5z" />
    <glyph glyph-name="greater" unicode="&#x3e;" horiz-adv-x="407" 
d="M376 189q0 -14 -5 -17l-334 -147q-3 -1 -5 4.5t-2 14.5t2 17t5 9l315 135v-32l-315 135q-3 1 -5 9t-2 17t2 15.5t5 4.5l334 -148q5 -2 5 -17z" />
    <glyph glyph-name="question" unicode="?" horiz-adv-x="336" 
d="M138.5 596.5q-6.5 -11.5 -8.5 -31.5q-3 -26 -13 -43t-38 -17q-23 0 -34 12.5t-11 29.5q0 32 37.5 55t92.5 23q63 0 105.5 -31t42.5 -88q0 -38 -18 -63t-54 -57l-18 -15q-32 -29 -46.5 -58t-14.5 -65q0 -19 6 -54q1 -3 -6.5 -4.5t-8.5 1.5q-12 27 -19 61.5t-7 58.5
q0 31 10.5 50.5t31.5 44.5q23 27 35 50.5t12 61.5q0 40 -14 65t-38 25q-18 0 -24.5 -11.5zM111 4q-15 15 -15 40q0 24 15 38t40 14q26 0 40 -14t14 -38q0 -26 -14 -40.5t-40 -14.5q-25 0 -40 15z" />
    <glyph glyph-name="at" unicode="@" horiz-adv-x="726" 
d="M428 232l29 13q-35 -83 -90 -138t-103 -55q-24 0 -39.5 16t-15.5 50q0 13 1 20q8 54 42 105t80 83t86 32q22 0 39 -12.5t19 -36.5l-29 19q14 2 29 12.5t19 24.5q2 2 8 2q10 0 10 -3l-41 -224q-3 -13 -3 -26q0 -36 37 -36q25 0 51 18.5t43.5 54.5t17.5 85q0 66 -32.5 121
t-89 87.5t-126.5 32.5q-76 0 -132 -37.5t-85.5 -101t-29.5 -138.5q0 -81 34 -142t96.5 -94t144.5 -33q48 0 86.5 10.5t80.5 38.5h1q3 0 5.5 -3.5t-0.5 -4.5q-51 -43 -102.5 -59t-104.5 -16q-83 0 -151 33t-107 95.5t-39 148.5q0 94 47 168.5t124.5 116t165.5 41.5
q78 0 137.5 -32t92 -85.5t32.5 -115.5q0 -57 -27 -106t-72.5 -78t-99.5 -29q-30 0 -46 15.5t-16 43.5q0 16 4 31zM354 133q27 25 49 63.5t30 76.5q2 12 2 18q0 20 -8 32t-22 12q-38 0 -73 -46t-46 -106q-4 -24 -4 -36q0 -39 24 -39q21 0 48 25z" />
    <glyph glyph-name="A" unicode="A" horiz-adv-x="711" 
d="M192 270h280l7 -25h-300zM715 6q0 -6 -4 -6q-19 0 -61 2t-61 2q-25 0 -59 -2t-53 -2q-4 0 -4 6t4 6q30 0 43 6.5t13 21.5t-17 51l-209 425l41 67l-198 -446q-13 -30 -13 -54q0 -35 25 -53t70 -18q5 0 5 -6t-5 -6q-18 0 -52 2q-38 2 -66 2q-27 0 -63 -2q-32 -2 -53 -2
q-5 0 -5 6t5 6q28 0 47 11t37 39.5t43 84.5l215 484q2 3 9 3t8 -3l245 -494q34 -72 57.5 -98.5t51.5 -26.5q4 0 4 -6z" />
    <glyph glyph-name="B" unicode="B" horiz-adv-x="582" 
d="M428 331q49 -22 76 -60.5t27 -88.5q0 -52 -29 -94.5t-79 -67t-112 -24.5q-29 0 -67 3q-13 1 -33 2t-45 1l-72 -1q-19 -1 -52 -1q-3 0 -3 6t3 6q32 0 48 5.5t22.5 19.5t6.5 44v463q0 29 -6 43.5t-22 20t-48 5.5q-2 0 -2 6t2 6l52 -1q44 -2 71 -2q28 0 59 3q11 1 26.5 2
t35.5 1q89 0 136 -34t47 -96q0 -57 -43.5 -100t-122.5 -61l11 16q64 0 113 -22zM226.5 595q-11.5 -13 -11.5 -53v-196l-36 7q44 -2 77 -2q59 0 89.5 38.5t30.5 99.5q0 57 -26.5 88t-79.5 31q-32 0 -43.5 -13zM430 158q0 76 -39.5 122t-115.5 46q-56 0 -92 -6l32 12v-251
q0 -23 5.5 -36t23 -19.5t51.5 -6.5q135 0 135 139z" />
    <glyph glyph-name="C" unicode="C" horiz-adv-x="683" 
d="M601 605q8 -4 10 -7.5t4 -15.5l12 -132q0 -3 -5 -4t-7 3q-26 82 -77.5 125t-127.5 43q-74 0 -131 -36.5t-89 -105t-32 -159.5q0 -90 34 -160.5t93 -109.5t133 -39q73 0 121.5 38.5t85.5 122.5q1 3 6 2t5 -3l-13 -119q-2 -12 -4 -15.5t-10 -7.5q-90 -37 -192 -37
q-106 0 -190 40.5t-131 114t-47 168.5q0 94 48.5 168t133.5 115.5t191 41.5q111 0 179 -31z" />
    <glyph glyph-name="D" unicode="D" horiz-adv-x="700" 
d="M245 -1q-15 1 -38 2t-51 1l-71 -1q-19 -1 -53 -1q-2 0 -2 6t2 6q34 0 49.5 5t21.5 19.5t6 44.5v463q0 30 -5.5 44t-21.5 19.5t-49 5.5q-2 0 -2 6t2 6l53 -1q44 -2 70 -2q39 0 81 3q50 2 67 2q102 0 181 -40t122.5 -109t43.5 -155q0 -97 -45 -171.5t-121 -115t-167 -40.5
q-31 0 -73 3zM430.5 49q53.5 33 83.5 97.5t30 154.5q0 86 -28.5 155.5t-80.5 110t-121 40.5q-43 0 -65.5 -5t-33.5 -18.5t-11 -41.5v-450q0 -41 21.5 -58.5t82.5 -17.5q69 0 122.5 33z" />
    <glyph glyph-name="E" unicode="E" horiz-adv-x="547" 
d="M39 6q0 6 3 6q34 0 49.5 5t21 19.5t5.5 44.5v463q0 30 -5.5 44t-21.5 19.5t-49 5.5q-3 0 -3 6t3 6h416q10 0 10 -9l2 -130q0 -2 -5.5 -2.5t-6.5 2.5q-24 113 -138 113h-41q-37 0 -51.5 -13t-14.5 -44v-457q0 -33 12.5 -46t44.5 -13h49q134 0 170 129q0 2 5 2q7 0 7 -3
q-10 -76 -10 -139q0 -8 -3 -11.5t-12 -3.5h-434q-3 0 -3 6zM308 312h-140v26h141q110 0 110 74q0 3 5.5 3t5.5 -3l-1 -87l1 -47q2 -32 2 -52q0 -2 -6 -2t-6 2q0 86 -112 86z" />
    <glyph glyph-name="F" unicode="F" horiz-adv-x="518" 
d="M34 6q0 6 3 6q36 0 52.5 5t22.5 19.5t6 44.5v463q0 30 -5.5 44t-21.5 19.5t-49 5.5q-3 0 -3 6t3 6h416q10 0 10 -9l2 -130q0 -2 -5.5 -2.5t-6.5 2.5q-24 113 -138 113h-41q-36 0 -51 -13t-15 -43v-458q0 -32 8 -46.5t31.5 -20.5t72.5 -6q2 0 2 -6t-2 -6q-41 0 -64 1
l-98 1l-73 -1q-19 -1 -53 -1q-3 0 -3 6zM293 300h-125v26h127q112 0 112 75q0 2 6 2t6 -2l-1 -88q0 -31 1 -46l1 -52q0 -3 -6 -3t-6 3q0 85 -115 85z" />
    <glyph glyph-name="G" unicode="G" horiz-adv-x="725" 
d="M220.5 31q-83.5 43 -127.5 116.5t-44 163.5q0 96 50 170t138 114.5t197 40.5q50 0 97.5 -8t76.5 -23q10 -4 11.5 -6.5t2.5 -16.5l13 -131q0 -3 -5.5 -4t-6.5 2q-22 64 -78 116t-143 52q-69 0 -125.5 -35t-89 -100.5t-32.5 -151.5q0 -91 35.5 -165.5t100.5 -117.5t151 -43
q43 0 67 10t35 36t11 76q0 52 -6 72.5t-26.5 27.5t-71.5 7q-6 0 -6 8q0 3 1.5 5.5t3.5 2.5q83 -5 133 -5t104 3q4 0 4.5 -7t-4.5 -7q-20 1 -28.5 -6.5t-11 -31t-2.5 -79.5q0 -45 3.5 -64t3.5 -24q0 -6 -2 -8t-9 -4q-126 -28 -224 -28q-113 0 -196.5 43z" />
    <glyph glyph-name="H" unicode="H" horiz-adv-x="762" 
d="M547 586.5q-6 14.5 -24 20.5t-55 6q-3 0 -3 6t3 6l48 -1q48 -2 85 -2q27 0 73 2l55 1q3 0 3 -6t-3 -6q-36 0 -53 -5.5t-23 -19.5t-6 -44v-463q0 -30 6 -44.5t23 -19.5t53 -5q3 0 3 -6t-3 -6q-34 0 -55 1l-73 1l-85 -1q-18 -1 -48 -1q-3 0 -3 6t3 6q38 0 55.5 5t23.5 19.5
t6 44.5v461q0 30 -6 44.5zM158 338h438v-26h-438v26zM108 588q-6 14 -23 19.5t-52 5.5q-2 0 -2 6t2 6l53 -1q46 -2 72 -2q35 0 83 2l52 1q2 0 2 -6t-2 -6q-36 0 -53.5 -6t-24 -20.5t-6.5 -44.5v-461q0 -30 6 -44.5t23.5 -19.5t54.5 -5q2 0 2 -6t-2 -6q-34 0 -53 1l-82 1
l-73 -1q-19 -1 -53 -1q-2 0 -2 6t2 6q36 0 53 5t23 19.5t6 44.5v463q0 30 -6 44z" />
    <glyph glyph-name="I" unicode="I" horiz-adv-x="339" 
d="M222.5 36q5.5 -14 21 -19t49.5 -5q3 0 3 -6t-3 -6q-32 0 -51 1l-74 1l-72 -1q-19 -1 -52 -1q-3 0 -3 6t3 6q34 0 49.5 5t21.5 19.5t6 44.5v463q0 30 -6 44t-21.5 19.5t-49.5 5.5q-3 0 -3 6t3 6l52 -1q44 -2 72 -2q31 0 75 2l50 1q3 0 3 -6t-3 -6q-33 0 -49 -6
t-21.5 -20.5t-5.5 -44.5v-461q0 -31 5.5 -45z" />
    <glyph glyph-name="J" unicode="J" horiz-adv-x="333" 
d="M294 619q0 -6 -2 -6q-28 0 -41.5 -6t-18 -20.5t-4.5 -44.5v-554q0 -108 -52.5 -169.5t-147.5 -61.5q-36 0 -58.5 14.5t-22.5 39.5q0 19 11.5 32t34.5 13q22 0 34 -12.5t22 -34.5q8 -15 14.5 -23t16.5 -8q26 0 38.5 36.5t12.5 120.5v609q0 30 -6.5 44t-25 19.5t-57.5 5.5
q-2 0 -2 6t2 6l60 -1q48 -2 76 -2q27 0 69 2l45 1q2 0 2 -6z" />
    <glyph glyph-name="K" unicode="K" horiz-adv-x="653" 
d="M103.5 588q-5.5 14 -21.5 19.5t-49 5.5q-2 0 -2 6t2 6l53 -1q44 -2 70 -2q30 0 74 2l50 1q3 0 3 -6t-3 -6q-33 0 -48.5 -6t-21.5 -20.5t-6 -44.5v-461q0 -31 5.5 -45t21 -19t49.5 -5q4 0 4 -6t-4 -6q-32 0 -51 1l-73 1l-71 -1q-19 -1 -53 -1q-2 0 -2 6t2 6q34 0 49.5 5
t21.5 19.5t6 44.5v463q0 30 -5.5 44zM224 335l70 64l150 -199q68 -93 103 -131.5t55 -47.5t54 -9q3 0 3 -6t-3 -6h-112l-39 -1q-14 0 -24 6t-23 22t-48 63l-41 55zM432 582q0 14 -15.5 22.5t-45.5 8.5q-2 0 -2 6t2 6l45 -1q44 -2 80 -2q39 0 79 2l43 1q3 0 3 -6t-3 -6
q-44 0 -96.5 -23.5t-95.5 -65.5l-256 -258l-27 2l258 262q31 30 31 52z" />
    <glyph glyph-name="L" unicode="L" horiz-adv-x="541" 
d="M208 46.5q5 -12.5 18 -16.5t42 -4h60q71 0 120 39.5t65 106.5q0 2 4 2q2 0 4.5 -1.5t2.5 -2.5q-9 -92 -9 -155q0 -8 -3 -11.5t-12 -3.5h-468q-2 0 -2 6t2 6q34 0 49.5 5t21 19.5t5.5 44.5v463q0 30 -5.5 44t-21.5 19.5t-49 5.5q-2 0 -2 6t2 6l51 -1q44 -2 72 -2
q30 0 74 2l50 1q3 0 3 -6t-3 -6q-33 0 -49 -5.5t-21.5 -20t-5.5 -44.5v-458q0 -26 5 -38.5z" />
    <glyph glyph-name="M" unicode="M" horiz-adv-x="850" 
d="M128 602l27 -2l-11 -479q-1 -53 20.5 -81t64.5 -28q3 0 3 -6t-3 -6q-27 0 -42 1l-55 1l-59 -1q-15 -1 -42 -1q-3 0 -3 6t3 6q41 0 63.5 28t23.5 81zM828 6q0 -6 -2 -6q-33 0 -53 1l-72 1l-70 -1q-18 -1 -51 -1q-2 0 -2 6t2 6q33 0 49 5.5t21 19.5t3 44l-21 457l44 69
l-256 -600q-2 -4 -8 -4q-5 0 -9 4l-271 535q-18 37 -41 54t-53 17q-3 0 -3 6t3 6l43 -1q13 -1 34 -1l46 1q9 1 21 1q13 0 21 -9.5t25 -42.5l225 -441l-43 -76l237 544q6 14 13 19.5t17 5.5q7 0 18 -1t27 -1l54 1q13 1 38 1q3 0 3 -6t-3 -6q-47 0 -68.5 -17.5t-19.5 -57.5
l22 -457q2 -31 8 -45t21 -19t49 -5q2 0 2 -6z" />
    <glyph glyph-name="N" unicode="N" horiz-adv-x="732" 
d="M125 602l27 -2v-479q0 -53 20.5 -81t60.5 -28q3 0 3 -6t-3 -6q-26 0 -40 1l-53 1l-59 -1q-16 -1 -46 -1q-3 0 -3 6t3 6q43 0 66.5 28t23.5 81v481zM628 -18q-5 -1 -7 1l-481 560q-34 39 -60 54.5t-51 15.5q-3 0 -3 6t3 6l40 -1q12 -1 36 -1l64 1q12 1 28 1q8 0 12 -4
t12 -16q17 -23 25 -32l379 -446l8 -141q0 -3 -5 -4zM633 -14l-27 30v487q0 53 -20.5 81.5t-60.5 28.5q-2 0 -2 6t2 6l41 -1q32 -2 53 -2q19 0 55 2l42 1q3 0 3 -6t-3 -6q-40 0 -61.5 -28.5t-21.5 -81.5v-517z" />
    <glyph glyph-name="O" unicode="O" 
d="M200.5 31.5q-72.5 43.5 -112 118t-39.5 162.5q0 103 52 176.5t133.5 110.5t166.5 37q95 0 167 -44.5t110.5 -117.5t38.5 -155q0 -91 -48 -167t-128.5 -120t-174.5 -44q-93 0 -165.5 43.5zM507.5 44.5q47.5 32.5 75 95.5t27.5 150q0 93 -30.5 165.5t-87 113.5t-132.5 41
q-98 0 -151 -69.5t-53 -192.5q0 -96 31 -172.5t87 -120t126 -43.5q60 0 107.5 32.5z" />
    <glyph glyph-name="P" unicode="P" horiz-adv-x="549" 
d="M215.5 38.5q7.5 -14.5 29 -20.5t67.5 -6q3 0 3 -6t-3 -6q-41 0 -64 1l-87 1l-72 -1q-19 -1 -52 -1q-3 0 -3 6t3 6q34 0 49.5 5t21 19.5t5.5 44.5v463q0 30 -5.5 44t-21.5 19.5t-49 5.5q-3 0 -3 6t3 6l52 -1q44 -2 71 -2q23 0 56 3q12 1 32.5 2t48.5 1q98 0 156 -42
t58 -129q0 -63 -32.5 -107t-83 -66t-103.5 -22q-28 0 -48 5q-2 0 -2 5q0 3 1.5 6t3.5 2q15 -4 35 -4q52 0 88 43t36 123q0 79 -36.5 122.5t-102.5 43.5q-24 0 -36.5 -5t-17.5 -18.5t-5 -42.5v-457q0 -32 7.5 -46.5z" />
    <glyph glyph-name="Q" unicode="Q" 
d="M586 -123q65 -52 124 -52q17 0 35 2h1q2 0 3.5 -4.5t-0.5 -5.5q-45 -12 -82 -12q-77 0 -160.5 52t-141.5 145l116 8q40 -81 105 -133zM200.5 31.5q-72.5 43.5 -112 118t-39.5 162.5q0 103 52 176.5t133.5 110.5t166.5 37q95 0 167 -44.5t110.5 -117.5t38.5 -155
q0 -91 -48 -167t-128.5 -120t-174.5 -44q-93 0 -165.5 43.5zM507.5 44.5q47.5 32.5 75 95.5t27.5 150q0 93 -30.5 165.5t-87 113.5t-132.5 41q-98 0 -151 -69.5t-53 -192.5q0 -96 31 -172.5t87 -120t126 -43.5q60 0 107.5 32.5z" />
    <glyph glyph-name="R" unicode="R" horiz-adv-x="689" 
d="M449.5 84q-64.5 84 -156.5 234l80 24q84 -125 140.5 -195.5t100.5 -102.5t85 -32q2 0 2 -6t-2 -6h-161q-24 0 -88.5 84zM445 593.5q48 -34.5 48 -94.5q0 -56 -32 -101t-84.5 -70.5t-110.5 -25.5q-21 0 -51 2v-223q0 -31 5 -45t20.5 -19t50.5 -5q2 0 2 -6t-2 -6
q-33 0 -52 1l-73 1l-72 -1q-19 -1 -52 -1q-3 0 -3 6t3 6q34 0 49.5 5t21.5 19.5t6 44.5v463q0 30 -5.5 44t-21.5 19.5t-49 5.5q-2 0 -2 6t2 6l52 -1q44 -2 71 -2q33 0 72 3q13 1 31.5 2t41.5 1q86 0 134 -34.5zM366.5 577q-27.5 32 -79.5 32q-40 0 -56 -14.5t-16 -52.5v-211
q24 -4 58 -4q65 0 93 32.5t28 104.5q0 81 -27.5 113z" />
    <glyph glyph-name="S" unicode="S" horiz-adv-x="507" 
d="M182.5 453.5q18.5 -28.5 45.5 -49t74 -50.5q51 -32 80.5 -55t50.5 -56.5t21 -78.5q0 -51 -26.5 -91t-75 -62.5t-110.5 -22.5q-42 0 -86.5 11t-67.5 27q-9 6 -10 19l-6 151v1q0 4 5 4.5t6 -3.5q33 -82 75.5 -135t107.5 -53q44 0 73 23.5t29 78.5q0 44 -19.5 77t-48 55
t-77.5 54q-48 31 -75 52.5t-46 53t-19 73.5q0 52 29 88t75.5 53.5t97.5 17.5q33 0 67 -6.5t58 -16.5q15 -6 15 -19l2 -135q0 -4 -4.5 -5t-6.5 2q-20 61 -53.5 110.5t-100.5 49.5q-45 0 -71.5 -26.5t-26.5 -70.5q0 -37 18.5 -65.5z" />
    <glyph glyph-name="T" unicode="T" horiz-adv-x="640" 
d="M110 566.5q-39 -37.5 -60 -112.5q0 -3 -5.5 -2.5t-5.5 2.5q4 39 9 100.5t5 92.5q0 5 5.5 5t5.5 -5q0 -22 56 -22q86 -3 201 -3q59 0 125 2l68 1q38 0 55.5 5t22.5 20q1 4 6 4t5 -4q-3 -31 -6 -94t-3 -102q0 -2 -5.5 -2t-6.5 2q-10 77 -47 113.5t-100 36.5q-28 0 -41.5 -5
t-18.5 -17.5t-5 -39.5v-461q0 -30 6.5 -44.5t24.5 -19.5t57 -5q3 0 3 -6t-3 -6q-35 0 -55 1l-82 1l-78 -1q-21 -1 -58 -1q-2 0 -2 6t2 6q39 0 57.5 5t25 19.5t6.5 44.5v463q0 26 -5 38.5t-18 17t-41 4.5q-61 0 -100 -37.5z" />
    <glyph glyph-name="U" unicode="U" horiz-adv-x="701" 
d="M547.5 584q-23.5 29 -67.5 29q-2 0 -2 6t2 6l46 -1q38 -2 60 -2q18 0 54 2l44 1q2 0 2 -6t-2 -6q-39 0 -60.5 -29t-21.5 -81v-280q0 -72 -30.5 -125.5t-86 -82.5t-128.5 -29t-130 28.5t-88.5 82t-31.5 125.5v322q0 30 -6 44t-21.5 19.5t-48.5 5.5q-3 0 -3 6t3 6l52 -1
q44 -2 71 -2q30 0 74 2l50 1q3 0 3 -6t-3 -6q-33 0 -49 -6t-21.5 -20.5t-5.5 -44.5v-285q0 -119 49.5 -177.5t138.5 -58.5q85 0 133 52.5t48 148.5v281q0 52 -23.5 81z" />
    <glyph glyph-name="V" unicode="V" horiz-adv-x="662" 
d="M669 619q0 -6 -3 -6q-35 0 -65 -27t-49 -78l-195 -507q-1 -4 -11 -4t-11 4l-253 541q-18 37 -36 54t-43 17q-3 0 -3 6t3 6l26 -1q24 -2 50 -2q70 0 126 2q16 1 40 1q3 0 3 -6t-3 -6q-30 0 -46 -11t-16 -32q0 -18 10 -38l193 -418l-41 -69l180 467q9 24 9 43
q0 28 -18.5 43t-54.5 15q-3 0 -3 6t3 6l46 -1q40 -2 71 -2q19 0 47 2l41 1q3 0 3 -6z" />
    <glyph glyph-name="W" unicode="W" horiz-adv-x="918" 
d="M346 -3q-10 0 -11 4l-253 541q-21 44 -35.5 57.5t-43.5 13.5q-3 0 -3 6t3 6l26 -1q24 -2 50 -2q57 0 101 2q14 1 35 1q3 0 3 -6t-3 -6q-26 0 -38 -5.5t-12 -19.5q0 -15 19 -56l200 -427l-40 -62l120 312l18 -26l-125 -328q-1 -4 -11 -4zM925 619q0 -6 -2 -6
q-36 0 -66 -27t-50 -78l-194 -507q-1 -4 -11 -4t-11 4l-253 541q-17 36 -33 53.5t-37 17.5q-3 0 -3 6t3 6l24 -1q22 -2 44 -2q47 0 83 2q10 1 26 1q3 0 3 -6t-3 -6q-15 0 -22 -3.5t-7 -13.5q0 -8 6.5 -25t16.5 -39l202 -427l-40 -62l177 462q10 26 10 49q0 28 -16.5 43.5
t-46.5 15.5q-3 0 -3 6t3 6l44 -1q36 -2 65 -2q20 0 46 2l43 1q2 0 2 -6zM548 583q0 30 -30 30q-3 0 -3 6t3 6q9 0 21 -1.5t44 -1.5q18 0 42 2l39 1q2 0 2 -6t-2 -6q-34 0 -60 -25t-47 -80l-69 -179l-18 26l60 157q18 47 18 71z" />
    <glyph glyph-name="X" unicode="X" horiz-adv-x="649" 
d="M404 6q0 6 3 6q39 0 39 17q0 9 -9 22l-314 484q-27 42 -52.5 60t-55.5 18q-3 0 -3 6t3 6l41 -1q28 -2 41 -2q34 0 86 2l55 1q2 0 2 -6t-2 -6q-20 0 -30 -3.5t-10 -13.5t9 -23l319 -490q26 -38 52 -54.5t63 -16.5q3 0 3 -6t-3 -6q-28 0 -43 1l-59 1l-81 -1q-18 -1 -51 -1
q-3 0 -3 6zM6 6q0 6 3 6q32 0 73 29.5t85 89.5l133 180l16 -13l-121 -171q-34 -49 -34 -77q0 -18 14 -28t41 -10q2 0 2 -6t-2 -6q-32 0 -49 1l-72 1l-46 -1q-12 -1 -40 -1q-3 0 -3 6zM318 326l119 169q35 50 35 80q0 38 -54 38q-2 0 -2 6t2 6l49 -1q40 -2 72 -2q20 0 46 2
l40 1q3 0 3 -6t-3 -6q-33 0 -75 -30.5t-86 -92.5l-130 -177z" />
    <glyph glyph-name="Y" unicode="Y" horiz-adv-x="616" 
d="M469 569q0 44 -55 44q-2 0 -2 6t2 6l52 -1q42 -2 77 -2q17 0 41 2l37 1q2 0 2 -6t-2 -6q-33 0 -75 -34.5t-75 -88.5l-139 -225l-20 16l132 217q25 41 25 71zM50.5 592.5q-24.5 20.5 -47.5 20.5q-3 0 -3 6t3 6l33 -1q22 -2 32 -2q33 0 95 2l63 1q2 0 2 -6t-2 -6
q-42 0 -42 -27q0 -12 13 -33l153 -235l-80 -45l-161 246q-34 53 -58.5 73.5zM357 319v-238q0 -31 5 -45t20.5 -19t49.5 -5q3 0 3 -6t-3 -6q-32 0 -50 1l-73 1l-72 -1q-20 -1 -53 -1q-2 0 -2 6t2 6q34 0 50 5t22 19.5t6 44.5v229z" />
    <glyph glyph-name="Z" unicode="Z" horiz-adv-x="602" 
d="M427 606q0 2 -8 2q-135 0 -197 -7.5t-95.5 -32.5t-59.5 -83q0 -2 -4 -2q-3 0 -6 1.5t-2 2.5l40 168q0 1 4 1q10 0 8 -3q-1 -3 -1 -8q0 -12 11.5 -16t46.5 -4h365q5 0 7.5 -5t-0.5 -8l-361 -585l-3 -6q0 -2 8 -2h220q58 0 101 36t53 92q1 2 6 2t5 -2l-14 -139
q0 -3 -2.5 -6.5t-6.5 -3.5q-149 2 -478 2q-5 0 -7 4.5t1 8.5l366 587z" />
    <glyph glyph-name="bracketleft" unicode="[" horiz-adv-x="274" 
d="M75.5 723.5q1.5 1.5 7.5 1.5h153q3 0 3 -6t-3 -6q-34 0 -50 -6t-21.5 -20.5t-5.5 -44.5v-676q0 -30 5.5 -44.5t21.5 -20.5t50 -6q3 0 3 -6t-3 -6h-153q-6 0 -7.5 2t-1.5 9v821q0 7 1.5 8.5z" />
    <glyph glyph-name="backslash" unicode="\" horiz-adv-x="348" 
d="M46 728q22 6 24 2l252 -882q1 -4 -21 -10t-24 -2l-251 881q-2 5 20 11z" />
    <glyph glyph-name="bracketright" unicode="]" horiz-adv-x="274" 
d="M198.5 -115q-1.5 -2 -7.5 -2h-153q-3 0 -3 6t3 6q34 0 50 6t21.5 20.5t5.5 44.5v676q0 30 -5.5 44.5t-21.5 20.5t-50 6q-3 0 -3 6t3 6h153q6 0 7.5 -1.5t1.5 -8.5v-821q0 -7 -1.5 -9z" />
    <glyph glyph-name="asciicircum" unicode="^" horiz-adv-x="392" 
d="M333 379q0 -2 -4 -4t-5 0l-128 147l-128 -147q-1 -1 -3 -1q-3 0 -5.5 2t-1.5 4l127 249q1 5 11 5t11 -5l126 -249v-1z" />
    <glyph glyph-name="underscore" unicode="_" horiz-adv-x="398" 
d="M30.5 -71q-1.5 8 -1.5 17q0 8 1 14.5t3 6.5h331q2 0 3.5 -7.5t1.5 -15.5q0 -9 -1.5 -16t-3.5 -7h-330q-2 0 -3.5 8z" />
    <glyph glyph-name="grave" unicode="`" horiz-adv-x="213" 
d="M42 731q19 0 45.5 -5.5t27.5 -9.5l39 -240q1 -2 -4 -3.5t-6 1.5l-114 253q-1 4 12 4z" />
    <glyph glyph-name="a" unicode="a" horiz-adv-x="420" 
d="M308 -8q-18 0 -33 24.5t-15 65.5v176q0 62 -12.5 90.5t-39.5 28.5q-33 0 -47.5 -24.5t-17.5 -54.5q-6 -51 -51 -51q-22 0 -32.5 10t-10.5 25q0 28 33.5 54.5t81 43t83.5 16.5q43 0 68.5 -27t25.5 -81v-180q0 -63 39 -63q15 0 36 9h2q4 0 5 -4.5t-3 -6.5l-103 -49
q-4 -2 -9 -2zM67 12q-21 19 -21 52q0 27 14.5 44t36.5 27.5t66 26.5l107 40l3 -15l-73 -31q-27 -11 -43 -24t-16 -39q0 -24 15.5 -38t36.5 -14q19 0 39 12l54 36l1 -15l-71 -50q-24 -17 -43.5 -24t-43.5 -7q-41 0 -62 19z" />
    <glyph glyph-name="b" unicode="b" horiz-adv-x="514" 
d="M108 46l58 107q0 -51 19.5 -84t48 -47.5t55.5 -14.5q49 0 75 44t26 125q0 88 -31 132.5t-85 44.5q-57 0 -121 -58l-9 8q43 45 81.5 70.5t90.5 25.5q44 0 81.5 -21t60 -63t22.5 -102q0 -72 -30.5 -123t-80.5 -77t-106 -26q-89 0 -155 59zM36 -6q-4 0 -5 3.5t2 5.5
q27 17 39.5 39.5t12.5 60.5v489q0 35 -6.5 50.5t-23.5 15.5q-16 0 -40 -12h-1q-4 0 -6 5t0 7l139 66l5 1q4 0 9 -4t5 -7v-661l-128 -59h-2z" />
    <glyph glyph-name="c" unicode="c" horiz-adv-x="420" 
d="M122.5 16.5q-45.5 28.5 -67.5 74t-22 95.5q0 63 34 110.5t87.5 73t108.5 25.5q47 0 84.5 -19t37.5 -51q0 -17 -12.5 -29t-35.5 -12q-39 0 -55 44q-9 25 -20.5 35.5t-35.5 10.5q-47 0 -74.5 -42.5t-27.5 -113.5q0 -83 38.5 -134.5t120.5 -51.5q27 0 49.5 7t48.5 22h1
q3 0 5.5 -3t0.5 -5q-37 -33 -73 -49t-82 -16q-65 0 -110.5 28.5z" />
    <glyph glyph-name="d" unicode="d" horiz-adv-x="511" 
d="M111 10.5q-36 23.5 -57 67.5t-21 103q0 74 35 123t88 72t106 23q65 0 123 -36l-19 -76q-24 45 -52.5 66.5t-70.5 21.5q-57 0 -88.5 -40t-31.5 -123q0 -84 33 -132.5t84 -48.5q38 0 68.5 20t65.5 58l9 -8q-46 -51 -90.5 -82.5t-102.5 -31.5q-43 0 -79 23.5zM434 64.5
q7 -14.5 24 -14.5q20 0 45 12h1q3 0 5.5 -5t-0.5 -6l-128 -62l-6 -1q-12 0 -20.5 25t-8.5 69v510q0 35 -6.5 50.5t-23.5 15.5q-11 0 -40 -12h-2q-4 0 -6 5t1 6l140 67l4 1q4 0 9 -4t5 -7v-600q0 -35 7 -49.5z" />
    <glyph glyph-name="e" unicode="e" horiz-adv-x="414" 
d="M124.5 15q-44.5 27 -68 71t-23.5 95q0 59 29 108t79.5 77.5t112.5 28.5q60 0 92.5 -29t32.5 -86q0 -15 -2.5 -22t-8.5 -7h-82q5 124 -68 124q-45 0 -70.5 -41t-25.5 -111q0 -88 41 -139.5t116 -51.5q28 0 47 7t50 23l2 1q2 0 4.5 -4t0.5 -6q-36 -34 -73 -49.5t-80 -15.5
q-61 0 -105.5 27zM92 267l222 4v-20l-221 -1z" />
    <glyph glyph-name="f" unicode="f" horiz-adv-x="305" 
d="M25 6q0 6 4 6q27 0 40 5.5t18 19.5t5 44v225q0 33 -13 42t-54 9q-3 0 -3 9q0 8 3 8q37 0 50.5 9.5t14.5 34.5q5 163 61 235.5t168 72.5q55 0 86 -15.5t31 -41.5q0 -20 -13.5 -31.5t-31.5 -11.5q-20 0 -30 9t-20 28q-11 21 -24 31.5t-36 10.5q-50 0 -79 -65t-29 -201v-358
q0 -31 6.5 -45t25 -19t60.5 -5q4 0 4 -6t-4 -6l-67 1q-22 1 -67 1l-59 -1q-15 -1 -43 -1q-4 0 -4 6zM136 352v24q61 0 153 10q3 0 5 -7t2 -17q0 -9 -3 -18t-7 -8q-69 16 -150 16z" />
    <glyph glyph-name="g" unicode="g" horiz-adv-x="449" 
d="M69.5 -250q-42.5 31 -42.5 81q0 39 31 78t100 80l10 -12q-30 -17 -46 -40.5t-16 -59.5q0 -60 36.5 -93.5t92.5 -33.5q57 0 92 33.5t35 90.5q0 42 -18.5 61.5t-49 24t-87.5 5.5q-72 1 -112 15.5t-40 60.5q0 35 23.5 65t72.5 58l10 -7q-22 -14 -32 -29.5t-10 -35.5
q0 -36 29.5 -46t102.5 -11q57 -1 93 -6t62.5 -28t26.5 -72q0 -55 -35 -103.5t-93 -77.5t-124 -29q-69 0 -111.5 31zM121 152q-35 19 -54 49.5t-19 64.5q0 39 24 68t62.5 44t82.5 15q47 0 82 -17t54 -46t19 -63q0 -38 -24 -69t-63 -48t-83 -17q-46 0 -81 19zM269 172
q17 22 17 69q0 42 -14.5 72.5t-37 46t-47.5 15.5q-54 0 -54 -81q0 -43 13.5 -75.5t35 -50.5t44.5 -18q26 0 43 22zM366.5 383q30.5 12 65.5 12q7 0 7 -26q0 -13 -3.5 -28t-7.5 -13q-37 16 -72 16q-25 0 -47 -7l-7 -22l1 32q33 24 63.5 36z" />
    <glyph glyph-name="h" unicode="h" horiz-adv-x="505" 
d="M20 6q0 6 3 6q34 0 45.5 14t11.5 55v511q0 35 -7 50.5t-23 15.5q-15 0 -41 -12h-1q-3 0 -5.5 5.5t0.5 6.5l139 66l5 1q4 0 8.5 -4t4.5 -7v-633q0 -41 11.5 -55t45.5 -14q4 0 4 -6t-4 -6q-25 0 -40 1l-57 1l-57 -1q-15 -1 -40 -1q-3 0 -3 6zM289 6q0 6 3 6q34 0 45.5 14
t11.5 55v149q0 56 -21 83t-65 27q-33 0 -66 -18.5t-55 -48.5l-5 12q80 112 176 112q54 0 85 -33t31 -90v-193q0 -41 11.5 -55t45.5 -14q4 0 4 -6t-4 -6q-25 0 -40 1l-57 1l-57 -1q-15 -1 -40 -1q-3 0 -3 6z" />
    <glyph glyph-name="i" unicode="i" horiz-adv-x="266" 
d="M41 6q0 6 3 6q34 0 45.5 14t11.5 55v182q0 34 -7 49.5t-24 15.5q-16 0 -40 -12h-1q-4 0 -6 5t1 7l144 67l3 1q4 0 8.5 -4.5t4.5 -7.5v-21q-2 -42 -2 -99v-183q0 -41 11.5 -55t45.5 -14q3 0 3 -6t-3 -6q-25 0 -40 1l-58 1l-58 -1q-14 -1 -39 -1q-3 0 -3 6zM95.5 515
q-14.5 14 -14.5 40q0 24 14.5 38t40.5 14q25 0 38.5 -14t13.5 -38q0 -26 -13.5 -40t-38.5 -14q-26 0 -40.5 14z" />
    <glyph glyph-name="j" unicode="j" horiz-adv-x="261" 
d="M181 363q-2 -42 -2 -99v-312q0 -68 -15.5 -111.5t-51 -72.5t-98.5 -50q-2 -1 -4.5 4.5t-0.5 6.5q49 21 69 67t20 133v334q0 34 -7 49.5t-23 15.5t-40 -12h-1q-4 0 -6.5 5t0.5 7l144 67l3 1q4 0 8.5 -4.5t4.5 -7.5v-21zM90.5 515.5q-14.5 14.5 -14.5 39.5q0 24 15 38
t40 14t39 -14t14 -38q0 -26 -14 -40t-39 -14q-26 0 -40.5 14.5z" />
    <glyph glyph-name="k" unicode="k" horiz-adv-x="491" 
d="M20 6q0 6 3 6q34 0 45.5 14t11.5 55v511q0 35 -7 50.5t-23 15.5q-15 0 -41 -12h-1q-3 0 -5.5 5.5t0.5 6.5l139 66l5 1q4 0 8.5 -4t4.5 -7v-633q0 -41 11.5 -55t45.5 -14q4 0 4 -6t-4 -6q-25 0 -40 1l-57 1l-57 -1q-15 -1 -40 -1q-3 0 -3 6zM272 6q0 6 2 6q42 0 42 20
q0 9 -9 21l-123 161l60 46l137 -179q52 -69 111 -69q3 0 3 -6t-3 -6q-25 0 -40 1l-57 1l-75 -1q-17 -1 -46 -1q-2 0 -2 6zM125 170l142 129q28 24 28 47q0 12 -11.5 20t-32.5 8q-3 0 -3 6t3 6q28 0 44 -1l76 -1l71 1q14 1 38 1q3 0 3 -6t-3 -6q-41 0 -93 -20.5t-96 -59.5
l-161 -139z" />
    <glyph glyph-name="l" unicode="l" horiz-adv-x="265" 
d="M34 6q0 6 3 6q34 0 45.5 14t11.5 55v511q0 35 -6.5 50.5t-22.5 15.5q-15 0 -41 -12h-1q-4 0 -6 5t0 7l141 66l4 1q4 0 9 -4t5 -7v-633q0 -41 11.5 -55t45.5 -14q3 0 3 -6t-3 -6q-25 0 -40 1l-58 1l-58 -1q-15 -1 -40 -1q-3 0 -3 6z" />
    <glyph glyph-name="m" unicode="m" horiz-adv-x="772" 
d="M556 6q0 6 3 6q33 0 45 14.5t12 54.5v149q0 56 -19.5 83t-59.5 27q-32 0 -63.5 -18t-52.5 -49l-5 12q77 112 170 112q53 0 81.5 -30.5t28.5 -92.5v-193q0 -41 11.5 -55t45.5 -14q4 0 4 -6t-4 -6q-25 0 -40 1l-57 1l-57 -1q-15 -1 -40 -1q-3 0 -3 6zM295 6q0 6 3 6
q34 0 45.5 14t11.5 55v149q0 56 -19.5 83t-59.5 27q-32 0 -63.5 -18t-52.5 -49l-5 12q77 112 170 112q53 0 81.5 -29.5t28.5 -85.5v-201q0 -41 12 -55t46 -14q3 0 3 -6t-3 -6q-26 0 -41 1l-57 1l-57 -1q-15 -1 -40 -1q-3 0 -3 6zM38 6q0 6 3 6q34 0 45 14t11 55v191
q0 32 -7.5 47t-24.5 15q-15 0 -50 -15h-1q-4 0 -6 5t1 6l131 64q6 2 7 2q11 0 21 -25t10 -65v-225q0 -41 11.5 -55t45.5 -14q3 0 3 -6t-3 -6q-25 0 -40 1l-57 1l-58 -1q-14 -1 -39 -1q-3 0 -3 6z" />
    <glyph glyph-name="n" unicode="n" horiz-adv-x="523" 
d="M307 6q0 6 3 6q34 0 45 14t11 55v150q0 56 -20.5 82.5t-64.5 26.5q-33 0 -66.5 -18t-54.5 -48l-5 12q80 112 176 112q55 0 85.5 -33t30.5 -91v-193q0 -41 11.5 -55t45.5 -14q3 0 3 -6t-3 -6q-25 0 -40 1l-57 1l-57 -1q-15 -1 -40 -1q-3 0 -3 6zM38 6q0 6 3 6q34 0 45 14
t11 55v191q0 32 -7.5 47t-24.5 15q-15 0 -50 -15h-1q-4 0 -6 5t1 6l131 64q6 2 7 2q11 0 21 -25t10 -65v-225q0 -41 11.5 -55t45.5 -14q3 0 3 -6t-3 -6q-25 0 -40 1l-57 1l-58 -1q-14 -1 -39 -1q-3 0 -3 6z" />
    <glyph glyph-name="o" unicode="o" horiz-adv-x="486" 
d="M129 15.5q-46 28.5 -71 77t-25 105.5q0 65 32.5 110.5t83 68t103.5 22.5q61 0 106.5 -29t69.5 -76.5t24 -101.5q0 -60 -29.5 -107t-79.5 -72.5t-108 -25.5q-60 0 -106 28.5zM333 46q24 39 24 114q0 67 -18.5 117t-50 76t-69.5 26q-45 0 -68.5 -37t-23.5 -109
q0 -65 18 -116.5t49.5 -80.5t70.5 -29q44 0 68 39z" />
    <glyph glyph-name="p" unicode="p" horiz-adv-x="512" 
d="M25 -269q0 6 3 6q25 0 37 5.5t16.5 19.5t4.5 44v465q0 33 -7.5 48t-25.5 15q-17 0 -48 -14h-2q-4 0 -6 4.5t0 6.5l132 63q2 1 5 1q14 0 23.5 -24.5t9.5 -66.5v-498q0 -30 7 -44t26 -19.5t60 -5.5q2 0 2 -6t-2 -6q-37 0 -57 1l-77 1l-57 -1q-15 -1 -41 -1q-3 0 -3 6z
M194 -6q-28 7 -66 24l27 61q28 -34 56 -51t71 -17q50 0 79 43.5t29 129.5q0 79 -36 122t-90 43q-36 0 -64.5 -18t-61.5 -54l-9 10q51 58 97.5 85t95.5 27q42 0 78 -22t57.5 -64t21.5 -98q0 -79 -33.5 -130t-83.5 -74.5t-102 -23.5q-38 0 -66 7z" />
    <glyph glyph-name="q" unicode="q" horiz-adv-x="497" 
d="M115 8.5q-37 21.5 -59.5 63t-22.5 100.5q0 74 32 125.5t83 76.5t107 25q82 0 145 -42l-54 -92q0 55 -35.5 84.5t-79.5 29.5q-107 0 -107 -170q0 -87 30.5 -131.5t83.5 -44.5q58 0 120 58l9 -7q-42 -46 -80.5 -71.5t-90.5 -25.5q-44 0 -81 21.5zM265 -269q0 6 2 6
q35 0 51 5.5t22 19.5t6 44v537l125 45l2 1q3 0 4 -5t-2 -6q-25 -13 -37 -32.5t-12 -50.5v-489q0 -30 4.5 -44t16.5 -19.5t38 -5.5q2 0 2 -6t-2 -6q-25 0 -40 1l-59 1l-67 -1q-19 -1 -52 -1q-2 0 -2 6z" />
    <glyph glyph-name="r" unicode="r" horiz-adv-x="374" 
d="M234 371.5q32 24.5 57 24.5q22 0 43 -15t21 -36q0 -19 -11 -30.5t-31 -11.5q-13 0 -21 5t-18 15q-9 9 -16 13.5t-17 4.5q-13 0 -29.5 -13t-56.5 -57l-7 12q54 64 86 88.5zM38 6q0 6 3 6q34 0 45 14t11 55v191q0 32 -7.5 47t-24.5 15q-15 0 -50 -15h-1q-4 0 -6 5t1 6
l131 64q6 2 7 2q11 0 21 -25t10 -65v-225q0 -28 8 -42.5t27.5 -20.5t56.5 -6q4 0 4 -6t-4 -6q-34 0 -54 1l-78 1l-58 -1q-14 -1 -39 -1q-3 0 -3 6z" />
    <glyph glyph-name="s" unicode="s" horiz-adv-x="337" 
d="M133.5 281q21.5 -21 62.5 -43q36 -20 55.5 -33t34 -35t14.5 -53q0 -34 -17 -63t-50.5 -47t-79.5 -18q-55 0 -101 28q-6 6 -6 12l-2 92q0 3 5.5 3.5t6.5 -2.5q17 -49 51.5 -81t73.5 -32q25 0 39 13t14 39q0 38 -22 60.5t-64 44.5q-34 18 -53 30.5t-32.5 34t-13.5 53.5
q0 57 41.5 85t100.5 28q39 0 80 -15q9 -4 9 -11q0 -23 -1 -36l-1 -48q0 -2 -6 -2t-6 2q0 20 -16 41.5t-41 35.5t-51 14q-46 0 -46 -44q0 -32 21.5 -53z" />
    <glyph glyph-name="t" unicode="t" horiz-adv-x="337" 
d="M112.5 8.5q-29.5 20.5 -29.5 68.5v226q0 33 -10.5 44t-40.5 11q-1 0 -2.5 2.5t-1.5 5.5t1.5 5.5t2.5 2.5q94 4 118 81q1 4 8 4t7 -4v-345q0 -39 19.5 -57.5t54.5 -18.5q42 0 79 29l2 1q3 0 5.5 -4.5t-0.5 -6.5q-37 -34 -70 -49.5t-70 -15.5q-43 0 -72.5 20.5zM136 352v24
q64 0 162 10q2 0 4.5 -7.5t2.5 -16.5t-3.5 -18t-7.5 -8q-72 16 -158 16z" />
    <glyph glyph-name="u" unicode="u" horiz-adv-x="501" 
d="M105 22.5q-30 33.5 -30 91.5v149q0 35 -7.5 51.5t-23.5 16.5q-13 0 -28 -8h-1q-4 0 -6 5t1 7l126 59l5 1q4 0 9 -4t5 -7v-227q0 -56 20.5 -83.5t62.5 -27.5q32 0 64.5 18.5t53.5 48.5l6 -12q-82 -112 -173 -112q-54 0 -84 33.5zM424 64.5q7 -14.5 24 -14.5q12 0 45 12
l2 1q3 0 5 -5t-1 -7l-131 -63l-4 -1q-11 0 -19 25t-8 67v184q0 35 -7.5 51.5t-23.5 16.5q-12 0 -28 -8h-1q-4 0 -6 5.5t2 6.5l126 59l4 1q4 0 9 -4t5 -7v-271q0 -34 7 -48.5z" />
    <glyph glyph-name="v" unicode="v" horiz-adv-x="438" 
d="M448 380q0 -6 -2 -6q-28 0 -48.5 -20t-39.5 -64l-124 -290q-2 -5 -10 -5q-9 0 -12 5l-148 303q-22 44 -36.5 57.5t-36.5 13.5q-3 0 -3 6t3 6q18 0 29 -1l58 -1l73 1q16 1 45 1q3 0 3 -6t-3 -6q-59 0 -59 -23q0 -6 5 -16l122 -242l-43 -72l112 271q7 17 7 33
q0 24 -17.5 36.5t-51.5 12.5q-2 0 -2 6t2 6q27 0 41 -1l60 -1l39 1q11 1 35 1q2 0 2 -6z" />
    <glyph glyph-name="w" unicode="w" horiz-adv-x="680" 
d="M272 360.5q-12 13.5 -31 13.5q-2 0 -2 6t2 6q17 0 28 -1l52 -1l68 1q15 1 41 1q2 0 2 -6t-2 -6q-23 0 -36.5 -6.5t-13.5 -18.5q0 -7 4 -14l122 -241l-42 -72l111 270q7 18 7 34q0 23 -17.5 35.5t-50.5 12.5q-3 0 -3 6t3 6q27 0 40 -1l60 -1l40 1q10 1 34 1q3 0 3 -6
t-3 -6q-27 0 -47.5 -19.5t-39.5 -64.5l-124 -289q-1 -4 -10 -4q-11 0 -12 4l-149 302q-22 44 -34 57.5zM27.5 360.5q-14.5 13.5 -36.5 13.5q-3 0 -3 6t3 6q18 0 29 -1l58 -1l68 1q15 1 41 1q3 0 3 -6t-3 -6q-53 0 -53 -23q0 -6 5 -16l126 -241l-44 -72l109 263l24 -5
l-120 -279q0 -4 -10 -4q-9 0 -12 4l-148 302q-22 44 -36.5 57.5z" />
    <glyph glyph-name="x" unicode="x" horiz-adv-x="440" 
d="M249 6q0 6 3 6q26 0 26 13q0 9 -11 26l-168 252q-22 34 -44 52.5t-40 18.5q-2 0 -2 6t2 6q21 0 31 -1l31 -1l67 1q16 1 44 1q2 0 2 -6t-2 -6q-26 0 -26 -14q0 -10 11 -25l167 -252q25 -37 49 -54t44 -17q3 0 3 -6t-3 -6l-35 1q-12 1 -35 1l-69 -1q-15 -1 -42 -1
q-3 0 -3 6zM4 6q0 6 3 6q29 0 62.5 23t62.5 63l71 98l14 -13l-62 -91q-23 -32 -23 -52q0 -28 49 -28q3 0 3 -6t-3 -6q-27 0 -40 1l-60 1l-40 -1q-10 -1 -34 -1q-3 0 -3 6zM210 204l61 90q23 34 23 52q0 28 -50 28q-2 0 -2 6t2 6q27 0 41 -1l60 -1l40 1q10 1 34 1q3 0 3 -6
t-3 -6q-29 0 -62.5 -23t-62.5 -63l-72 -96z" />
    <glyph glyph-name="y" unicode="y" horiz-adv-x="430" 
d="M440 380q0 -6 -2 -6q-30 0 -51.5 -24t-39.5 -73l-115 -305q-36 -96 -69 -151t-67 -78.5t-75 -23.5q-28 0 -43.5 11.5t-15.5 34.5q0 19 12.5 30t30.5 11q12 0 19.5 -3t18.5 -10q17 -13 35 -13q25 0 45.5 21.5t44 70.5t57.5 141l-3 -46l-165 336q-23 44 -35 57.5t-31 13.5
q-2 0 -2 6t2 6q26 0 40 -1l39 -1l68 1q15 1 41 1q3 0 3 -6t-3 -6q-27 0 -40 -4.5t-13 -15.5q0 -8 6 -19l130 -267l-31 -53l91 262q8 26 8 43q0 54 -67 54q-2 0 -2 6t2 6q27 0 41 -1l60 -1l39 1q11 1 35 1q2 0 2 -6z" />
    <glyph glyph-name="z" unicode="z" horiz-adv-x="405" 
d="M260 372q-93 0 -144 -23t-69 -77q0 -2 -4 -2q-3 0 -6 1.5t-2 2.5l40 148q0 1 4 1q8 0 7 -4q-2 -8 -2 -11q0 -13 12 -17.5t39 -4.5h224q4 0 6.5 -4t1.5 -8l-231 -350q-3 -7 5 -7q75 0 119.5 10t68.5 33.5t35 65.5q1 2 6.5 2t5.5 -2l-2 -115q0 -4 -3 -7.5t-7 -3.5h-321
q-4 0 -6.5 4t-0.5 8l229 353q4 7 -5 7z" />
    <glyph glyph-name="braceleft" unicode="{" horiz-adv-x="289" 
d="M29 304.5q0 6.5 3 6.5q40 6 52.5 64.5t12.5 153.5q0 86 12.5 126.5t43.5 55t97 14.5q4 0 4 -6t-4 -6q-29 0 -45 -27.5t-17 -78.5q-2 -122 -8.5 -172t-29 -78.5t-77.5 -51.5q55 -24 77.5 -53.5t29 -79.5t8.5 -171q1 -51 17 -78.5t45 -27.5q4 0 4 -6t-4 -6
q-66 0 -97.5 14.5t-43.5 55.5t-12 127q0 96 -12.5 154t-52.5 64q-3 0 -3 6.5z" />
    <glyph glyph-name="bar" unicode="|" horiz-adv-x="168" 
d="M86 738q22 0 22 -7v-885q0 -4 -6.5 -6t-15.5 -2t-16 2t-7 6v885q0 7 23 7z" />
    <glyph glyph-name="braceright" unicode="}" horiz-adv-x="283" 
d="M198.5 234q-12.5 -58 -12.5 -154q0 -86 -12 -127t-43.5 -55.5t-97.5 -14.5q-4 0 -4 6t4 6q29 0 45 27.5t17 78.5q2 121 8.5 171t29 79.5t77.5 53.5q-55 23 -77.5 51.5t-29 78.5t-8.5 172q-1 51 -17 78.5t-45 27.5q-4 0 -4 6t4 6q66 0 97 -14.5t43.5 -55t12.5 -126.5
q0 -95 12.5 -153.5t52.5 -64.5q3 0 3 -6.5t-3 -6.5q-40 -6 -52.5 -64z" />
    <glyph glyph-name="asciitilde" unicode="~" horiz-adv-x="443" 
d="M357.5 217q15.5 10 31.5 28l2 1q2 0 4 -3t1 -5q-37 -56 -61 -75t-52 -19q-17 0 -31.5 4t-42.5 13q-46 19 -80 19q-23 0 -35.5 -6.5t-23 -17t-15.5 -14.5h-1q-2 0 -4.5 2.5t-1.5 4.5q61 94 120 94q13 0 30 -5t33 -11q25 -10 44.5 -15t38.5 -5q28 0 43.5 10z" />
    <glyph glyph-name="uni00A0" unicode="&#xa0;" horiz-adv-x="234" 
 />
    <glyph glyph-name="exclamdown" unicode="&#xa1;" horiz-adv-x="258" 
d="M172 -272q-20 -3 -43 -3t-43.5 3.5t-18.5 8.5q19 78 28.5 168t19.5 227l2 33q0 2 4.5 3.5t9.5 1.5t9.5 -1.5t4.5 -3.5q8 -147 17 -245.5t29 -182.5q1 -6 -19 -9zM175 350q15 -15 15 -40q0 -24 -15 -38t-41 -14q-25 0 -39 14t-14 38q0 26 14 40.5t39 14.5q26 0 41 -15z
" />
    <glyph glyph-name="cent" unicode="&#xa2;" horiz-adv-x="533" 
d="M278 567q4 2 10 2q5 0 9 -2t4 -6v-663q0 -7 -13 -7q-14 0 -14 7v663q0 4 4 6zM389.5 472q43.5 -8 71.5 -21q7 -3 9 -6.5t2 -10.5l7 -103q0 -3 -5.5 -4t-6.5 3q-31 66 -73 98t-100 32q-74 0 -116.5 -58t-42.5 -151q0 -62 19.5 -118t61 -91t102.5 -35q55 0 92.5 32
t66.5 101q1 4 6 3t5 -4l-10 -106q-1 -8 -3 -11t-11 -7q-77 -27 -160 -27q-95 0 -156 38t-88.5 95t-27.5 115q0 68 36.5 124t100 88t140.5 32q37 0 80.5 -8z" />
    <glyph glyph-name="sterling" unicode="&#xa3;" horiz-adv-x="432" 
d="M316.5 52q21.5 6 32.5 22.5t19 52.5q0 2 6 1.5t6 -2.5q-9 -52 -9 -111q0 -8 -3.5 -11.5t-11.5 -3.5h-337q-2 0 -2 5.5t2 6.5q51 12 69.5 35.5t18.5 58.5q0 41 -6.5 69.5t-18.5 64.5q-9 29 -13.5 47.5t-4.5 41.5q0 77 52 114t131 37q47 0 89 -14q15 -6 16 -19l7 -103
q0 -4 -5 -4q-4 0 -7 4q-25 57 -51.5 87.5t-67.5 30.5q-42 0 -60.5 -28.5t-18.5 -70.5q0 -26 5 -47.5t16 -59.5q10 -33 15.5 -57.5t5.5 -50.5q0 -45 -17.5 -69.5t-51.5 -48.5l-23 16h152q44 0 65.5 6zM281 230q0 -14 -7 -14h-228q-3 0 -5 4.5t-2 9.5t2 9t5 4h228q7 0 7 -13z
" />
    <glyph glyph-name="currency" unicode="&#xa4;" horiz-adv-x="414" 
d="M81 33l-29 29l53 55l26 -27zM47 340l34 31l52 -56l-32 -29zM365 66l-34 -33l-52 59l31 29zM336 368l28 -28l-57 -58l-27 27zM124 84.5q-31 19.5 -47 51.5t-16 66q0 42 23 72.5t57.5 45.5t69.5 15q58 0 98 -38.5t40 -95.5q0 -41 -22 -72t-57.5 -47.5t-73.5 -16.5
q-41 0 -72 19.5zM262.5 111.5q17.5 24.5 17.5 68.5q0 54 -25 93.5t-67 39.5q-28 0 -44.5 -23t-16.5 -67q0 -53 23 -94.5t65 -41.5q30 0 47.5 24.5z" />
    <glyph glyph-name="yen" unicode="&#xa5;" horiz-adv-x="492" 
d="M397 142.5q2 -3.5 2 -8.5t-2 -8.5t-6 -3.5h-282q-3 0 -5 3.5t-2 8.5t2 8.5t5 3.5h282q4 0 6 -3.5zM397 209.5q2 -3.5 2 -8.5t-2 -8.5t-6 -3.5h-282q-3 0 -5 3.5t-2 8.5t2 8.5t5 3.5h282q4 0 6 -3.5zM365 416q0 19 -12.5 29.5t-35.5 10.5q-3 0 -3 6t3 6l46 -1q36 -2 68 -2
q13 0 31 2l26 1q3 0 3 -6t-3 -6q-61 0 -114 -90l-100 -176l-20 6l95 171q16 29 16 49zM49.5 439.5q-21.5 16.5 -46.5 16.5q-3 0 -3 6t3 6l36 -1q26 -2 37 -2q30 0 88 2l58 1q2 0 2 -6t-2 -6q-47 0 -47 -23q0 -12 11 -29l110 -169l-74 -44l-126 194q-25 38 -46.5 54.5z
M301.5 36q5.5 -14 21.5 -19t51 -5q2 0 2 -6t-2 -6q-32 0 -50 1l-73 1l-69 -1q-20 -1 -54 -1q-3 0 -3 6t3 6q34 0 50.5 5t22.5 19.5t6 44.5v50h89v-50q0 -31 5.5 -45zM207 228l89 9v-38l-89 1v28z" />
    <glyph glyph-name="brokenbar" unicode="&#xa6;" horiz-adv-x="168" 
d="M70 222q7 2 16 2t15.5 -2t6.5 -6v-370q0 -4 -6.5 -6t-15.5 -2t-16 2t-7 6v370q0 4 7 6zM86 738q22 0 22 -7v-371q0 -3 -6.5 -5t-15.5 -2t-16 2t-7 5v371q0 7 23 7z" />
    <glyph glyph-name="section" unicode="&#xa7;" horiz-adv-x="472" 
d="M341 63.5q9 24.5 9 55.5q0 45 -18 78t-43.5 54t-67.5 49q-37 24 -58.5 42t-36 42.5t-14.5 56.5q0 63 48 97t115 34q52 0 87 -19q11 -5 11 -16l8 -111q0 -2 -6 -2t-6 2q-15 40 -49.5 81.5t-78.5 41.5q-26 0 -41.5 -17t-15.5 -52q0 -33 14.5 -58.5t36 -43t58.5 -42.5
q41 -27 65.5 -47.5t41.5 -51.5t17 -74q0 -40 -21 -73.5t-80 -78.5l-8 9q24 19 33 43.5zM135 -170q-11 7 -11 17l-8 110q0 3 5.5 3t6.5 -3q14 -39 49 -80.5t79 -41.5q25 0 40.5 17.5t15.5 51.5q0 33 -14.5 58t-36 43t-58.5 42q-40 27 -65 47.5t-42 52t-17 74.5
q0 40 20.5 73.5t78.5 78.5l8 -9q-23 -20 -32 -44.5t-9 -54.5q0 -45 18 -78t43 -54t69 -50q55 -35 82.5 -64.5t27.5 -75.5q0 -64 -48 -97.5t-116 -33.5q-50 0 -86 18z" />
    <glyph glyph-name="dieresis" unicode="&#xa8;" horiz-adv-x="322" 
d="M37.5 482q-13.5 13 -13.5 37q0 23 13.5 35.5t37.5 12.5q23 0 35.5 -12.5t12.5 -35.5q0 -24 -12.5 -37t-35.5 -13q-24 0 -37.5 13zM212.5 482q-13.5 13 -13.5 37q0 22 13.5 34.5t36.5 12.5t35.5 -12t12.5 -35q0 -24 -12.5 -37t-35.5 -13t-36.5 13z" />
    <glyph glyph-name="copyright" unicode="&#xa9;" horiz-adv-x="724" 
d="M225 -70.5q-71 34.5 -114.5 101t-43.5 157.5q0 90 48 161.5t126.5 111.5t165.5 40q77 0 136 -32t91 -85t32 -115q0 -60 -33.5 -113t-92.5 -85t-132 -32q-63 0 -104 22.5t-59.5 58t-18.5 75.5q0 52 25.5 90t65.5 58.5t84 20.5q40 0 71 -15t32 -42q0 -18 -10 -28t-28 -10
q-14 0 -23.5 8.5t-17.5 24.5q-12 20 -23 30t-32 10q-36 0 -49.5 -28t-13.5 -87q0 -70 36 -115.5t111 -45.5q40 0 75.5 20.5t57 59.5t21.5 92q0 66 -30.5 121t-84.5 87t-120 32q-75 0 -130 -35.5t-83 -96t-28 -133.5q0 -88 37 -152t100.5 -98t141.5 -34q53 0 96.5 10.5
t91.5 38.5h2q2 0 4 -3t0 -4q-56 -43 -111 -59.5t-117 -16.5q-81 0 -152 34.5z" />
    <glyph glyph-name="ordfeminine" unicode="&#xaa;" horiz-adv-x="285" 
d="M34.5 289.5q-1.5 5.5 -1.5 12.5q0 5 1.5 10t2.5 5h225q2 0 3.5 -5t1.5 -11t-1.5 -11.5t-3.5 -5.5h-224q-2 0 -3.5 5.5zM203 364q-12 0 -21 15t-9 40v119q0 46 -10 60t-29 14q-15 0 -25.5 -14.5t-13.5 -36.5q-4 -33 -33 -33q-15 0 -24 8.5t-9 21.5q0 17 22.5 33.5
t54.5 27.5t55 11q30 0 48.5 -18t18.5 -54v-117q0 -23 4 -33t14 -10q5 0 27 9h1q4 0 5.5 -3.5t-0.5 -5.5l-68 -32q-6 -2 -8 -2zM42 376q-13 11 -13 28t10.5 29t37.5 21l114 39l1 -10l-72 -27q-14 -6 -20.5 -13.5t-6.5 -19.5q0 -13 7.5 -21t19.5 -8q11 0 23 5l54 28l1 -11
l-58 -31q-21 -12 -34.5 -16t-28.5 -4q-22 0 -35 11z" />
    <glyph glyph-name="guillemotleft" unicode="&#xab;" horiz-adv-x="468" 
d="M51 201q0 7 4 11l184 149q0 1 2 1t4 -2.5t1 -3.5l-102 -155l102 -155q1 -2 -2.5 -5.5t-4.5 -0.5l-184 149q-4 4 -4 12zM215 201q0 5 4 11l185 149q0 1 2 1t4 -2.5t1 -3.5l-103 -155l103 -155q1 -2 -2.5 -5.5t-4.5 -0.5l-185 149q-4 6 -4 12z" />
    <glyph glyph-name="logicalnot" unicode="&#xac;" horiz-adv-x="395" 
d="M356.5 73.5q-7.5 -1.5 -16.5 -1.5q-8 0 -14.5 1t-6.5 3v194h45v-193q0 -2 -7.5 -3.5zM30.5 233.5q-1.5 7.5 -1.5 16.5q0 7 1.5 13.5t2.5 6.5h331v-44h-330q-2 0 -3.5 7.5z" />
    <glyph glyph-name="uni00AD" unicode="&#xad;" horiz-adv-x="0" 
 />
    <glyph glyph-name="registered" unicode="&#xae;" horiz-adv-x="743" 
d="M221 173q-69 35 -111.5 99.5t-42.5 149.5q0 89 45.5 158.5t121.5 107t163 37.5q86 0 151 -36t101 -98.5t36 -139.5q0 -86 -43 -158t-116 -113.5t-161 -41.5q-75 0 -144 35zM234 278.5q0 5.5 1 5.5q18 0 25.5 3t10 12t2.5 30v215q0 28 -6.5 36t-31.5 8q-1 0 -1 6t1 6
l71 -1q12 0 44 2q28 2 38 2q50 0 74 -16.5t24 -51.5q0 -54 -48 -81t-121 -22v17q23 -3 39 -3q37 0 52 15.5t15 52.5q0 39 -13.5 57.5t-37.5 18.5q-16 0 -23.5 -2.5t-11 -12.5t-3.5 -33v-213q0 -21 3 -30t12 -12t30 -3q2 0 2 -5.5t-2 -5.5l-73 1l-71 -1q-1 0 -1 5.5zM568 235
q59 70 59 184q0 85 -34 149t-94.5 98.5t-138.5 34.5q-79 0 -132 -33.5t-79 -89t-26 -123.5q0 -86 38 -152t101.5 -102t137.5 -36q109 0 168 70zM439 312.5q-22 39.5 -63 123.5l54 14q40 -82 67.5 -118t64.5 -51q2 0 2 -4t-2 -4h-91q-10 0 -32 39.5z" />
    <glyph glyph-name="macron" unicode="&#xaf;" horiz-adv-x="345" 
d="M41 482.5q-2 5.5 -2 11.5q0 7 2 12t6 5h251q4 0 6.5 -5t2.5 -12t-2.5 -12t-6.5 -5h-251q-4 0 -6 5.5z" />
    <glyph glyph-name="degree" unicode="&#xb0;" horiz-adv-x="332" 
d="M67.5 410q-38.5 37 -38.5 93q0 53 38.5 90t99.5 37t98.5 -37t37.5 -92t-37.5 -91.5t-98.5 -36.5t-99.5 37zM222 412.5q11 26.5 11 81.5q0 62 -17.5 92.5t-54.5 30.5q-35 0 -48 -28.5t-13 -82.5q0 -57 16.5 -88.5t57.5 -31.5q37 0 48 26.5z" />
    <glyph glyph-name="plusminus" unicode="&#xb1;" horiz-adv-x="398" 
d="M30.5 8q-1.5 7 -1.5 15q0 7 1 13t3 6h331q2 0 3.5 -6.5t1.5 -13.5q0 -8 -1.5 -14.5t-3.5 -6.5h-330q-2 0 -3.5 7zM30.5 237.5q-1.5 7.5 -1.5 16.5q0 8 1 14.5t3 6.5h331q2 0 3.5 -7t1.5 -15q0 -9 -1.5 -16t-3.5 -7h-330q-2 0 -3.5 7.5zM214 84.5q-8 -1.5 -17 -1.5
q-8 0 -14.5 1t-6.5 3v331q0 4 23 4t23 -4v-330q0 -2 -8 -3.5z" />
    <glyph glyph-name="uni00B2" unicode="&#xb2;" horiz-adv-x="252" 
d="M51.5 477.5q17.5 28.5 43.5 59.5q27 34 39 56t12 53q0 58 -45 58q-22 0 -39 -15t-24 -38q0 -2 -4 -2q-3 0 -5.5 1.5t-1.5 3.5q11 35 34 55.5t65 20.5t63.5 -20.5t21.5 -52.5t-20 -57.5t-59 -59.5q-30 -26 -46 -43.5t-23 -37.5q0 -3 3 -3q64 0 93 3t40 12t13 29q0 2 5.5 2
t5.5 -2l-2 -92q0 -2 -1 -3.5t-3 -1.5h-190q-2 0 -3 2t0 4q10 40 27.5 68.5z" />
    <glyph glyph-name="uni00B3" unicode="&#xb3;" horiz-adv-x="251" 
d="M196 555q29 -20 29 -58q0 -39 -29 -70t-80 -31q-73 0 -94 69q-1 4 5 5.5t7 -2.5q9 -21 26.5 -34.5t41.5 -13.5q25 0 41 16.5t16 53.5q0 36 -19.5 55t-55.5 19q-4 0 -4 6t4 6q30 0 46 19.5t16 49.5q0 28 -12.5 42t-33.5 14q-22 0 -39 -15.5t-21 -35.5q-2 -2 -5 -2
t-5.5 1.5t-1.5 3.5q9 35 33 55.5t65 20.5t63.5 -20.5t22.5 -52.5q0 -35 -27.5 -60.5t-61.5 -28.5v10q44 -2 73 -22z" />
    <glyph glyph-name="acute" unicode="&#xb4;" horiz-adv-x="212" 
d="M65 472q-3 0 -5.5 1.5t-1.5 2.5l40 240q1 4 28 9.5t45 5.5q13 0 12 -4l-114 -253q0 -2 -4 -2z" />
    <glyph glyph-name="paragraph" unicode="&#xb6;" horiz-adv-x="651" 
d="M286 -178.5q-22 14.5 -22 39.5q0 18 11 29.5t33 11.5q23 0 31.5 -11t13.5 -32q3 -16 7.5 -24t17.5 -8q23 0 32 39.5t9 141.5v117q-25 -3 -57 -3q-79 0 -148.5 26t-114.5 85t-45 153q0 118 74.5 180t206.5 62q31 0 64 -3q12 0 37.5 -1.5t47.5 -1.5q20 0 58 2l52 1
q2 0 2 -6t-2 -6q-43 0 -66 -21t-23 -60l1 -477q0 -129 -38 -188.5t-122 -59.5q-38 0 -60 14.5z" />
    <glyph glyph-name="periodcentered" unicode="&#xb7;" horiz-adv-x="195" 
d="M57 161.5q-15 14.5 -15 39.5q0 24 15 38.5t40 14.5q26 0 40 -14.5t14 -38.5q0 -26 -14 -40t-40 -14q-25 0 -40 14.5z" />
    <glyph glyph-name="cedilla" unicode="&#xb8;" horiz-adv-x="232" 
d="M111 -42q0 -17 9.5 -28.5t31.5 -24.5q26 -16 40.5 -33.5t14.5 -44.5q0 -40 -29 -71t-87 -31q-71 0 -71 45q0 14 10.5 24.5t25.5 10.5q17 0 24 -7.5t13 -21.5t12.5 -21t22.5 -7q26 0 26 28q0 26 -18.5 47t-65.5 47q-5 2 -7.5 5t-2.5 7q0 6 4 17q14 33 29 76q5 9 9 24
l16 -1q-7 -28 -7 -40z" />
    <glyph glyph-name="uni00B9" unicode="&#xb9;" horiz-adv-x="262" 
d="M38 409q0 6 2 6q32 0 45 4.5t17 18t4 46.5v118q0 44 -3.5 59t-17.5 15q-13 0 -50 -17h-1q-4 0 -6 5t1 6l129 58q1 1 3 1q3 0 5 -2.5t2 -5.5v-237q0 -34 3.5 -47.5t16 -17.5t42.5 -4q2 0 2 -6t-2 -6l-39 1q-34 2 -53 2q-21 0 -57 -2l-41 -1q-2 0 -2 6z" />
    <glyph glyph-name="ordmasculine" unicode="&#xba;" horiz-adv-x="322" 
d="M36.5 289.5q-1.5 5.5 -1.5 12.5q0 5 1.5 10t2.5 5h243q2 0 3.5 -5t1.5 -11t-1.5 -11.5t-3.5 -5.5h-242q-2 0 -3.5 5.5zM64 399.5q-35 40.5 -35 98.5q0 43 21 72.5t53 44.5t65 15q38 0 66.5 -19t44 -50t15.5 -66q0 -37 -19 -68.5t-50.5 -49.5t-68.5 -18q-57 0 -92 40.5z
M215 401.5q16 27.5 16 75.5q0 58 -23 97.5t-59 39.5q-28 0 -42.5 -25t-14.5 -72q0 -58 22.5 -100.5t56.5 -42.5q28 0 44 27.5z" />
    <glyph glyph-name="guillemotright" unicode="&#xbb;" horiz-adv-x="468" 
d="M418 201q0 -7 -5 -12l-184 -149q0 -1 -2 -1t-4 2.5t-1 4.5l103 154l-103 156q-1 2 2.5 5t4.5 0l184 -149q5 -5 5 -11zM254 201q0 -7 -5 -12l-184 -149q0 -1 -2 -1t-4 2.5t-1 4.5l103 154l-103 156q-1 2 2.5 5t4.5 0l184 -149q5 -5 5 -11z" />
    <glyph glyph-name="onequarter" unicode="&#xbc;" horiz-adv-x="605" 
d="M38 314.5q0 5.5 2 5.5q32 0 45 4.5t17 18t4 46.5v119q0 44 -3.5 59t-17.5 15q-13 0 -50 -17h-2q-3 0 -5 4.5t1 5.5l129 59h2q3 0 5.5 -2.5t2.5 -4.5v-238q0 -34 3.5 -47.5t16 -17.5t42.5 -4q2 0 2 -5.5t-2 -5.5q-25 0 -39 1l-53 1l-57 -1q-15 -1 -41 -1q-2 0 -2 5.5z
M171.5 3.5q-14.5 7.5 -13.5 9.5l279 616q2 3 16.5 -3t13.5 -9l-280 -618q-1 -3 -15.5 4.5zM542 21.5q2 -5.5 10.5 -8t28.5 -2.5q1 -2 1 -6t-1 -6l-67 1l-84 -1q-1 0 -1 6t1 6q24 0 34 2t13.5 8t3.5 20v219l17 10l-111 -158q-3 -3 2 -3q64 0 154 4l38 2q3 0 3 -13
q0 -14 -3 -14q-120 6 -226 6q-3 0 -5 3.5t1 5.5l163 218q3 4 12 4q5 0 9.5 -1.5t4.5 -3.5v-279q0 -14 2 -19.5z" />
    <glyph glyph-name="onehalf" unicode="&#xbd;" horiz-adv-x="611" 
d="M38 314.5q0 5.5 2 5.5q32 0 45 4.5t17 18t4 46.5v119q0 44 -3.5 59t-17.5 15q-13 0 -50 -17h-2q-3 0 -5 4.5t1 5.5l129 59h2q3 0 5.5 -2.5t2.5 -4.5v-238q0 -34 3.5 -47.5t16 -17.5t42.5 -4q2 0 2 -5.5t-2 -5.5q-25 0 -39 1l-53 1l-57 -1q-15 -1 -41 -1q-2 0 -2 5.5z
M171.5 3.5q-14.5 7.5 -13.5 9.5l279 616q2 3 16.5 -3t13.5 -9l-280 -618q-1 -3 -15.5 4.5zM410.5 74.5q17.5 28.5 43.5 59.5q26 32 38.5 55t12.5 54q0 29 -12 43t-33 14q-22 0 -39 -14.5t-24 -37.5q0 -3 -4 -3q-3 0 -5.5 1.5t-1.5 3.5q11 35 34 55.5t65 20.5t63.5 -20
t21.5 -52q0 -33 -20.5 -58.5t-59.5 -59.5q-29 -25 -45 -42.5t-23 -37.5q0 -3 3 -3q64 0 93 3t40 12t13 30q0 2 5.5 2t5.5 -2l-2 -93q0 -5 -4 -5h-190q-4 0 -3 6q10 40 27.5 68.5z" />
    <glyph glyph-name="threequarters" unicode="&#xbe;" horiz-adv-x="594" 
d="M195.5 460.5q29.5 -20.5 29.5 -57.5q0 -39 -29 -70t-80 -31q-73 0 -94 69q-1 4 5 5t7 -3q9 -21 26.5 -34t41.5 -13q25 0 41 16.5t16 53.5q0 36 -19.5 55t-55.5 19q-4 0 -4 6t4 6q30 0 46 19.5t16 49.5q0 27 -12.5 41.5t-33.5 14.5q-22 0 -39 -15.5t-21 -35.5q-1 -3 -5 -3
q-3 0 -5.5 1.5t-1.5 3.5q9 35 33 55.5t65 20.5t63.5 -20.5t22.5 -52.5q0 -34 -27.5 -59.5t-61.5 -28.5v10q43 -2 72.5 -22.5zM160.5 3.5q-14.5 7.5 -13.5 9.5l279 616q2 3 16.5 -3t13.5 -9l-280 -618q-1 -3 -15.5 4.5zM531 21.5q2 -5.5 10.5 -8t28.5 -2.5q1 -2 1 -6t-1 -6
l-67 1l-84 -1q-1 0 -1 6t1 6q24 0 34 2t13.5 8t3.5 20v219l17 10l-111 -158q-3 -3 2 -3q64 0 154 4l38 2q3 0 3 -13q0 -14 -3 -14q-120 6 -226 6q-3 0 -5 3.5t1 5.5l163 218q3 4 12 4q5 0 9.5 -1.5t4.5 -3.5v-279q0 -14 2 -19.5z" />
    <glyph glyph-name="questiondown" unicode="&#xbf;" horiz-adv-x="327" 
d="M188.5 -246.5q6.5 11.5 8.5 31.5q3 26 13 43t38 17q23 0 34 -12.5t11 -29.5q0 -32 -37.5 -55t-92.5 -23q-63 0 -105.5 31t-42.5 88q0 38 18 63t54 57l18 15q32 29 46.5 58t14.5 65q0 20 -6 54q-1 3 6.5 4.5t8.5 -1.5q12 -27 19 -61.5t7 -58.5q0 -31 -10.5 -50.5
t-31.5 -44.5q-23 -27 -35 -50.5t-12 -61.5q0 -40 14 -65t38 -25q18 0 24.5 11.5zM216 346q15 -15 15 -40q0 -24 -15 -38t-40 -14t-39.5 14t-14.5 38q0 26 14.5 40.5t39.5 14.5t40 -15z" />
    <glyph glyph-name="Agrave" unicode="&#xc0;" horiz-adv-x="711" 
d="M192 270h280l7 -25h-300zM715 6q0 -6 -4 -6q-19 0 -61 2t-61 2q-25 0 -59 -2t-53 -2q-4 0 -4 6t4 6q30 0 43 6.5t13 21.5t-17 51l-209 425l41 67l-198 -446q-13 -30 -13 -54q0 -35 25 -53t70 -18q5 0 5 -6t-5 -6q-18 0 -52 2q-38 2 -66 2q-27 0 -63 -2q-32 -2 -53 -2
q-5 0 -5 6t5 6q28 0 47 11t37 39.5t43 84.5l215 484q2 3 9 3t8 -3l245 -494q34 -72 57.5 -98.5t51.5 -26.5q4 0 4 -6zM227 756q-11 2 9.5 12t47 18t31.5 4q30 -22 45 -34q61 -46 93 -67q3 -1 3 -4t-2 -5t-5 -1q-112 50 -222 77z" />
    <glyph glyph-name="Aacute" unicode="&#xc1;" horiz-adv-x="711" 
d="M192 270h280l7 -25h-300zM715 6q0 -6 -4 -6q-19 0 -61 2t-61 2q-25 0 -59 -2t-53 -2q-4 0 -4 6t4 6q30 0 43 6.5t13 21.5t-17 51l-209 425l41 67l-198 -446q-13 -30 -13 -54q0 -35 25 -53t70 -18q5 0 5 -6t-5 -6q-18 0 -52 2q-38 2 -66 2q-27 0 -63 -2q-32 -2 -53 -2
q-5 0 -5 6t5 6q28 0 47 11t37 39.5t43 84.5l215 484q2 3 9 3t8 -3l245 -494q34 -72 57.5 -98.5t51.5 -26.5q4 0 4 -6zM252 678q-4 0 -5.5 4.5t1.5 6.5q33 21 94 67q14 12 44 34q5 4 32 -4t47 -18t10 -12q-118 -30 -222 -78h-1z" />
    <glyph glyph-name="Acircumflex" unicode="&#xc2;" horiz-adv-x="711" 
d="M192 270h280l7 -25h-300zM715 6q0 -6 -4 -6q-19 0 -61 2t-61 2q-25 0 -59 -2t-53 -2q-4 0 -4 6t4 6q30 0 43 6.5t13 21.5t-17 51l-209 425l41 67l-198 -446q-13 -30 -13 -54q0 -35 25 -53t70 -18q5 0 5 -6t-5 -6q-18 0 -52 2q-38 2 -66 2q-27 0 -63 -2q-32 -2 -53 -2
q-5 0 -5 6t5 6q28 0 47 11t37 39.5t43 84.5l215 484q2 3 9 3t8 -3l245 -494q34 -72 57.5 -98.5t51.5 -26.5q4 0 4 -6zM350 800q6 0 11 -5l102 -109q1 0 1 -2t-2.5 -4t-3.5 -1l-108 45l-109 -45q-2 -1 -5 2.5t-1 4.5l103 109q5 5 12 5z" />
    <glyph glyph-name="Atilde" unicode="&#xc3;" horiz-adv-x="711" 
d="M192 270h280l7 -25h-300zM715 6q0 -6 -4 -6q-19 0 -61 2t-61 2q-25 0 -59 -2t-53 -2q-4 0 -4 6t4 6q30 0 43 6.5t13 21.5t-17 51l-209 425l41 67l-198 -446q-13 -30 -13 -54q0 -35 25 -53t70 -18q5 0 5 -6t-5 -6q-18 0 -52 2q-38 2 -66 2q-27 0 -63 -2q-32 -2 -53 -2
q-5 0 -5 6t5 6q28 0 47 11t37 39.5t43 84.5l215 484q2 3 9 3t8 -3l245 -494q34 -72 57.5 -98.5t51.5 -26.5q4 0 4 -6zM452.5 766q10.5 6 23.5 21l2 1q2 0 4 -3t1 -5q-26 -44 -43 -59t-39 -15q-21 0 -58 11q-16 5 -34.5 9t-34.5 4q-19 0 -27 -5.5t-23 -21.5h-1q-3 0 -5.5 2.5
t-0.5 4.5q44 75 86 75q12 0 48 -10q49 -15 74 -15q17 0 27.5 6z" />
    <glyph glyph-name="Adieresis" unicode="&#xc4;" horiz-adv-x="711" 
d="M192 270h280l7 -25h-300zM715 6q0 -6 -4 -6q-19 0 -61 2t-61 2q-25 0 -59 -2t-53 -2q-4 0 -4 6t4 6q30 0 43 6.5t13 21.5t-17 51l-209 425l41 67l-198 -446q-13 -30 -13 -54q0 -35 25 -53t70 -18q5 0 5 -6t-5 -6q-18 0 -52 2q-38 2 -66 2q-27 0 -63 -2q-32 -2 -53 -2
q-5 0 -5 6t5 6q28 0 47 11t37 39.5t43 84.5l215 484q2 3 9 3t8 -3l245 -494q34 -72 57.5 -98.5t51.5 -26.5q4 0 4 -6zM225.5 721q-13.5 13 -13.5 37q0 22 14 35t37 13t35.5 -12.5t12.5 -35.5q0 -24 -12.5 -37t-35.5 -13q-24 0 -37.5 13zM400.5 721q-13.5 13 -13.5 37
q0 22 13.5 34.5t37.5 12.5q23 0 35.5 -12.5t12.5 -34.5q0 -24 -12.5 -37t-35.5 -13q-24 0 -37.5 13z" />
    <glyph glyph-name="Aring" unicode="&#xc5;" horiz-adv-x="711" 
d="M192 270h280l7 -25h-300zM715 6q0 -6 -4 -6q-19 0 -61 2t-61 2q-25 0 -59 -2t-53 -2q-4 0 -4 6t4 6q30 0 43 6.5t13 21.5t-17 51l-209 425l41 67l-198 -446q-13 -30 -13 -54q0 -35 25 -53t70 -18q5 0 5 -6t-5 -6q-18 0 -52 2q-38 2 -66 2q-27 0 -63 -2q-32 -2 -53 -2
q-5 0 -5 6t5 6q28 0 47 11t37 39.5t43 84.5l215 484q2 3 9 3t8 -3l245 -494q34 -72 57.5 -98.5t51.5 -26.5q4 0 4 -6zM269.5 684.5q-27.5 23.5 -27.5 56.5q0 36 34 56.5t76 20.5q41 0 70.5 -23t29.5 -56q0 -35 -33 -56.5t-76 -21.5q-46 0 -73.5 23.5zM388 721q0 34 -16.5 59
t-39.5 25q-26 0 -26 -44q0 -34 14 -60.5t38 -26.5q30 0 30 47z" />
    <glyph glyph-name="AE" unicode="&#xc6;" horiz-adv-x="883" 
d="M-9 6q0 6 5 6q38 0 74 28.5t78 91.5l293 442q13 18 13 25q0 9 -16.5 11.5t-60.5 2.5q-2 0 -2 6t2 6h418q9 0 9 -9l2 -130q0 -2 -5.5 -2.5t-5.5 2.5q-5 26 -23.5 52t-47 43.5t-60.5 17.5h-46q-36 0 -50.5 -12.5t-14.5 -43.5v-458q0 -33 12 -46t45 -13h54q52 0 99.5 38
t61.5 91q0 2 5 2q7 0 7 -3q-9 -68 -9 -139q0 -8 -3.5 -11.5t-12.5 -3.5h-427q-2 0 -2 6t2 6q34 0 49.5 5t21.5 19.5t6 44.5v508l32 15l-306 -470q-28 -43 -28 -72q0 -24 19.5 -37t56.5 -13q5 0 5 -6t-5 -6q-21 0 -59 2q-44 2 -76 2q-25 0 -57 -2q-30 -2 -48 -2q-5 0 -5 6z
M305 338h223l7 -26h-245zM644 312h-154v26h156q109 0 109 74q0 3 6 3t6 -3l-1 -87q0 -31 1 -47l1 -52q0 -2 -6 -2t-6 2q0 86 -112 86z" />
    <glyph glyph-name="Ccedilla" unicode="&#xc7;" horiz-adv-x="683" 
d="M601 605q8 -4 10 -7.5t4 -15.5l12 -132q0 -3 -5 -4t-7 3q-26 82 -77.5 125t-127.5 43q-74 0 -131 -36.5t-89 -105t-32 -159.5q0 -90 34 -160.5t93 -109.5t133 -39q73 0 121.5 38.5t85.5 122.5q1 3 6 2t5 -3l-13 -119q-2 -12 -4 -15.5t-10 -7.5q-90 -37 -192 -37
q-106 0 -190 40.5t-131 114t-47 168.5q0 94 48.5 168t133.5 115.5t191 41.5q111 0 179 -31zM409 -42q0 -17 9.5 -28.5t31.5 -24.5q26 -16 40.5 -33.5t14.5 -44.5q0 -40 -29 -71t-87 -31q-71 0 -71 45q0 14 10.5 24.5t25.5 10.5q17 0 24 -7.5t13 -21.5t12.5 -21t22.5 -7
q26 0 26 28q0 26 -18.5 47t-65.5 47q-5 2 -7.5 5t-2.5 7q0 6 4 17q14 33 29 76q5 9 9 24l16 -1q-7 -28 -7 -40z" />
    <glyph glyph-name="Egrave" unicode="&#xc8;" horiz-adv-x="547" 
d="M39 6q0 6 3 6q34 0 49.5 5t21 19.5t5.5 44.5v463q0 30 -5.5 44t-21.5 19.5t-49 5.5q-3 0 -3 6t3 6h416q10 0 10 -9l2 -130q0 -2 -5.5 -2.5t-6.5 2.5q-24 113 -138 113h-41q-37 0 -51.5 -13t-14.5 -44v-457q0 -33 12.5 -46t44.5 -13h49q134 0 170 129q0 2 5 2q7 0 7 -3
q-10 -76 -10 -139q0 -8 -3 -11.5t-12 -3.5h-434q-3 0 -3 6zM308 312h-140v26h141q110 0 110 74q0 3 5.5 3t5.5 -3l-1 -87l1 -47q2 -32 2 -52q0 -2 -6 -2t-6 2q0 86 -112 86zM173 756q-10 2 10 12t47 18t32 4l37 -28q60 -46 101 -73q2 -1 2 -4t-2 -5t-4 -1q-113 50 -223 77z
" />
    <glyph glyph-name="Eacute" unicode="&#xc9;" horiz-adv-x="547" 
d="M39 6q0 6 3 6q34 0 49.5 5t21 19.5t5.5 44.5v463q0 30 -5.5 44t-21.5 19.5t-49 5.5q-3 0 -3 6t3 6h416q10 0 10 -9l2 -130q0 -2 -5.5 -2.5t-6.5 2.5q-24 113 -138 113h-41q-37 0 -51.5 -13t-14.5 -44v-457q0 -33 12.5 -46t44.5 -13h49q134 0 170 129q0 2 5 2q7 0 7 -3
q-10 -76 -10 -139q0 -8 -3 -11.5t-12 -3.5h-434q-3 0 -3 6zM308 312h-140v26h141q110 0 110 74q0 3 5.5 3t5.5 -3l-1 -87l1 -47q2 -32 2 -52q0 -2 -6 -2t-6 2q0 86 -112 86zM197 678q-4 0 -5 4.5t2 6.5q32 19 88 63q46 35 50 38q5 4 32 -4t47.5 -18t9.5 -12
q-62 -15 -113.5 -33.5t-108.5 -43.5z" />
    <glyph glyph-name="Ecircumflex" unicode="&#xca;" horiz-adv-x="547" 
d="M39 6q0 6 3 6q34 0 49.5 5t21 19.5t5.5 44.5v463q0 30 -5.5 44t-21.5 19.5t-49 5.5q-3 0 -3 6t3 6h416q10 0 10 -9l2 -130q0 -2 -5.5 -2.5t-6.5 2.5q-24 113 -138 113h-41q-37 0 -51.5 -13t-14.5 -44v-457q0 -33 12.5 -46t44.5 -13h49q134 0 170 129q0 2 5 2q7 0 7 -3
q-10 -76 -10 -139q0 -8 -3 -11.5t-12 -3.5h-434q-3 0 -3 6zM308 312h-140v26h141q110 0 110 74q0 3 5.5 3t5.5 -3l-1 -87l1 -47q2 -32 2 -52q0 -2 -6 -2t-6 2q0 86 -112 86zM297 813q6 0 11 -5l102 -109q1 0 1 -2t-2.5 -4t-3.5 -1l-108 45l-109 -45q-2 -1 -5 2.5t-1 4.5
l103 109q5 5 12 5z" />
    <glyph glyph-name="Edieresis" unicode="&#xcb;" horiz-adv-x="547" 
d="M39 6q0 6 3 6q34 0 49.5 5t21 19.5t5.5 44.5v463q0 30 -5.5 44t-21.5 19.5t-49 5.5q-3 0 -3 6t3 6h416q10 0 10 -9l2 -130q0 -2 -5.5 -2.5t-6.5 2.5q-24 113 -138 113h-41q-37 0 -51.5 -13t-14.5 -44v-457q0 -33 12.5 -46t44.5 -13h49q134 0 170 129q0 2 5 2q7 0 7 -3
q-10 -76 -10 -139q0 -8 -3 -11.5t-12 -3.5h-434q-3 0 -3 6zM308 312h-140v26h141q110 0 110 74q0 3 5.5 3t5.5 -3l-1 -87l1 -47q2 -32 2 -52q0 -2 -6 -2t-6 2q0 86 -112 86zM172.5 721q-13.5 13 -13.5 37q0 23 13.5 35.5t37.5 12.5q23 0 35.5 -12.5t12.5 -35.5
q0 -24 -12.5 -37t-35.5 -13q-24 0 -37.5 13zM347.5 721q-13.5 13 -13.5 37q0 22 13.5 34.5t36.5 12.5t35.5 -12t12.5 -35q0 -24 -12.5 -37t-35.5 -13t-36.5 13z" />
    <glyph glyph-name="Igrave" unicode="&#xcc;" horiz-adv-x="339" 
d="M222.5 36q5.5 -14 21 -19t49.5 -5q3 0 3 -6t-3 -6q-32 0 -51 1l-74 1l-72 -1q-19 -1 -52 -1q-3 0 -3 6t3 6q34 0 49.5 5t21.5 19.5t6 44.5v463q0 30 -6 44t-21.5 19.5t-49.5 5.5q-3 0 -3 6t3 6l52 -1q44 -2 72 -2q31 0 75 2l50 1q3 0 3 -6t-3 -6q-33 0 -49 -6
t-21.5 -20.5t-5.5 -44.5v-461q0 -31 5.5 -45zM47 756q-11 2 9.5 12t47 18t31.5 4q30 -22 45 -34q61 -46 93 -67q3 -1 3 -4t-2 -5t-5 -1q-112 50 -222 77z" />
    <glyph glyph-name="Iacute" unicode="&#xcd;" horiz-adv-x="339" 
d="M222.5 36q5.5 -14 21 -19t49.5 -5q3 0 3 -6t-3 -6q-32 0 -51 1l-74 1l-72 -1q-19 -1 -52 -1q-3 0 -3 6t3 6q34 0 49.5 5t21.5 19.5t6 44.5v463q0 30 -6 44t-21.5 19.5t-49.5 5.5q-3 0 -3 6t3 6l52 -1q44 -2 72 -2q31 0 75 2l50 1q3 0 3 -6t-3 -6q-33 0 -49 -6
t-21.5 -20.5t-5.5 -44.5v-461q0 -31 5.5 -45zM70 678q-4 0 -5 4.5t2 6.5q37 24 89 64l50 37q5 4 31.5 -4t47 -18t9.5 -12q-62 -15 -113.5 -33.5t-108.5 -43.5z" />
    <glyph glyph-name="Icircumflex" unicode="&#xce;" horiz-adv-x="339" 
d="M222.5 36q5.5 -14 21 -19t49.5 -5q3 0 3 -6t-3 -6q-32 0 -51 1l-74 1l-72 -1q-19 -1 -52 -1q-3 0 -3 6t3 6q34 0 49.5 5t21.5 19.5t6 44.5v463q0 30 -6 44t-21.5 19.5t-49.5 5.5q-3 0 -3 6t3 6l52 -1q44 -2 72 -2q31 0 75 2l50 1q3 0 3 -6t-3 -6q-33 0 -49 -6
t-21.5 -20.5t-5.5 -44.5v-461q0 -31 5.5 -45zM170 813q6 0 11 -5l102 -109q1 0 1 -2t-2.5 -4t-3.5 -1l-108 45l-109 -45q-2 -1 -5 2.5t-1 4.5l103 109q5 5 12 5z" />
    <glyph glyph-name="Idieresis" unicode="&#xcf;" horiz-adv-x="339" 
d="M222.5 36q5.5 -14 21 -19t49.5 -5q3 0 3 -6t-3 -6q-32 0 -51 1l-74 1l-72 -1q-19 -1 -52 -1q-3 0 -3 6t3 6q34 0 49.5 5t21.5 19.5t6 44.5v463q0 30 -6 44t-21.5 19.5t-49.5 5.5q-3 0 -3 6t3 6l52 -1q44 -2 72 -2q31 0 75 2l50 1q3 0 3 -6t-3 -6q-33 0 -49 -6
t-21.5 -20.5t-5.5 -44.5v-461q0 -31 5.5 -45zM57.5 721q-13.5 13 -13.5 37q0 22 14 35t37 13t36 -12.5t13 -35.5q0 -24 -13 -37t-36 -13q-24 0 -37.5 13zM208 721q-13 13 -13 37q0 22 13 34.5t36 12.5t35.5 -12t12.5 -35q0 -24 -12.5 -37t-35.5 -13t-36 13z" />
    <glyph glyph-name="Eth" unicode="&#xd0;" horiz-adv-x="700" 
d="M49 311q0 13 4 13h287q5 0 5 -13q0 -5 -1.5 -9t-3.5 -4h-287q-4 0 -4 13zM245 -1q-15 1 -38 2t-51 1l-71 -1q-19 -1 -53 -1q-2 0 -2 6t2 6q34 0 49.5 5t21.5 19.5t6 44.5v463q0 30 -5.5 44t-21.5 19.5t-49 5.5q-2 0 -2 6t2 6l53 -1q44 -2 70 -2q39 0 81 3q50 2 67 2
q102 0 181 -40t122.5 -109t43.5 -155q0 -97 -45 -171.5t-121 -115t-167 -40.5q-31 0 -73 3zM430.5 49q53.5 33 83.5 97.5t30 154.5q0 86 -28.5 155.5t-80.5 110t-121 40.5q-43 0 -65.5 -5t-33.5 -18.5t-11 -41.5v-450q0 -41 21.5 -58.5t82.5 -17.5q69 0 122.5 33z" />
    <glyph glyph-name="Ntilde" unicode="&#xd1;" horiz-adv-x="732" 
d="M125 602l27 -2v-479q0 -53 20.5 -81t60.5 -28q3 0 3 -6t-3 -6q-26 0 -40 1l-53 1l-59 -1q-16 -1 -46 -1q-3 0 -3 6t3 6q43 0 66.5 28t23.5 81v481zM628 -18q-5 -1 -7 1l-481 560q-34 39 -60 54.5t-51 15.5q-3 0 -3 6t3 6l40 -1q12 -1 36 -1l64 1q12 1 28 1q8 0 12 -4
t12 -16q17 -23 25 -32l379 -446l8 -141q0 -3 -5 -4zM633 -14l-27 30v487q0 53 -20.5 81.5t-60.5 28.5q-2 0 -2 6t2 6l41 -1q32 -2 53 -2q19 0 55 2l42 1q3 0 3 -6t-3 -6q-40 0 -61.5 -28.5t-21.5 -81.5v-517zM482.5 766q10.5 6 23.5 21l2 1q2 0 4 -3t1 -5q-26 -44 -43 -59
t-39 -15q-21 0 -58 11q-16 5 -34.5 9t-34.5 4q-19 0 -27 -5.5t-23 -21.5h-1q-3 0 -5.5 2.5t-0.5 4.5q44 75 86 75q12 0 48 -10q49 -15 74 -15q17 0 27.5 6z" />
    <glyph glyph-name="Ograve" unicode="&#xd2;" 
d="M200.5 31.5q-72.5 43.5 -112 118t-39.5 162.5q0 103 52 176.5t133.5 110.5t166.5 37q95 0 167 -44.5t110.5 -117.5t38.5 -155q0 -91 -48 -167t-128.5 -120t-174.5 -44q-93 0 -165.5 43.5zM507.5 44.5q47.5 32.5 75 95.5t27.5 150q0 93 -30.5 165.5t-87 113.5t-132.5 41
q-98 0 -151 -69.5t-53 -192.5q0 -96 31 -172.5t87 -120t126 -43.5q60 0 107.5 32.5zM264 756q-10 2 10.5 12t47 18t31.5 4q30 -22 45 -34q61 -46 93 -67q2 -1 2 -4t-2 -5t-4 -1q-113 50 -223 77z" />
    <glyph glyph-name="Oacute" unicode="&#xd3;" 
d="M200.5 31.5q-72.5 43.5 -112 118t-39.5 162.5q0 103 52 176.5t133.5 110.5t166.5 37q95 0 167 -44.5t110.5 -117.5t38.5 -155q0 -91 -48 -167t-128.5 -120t-174.5 -44q-93 0 -165.5 43.5zM507.5 44.5q47.5 32.5 75 95.5t27.5 150q0 93 -30.5 165.5t-87 113.5t-132.5 41
q-98 0 -151 -69.5t-53 -192.5q0 -96 31 -172.5t87 -120t126 -43.5q60 0 107.5 32.5zM288 678q-4 0 -5 4.5t2 6.5q35 23 85 61q18 14 54 40q5 4 31.5 -4t47 -18t9.5 -12q-62 -15 -113.5 -33.5t-108.5 -43.5z" />
    <glyph glyph-name="Ocircumflex" unicode="&#xd4;" 
d="M200.5 31.5q-72.5 43.5 -112 118t-39.5 162.5q0 103 52 176.5t133.5 110.5t166.5 37q95 0 167 -44.5t110.5 -117.5t38.5 -155q0 -91 -48 -167t-128.5 -120t-174.5 -44q-93 0 -165.5 43.5zM507.5 44.5q47.5 32.5 75 95.5t27.5 150q0 93 -30.5 165.5t-87 113.5t-132.5 41
q-98 0 -151 -69.5t-53 -192.5q0 -96 31 -172.5t87 -120t126 -43.5q60 0 107.5 32.5zM388 813q6 0 11 -5l102 -109q1 0 1 -2t-2.5 -4t-3.5 -1l-108 45l-109 -45q-2 -1 -5 2.5t-1 4.5l103 109q5 5 12 5z" />
    <glyph glyph-name="Otilde" unicode="&#xd5;" 
d="M200.5 31.5q-72.5 43.5 -112 118t-39.5 162.5q0 103 52 176.5t133.5 110.5t166.5 37q95 0 167 -44.5t110.5 -117.5t38.5 -155q0 -91 -48 -167t-128.5 -120t-174.5 -44q-93 0 -165.5 43.5zM507.5 44.5q47.5 32.5 75 95.5t27.5 150q0 93 -30.5 165.5t-87 113.5t-132.5 41
q-98 0 -151 -69.5t-53 -192.5q0 -96 31 -172.5t87 -120t126 -43.5q60 0 107.5 32.5zM490 766q11 6 23 21l2 1q2 0 4 -3t1 -5q-26 -44 -43 -59t-39 -15q-20 0 -57 11q-17 5 -35.5 9t-34.5 4q-19 0 -27 -5.5t-23 -21.5h-1q-3 0 -5.5 2.5t-0.5 4.5q44 75 86 75q14 0 49 -11
q5 -1 28.5 -7.5t44.5 -6.5q17 0 28 6z" />
    <glyph glyph-name="Odieresis" unicode="&#xd6;" 
d="M200.5 31.5q-72.5 43.5 -112 118t-39.5 162.5q0 103 52 176.5t133.5 110.5t166.5 37q95 0 167 -44.5t110.5 -117.5t38.5 -155q0 -91 -48 -167t-128.5 -120t-174.5 -44q-93 0 -165.5 43.5zM507.5 44.5q47.5 32.5 75 95.5t27.5 150q0 93 -30.5 165.5t-87 113.5t-132.5 41
q-98 0 -151 -69.5t-53 -192.5q0 -96 31 -172.5t87 -120t126 -43.5q60 0 107.5 32.5zM263.5 721q-13.5 13 -13.5 37q0 23 13.5 35.5t37.5 12.5q23 0 35.5 -12.5t12.5 -35.5q0 -24 -12.5 -37t-35.5 -13q-24 0 -37.5 13zM438.5 721q-13.5 13 -13.5 37q0 22 13.5 34.5t36.5 12.5
t35.5 -12t12.5 -35q0 -24 -12.5 -37t-35.5 -13t-36.5 13z" />
    <glyph glyph-name="multiply" unicode="&#xd7;" horiz-adv-x="393" 
d="M76.5 69q-16.5 16 -14.5 19l234 234q4 3 20.5 -13.5t12.5 -18.5l-232 -234q-4 -3 -20.5 13zM76.5 309.5q15.5 16.5 18.5 14.5l234 -234q4 -3 -12.5 -20t-19.5 -13l-233 233q-3 3 12.5 19.5z" />
    <glyph glyph-name="Oslash" unicode="&#xd8;" horiz-adv-x="783" 
d="M85 -9q-4 0 -11.5 8t-4.5 11l613 622h1q5 0 12.5 -7t4.5 -10l-614 -623zM200.5 31.5q-72.5 43.5 -112 118t-39.5 162.5q0 103 52 176.5t133.5 110.5t166.5 37q95 0 167 -44.5t110.5 -117.5t38.5 -155q0 -91 -48 -167t-128.5 -120t-174.5 -44q-93 0 -165.5 43.5z
M507.5 44.5q47.5 32.5 75 95.5t27.5 150q0 93 -30.5 165.5t-87 113.5t-132.5 41q-98 0 -151 -69.5t-53 -192.5q0 -96 31 -172.5t87 -120t126 -43.5q60 0 107.5 32.5z" />
    <glyph glyph-name="Ugrave" unicode="&#xd9;" horiz-adv-x="701" 
d="M547.5 584q-23.5 29 -67.5 29q-2 0 -2 6t2 6l46 -1q38 -2 60 -2q18 0 54 2l44 1q2 0 2 -6t-2 -6q-39 0 -60.5 -29t-21.5 -81v-280q0 -72 -30.5 -125.5t-86 -82.5t-128.5 -29t-130 28.5t-88.5 82t-31.5 125.5v322q0 30 -6 44t-21.5 19.5t-48.5 5.5q-3 0 -3 6t3 6l52 -1
q44 -2 71 -2q30 0 74 2l50 1q3 0 3 -6t-3 -6q-33 0 -49 -6t-21.5 -20.5t-5.5 -44.5v-285q0 -119 49.5 -177.5t138.5 -58.5q85 0 133 52.5t48 148.5v281q0 52 -23.5 81zM251 756q-11 2 9.5 12t47 18t31.5 4q30 -22 45 -34q61 -46 93 -67q3 -1 3 -4t-2 -5t-5 -1
q-112 50 -222 77z" />
    <glyph glyph-name="Uacute" unicode="&#xda;" horiz-adv-x="701" 
d="M547.5 584q-23.5 29 -67.5 29q-2 0 -2 6t2 6l46 -1q38 -2 60 -2q18 0 54 2l44 1q2 0 2 -6t-2 -6q-39 0 -60.5 -29t-21.5 -81v-280q0 -72 -30.5 -125.5t-86 -82.5t-128.5 -29t-130 28.5t-88.5 82t-31.5 125.5v322q0 30 -6 44t-21.5 19.5t-48.5 5.5q-3 0 -3 6t3 6l52 -1
q44 -2 71 -2q30 0 74 2l50 1q3 0 3 -6t-3 -6q-33 0 -49 -6t-21.5 -20.5t-5.5 -44.5v-285q0 -119 49.5 -177.5t138.5 -58.5q85 0 133 52.5t48 148.5v281q0 52 -23.5 81zM274 678q-4 0 -5 4.5t2 6.5q37 24 89 64l50 37q5 4 31.5 -4t47 -18t9.5 -12q-62 -15 -113.5 -33.5
t-108.5 -43.5z" />
    <glyph glyph-name="Ucircumflex" unicode="&#xdb;" horiz-adv-x="701" 
d="M547.5 584q-23.5 29 -67.5 29q-2 0 -2 6t2 6l46 -1q38 -2 60 -2q18 0 54 2l44 1q2 0 2 -6t-2 -6q-39 0 -60.5 -29t-21.5 -81v-280q0 -72 -30.5 -125.5t-86 -82.5t-128.5 -29t-130 28.5t-88.5 82t-31.5 125.5v322q0 30 -6 44t-21.5 19.5t-48.5 5.5q-3 0 -3 6t3 6l52 -1
q44 -2 71 -2q30 0 74 2l50 1q3 0 3 -6t-3 -6q-33 0 -49 -6t-21.5 -20.5t-5.5 -44.5v-285q0 -119 49.5 -177.5t138.5 -58.5q85 0 133 52.5t48 148.5v281q0 52 -23.5 81zM374 813q6 0 11 -5l102 -109q1 0 1 -2t-2.5 -4t-3.5 -1l-108 45l-109 -45q-2 -1 -5 2.5t-1 4.5l103 109
q5 5 12 5z" />
    <glyph glyph-name="Udieresis" unicode="&#xdc;" horiz-adv-x="701" 
d="M547.5 584q-23.5 29 -67.5 29q-2 0 -2 6t2 6l46 -1q38 -2 60 -2q18 0 54 2l44 1q2 0 2 -6t-2 -6q-39 0 -60.5 -29t-21.5 -81v-280q0 -72 -30.5 -125.5t-86 -82.5t-128.5 -29t-130 28.5t-88.5 82t-31.5 125.5v322q0 30 -6 44t-21.5 19.5t-48.5 5.5q-3 0 -3 6t3 6l52 -1
q44 -2 71 -2q30 0 74 2l50 1q3 0 3 -6t-3 -6q-33 0 -49 -6t-21.5 -20.5t-5.5 -44.5v-285q0 -119 49.5 -177.5t138.5 -58.5q85 0 133 52.5t48 148.5v281q0 52 -23.5 81zM249.5 721q-13.5 13 -13.5 37q0 23 13.5 35.5t37.5 12.5q23 0 35.5 -12.5t12.5 -35.5q0 -24 -12.5 -37
t-35.5 -13q-24 0 -37.5 13zM424.5 721q-13.5 13 -13.5 37q0 22 13.5 34.5t36.5 12.5t36 -12.5t13 -34.5q0 -24 -13 -37t-36 -13t-36.5 13z" />
    <glyph glyph-name="Yacute" unicode="&#xdd;" horiz-adv-x="616" 
d="M469 569q0 44 -55 44q-2 0 -2 6t2 6l52 -1q42 -2 77 -2q17 0 41 2l37 1q2 0 2 -6t-2 -6q-33 0 -75 -34.5t-75 -88.5l-139 -225l-20 16l132 217q25 41 25 71zM50.5 592.5q-24.5 20.5 -47.5 20.5q-3 0 -3 6t3 6l33 -1q22 -2 32 -2q33 0 95 2l63 1q2 0 2 -6t-2 -6
q-42 0 -42 -27q0 -12 13 -33l153 -235l-80 -45l-161 246q-34 53 -58.5 73.5zM357 319v-238q0 -31 5 -45t20.5 -19t49.5 -5q3 0 3 -6t-3 -6q-32 0 -50 1l-73 1l-72 -1q-20 -1 -53 -1q-2 0 -2 6t2 6q34 0 50 5t22 19.5t6 44.5v229zM223 678q-4 0 -5 4.5t2 6.5q32 19 88 63
q46 35 50 38q5 4 32 -4t47.5 -18t9.5 -12q-62 -15 -113.5 -33.5t-108.5 -43.5z" />
    <glyph glyph-name="Thorn" unicode="&#xde;" horiz-adv-x="545" 
d="M105 588q-5 14 -19 19.5t-44 5.5q-3 0 -3 6t3 6l49 -1q42 -2 67 -2q32 0 86 2l65 1q2 0 2 -6t-2 -6q-46 0 -67.5 -6t-29 -21t-7.5 -47v-454q0 -32 7.5 -46.5t29 -20.5t67.5 -6q2 0 2 -6t-2 -6q-42 0 -65 1l-86 1l-67 -1q-18 -1 -49 -1q-3 0 -3 6t3 6q30 0 44 5t19 19.5
t5 44.5v463q0 30 -5 44zM220.5 495q40.5 4 75.5 4q98 0 157 -40t59 -128q0 -65 -32 -109.5t-81 -66.5t-100 -22q-23 0 -50 5q-2 0 -2 5q0 3 1.5 6t3.5 2q24 -4 36 -4q50 0 84.5 43.5t34.5 125.5q0 80 -37 122t-99 42q-55 0 -114 -16l-9 19q32 8 72.5 12z" />
    <glyph glyph-name="germandbls" unicode="&#xdf;" horiz-adv-x="555" 
d="M293 8.5q-27 19.5 -27 52.5q0 19 12 31t33 12t30.5 -12.5t17.5 -36.5q8 -23 16 -34t26 -11q24 0 37 18t13 46q0 39 -22 69t-67 72q-45 44 -67 74.5t-22 69.5q0 26 10 48t31 52q24 36 36.5 64.5t12.5 65.5q0 48 -21 84t-64 36q-55 0 -82 -68.5t-27 -194.5v-365
q0 -30 4 -44.5t16.5 -19.5t38.5 -5q2 0 2 -6t-2 -6l-98 1l-105 -1q-3 0 -3 6t3 6q27 0 40 5.5t18 19.5t5 44l-1 229q0 22 -5 32.5t-18.5 14t-41.5 3.5q-1 0 -2.5 2.5t-1.5 5.5q0 2 1.5 4.5t2.5 2.5q31 0 44 5.5t16.5 19t6.5 48.5q8 140 62 209t164 69q66 0 103 -26.5
t37 -70.5q0 -35 -18 -59.5t-53 -54.5q-30 -27 -44.5 -45.5t-14.5 -43.5q0 -31 22.5 -60t69.5 -74q54 -52 81 -87.5t27 -77.5q0 -34 -20 -66t-56.5 -52t-83.5 -20q-45 0 -72 19.5z" />
    <glyph glyph-name="agrave" unicode="&#xe0;" horiz-adv-x="420" 
d="M308 -8q-18 0 -33 24.5t-15 65.5v176q0 62 -12.5 90.5t-39.5 28.5q-33 0 -47.5 -24.5t-17.5 -54.5q-6 -51 -51 -51q-22 0 -32.5 10t-10.5 25q0 28 33.5 54.5t81 43t83.5 16.5q43 0 68.5 -27t25.5 -81v-180q0 -63 39 -63q15 0 36 9h2q4 0 5 -4.5t-3 -6.5l-103 -49
q-4 -2 -9 -2zM67 12q-21 19 -21 52q0 27 14.5 44t36.5 27.5t66 26.5l107 40l3 -15l-73 -31q-27 -11 -43 -24t-16 -39q0 -24 15.5 -38t36.5 -14q19 0 39 12l54 36l1 -15l-71 -50q-24 -17 -43.5 -24t-43.5 -7q-41 0 -62 19zM117 731q19 0 46 -5.5t28 -9.5l38 -240
q1 -2 -4 -3.5t-6 1.5l-114 253q-1 4 12 4z" />
    <glyph glyph-name="aacute" unicode="&#xe1;" horiz-adv-x="420" 
d="M308 -8q-18 0 -33 24.5t-15 65.5v176q0 62 -12.5 90.5t-39.5 28.5q-33 0 -47.5 -24.5t-17.5 -54.5q-6 -51 -51 -51q-22 0 -32.5 10t-10.5 25q0 28 33.5 54.5t81 43t83.5 16.5q43 0 68.5 -27t25.5 -81v-180q0 -63 39 -63q15 0 36 9h2q4 0 5 -4.5t-3 -6.5l-103 -49
q-4 -2 -9 -2zM67 12q-21 19 -21 52q0 27 14.5 44t36.5 27.5t66 26.5l107 40l3 -15l-73 -31q-27 -11 -43 -24t-16 -39q0 -24 15.5 -38t36.5 -14q19 0 39 12l54 36l1 -15l-71 -50q-24 -17 -43.5 -24t-43.5 -7q-41 0 -62 19zM207 472q-3 0 -5.5 1.5t-1.5 2.5l40 240
q1 4 28.5 9.5t45.5 5.5q12 0 11 -4l-114 -253q0 -2 -4 -2z" />
    <glyph glyph-name="acircumflex" unicode="&#xe2;" horiz-adv-x="420" 
d="M308 -8q-18 0 -33 24.5t-15 65.5v176q0 62 -12.5 90.5t-39.5 28.5q-33 0 -47.5 -24.5t-17.5 -54.5q-6 -51 -51 -51q-22 0 -32.5 10t-10.5 25q0 28 33.5 54.5t81 43t83.5 16.5q43 0 68.5 -27t25.5 -81v-180q0 -63 39 -63q15 0 36 9h2q4 0 5 -4.5t-3 -6.5l-103 -49
q-4 -2 -9 -2zM67 12q-21 19 -21 52q0 27 14.5 44t36.5 27.5t66 26.5l107 40l3 -15l-73 -31q-27 -11 -43 -24t-16 -39q0 -24 15.5 -38t36.5 -14q19 0 39 12l54 36l1 -15l-71 -50q-24 -17 -43.5 -24t-43.5 -7q-41 0 -62 19zM292 475q0 -2 -4.5 -3t-5.5 2l-68 128l-69 -128
q-1 -3 -6.5 -1.5t-4.5 3.5l68 249q1 5 11 5q11 0 12 -5l67 -249v-1z" />
    <glyph glyph-name="atilde" unicode="&#xe3;" horiz-adv-x="420" 
d="M308 -8q-18 0 -33 24.5t-15 65.5v176q0 62 -12.5 90.5t-39.5 28.5q-33 0 -47.5 -24.5t-17.5 -54.5q-6 -51 -51 -51q-22 0 -32.5 10t-10.5 25q0 28 33.5 54.5t81 43t83.5 16.5q43 0 68.5 -27t25.5 -81v-180q0 -63 39 -63q15 0 36 9h2q4 0 5 -4.5t-3 -6.5l-103 -49
q-4 -2 -9 -2zM67 12q-21 19 -21 52q0 27 14.5 44t36.5 27.5t66 26.5l107 40l3 -15l-73 -31q-27 -11 -43 -24t-16 -39q0 -24 15.5 -38t36.5 -14q19 0 39 12l54 36l1 -15l-71 -50q-24 -17 -43.5 -24t-43.5 -7q-41 0 -62 19zM316.5 536q10.5 6 22.5 21l2 1q2 0 4 -3t1 -5
q-27 -44 -43.5 -59t-37.5 -15q-16 0 -34.5 5t-23.5 6q-17 5 -35 9t-34 4q-19 0 -27.5 -5.5t-23.5 -21.5h-1q-3 0 -5.5 2.5t-0.5 4.5q44 75 86 75q16 0 49 -11q6 -2 29.5 -8t44.5 -6q17 0 27.5 6z" />
    <glyph glyph-name="adieresis" unicode="&#xe4;" horiz-adv-x="420" 
d="M308 -8q-18 0 -33 24.5t-15 65.5v176q0 62 -12.5 90.5t-39.5 28.5q-33 0 -47.5 -24.5t-17.5 -54.5q-6 -51 -51 -51q-22 0 -32.5 10t-10.5 25q0 28 33.5 54.5t81 43t83.5 16.5q43 0 68.5 -27t25.5 -81v-180q0 -63 39 -63q15 0 36 9h2q4 0 5 -4.5t-3 -6.5l-103 -49
q-4 -2 -9 -2zM67 12q-21 19 -21 52q0 27 14.5 44t36.5 27.5t66 26.5l107 40l3 -15l-73 -31q-27 -11 -43 -24t-16 -39q0 -24 15.5 -38t36.5 -14q19 0 39 12l54 36l1 -15l-71 -50q-24 -17 -43.5 -24t-43.5 -7q-41 0 -62 19zM89.5 482q-13.5 13 -13.5 37q0 23 13.5 35.5
t37.5 12.5q23 0 35.5 -12.5t12.5 -35.5q0 -24 -12.5 -37t-35.5 -13q-24 0 -37.5 13zM264.5 482q-13.5 13 -13.5 37q0 22 13.5 34.5t36.5 12.5t36 -12.5t13 -34.5q0 -24 -13 -37t-36 -13t-36.5 13z" />
    <glyph glyph-name="aring" unicode="&#xe5;" horiz-adv-x="420" 
d="M308 -8q-18 0 -33 24.5t-15 65.5v176q0 62 -12.5 90.5t-39.5 28.5q-33 0 -47.5 -24.5t-17.5 -54.5q-6 -51 -51 -51q-22 0 -32.5 10t-10.5 25q0 28 33.5 54.5t81 43t83.5 16.5q43 0 68.5 -27t25.5 -81v-180q0 -63 39 -63q15 0 36 9h2q4 0 5 -4.5t-3 -6.5l-103 -49
q-4 -2 -9 -2zM67 12q-21 19 -21 52q0 27 14.5 44t36.5 27.5t66 26.5l107 40l3 -15l-73 -31q-27 -11 -43 -24t-16 -39q0 -24 15.5 -38t36.5 -14q19 0 39 12l54 36l1 -15l-71 -50q-24 -17 -43.5 -24t-43.5 -7q-41 0 -62 19zM132 491.5q-27 23.5 -27 55.5q0 36 33.5 57t75.5 21
q41 0 70.5 -23.5t29.5 -56.5q0 -35 -33.5 -56t-76.5 -21q-45 0 -72 23.5zM242 492q7 11 7 35q0 35 -16 60t-39 25q-27 0 -27 -45q0 -33 14.5 -59.5t38.5 -26.5q15 0 22 11z" />
    <glyph glyph-name="ae" unicode="&#xe6;" horiz-adv-x="590" 
d="M295 32q-47 44 -51 138q-2 82 -5.5 122t-13.5 61.5t-31 21.5q-64 0 -67 -84q0 -18 -10 -31.5t-36 -13.5q-46 0 -46 40q0 22 29 48t71.5 43.5t80.5 17.5q40 0 67.5 -26t32.5 -70q1 -6 5 -25q9 -30 10 -59q1 -84 31.5 -134.5t97.5 -50.5q65 0 106 32l2 1q2 0 4.5 -4t0.5 -6
q-36 -35 -72 -50t-80 -15q-79 0 -126 44zM295 267l189 4v-20l-188 -1zM350 369.5q46 25.5 102 25.5t86 -32t30 -92q0 -11 -2.5 -15.5t-11.5 -4.5h-82l1 22q0 49 -14.5 75.5t-39.5 26.5q-42 0 -65 -43t-23 -117l-56 84q29 45 75 70.5zM55.5 12.5q-21.5 19.5 -21.5 52.5
q0 26 13.5 43t34.5 27.5t62 25.5l107 40l4 -14l-75 -31q-25 -11 -37.5 -25t-12.5 -38q0 -25 13.5 -39t37.5 -14q22 0 41 13l56 36l1 -14l-72 -52q-45 -30 -90 -30q-40 0 -61.5 19.5z" />
    <glyph glyph-name="ccedilla" unicode="&#xe7;" horiz-adv-x="420" 
d="M122.5 16.5q-45.5 28.5 -67.5 74t-22 95.5q0 63 34 110.5t87.5 73t108.5 25.5q47 0 84.5 -19t37.5 -51q0 -17 -12.5 -29t-35.5 -12q-39 0 -55 44q-9 25 -20.5 35.5t-35.5 10.5q-47 0 -74.5 -42.5t-27.5 -113.5q0 -83 38.5 -134.5t120.5 -51.5q27 0 49.5 7t48.5 22h1
q3 0 5.5 -3t0.5 -5q-37 -33 -73 -49t-82 -16q-65 0 -110.5 28.5zM223 -42q0 -17 9.5 -28.5t31.5 -24.5q26 -16 40.5 -33.5t14.5 -44.5q0 -40 -29 -71t-87 -31q-33 0 -52 11t-19 34q0 14 11 24.5t26 10.5q17 0 24 -7.5t12 -21.5q6 -14 12.5 -21t22.5 -7q27 0 27 28
q0 26 -18.5 47t-65.5 47q-11 5 -11 12q0 6 4 17q16 37 39 100l15 -1q-7 -28 -7 -40z" />
    <glyph glyph-name="egrave" unicode="&#xe8;" horiz-adv-x="414" 
d="M124.5 15q-44.5 27 -68 71t-23.5 95q0 59 29 108t79.5 77.5t112.5 28.5q60 0 92.5 -29t32.5 -86q0 -15 -2.5 -22t-8.5 -7h-82q5 124 -68 124q-45 0 -70.5 -41t-25.5 -111q0 -88 41 -139.5t116 -51.5q28 0 47 7t50 23l2 1q2 0 4.5 -4t0.5 -6q-36 -34 -73 -49.5t-80 -15.5
q-61 0 -105.5 27zM92 267l222 4v-20l-221 -1zM136 731q19 0 46 -5.5t28 -9.5l38 -240q1 -2 -4 -3.5t-6 1.5l-114 253q-1 4 12 4z" />
    <glyph glyph-name="eacute" unicode="&#xe9;" horiz-adv-x="414" 
d="M124.5 15q-44.5 27 -68 71t-23.5 95q0 59 29 108t79.5 77.5t112.5 28.5q60 0 92.5 -29t32.5 -86q0 -15 -2.5 -22t-8.5 -7h-82q5 124 -68 124q-45 0 -70.5 -41t-25.5 -111q0 -88 41 -139.5t116 -51.5q28 0 47 7t50 23l2 1q2 0 4.5 -4t0.5 -6q-36 -34 -73 -49.5t-80 -15.5
q-61 0 -105.5 27zM92 267l222 4v-20l-221 -1zM226 472q-3 0 -5.5 1.5t-1.5 2.5l40 240q1 4 28.5 9.5t45.5 5.5q12 0 11 -4l-114 -253q0 -2 -4 -2z" />
    <glyph glyph-name="ecircumflex" unicode="&#xea;" horiz-adv-x="414" 
d="M124.5 15q-44.5 27 -68 71t-23.5 95q0 59 29 108t79.5 77.5t112.5 28.5q60 0 92.5 -29t32.5 -86q0 -15 -2.5 -22t-8.5 -7h-82q5 124 -68 124q-45 0 -70.5 -41t-25.5 -111q0 -88 41 -139.5t116 -51.5q28 0 47 7t50 23l2 1q2 0 4.5 -4t0.5 -6q-36 -34 -73 -49.5t-80 -15.5
q-61 0 -105.5 27zM92 267l222 4v-20l-221 -1zM311 475q0 -2 -4.5 -3t-5.5 2l-68 128l-69 -128q0 -2 -4 -2q-3 0 -5.5 1.5t-1.5 2.5l68 249q1 5 11 5q11 0 12 -5l67 -249v-1z" />
    <glyph glyph-name="edieresis" unicode="&#xeb;" horiz-adv-x="414" 
d="M124.5 15q-44.5 27 -68 71t-23.5 95q0 59 29 108t79.5 77.5t112.5 28.5q60 0 92.5 -29t32.5 -86q0 -15 -2.5 -22t-8.5 -7h-82q5 124 -68 124q-45 0 -70.5 -41t-25.5 -111q0 -88 41 -139.5t116 -51.5q28 0 47 7t50 23l2 1q2 0 4.5 -4t0.5 -6q-36 -34 -73 -49.5t-80 -15.5
q-61 0 -105.5 27zM92 267l222 4v-20l-221 -1zM108.5 482q-13.5 13 -13.5 37q0 23 13.5 35.5t37.5 12.5q23 0 35.5 -12.5t12.5 -35.5q0 -24 -12.5 -37t-35.5 -13q-24 0 -37.5 13zM283.5 482q-13.5 13 -13.5 37q0 22 13.5 34.5t36.5 12.5t36 -12.5t13 -34.5q0 -24 -13 -37
t-36 -13t-36.5 13z" />
    <glyph glyph-name="igrave" unicode="&#xec;" horiz-adv-x="266" 
d="M41 6q0 6 3 6q34 0 45.5 14t11.5 55v182q0 34 -7 49.5t-24 15.5q-16 0 -40 -12h-1q-4 0 -6 5t1 7l144 67l3 1q4 0 8.5 -4.5t4.5 -7.5v-21q-2 -42 -2 -99v-183q0 -41 11.5 -55t45.5 -14q3 0 3 -6t-3 -6q-25 0 -40 1l-58 1l-58 -1q-14 -1 -39 -1q-3 0 -3 6zM39 731
q19 0 46 -5.5t28 -9.5l39 -240q0 -2 -4.5 -3.5t-5.5 1.5l-115 253q-1 4 12 4z" />
    <glyph glyph-name="iacute" unicode="&#xed;" horiz-adv-x="266" 
d="M41 6q0 6 3 6q34 0 45.5 14t11.5 55v182q0 34 -7 49.5t-24 15.5q-16 0 -40 -12h-1q-4 0 -6 5t1 7l144 67l3 1q4 0 8.5 -4.5t4.5 -7.5v-21q-2 -42 -2 -99v-183q0 -41 11.5 -55t45.5 -14q3 0 3 -6t-3 -6q-25 0 -40 1l-58 1l-58 -1q-14 -1 -39 -1q-3 0 -3 6zM130 472
q-3 0 -5.5 1.5t-1.5 2.5l39 240q2 4 29 9.5t45 5.5q13 0 12 -4l-114 -253q0 -2 -4 -2z" />
    <glyph glyph-name="icircumflex" unicode="&#xee;" horiz-adv-x="266" 
d="M41 6q0 6 3 6q34 0 45.5 14t11.5 55v182q0 34 -7 49.5t-24 15.5q-16 0 -40 -12h-1q-4 0 -6 5t1 7l144 67l3 1q4 0 8.5 -4.5t4.5 -7.5v-21q-2 -42 -2 -99v-183q0 -41 11.5 -55t45.5 -14q3 0 3 -6t-3 -6q-25 0 -40 1l-58 1l-58 -1q-14 -1 -39 -1q-3 0 -3 6zM215 475
q0 -2 -4.5 -3t-5.5 2l-68 128l-69 -128q-1 -3 -6.5 -1.5t-4.5 3.5l68 249q1 5 11 5q11 0 12 -5l67 -249v-1z" />
    <glyph glyph-name="idieresis" unicode="&#xef;" horiz-adv-x="266" 
d="M41 6q0 6 3 6q34 0 45.5 14t11.5 55v182q0 34 -7 49.5t-24 15.5q-16 0 -40 -12h-1q-4 0 -6 5t1 7l144 67l3 1q4 0 8.5 -4.5t4.5 -7.5v-21q-2 -42 -2 -99v-183q0 -41 11.5 -55t45.5 -14q3 0 3 -6t-3 -6q-25 0 -40 1l-58 1l-58 -1q-14 -1 -39 -1q-3 0 -3 6zM24.5 482
q-13.5 13 -13.5 37q0 22 13.5 35t36.5 13t36.5 -13t13.5 -35q0 -24 -13.5 -37t-36.5 -13t-36.5 13zM174 482q-13 13 -13 37q0 22 13 34.5t36 12.5t36 -12.5t13 -34.5q0 -24 -13 -37t-36 -13t-36 13z" />
    <glyph glyph-name="eth" unicode="&#xf0;" horiz-adv-x="470" 
d="M323.5 337.5q-39.5 40.5 -92.5 40.5t-86.5 -42.5t-33.5 -120.5q0 -57 17.5 -104t49.5 -75t73 -28q52 0 79.5 41t27.5 142q0 108 -35.5 210.5t-97 184t-135.5 130.5q-2 2 -2 3q0 2 2.5 4.5t5.5 1.5q106 -48 186.5 -127.5t124 -176.5t43.5 -194q0 -120 -64 -180t-163 -60
q-61 0 -107 27t-71 73t-25 99q0 69 33.5 117t84.5 72t102 24q36 0 69 -13.5t58 -38.5l11 -122q-15 72 -54.5 112.5zM114 496q-6 14 -1 17l274 130q3 1 7.5 -5.5t6.5 -14t-2 -9.5l-274 -130q-5 -2 -11 12z" />
    <glyph glyph-name="ntilde" unicode="&#xf1;" horiz-adv-x="523" 
d="M307 6q0 6 3 6q34 0 45 14t11 55v150q0 56 -20.5 82.5t-64.5 26.5q-33 0 -66.5 -18t-54.5 -48l-5 12q80 112 176 112q55 0 85.5 -33t30.5 -91v-193q0 -41 11.5 -55t45.5 -14q3 0 3 -6t-3 -6q-25 0 -40 1l-57 1l-57 -1q-15 -1 -40 -1q-3 0 -3 6zM38 6q0 6 3 6q34 0 45 14
t11 55v191q0 32 -7.5 47t-24.5 15q-15 0 -50 -15h-1q-4 0 -6 5t1 6l131 64q6 2 7 2q11 0 21 -25t10 -65v-225q0 -41 11.5 -55t45.5 -14q3 0 3 -6t-3 -6q-25 0 -40 1l-57 1l-58 -1q-14 -1 -39 -1q-3 0 -3 6zM377.5 536q10.5 6 23.5 21l2 1q2 0 4 -3t1 -5q-26 -44 -43 -59
t-39 -15q-21 0 -58 11q-16 5 -34.5 9t-34.5 4q-19 0 -27 -5.5t-23 -21.5h-1q-3 0 -5.5 2.5t-0.5 4.5q44 75 86 75q12 0 48 -10q49 -15 74 -15q17 0 27.5 6z" />
    <glyph glyph-name="ograve" unicode="&#xf2;" horiz-adv-x="486" 
d="M129 15.5q-46 28.5 -71 77t-25 105.5q0 65 32.5 110.5t83 68t103.5 22.5q61 0 106.5 -29t69.5 -76.5t24 -101.5q0 -60 -29.5 -107t-79.5 -72.5t-108 -25.5q-60 0 -106 28.5zM333 46q24 39 24 114q0 67 -18.5 117t-50 76t-69.5 26q-45 0 -68.5 -37t-23.5 -109
q0 -65 18 -116.5t49.5 -80.5t70.5 -29q44 0 68 39zM148 731q19 0 45.5 -5.5t27.5 -9.5l39 -240q1 -2 -4 -3.5t-6 1.5l-114 253q-1 4 12 4z" />
    <glyph glyph-name="oacute" unicode="&#xf3;" horiz-adv-x="486" 
d="M129 15.5q-46 28.5 -71 77t-25 105.5q0 65 32.5 110.5t83 68t103.5 22.5q61 0 106.5 -29t69.5 -76.5t24 -101.5q0 -60 -29.5 -107t-79.5 -72.5t-108 -25.5q-60 0 -106 28.5zM333 46q24 39 24 114q0 67 -18.5 117t-50 76t-69.5 26q-45 0 -68.5 -37t-23.5 -109
q0 -65 18 -116.5t49.5 -80.5t70.5 -29q44 0 68 39zM238 472q-3 0 -5.5 1.5t-1.5 2.5l40 240q1 4 28 9.5t45 5.5q13 0 12 -4l-114 -253q0 -2 -4 -2z" />
    <glyph glyph-name="ocircumflex" unicode="&#xf4;" horiz-adv-x="486" 
d="M129 15.5q-46 28.5 -71 77t-25 105.5q0 65 32.5 110.5t83 68t103.5 22.5q61 0 106.5 -29t69.5 -76.5t24 -101.5q0 -60 -29.5 -107t-79.5 -72.5t-108 -25.5q-60 0 -106 28.5zM333 46q24 39 24 114q0 67 -18.5 117t-50 76t-69.5 26q-45 0 -68.5 -37t-23.5 -109
q0 -65 18 -116.5t49.5 -80.5t70.5 -29q44 0 68 39zM323 475q0 -2 -4.5 -3t-5.5 2l-68 128l-69 -128q-1 -3 -6.5 -1.5t-4.5 3.5l68 249q1 5 11 5q11 0 12 -5l67 -249v-1z" />
    <glyph glyph-name="otilde" unicode="&#xf5;" horiz-adv-x="486" 
d="M129 15.5q-46 28.5 -71 77t-25 105.5q0 65 32.5 110.5t83 68t103.5 22.5q61 0 106.5 -29t69.5 -76.5t24 -101.5q0 -60 -29.5 -107t-79.5 -72.5t-108 -25.5q-60 0 -106 28.5zM333 46q24 39 24 114q0 67 -18.5 117t-50 76t-69.5 26q-45 0 -68.5 -37t-23.5 -109
q0 -65 18 -116.5t49.5 -80.5t70.5 -29q44 0 68 39zM347 536.5q11 6.5 23 20.5l2 1q2 0 4 -3t1 -5q-27 -44 -43.5 -59t-38.5 -15q-20 0 -57 11q-17 5 -35 9t-34 4q-19 0 -27.5 -5.5t-23.5 -21.5h-1q-3 0 -5.5 2.5t-0.5 4.5q44 75 86 75q11 0 49 -10q49 -15 74 -15
q16 0 27 6.5z" />
    <glyph glyph-name="odieresis" unicode="&#xf6;" horiz-adv-x="486" 
d="M129 15.5q-46 28.5 -71 77t-25 105.5q0 65 32.5 110.5t83 68t103.5 22.5q61 0 106.5 -29t69.5 -76.5t24 -101.5q0 -60 -29.5 -107t-79.5 -72.5t-108 -25.5q-60 0 -106 28.5zM333 46q24 39 24 114q0 67 -18.5 117t-50 76t-69.5 26q-45 0 -68.5 -37t-23.5 -109
q0 -65 18 -116.5t49.5 -80.5t70.5 -29q44 0 68 39zM120.5 482q-13.5 13 -13.5 37q0 23 13.5 35.5t37.5 12.5q23 0 35.5 -12.5t12.5 -35.5q0 -24 -12.5 -37t-35.5 -13q-24 0 -37.5 13zM295.5 482q-13.5 13 -13.5 37q0 22 13.5 34.5t36.5 12.5t36 -12.5t13 -34.5
q0 -24 -13 -37t-36 -13t-36.5 13z" />
    <glyph glyph-name="divide" unicode="&#xf7;" horiz-adv-x="398" 
d="M30.5 174.5q-1.5 7.5 -1.5 16.5q0 8 1 14.5t3 6.5h331q2 0 3.5 -7t1.5 -15q0 -9 -1.5 -16t-3.5 -7h-330q-2 0 -3.5 7.5zM158.5 3.5q-14.5 14.5 -14.5 40.5q0 24 14.5 38t40.5 14q25 0 38.5 -14t13.5 -38q0 -26 -13.5 -40.5t-38.5 -14.5q-26 0 -40.5 14.5zM158.5 301.5
q-14.5 14.5 -14.5 40.5q0 24 14.5 37.5t40.5 13.5q25 0 38.5 -13.5t13.5 -37.5q0 -26 -13.5 -40.5t-38.5 -14.5q-26 0 -40.5 14.5z" />
    <glyph glyph-name="oslash" unicode="&#xf8;" horiz-adv-x="477" 
d="M54 -16q-5 0 -12.5 8t-4.5 11l386 397l2 1q5 0 12 -7.5t4 -10.5l-386 -398zM129 15.5q-46 28.5 -71 77t-25 105.5q0 65 32.5 110.5t83 68t103.5 22.5q61 0 106.5 -29t69.5 -76.5t24 -101.5q0 -60 -29.5 -107t-79.5 -72.5t-108 -25.5q-60 0 -106 28.5zM333 46
q24 39 24 114q0 67 -18.5 117t-50 76t-69.5 26q-45 0 -68.5 -37t-23.5 -109q0 -65 18 -116.5t49.5 -80.5t70.5 -29q44 0 68 39z" />
    <glyph glyph-name="ugrave" unicode="&#xf9;" horiz-adv-x="501" 
d="M105 22.5q-30 33.5 -30 91.5v149q0 35 -7.5 51.5t-23.5 16.5q-13 0 -28 -8h-1q-4 0 -6 5t1 7l126 59l5 1q4 0 9 -4t5 -7v-227q0 -56 20.5 -83.5t62.5 -27.5q32 0 64.5 18.5t53.5 48.5l6 -12q-82 -112 -173 -112q-54 0 -84 33.5zM424 64.5q7 -14.5 24 -14.5q12 0 45 12
l2 1q3 0 5 -5t-1 -7l-131 -63l-4 -1q-11 0 -19 25t-8 67v184q0 35 -7.5 51.5t-23.5 16.5q-12 0 -28 -8h-1q-4 0 -6 5.5t2 6.5l126 59l4 1q4 0 9 -4t5 -7v-271q0 -34 7 -48.5zM154 731q19 0 46 -5.5t28 -9.5l38 -240q1 -2 -4 -3.5t-6 1.5l-114 253q-1 4 12 4z" />
    <glyph glyph-name="uacute" unicode="&#xfa;" horiz-adv-x="501" 
d="M105 22.5q-30 33.5 -30 91.5v149q0 35 -7.5 51.5t-23.5 16.5q-13 0 -28 -8h-1q-4 0 -6 5t1 7l126 59l5 1q4 0 9 -4t5 -7v-227q0 -56 20.5 -83.5t62.5 -27.5q32 0 64.5 18.5t53.5 48.5l6 -12q-82 -112 -173 -112q-54 0 -84 33.5zM424 64.5q7 -14.5 24 -14.5q12 0 45 12
l2 1q3 0 5 -5t-1 -7l-131 -63l-4 -1q-11 0 -19 25t-8 67v184q0 35 -7.5 51.5t-23.5 16.5q-12 0 -28 -8h-1q-4 0 -6 5.5t2 6.5l126 59l4 1q4 0 9 -4t5 -7v-271q0 -34 7 -48.5zM244 472q-3 0 -5.5 1.5t-1.5 2.5l40 240q1 4 28.5 9.5t45.5 5.5q12 0 11 -4l-114 -253q0 -2 -4 -2
z" />
    <glyph glyph-name="ucircumflex" unicode="&#xfb;" horiz-adv-x="501" 
d="M105 22.5q-30 33.5 -30 91.5v149q0 35 -7.5 51.5t-23.5 16.5q-13 0 -28 -8h-1q-4 0 -6 5t1 7l126 59l5 1q4 0 9 -4t5 -7v-227q0 -56 20.5 -83.5t62.5 -27.5q32 0 64.5 18.5t53.5 48.5l6 -12q-82 -112 -173 -112q-54 0 -84 33.5zM424 64.5q7 -14.5 24 -14.5q12 0 45 12
l2 1q3 0 5 -5t-1 -7l-131 -63l-4 -1q-11 0 -19 25t-8 67v184q0 35 -7.5 51.5t-23.5 16.5q-12 0 -28 -8h-1q-4 0 -6 5.5t2 6.5l126 59l4 1q4 0 9 -4t5 -7v-271q0 -34 7 -48.5zM329 475q0 -2 -4.5 -3t-5.5 2l-68 128l-69 -128q0 -2 -4 -2q-3 0 -5.5 1.5t-1.5 2.5l68 249
q1 5 11 5q11 0 12 -5l67 -249v-1z" />
    <glyph glyph-name="udieresis" unicode="&#xfc;" horiz-adv-x="501" 
d="M105 22.5q-30 33.5 -30 91.5v149q0 35 -7.5 51.5t-23.5 16.5q-13 0 -28 -8h-1q-4 0 -6 5t1 7l126 59l5 1q4 0 9 -4t5 -7v-227q0 -56 20.5 -83.5t62.5 -27.5q32 0 64.5 18.5t53.5 48.5l6 -12q-82 -112 -173 -112q-54 0 -84 33.5zM424 64.5q7 -14.5 24 -14.5q12 0 45 12
l2 1q3 0 5 -5t-1 -7l-131 -63l-4 -1q-11 0 -19 25t-8 67v184q0 35 -7.5 51.5t-23.5 16.5q-12 0 -28 -8h-1q-4 0 -6 5.5t2 6.5l126 59l4 1q4 0 9 -4t5 -7v-271q0 -34 7 -48.5zM126.5 482q-13.5 13 -13.5 37q0 22 14 35t37 13t35.5 -12.5t12.5 -35.5q0 -24 -12.5 -37
t-35.5 -13q-24 0 -37.5 13zM301.5 482q-13.5 13 -13.5 37q0 22 13.5 34.5t36.5 12.5t36 -12.5t13 -34.5q0 -24 -13 -37t-36 -13t-36.5 13z" />
    <glyph glyph-name="yacute" unicode="&#xfd;" horiz-adv-x="430" 
d="M440 380q0 -6 -2 -6q-30 0 -51.5 -24t-39.5 -73l-115 -305q-36 -96 -69 -151t-67 -78.5t-75 -23.5q-28 0 -43.5 11.5t-15.5 34.5q0 19 12.5 30t30.5 11q12 0 19.5 -3t18.5 -10q17 -13 35 -13q25 0 45.5 21.5t44 70.5t57.5 141l-3 -46l-165 336q-23 44 -35 57.5t-31 13.5
q-2 0 -2 6t2 6q26 0 40 -1l39 -1l68 1q15 1 41 1q3 0 3 -6t-3 -6q-27 0 -40 -4.5t-13 -15.5q0 -8 6 -19l130 -267l-31 -53l91 262q8 26 8 43q0 54 -67 54q-2 0 -2 6t2 6q27 0 41 -1l60 -1l39 1q11 1 35 1q2 0 2 -6zM217 472q-3 0 -5.5 1.5t-1.5 2.5l39 240q2 4 29 9.5
t45 5.5q13 0 12 -4l-114 -253q0 -2 -4 -2z" />
    <glyph glyph-name="thorn" unicode="&#xfe;" horiz-adv-x="494" 
d="M8 -269q0 6 2 6q25 0 37.5 5.5t17 19.5t4.5 44v786q0 35 -7 50.5t-23 15.5t-40 -12h-1q-4 0 -6.5 5t0.5 7l139 66q2 1 5 1q4 0 8.5 -4t4.5 -7v-908q0 -30 7 -44t26.5 -19.5t59.5 -5.5q3 0 3 -6t-3 -6q-37 0 -57 1l-76 1l-59 -1q-15 -1 -40 -1q-2 0 -2 6zM177 -6
q-28 7 -67 24l28 61q27 -34 55 -51t71 -17q51 0 80 43.5t29 129.5q0 78 -36 121.5t-90 43.5q-37 0 -65.5 -18t-60.5 -54l-10 10q51 58 98 85t95 27q42 0 78 -22t57.5 -64t21.5 -98q0 -79 -33 -130t-83.5 -74.5t-102.5 -23.5q-37 0 -65 7z" />
    <glyph glyph-name="ydieresis" unicode="&#xff;" horiz-adv-x="430" 
d="M440 380q0 -6 -2 -6q-30 0 -51.5 -24t-39.5 -73l-115 -305q-36 -96 -69 -151t-67 -78.5t-75 -23.5q-28 0 -43.5 11.5t-15.5 34.5q0 19 12.5 30t30.5 11q12 0 19.5 -3t18.5 -10q17 -13 35 -13q25 0 45.5 21.5t44 70.5t57.5 141l-3 -46l-165 336q-23 44 -35 57.5t-31 13.5
q-2 0 -2 6t2 6q26 0 40 -1l39 -1l68 1q15 1 41 1q3 0 3 -6t-3 -6q-27 0 -40 -4.5t-13 -15.5q0 -8 6 -19l130 -267l-31 -53l91 262q8 26 8 43q0 54 -67 54q-2 0 -2 6t2 6q27 0 41 -1l60 -1l39 1q11 1 35 1q2 0 2 -6zM99.5 482q-13.5 13 -13.5 37q0 23 13.5 35.5t37.5 12.5
q23 0 35.5 -12.5t12.5 -35.5q0 -24 -12.5 -37t-35.5 -13q-24 0 -37.5 13zM274.5 482q-13.5 13 -13.5 37q0 22 13.5 34.5t36.5 12.5t35.5 -12t12.5 -35q0 -24 -12.5 -37t-35.5 -13t-36.5 13z" />
    <glyph glyph-name="Amacron" unicode="&#x100;" horiz-adv-x="711" 
d="M192 270h280l7 -25h-300zM715 6q0 -6 -4 -6q-19 0 -61 2t-61 2q-25 0 -59 -2t-53 -2q-4 0 -4 6t4 6q30 0 43 6.5t13 21.5t-17 51l-209 425l41 67l-198 -446q-13 -30 -13 -54q0 -35 25 -53t70 -18q5 0 5 -6t-5 -6q-18 0 -52 2q-38 2 -66 2q-27 0 -63 -2q-32 -2 -53 -2
q-5 0 -5 6t5 6q28 0 47 11t37 39.5t43 84.5l215 484q2 3 9 3t8 -3l245 -494q34 -72 57.5 -98.5t51.5 -26.5q4 0 4 -6zM217.5 721q-2.5 5 -2.5 12t2.5 12t6.5 5h251q4 0 6.5 -5t2.5 -12t-2.5 -12t-6.5 -5h-251q-4 0 -6.5 5z" />
    <glyph glyph-name="amacron" unicode="&#x101;" horiz-adv-x="420" 
d="M308 -8q-18 0 -33 24.5t-15 65.5v176q0 62 -12.5 90.5t-39.5 28.5q-33 0 -47.5 -24.5t-17.5 -54.5q-6 -51 -51 -51q-22 0 -32.5 10t-10.5 25q0 28 33.5 54.5t81 43t83.5 16.5q43 0 68.5 -27t25.5 -81v-180q0 -63 39 -63q15 0 36 9h2q4 0 5 -4.5t-3 -6.5l-103 -49
q-4 -2 -9 -2zM67 12q-21 19 -21 52q0 27 14.5 44t36.5 27.5t66 26.5l107 40l3 -15l-73 -31q-27 -11 -43 -24t-16 -39q0 -24 15.5 -38t36.5 -14q19 0 39 12l54 36l1 -15l-71 -50q-24 -17 -43.5 -24t-43.5 -7q-41 0 -62 19zM81 482.5q-2 5.5 -2 11.5q0 7 2 12t6 5h251
q4 0 6.5 -5t2.5 -12t-2.5 -12t-6.5 -5h-251q-4 0 -6 5.5z" />
    <glyph glyph-name="Abreve" unicode="&#x102;" horiz-adv-x="711" 
d="M192 270h280l7 -25h-300zM715 6q0 -6 -4 -6q-19 0 -61 2t-61 2q-25 0 -59 -2t-53 -2q-4 0 -4 6t4 6q30 0 43 6.5t13 21.5t-17 51l-209 425l41 67l-198 -446q-13 -30 -13 -54q0 -35 25 -53t70 -18q5 0 5 -6t-5 -6q-18 0 -52 2q-38 2 -66 2q-27 0 -63 -2q-32 -2 -53 -2
q-5 0 -5 6t5 6q28 0 47 11t37 39.5t43 84.5l215 484q2 3 9 3t8 -3l245 -494q34 -72 57.5 -98.5t51.5 -26.5q4 0 4 -6zM275.5 721q-26.5 31 -28.5 89q-1 3 4.5 3.5t6.5 -1.5q2 -22 29 -39t63 -17q35 0 62 17t29 39q0 2 4 2q2 0 4.5 -1.5t2.5 -2.5q-3 -58 -29 -89t-73 -31
q-48 0 -74.5 31z" />
    <glyph glyph-name="abreve" unicode="&#x103;" horiz-adv-x="420" 
d="M308 -8q-18 0 -33 24.5t-15 65.5v176q0 62 -12.5 90.5t-39.5 28.5q-33 0 -47.5 -24.5t-17.5 -54.5q-6 -51 -51 -51q-22 0 -32.5 10t-10.5 25q0 28 33.5 54.5t81 43t83.5 16.5q43 0 68.5 -27t25.5 -81v-180q0 -63 39 -63q15 0 36 9h2q4 0 5 -4.5t-3 -6.5l-103 -49
q-4 -2 -9 -2zM67 12q-21 19 -21 52q0 27 14.5 44t36.5 27.5t66 26.5l107 40l3 -15l-73 -31q-27 -11 -43 -24t-16 -39q0 -24 15.5 -38t36.5 -14q19 0 39 12l54 36l1 -15l-71 -50q-24 -17 -43.5 -24t-43.5 -7q-41 0 -62 19zM115.5 628.5q5.5 0.5 5.5 -2.5q0 -36 26.5 -62
t65.5 -26q38 0 64.5 26t26.5 62q0 3 5.5 2.5t5.5 -4.5q0 -77 -26 -117.5t-76 -40.5t-76.5 40.5t-26.5 117.5q0 4 5.5 4.5z" />
    <glyph glyph-name="Aogonek" unicode="&#x104;" horiz-adv-x="712" 
d="M444 -245.5q-32 29.5 -32 78.5q0 37 16.5 61.5t48.5 54.5q28 27 41 45.5t13 43.5q0 23 -15 53l-209 423l41 69l-198 -446q-13 -29 -13 -54q0 -34 25 -52.5t70 -18.5q5 0 5 -6t-5 -6q-18 0 -52 2q-38 2 -66 2q-27 0 -63 -2q-32 -2 -53 -2q-5 0 -5 6t5 6q28 0 47.5 11
t37.5 39.5t42 84.5l215 484q2 3 9 3t8 -3l245 -495q33 -69 57.5 -98t51.5 -29q4 0 4 -5.5t-4 -5.5q-24 0 -60 2l-47 1q-51 0 -80.5 -32.5t-29.5 -88.5q0 -53 25.5 -85t67.5 -32q28 0 47 12h1q3 0 5.5 -3t0.5 -5q-26 -22 -52 -32t-57 -10q-56 0 -88 29.5zM192 270h280l7 -25
h-300z" />
    <glyph glyph-name="aogonek" unicode="&#x105;" horiz-adv-x="420" 
d="M308 -8q-18 0 -33 24.5t-15 65.5v176q0 62 -12.5 90.5t-39.5 28.5q-33 0 -47.5 -24.5t-17.5 -54.5q-6 -51 -51 -51q-22 0 -32.5 10t-10.5 25q0 28 33.5 54.5t81 43t83.5 16.5q43 0 68.5 -27t25.5 -81v-180q0 -63 39 -63q15 0 36 9h2q4 0 5 -4.5t-3 -6.5l-103 -49
q-4 -2 -9 -2zM67 12q-21 19 -21 52q0 27 14.5 44t36.5 27.5t66 26.5l107 40l3 -15l-73 -31q-27 -11 -43 -24t-16 -39q0 -24 15.5 -38t36.5 -14q19 0 39 12l54 36l1 -15l-71 -50q-24 -17 -43.5 -24t-43.5 -7q-41 0 -62 19zM271 -61q-15 -29 -15 -65q0 -50 25 -80.5t70 -30.5
q27 0 51 15h2q3 0 5.5 -3t-0.5 -5q-53 -45 -111 -45q-51 0 -83.5 30t-32.5 76q0 85 126 175l13 -5q-35 -33 -50 -62z" />
    <glyph glyph-name="Cacute" unicode="&#x106;" horiz-adv-x="683" 
d="M601 605q8 -4 10 -7.5t4 -15.5l12 -132q0 -3 -5 -4t-7 3q-26 82 -77.5 125t-127.5 43q-74 0 -131 -36.5t-89 -105t-32 -159.5q0 -90 34 -160.5t93 -109.5t133 -39q73 0 121.5 38.5t85.5 122.5q1 3 6 2t5 -3l-13 -119q-2 -12 -4 -15.5t-10 -7.5q-90 -37 -192 -37
q-106 0 -190 40.5t-131 114t-47 168.5q0 94 48.5 168t133.5 115.5t191 41.5q111 0 179 -31zM298 678q-4 0 -5 4.5t2 6.5q37 24 89 64l50 37q5 4 31.5 -4t47 -18t9.5 -12q-62 -15 -113.5 -33.5t-108.5 -43.5z" />
    <glyph glyph-name="cacute" unicode="&#x107;" horiz-adv-x="420" 
d="M122.5 16.5q-45.5 28.5 -67.5 74t-22 95.5q0 63 34 110.5t87.5 73t108.5 25.5q47 0 84.5 -19t37.5 -51q0 -17 -12.5 -29t-35.5 -12q-39 0 -55 44q-9 25 -20.5 35.5t-35.5 10.5q-47 0 -74.5 -42.5t-27.5 -113.5q0 -83 38.5 -134.5t120.5 -51.5q27 0 49.5 7t48.5 22h1
q3 0 5.5 -3t0.5 -5q-37 -33 -73 -49t-82 -16q-65 0 -110.5 28.5zM234 472q-3 0 -5.5 1.5t-1.5 2.5l40 240q1 4 28 9.5t45 5.5q13 0 12 -4l-114 -253q0 -2 -4 -2z" />
    <glyph glyph-name="Ccircumflex" unicode="&#x108;" horiz-adv-x="683" 
d="M601 605q8 -4 10 -7.5t4 -15.5l12 -132q0 -3 -5 -4t-7 3q-26 82 -77.5 125t-127.5 43q-74 0 -131 -36.5t-89 -105t-32 -159.5q0 -90 34 -160.5t93 -109.5t133 -39q73 0 121.5 38.5t85.5 122.5q1 3 6 2t5 -3l-13 -119q-2 -12 -4 -15.5t-10 -7.5q-90 -37 -192 -37
q-106 0 -190 40.5t-131 114t-47 168.5q0 94 48.5 168t133.5 115.5t191 41.5q111 0 179 -31zM398 813q6 0 11 -5l102 -109q1 0 1 -2t-2.5 -4t-3.5 -1l-108 45l-109 -45q-2 -1 -5 2.5t-1 4.5l103 109q5 5 12 5z" />
    <glyph glyph-name="ccircumflex" unicode="&#x109;" horiz-adv-x="420" 
d="M122.5 16.5q-45.5 28.5 -67.5 74t-22 95.5q0 63 34 110.5t87.5 73t108.5 25.5q47 0 84.5 -19t37.5 -51q0 -17 -12.5 -29t-35.5 -12q-39 0 -55 44q-9 25 -20.5 35.5t-35.5 10.5q-47 0 -74.5 -42.5t-27.5 -113.5q0 -83 38.5 -134.5t120.5 -51.5q27 0 49.5 7t48.5 22h1
q3 0 5.5 -3t0.5 -5q-37 -33 -73 -49t-82 -16q-65 0 -110.5 28.5zM319 475q0 -2 -4.5 -3t-5.5 2l-68 128l-69 -128q-1 -3 -6.5 -1.5t-4.5 3.5l68 249q1 5 11 5q11 0 12 -5l67 -249v-1z" />
    <glyph glyph-name="Cdotaccent" unicode="&#x10a;" horiz-adv-x="683" 
d="M601 605q8 -4 10 -7.5t4 -15.5l12 -132q0 -3 -5 -4t-7 3q-26 82 -77.5 125t-127.5 43q-74 0 -131 -36.5t-89 -105t-32 -159.5q0 -90 34 -160.5t93 -109.5t133 -39q73 0 121.5 38.5t85.5 122.5q1 3 6 2t5 -3l-13 -119q-2 -12 -4 -15.5t-10 -7.5q-90 -37 -192 -37
q-106 0 -190 40.5t-131 114t-47 168.5q0 94 48.5 168t133.5 115.5t191 41.5q111 0 179 -31zM358 728q-15 15 -15 40q0 24 15 38t40 14t39 -14t14 -38q0 -26 -14 -40.5t-39 -14.5t-40 15z" />
    <glyph glyph-name="cdotaccent" unicode="&#x10b;" horiz-adv-x="420" 
d="M122.5 16.5q-45.5 28.5 -67.5 74t-22 95.5q0 63 34 110.5t87.5 73t108.5 25.5q47 0 84.5 -19t37.5 -51q0 -17 -12.5 -29t-35.5 -12q-39 0 -55 44q-9 25 -20.5 35.5t-35.5 10.5q-47 0 -74.5 -42.5t-27.5 -113.5q0 -83 38.5 -134.5t120.5 -51.5q27 0 49.5 7t48.5 22h1
q3 0 5.5 -3t0.5 -5q-37 -33 -73 -49t-82 -16q-65 0 -110.5 28.5zM199.5 515.5q-14.5 14.5 -14.5 39.5q0 24 15 38t40 14t39 -14t14 -38q0 -25 -14 -39.5t-39 -14.5q-26 0 -40.5 14.5z" />
    <glyph glyph-name="Ccaron" unicode="&#x10c;" horiz-adv-x="683" 
d="M601 605q8 -4 10 -7.5t4 -15.5l12 -132q0 -3 -5 -4t-7 3q-26 82 -77.5 125t-127.5 43q-74 0 -131 -36.5t-89 -105t-32 -159.5q0 -90 34 -160.5t93 -109.5t133 -39q73 0 121.5 38.5t85.5 122.5q1 3 6 2t5 -3l-13 -119q-2 -12 -4 -15.5t-10 -7.5q-90 -37 -192 -37
q-106 0 -190 40.5t-131 114t-47 168.5q0 94 48.5 168t133.5 115.5t191 41.5q111 0 179 -31zM282 797q0 2 2.5 4.5t3.5 1.5l109 -45l108 46h1q3 0 5 -2.5t-1 -4.5l-102 -110q-4 -4 -11 -4q-8 0 -12 4l-103 109v1z" />
    <glyph glyph-name="ccaron" unicode="&#x10d;" horiz-adv-x="420" 
d="M122.5 16.5q-45.5 28.5 -67.5 74t-22 95.5q0 63 34 110.5t87.5 73t108.5 25.5q47 0 84.5 -19t37.5 -51q0 -17 -12.5 -29t-35.5 -12q-39 0 -55 44q-9 25 -20.5 35.5t-35.5 10.5q-47 0 -74.5 -42.5t-27.5 -113.5q0 -83 38.5 -134.5t120.5 -51.5q27 0 49.5 7t48.5 22h1
q3 0 5.5 -3t0.5 -5q-37 -33 -73 -49t-82 -16q-65 0 -110.5 28.5zM164 730q5 1 7 -1l69 -128l68 128q2 2 6.5 1t3.5 -4l-67 -249q-2 -5 -11 -5t-12 5l-68 249q-1 3 4 4z" />
    <glyph glyph-name="Dcaron" unicode="&#x10e;" horiz-adv-x="700" 
d="M245 -1q-15 1 -38 2t-51 1l-71 -1q-19 -1 -53 -1q-2 0 -2 6t2 6q34 0 49.5 5t21.5 19.5t6 44.5v463q0 30 -5.5 44t-21.5 19.5t-49 5.5q-2 0 -2 6t2 6l53 -1q44 -2 70 -2q39 0 81 3q50 2 67 2q102 0 181 -40t122.5 -109t43.5 -155q0 -97 -45 -171.5t-121 -115t-167 -40.5
q-31 0 -73 3zM430.5 49q53.5 33 83.5 97.5t30 154.5q0 86 -28.5 155.5t-80.5 110t-121 40.5q-43 0 -65.5 -5t-33.5 -18.5t-11 -41.5v-450q0 -41 21.5 -58.5t82.5 -17.5q69 0 122.5 33zM206 797q0 2 2.5 4.5t3.5 1.5l109 -45l108 46h1q3 0 5 -2.5t-1 -4.5l-102 -110
q-4 -4 -11 -4q-8 0 -12 4l-103 109v1z" />
    <glyph glyph-name="dcaron" unicode="&#x10f;" horiz-adv-x="511" 
d="M111 10.5q-36 23.5 -57 67.5t-21 103q0 74 35 123t88 72t106 23q65 0 123 -36l-19 -76q-24 45 -52.5 66.5t-70.5 21.5q-57 0 -88.5 -40t-31.5 -123q0 -84 33 -132.5t84 -48.5q38 0 68.5 20t65.5 58l9 -8q-46 -51 -90.5 -82.5t-102.5 -31.5q-43 0 -79 23.5zM434 64.5
q7 -14.5 24 -14.5q20 0 45 12h1q3 0 5.5 -5t-0.5 -6l-128 -62l-6 -1q-12 0 -20.5 25t-8.5 69v510q0 35 -6.5 50.5t-23.5 15.5q-11 0 -40 -12h-2q-4 0 -6 5t1 6l140 67l4 1q4 0 9 -4t5 -7v-600q0 -35 7 -49.5zM502.5 721q18.5 -6 35 -16.5t15.5 -17.5l-50 -238q-1 -2 -6 -1.5
t-5 2.5l-8 272q0 5 18.5 -1z" />
    <glyph glyph-name="Dcroat" unicode="&#x110;" horiz-adv-x="700" 
d="M49 311q0 13 4 13h287q5 0 5 -13q0 -5 -1.5 -9t-3.5 -4h-287q-4 0 -4 13zM245 -1q-15 1 -38 2t-51 1l-71 -1q-19 -1 -53 -1q-2 0 -2 6t2 6q34 0 49.5 5t21.5 19.5t6 44.5v463q0 30 -5.5 44t-21.5 19.5t-49 5.5q-2 0 -2 6t2 6l53 -1q44 -2 70 -2q39 0 81 3q50 2 67 2
q102 0 181 -40t122.5 -109t43.5 -155q0 -97 -45 -171.5t-121 -115t-167 -40.5q-31 0 -73 3zM430.5 49q53.5 33 83.5 97.5t30 154.5q0 86 -28.5 155.5t-80.5 110t-121 40.5q-43 0 -65.5 -5t-33.5 -18.5t-11 -41.5v-450q0 -41 21.5 -58.5t82.5 -17.5q69 0 122.5 33z" />
    <glyph glyph-name="dcroat" unicode="&#x111;" horiz-adv-x="512" 
d="M179 507q-2 4 -2 9t2 8.5t5 3.5h304q4 0 6 -3.5t2 -8.5t-2 -9t-6 -4h-304q-3 0 -5 4zM111 10.5q-36 23.5 -57 67.5t-21 103q0 74 35 123t88 72t106 23q65 0 123 -36l-19 -76q-24 45 -52.5 66.5t-70.5 21.5q-57 0 -88.5 -40t-31.5 -123q0 -84 33 -132.5t84 -48.5
q38 0 68.5 20t65.5 58l9 -8q-46 -51 -90.5 -82.5t-102.5 -31.5q-43 0 -79 23.5zM434 64.5q7 -14.5 24 -14.5q20 0 45 12h1q3 0 5.5 -5t-0.5 -6l-128 -62l-6 -1q-12 0 -20.5 25t-8.5 69v510q0 35 -6.5 50.5t-23.5 15.5q-11 0 -40 -12h-2q-4 0 -6 5t1 6l140 67l4 1q4 0 9 -4
t5 -7v-600q0 -35 7 -49.5z" />
    <glyph glyph-name="Emacron" unicode="&#x112;" horiz-adv-x="547" 
d="M39 6q0 6 3 6q34 0 49.5 5t21 19.5t5.5 44.5v463q0 30 -5.5 44t-21.5 19.5t-49 5.5q-3 0 -3 6t3 6h416q10 0 10 -9l2 -130q0 -2 -5.5 -2.5t-6.5 2.5q-24 113 -138 113h-41q-37 0 -51.5 -13t-14.5 -44v-457q0 -33 12.5 -46t44.5 -13h49q134 0 170 129q0 2 5 2q7 0 7 -3
q-10 -76 -10 -139q0 -8 -3 -11.5t-12 -3.5h-434q-3 0 -3 6zM308 312h-140v26h141q110 0 110 74q0 3 5.5 3t5.5 -3l-1 -87l1 -47q2 -32 2 -52q0 -2 -6 -2t-6 2q0 86 -112 86zM163.5 721q-2.5 5 -2.5 12t2.5 12t6.5 5h251q4 0 6.5 -5t2.5 -12t-2.5 -12t-6.5 -5h-251
q-4 0 -6.5 5z" />
    <glyph glyph-name="emacron" unicode="&#x113;" horiz-adv-x="414" 
d="M124.5 15q-44.5 27 -68 71t-23.5 95q0 59 29 108t79.5 77.5t112.5 28.5q60 0 92.5 -29t32.5 -86q0 -15 -2.5 -22t-8.5 -7h-82q5 124 -68 124q-45 0 -70.5 -41t-25.5 -111q0 -88 41 -139.5t116 -51.5q28 0 47 7t50 23l2 1q2 0 4.5 -4t0.5 -6q-36 -34 -73 -49.5t-80 -15.5
q-61 0 -105.5 27zM92 267l222 4v-20l-221 -1zM100 482.5q-2 5.5 -2 11.5q0 7 2 12t6 5h251q4 0 6.5 -5t2.5 -12t-2.5 -12t-6.5 -5h-251q-4 0 -6 5.5z" />
    <glyph glyph-name="Ebreve" unicode="&#x114;" horiz-adv-x="547" 
d="M39 6q0 6 3 6q34 0 49.5 5t21 19.5t5.5 44.5v463q0 30 -5.5 44t-21.5 19.5t-49 5.5q-3 0 -3 6t3 6h416q10 0 10 -9l2 -130q0 -2 -5.5 -2.5t-6.5 2.5q-24 113 -138 113h-41q-37 0 -51.5 -13t-14.5 -44v-457q0 -33 12.5 -46t44.5 -13h49q134 0 170 129q0 2 5 2q7 0 7 -3
q-10 -76 -10 -139q0 -8 -3 -11.5t-12 -3.5h-434q-3 0 -3 6zM308 312h-140v26h141q110 0 110 74q0 3 5.5 3t5.5 -3l-1 -87l1 -47q2 -32 2 -52q0 -2 -6 -2t-6 2q0 86 -112 86zM221.5 721q-26.5 31 -28.5 89q0 3 5 3.5t6 -1.5q2 -22 29 -39t63 -17q35 0 62 17t29 39q0 2 4 2
q2 0 4.5 -1.5t2.5 -2.5q-2 -58 -28 -89t-74 -31t-74.5 31z" />
    <glyph glyph-name="ebreve" unicode="&#x115;" horiz-adv-x="414" 
d="M124.5 15q-44.5 27 -68 71t-23.5 95q0 59 29 108t79.5 77.5t112.5 28.5q60 0 92.5 -29t32.5 -86q0 -15 -2.5 -22t-8.5 -7h-82q5 124 -68 124q-45 0 -70.5 -41t-25.5 -111q0 -88 41 -139.5t116 -51.5q28 0 47 7t50 23l2 1q2 0 4.5 -4t0.5 -6q-36 -34 -73 -49.5t-80 -15.5
q-61 0 -105.5 27zM92 267l222 4v-20l-221 -1zM134.5 628.5q5.5 0.5 5.5 -2.5q0 -36 26.5 -62t65.5 -26q38 0 64.5 26t26.5 62q0 3 5.5 2.5t5.5 -4.5q0 -77 -26 -117.5t-76 -40.5t-76.5 40.5t-26.5 117.5q0 4 5.5 4.5z" />
    <glyph glyph-name="Edotaccent" unicode="&#x116;" horiz-adv-x="547" 
d="M39 6q0 6 3 6q34 0 49.5 5t21 19.5t5.5 44.5v463q0 30 -5.5 44t-21.5 19.5t-49 5.5q-3 0 -3 6t3 6h416q10 0 10 -9l2 -130q0 -2 -5.5 -2.5t-6.5 2.5q-24 113 -138 113h-41q-37 0 -51.5 -13t-14.5 -44v-457q0 -33 12.5 -46t44.5 -13h49q134 0 170 129q0 2 5 2q7 0 7 -3
q-10 -76 -10 -139q0 -8 -3 -11.5t-12 -3.5h-434q-3 0 -3 6zM308 312h-140v26h141q110 0 110 74q0 3 5.5 3t5.5 -3l-1 -87l1 -47q2 -32 2 -52q0 -2 -6 -2t-6 2q0 86 -112 86zM256 727.5q-15 14.5 -15 40.5q0 24 15 38t41 14q25 0 38.5 -14t13.5 -38q0 -26 -13.5 -40.5
t-38.5 -14.5q-26 0 -41 14.5z" />
    <glyph glyph-name="edotaccent" unicode="&#x117;" horiz-adv-x="414" 
d="M124.5 15q-44.5 27 -68 71t-23.5 95q0 59 29 108t79.5 77.5t112.5 28.5q60 0 92.5 -29t32.5 -86q0 -15 -2.5 -22t-8.5 -7h-82q5 124 -68 124q-45 0 -70.5 -41t-25.5 -111q0 -88 41 -139.5t116 -51.5q28 0 47 7t50 23l2 1q2 0 4.5 -4t0.5 -6q-36 -34 -73 -49.5t-80 -15.5
q-61 0 -105.5 27zM92 267l222 4v-20l-221 -1zM191.5 515.5q-14.5 14.5 -14.5 39.5q0 24 15 38t40 14t39 -14t14 -38q0 -26 -14 -40t-39 -14q-26 0 -40.5 14.5z" />
    <glyph glyph-name="Eogonek" unicode="&#x118;" horiz-adv-x="547" 
d="M39 6q0 6 3 6q34 0 49.5 5t21 19.5t5.5 44.5v463q0 30 -5.5 44t-21.5 19.5t-49 5.5q-3 0 -3 6t3 6h416q10 0 10 -9l2 -130q0 -2 -5.5 -2.5t-6.5 2.5q-24 113 -138 113h-41q-37 0 -51.5 -13t-14.5 -44v-457q0 -33 12.5 -46t44.5 -13h49q134 0 170 129q0 2 5 2q7 0 7 -3
q-10 -76 -10 -139q0 -8 -3 -11.5t-12 -3.5h-434q-3 0 -3 6zM308 312h-140v26h141q110 0 110 74q0 3 5.5 3t5.5 -3l-1 -87l1 -47q2 -32 2 -52q0 -2 -6 -2t-6 2q0 86 -112 86zM369.5 -61q-15.5 -29 -15.5 -65q0 -50 25.5 -80.5t70.5 -30.5q27 0 51 15h2q3 0 5.5 -3t-0.5 -5
q-53 -45 -111 -45q-51 0 -83.5 30t-32.5 76q0 85 126 175l13 -5q-35 -33 -50.5 -62z" />
    <glyph glyph-name="eogonek" unicode="&#x119;" horiz-adv-x="414" 
d="M200.5 -249.5q-29.5 25.5 -29.5 69.5q0 52 42 104.5t127 107.5l11 -5q-51 -45 -74.5 -87.5t-23.5 -87.5q0 -44 18.5 -67.5t54.5 -23.5q27 0 50 17h2q3 0 5.5 -3t-0.5 -5q-24 -24 -48 -34.5t-52 -10.5q-53 0 -82.5 25.5zM124.5 15q-44.5 27 -68 71t-23.5 95q0 59 29 108
t79.5 77.5t112.5 28.5q60 0 92.5 -29t32.5 -86q0 -15 -2.5 -22t-8.5 -7h-82q5 124 -68 124q-45 0 -70.5 -41t-25.5 -111q0 -88 41 -139.5t116 -51.5q28 0 47 7t50 23l2 1q2 0 4.5 -4t0.5 -6q-36 -34 -73 -49.5t-80 -15.5q-61 0 -105.5 27zM92 267l222 4v-20l-221 -1z" />
    <glyph glyph-name="Ecaron" unicode="&#x11a;" horiz-adv-x="547" 
d="M39 6q0 6 3 6q34 0 49.5 5t21 19.5t5.5 44.5v463q0 30 -5.5 44t-21.5 19.5t-49 5.5q-3 0 -3 6t3 6h416q10 0 10 -9l2 -130q0 -2 -5.5 -2.5t-6.5 2.5q-24 113 -138 113h-41q-37 0 -51.5 -13t-14.5 -44v-457q0 -33 12.5 -46t44.5 -13h49q134 0 170 129q0 2 5 2q7 0 7 -3
q-10 -76 -10 -139q0 -8 -3 -11.5t-12 -3.5h-434q-3 0 -3 6zM308 312h-140v26h141q110 0 110 74q0 3 5.5 3t5.5 -3l-1 -87l1 -47q2 -32 2 -52q0 -2 -6 -2t-6 2q0 86 -112 86zM181 797q0 2 2.5 4.5t3.5 1.5l109 -45l108 46h1q3 0 4.5 -2.5t-0.5 -4.5l-102 -110q-4 -4 -11 -4
q-8 0 -12 4l-103 109v1z" />
    <glyph glyph-name="ecaron" unicode="&#x11b;" horiz-adv-x="414" 
d="M124.5 15q-44.5 27 -68 71t-23.5 95q0 59 29 108t79.5 77.5t112.5 28.5q60 0 92.5 -29t32.5 -86q0 -15 -2.5 -22t-8.5 -7h-82q5 124 -68 124q-45 0 -70.5 -41t-25.5 -111q0 -88 41 -139.5t116 -51.5q28 0 47 7t50 23l2 1q2 0 4.5 -4t0.5 -6q-36 -34 -73 -49.5t-80 -15.5
q-61 0 -105.5 27zM92 267l222 4v-20l-221 -1zM156.5 730q5.5 1 6.5 -1l69 -128l68 128q2 2 6.5 1t3.5 -4l-67 -249q-2 -5 -11 -5t-12 5l-68 249q-1 3 4.5 4z" />
    <glyph glyph-name="Gcircumflex" unicode="&#x11c;" horiz-adv-x="725" 
d="M220.5 31q-83.5 43 -127.5 116.5t-44 163.5q0 96 50 170t138 114.5t197 40.5q50 0 97.5 -8t76.5 -23q10 -4 11.5 -6.5t2.5 -16.5l13 -131q0 -3 -5.5 -4t-6.5 2q-22 64 -78 116t-143 52q-69 0 -125.5 -35t-89 -100.5t-32.5 -151.5q0 -91 35.5 -165.5t100.5 -117.5t151 -43
q43 0 67 10t35 36t11 76q0 52 -6 72.5t-26.5 27.5t-71.5 7q-6 0 -6 8q0 3 1.5 5.5t3.5 2.5q83 -5 133 -5t104 3q4 0 4.5 -7t-4.5 -7q-20 1 -28.5 -6.5t-11 -31t-2.5 -79.5q0 -45 3.5 -64t3.5 -24q0 -6 -2 -8t-9 -4q-126 -28 -224 -28q-113 0 -196.5 43zM407 813q6 0 11 -5
l102 -109q1 0 1 -2t-2.5 -4t-3.5 -1l-108 45l-109 -45q-2 -1 -5 2.5t-1 4.5l103 109q5 5 12 5z" />
    <glyph glyph-name="gcircumflex" unicode="&#x11d;" horiz-adv-x="449" 
d="M69.5 -250q-42.5 31 -42.5 81q0 39 31 78t100 80l10 -12q-30 -17 -46 -40.5t-16 -59.5q0 -60 36.5 -93.5t92.5 -33.5q57 0 92 33.5t35 90.5q0 42 -18.5 61.5t-49 24t-87.5 5.5q-72 1 -112 15.5t-40 60.5q0 35 23.5 65t72.5 58l10 -7q-22 -14 -32 -29.5t-10 -35.5
q0 -36 29.5 -46t102.5 -11q57 -1 93 -6t62.5 -28t26.5 -72q0 -55 -35 -103.5t-93 -77.5t-124 -29q-69 0 -111.5 31zM121 152q-35 19 -54 49.5t-19 64.5q0 39 24 68t62.5 44t82.5 15q47 0 82 -17t54 -46t19 -63q0 -38 -24 -69t-63 -48t-83 -17q-46 0 -81 19zM269 172
q17 22 17 69q0 42 -14.5 72.5t-37 46t-47.5 15.5q-54 0 -54 -81q0 -43 13.5 -75.5t35 -50.5t44.5 -18q26 0 43 22zM366.5 383q30.5 12 65.5 12q7 0 7 -26q0 -13 -3.5 -28t-7.5 -13q-37 16 -72 16q-25 0 -47 -7l-7 -22l1 32q33 24 63.5 36zM298 475q0 -2 -4.5 -3t-5.5 2
l-68 128l-69 -128q-1 -3 -6.5 -1.5t-4.5 3.5l68 249q1 5 11 5q11 0 12 -5l67 -249v-1z" />
    <glyph glyph-name="Gbreve" unicode="&#x11e;" horiz-adv-x="725" 
d="M220.5 31q-83.5 43 -127.5 116.5t-44 163.5q0 96 50 170t138 114.5t197 40.5q50 0 97.5 -8t76.5 -23q10 -4 11.5 -6.5t2.5 -16.5l13 -131q0 -3 -5.5 -4t-6.5 2q-22 64 -78 116t-143 52q-69 0 -125.5 -35t-89 -100.5t-32.5 -151.5q0 -91 35.5 -165.5t100.5 -117.5t151 -43
q43 0 67 10t35 36t11 76q0 52 -6 72.5t-26.5 27.5t-71.5 7q-6 0 -6 8q0 3 1.5 5.5t3.5 2.5q83 -5 133 -5t104 3q4 0 4.5 -7t-4.5 -7q-20 1 -28.5 -6.5t-11 -31t-2.5 -79.5q0 -45 3.5 -64t3.5 -24q0 -6 -2 -8t-9 -4q-126 -28 -224 -28q-113 0 -196.5 43zM332.5 721
q-26.5 31 -29.5 89q0 3 5.5 3.5t5.5 -1.5q2 -22 29 -39t63 -17q35 0 62 17t29 39q1 2 6.5 1.5t4.5 -3.5q-2 -58 -28 -89t-74 -31q-47 0 -73.5 31z" />
    <glyph glyph-name="gbreve" unicode="&#x11f;" horiz-adv-x="449" 
d="M69.5 -250q-42.5 31 -42.5 81q0 39 31 78t100 80l10 -12q-30 -17 -46 -40.5t-16 -59.5q0 -60 36.5 -93.5t92.5 -33.5q57 0 92 33.5t35 90.5q0 42 -18.5 61.5t-49 24t-87.5 5.5q-72 1 -112 15.5t-40 60.5q0 35 23.5 65t72.5 58l10 -7q-22 -14 -32 -29.5t-10 -35.5
q0 -36 29.5 -46t102.5 -11q57 -1 93 -6t62.5 -28t26.5 -72q0 -55 -35 -103.5t-93 -77.5t-124 -29q-69 0 -111.5 31zM121 152q-35 19 -54 49.5t-19 64.5q0 39 24 68t62.5 44t82.5 15q47 0 82 -17t54 -46t19 -63q0 -38 -24 -69t-63 -48t-83 -17q-46 0 -81 19zM269 172
q17 22 17 69q0 42 -14.5 72.5t-37 46t-47.5 15.5q-54 0 -54 -81q0 -43 13.5 -75.5t35 -50.5t44.5 -18q26 0 43 22zM366.5 383q30.5 12 65.5 12q7 0 7 -26q0 -13 -3.5 -28t-7.5 -13q-37 16 -72 16q-25 0 -47 -7l-7 -22l1 32q33 24 63.5 36zM121.5 628.5q5.5 0.5 5.5 -2.5
q0 -36 26.5 -62t65.5 -26q38 0 64.5 26t26.5 62q0 3 5.5 2.5t5.5 -4.5q0 -77 -26 -117.5t-76 -40.5t-76.5 40.5t-26.5 117.5q0 4 5.5 4.5z" />
    <glyph glyph-name="Gdotaccent" unicode="&#x120;" horiz-adv-x="725" 
d="M220.5 31q-83.5 43 -127.5 116.5t-44 163.5q0 96 50 170t138 114.5t197 40.5q50 0 97.5 -8t76.5 -23q10 -4 11.5 -6.5t2.5 -16.5l13 -131q0 -3 -5.5 -4t-6.5 2q-22 64 -78 116t-143 52q-69 0 -125.5 -35t-89 -100.5t-32.5 -151.5q0 -91 35.5 -165.5t100.5 -117.5t151 -43
q43 0 67 10t35 36t11 76q0 52 -6 72.5t-26.5 27.5t-71.5 7q-6 0 -6 8q0 3 1.5 5.5t3.5 2.5q83 -5 133 -5t104 3q4 0 4.5 -7t-4.5 -7q-20 1 -28.5 -6.5t-11 -31t-2.5 -79.5q0 -45 3.5 -64t3.5 -24q0 -6 -2 -8t-9 -4q-126 -28 -224 -28q-113 0 -196.5 43zM367 728
q-15 15 -15 40q0 24 15 38t40 14t39 -14t14 -38q0 -26 -14 -40.5t-39 -14.5t-40 15z" />
    <glyph glyph-name="gdotaccent" unicode="&#x121;" horiz-adv-x="449" 
d="M69.5 -250q-42.5 31 -42.5 81q0 39 31 78t100 80l10 -12q-30 -17 -46 -40.5t-16 -59.5q0 -60 36.5 -93.5t92.5 -33.5q57 0 92 33.5t35 90.5q0 42 -18.5 61.5t-49 24t-87.5 5.5q-72 1 -112 15.5t-40 60.5q0 35 23.5 65t72.5 58l10 -7q-22 -14 -32 -29.5t-10 -35.5
q0 -36 29.5 -46t102.5 -11q57 -1 93 -6t62.5 -28t26.5 -72q0 -55 -35 -103.5t-93 -77.5t-124 -29q-69 0 -111.5 31zM121 152q-35 19 -54 49.5t-19 64.5q0 39 24 68t62.5 44t82.5 15q47 0 82 -17t54 -46t19 -63q0 -38 -24 -69t-63 -48t-83 -17q-46 0 -81 19zM269 172
q17 22 17 69q0 42 -14.5 72.5t-37 46t-47.5 15.5q-54 0 -54 -81q0 -43 13.5 -75.5t35 -50.5t44.5 -18q26 0 43 22zM366.5 383q30.5 12 65.5 12q7 0 7 -26q0 -13 -3.5 -28t-7.5 -13q-37 16 -72 16q-25 0 -47 -7l-7 -22l1 32q33 24 63.5 36zM178.5 515q-14.5 14 -14.5 40
q0 24 14.5 38t40.5 14q25 0 38.5 -14t13.5 -38q0 -26 -13.5 -40t-38.5 -14q-26 0 -40.5 14z" />
    <glyph glyph-name="uni0122" unicode="&#x122;" horiz-adv-x="725" 
d="M220.5 31q-83.5 43 -127.5 116.5t-44 163.5q0 96 50 170t138 114.5t197 40.5q50 0 97.5 -8t76.5 -23q10 -4 11.5 -6.5t2.5 -16.5l13 -131q0 -3 -5.5 -4t-6.5 2q-22 64 -78 116t-143 52q-69 0 -125.5 -35t-89 -100.5t-32.5 -151.5q0 -91 35.5 -165.5t100.5 -117.5t151 -43
q43 0 67 10t35 36t11 76q0 52 -6 72.5t-26.5 27.5t-71.5 7q-6 0 -6 8q0 3 1.5 5.5t3.5 2.5q83 -5 133 -5t104 3q4 0 4.5 -7t-4.5 -7q-20 1 -28.5 -6.5t-11 -31t-2.5 -79.5q0 -45 3.5 -64t3.5 -24q0 -6 -2 -8t-9 -4q-126 -28 -224 -28q-113 0 -196.5 43zM412 -276q-4 0 -6 4
t1 6q46 37 46 75q0 21 -7.5 30t-20.5 12l24 15q3 -43 -42 -43q-20 0 -32.5 14t-12.5 37q0 25 16.5 38t40.5 13q32 0 49 -20.5t17 -57.5t-18.5 -66t-52.5 -56z" />
    <glyph glyph-name="uni0123" unicode="&#x123;" horiz-adv-x="449" 
d="M69.5 -250q-42.5 31 -42.5 81q0 39 31 78t100 80l10 -12q-30 -17 -46 -40.5t-16 -59.5q0 -60 36.5 -93.5t92.5 -33.5q57 0 92 33.5t35 90.5q0 42 -18.5 61.5t-49 24t-87.5 5.5q-72 1 -112 15.5t-40 60.5q0 35 23.5 65t72.5 58l10 -7q-22 -14 -32 -29.5t-10 -35.5
q0 -36 29.5 -46t102.5 -11q57 -1 93 -6t62.5 -28t26.5 -72q0 -55 -35 -103.5t-93 -77.5t-124 -29q-69 0 -111.5 31zM121 152q-35 19 -54 49.5t-19 64.5q0 39 24 68t62.5 44t82.5 15q47 0 82 -17t54 -46t19 -63q0 -38 -24 -69t-63 -48t-83 -17q-46 0 -81 19zM269 172
q17 22 17 69q0 42 -14.5 72.5t-37 46t-47.5 15.5q-54 0 -54 -81q0 -43 13.5 -75.5t35 -50.5t44.5 -18q26 0 43 22zM366.5 383q30.5 12 65.5 12q7 0 7 -26q0 -13 -3.5 -28t-7.5 -13q-37 16 -72 16q-25 0 -47 -7l-7 -22l1 32q33 24 63.5 36zM228 682q4 0 6 -4t-1 -6
q-46 -37 -46 -75q0 -21 7.5 -30t20.5 -12l-24 -15q-3 43 42 43q20 0 32.5 -14t12.5 -37q0 -25 -16.5 -38.5t-40.5 -13.5q-32 0 -49 21t-17 58t18.5 66t52.5 56z" />
    <glyph glyph-name="Hcircumflex" unicode="&#x124;" horiz-adv-x="762" 
d="M547 586.5q-6 14.5 -24 20.5t-55 6q-3 0 -3 6t3 6l48 -1q48 -2 85 -2q27 0 73 2l55 1q3 0 3 -6t-3 -6q-36 0 -53 -5.5t-23 -19.5t-6 -44v-463q0 -30 6 -44.5t23 -19.5t53 -5q3 0 3 -6t-3 -6q-34 0 -55 1l-73 1l-85 -1q-18 -1 -48 -1q-3 0 -3 6t3 6q38 0 55.5 5t23.5 19.5
t6 44.5v461q0 30 -6 44.5zM158 338h438v-26h-438v26zM108 588q-6 14 -23 19.5t-52 5.5q-2 0 -2 6t2 6l53 -1q46 -2 72 -2q35 0 83 2l52 1q2 0 2 -6t-2 -6q-36 0 -53.5 -6t-24 -20.5t-6.5 -44.5v-461q0 -30 6 -44.5t23.5 -19.5t54.5 -5q2 0 2 -6t-2 -6q-34 0 -53 1l-82 1
l-73 -1q-19 -1 -53 -1q-2 0 -2 6t2 6q36 0 53 5t23 19.5t6 44.5v463q0 30 -6 44zM384 813q6 0 11 -5l102 -109q1 0 1 -2t-2.5 -4t-3.5 -1l-108 45l-109 -45q-2 -1 -5 2.5t-1 4.5l103 109q5 5 12 5z" />
    <glyph glyph-name="hcircumflex" unicode="&#x125;" horiz-adv-x="505" 
d="M20 6q0 6 3 6q34 0 45.5 14t11.5 55v511q0 35 -7 50.5t-23 15.5q-15 0 -41 -12h-1q-3 0 -5.5 5.5t0.5 6.5l139 66l5 1q4 0 8.5 -4t4.5 -7v-633q0 -41 11.5 -55t45.5 -14q4 0 4 -6t-4 -6q-25 0 -40 1l-57 1l-57 -1q-15 -1 -40 -1q-3 0 -3 6zM289 6q0 6 3 6q34 0 45.5 14
t11.5 55v149q0 56 -21 83t-65 27q-33 0 -66 -18.5t-55 -48.5l-5 12q80 112 176 112q54 0 85 -33t31 -90v-193q0 -41 11.5 -55t45.5 -14q4 0 4 -6t-4 -6q-25 0 -40 1l-57 1l-57 -1q-15 -1 -40 -1q-3 0 -3 6zM129 868q6 0 11 -5l102 -109q1 0 1 -2t-2.5 -4t-3.5 -1l-108 45
l-109 -45q-2 -1 -5 2.5t-1 4.5l103 109q5 5 12 5z" />
    <glyph glyph-name="Hbar" unicode="&#x126;" horiz-adv-x="762" 
d="M547 586.5q-6 14.5 -24 20.5t-55 6q-3 0 -3 6t3 6l48 -1q48 -2 85 -2q27 0 73 2l55 1q3 0 3 -6t-3 -6q-36 0 -53 -5.5t-23 -19.5t-6 -44v-463q0 -30 6 -44.5t23 -19.5t53 -5q3 0 3 -6t-3 -6q-34 0 -55 1l-73 1l-85 -1q-18 -1 -48 -1q-3 0 -3 6t3 6q38 0 55.5 5t23.5 19.5
t6 44.5v461q0 30 -6 44.5zM158 432h438v-26h-438v26zM108 588q-6 14 -23 19.5t-52 5.5q-2 0 -2 6t2 6l53 -1q46 -2 72 -2q35 0 83 2l52 1q2 0 2 -6t-2 -6q-36 0 -53.5 -6t-24 -20.5t-6.5 -44.5v-461q0 -30 6 -44.5t23.5 -19.5t54.5 -5q2 0 2 -6t-2 -6q-34 0 -53 1l-82 1
l-73 -1q-19 -1 -53 -1q-2 0 -2 6t2 6q36 0 53 5t23 19.5t6 44.5v463q0 30 -6 44zM158 245h438v-26h-438v26z" />
    <glyph glyph-name="hbar" unicode="&#x127;" horiz-adv-x="505" 
d="M3 507q-2 4 -2 9t2 8.5t5 3.5h304q7 0 7 -12q0 -13 -7 -13h-304q-3 0 -5 4zM20 6q0 6 3 6q34 0 45.5 14t11.5 55v511q0 35 -7 50.5t-23 15.5q-15 0 -41 -12h-1q-3 0 -5.5 5.5t0.5 6.5l139 66l5 1q4 0 8.5 -4t4.5 -7v-633q0 -41 11.5 -55t45.5 -14q4 0 4 -6t-4 -6
q-25 0 -40 1l-57 1l-57 -1q-15 -1 -40 -1q-3 0 -3 6zM289 6q0 6 3 6q34 0 45.5 14t11.5 55v149q0 56 -21 83t-65 27q-33 0 -66 -18.5t-55 -48.5l-5 12q80 112 176 112q54 0 85 -33t31 -90v-193q0 -41 11.5 -55t45.5 -14q4 0 4 -6t-4 -6q-25 0 -40 1l-57 1l-57 -1
q-15 -1 -40 -1q-3 0 -3 6z" />
    <glyph glyph-name="Itilde" unicode="&#x128;" horiz-adv-x="339" 
d="M222.5 36q5.5 -14 21 -19t49.5 -5q3 0 3 -6t-3 -6q-32 0 -51 1l-74 1l-72 -1q-19 -1 -52 -1q-3 0 -3 6t3 6q34 0 49.5 5t21.5 19.5t6 44.5v463q0 30 -6 44t-21.5 19.5t-49.5 5.5q-3 0 -3 6t3 6l52 -1q44 -2 72 -2q31 0 75 2l50 1q3 0 3 -6t-3 -6q-33 0 -49 -6
t-21.5 -20.5t-5.5 -44.5v-461q0 -31 5.5 -45zM272.5 766q10.5 6 22.5 21l2 1q2 0 4 -3t1 -5q-27 -44 -43.5 -59t-37.5 -15q-16 0 -34.5 5t-23.5 6q-17 5 -35 9t-34 4q-17 0 -25.5 -4.5t-15.5 -12t-10 -10.5h-1q-3 0 -5.5 2.5t-0.5 4.5q44 75 87 75q12 0 48 -10
q49 -15 74 -15q17 0 27.5 6z" />
    <glyph glyph-name="itilde" unicode="&#x129;" horiz-adv-x="266" 
d="M41 6q0 6 3 6q34 0 45.5 14t11.5 55v182q0 34 -7 49.5t-24 15.5q-16 0 -40 -12h-1q-4 0 -6 5t1 7l144 67l3 1q4 0 8.5 -4.5t4.5 -7.5v-21q-2 -42 -2 -99v-183q0 -41 11.5 -55t45.5 -14q3 0 3 -6t-3 -6q-25 0 -40 1l-58 1l-58 -1q-14 -1 -39 -1q-3 0 -3 6zM217.5 537
q10.5 7 21.5 20l2 1q2 0 4 -3t1 -5q-26 -43 -43 -58.5t-35 -15.5q-12 0 -24.5 5t-15.5 6q-26 13 -45 13q-16 0 -25.5 -5.5t-16 -12.5t-8.5 -9h-1q-2 0 -4.5 2.5t-1.5 4.5q47 75 85 75q11 0 33 -11q28 -14 46 -14q17 0 27.5 7z" />
    <glyph glyph-name="Imacron" unicode="&#x12a;" horiz-adv-x="339" 
d="M222.5 36q5.5 -14 21 -19t49.5 -5q3 0 3 -6t-3 -6q-32 0 -51 1l-74 1l-72 -1q-19 -1 -52 -1q-3 0 -3 6t3 6q34 0 49.5 5t21.5 19.5t6 44.5v463q0 30 -6 44t-21.5 19.5t-49.5 5.5q-3 0 -3 6t3 6l52 -1q44 -2 72 -2q31 0 75 2l50 1q3 0 3 -6t-3 -6q-33 0 -49 -6
t-21.5 -20.5t-5.5 -44.5v-461q0 -31 5.5 -45zM37 721.5q-2 5.5 -2 11.5q0 7 2 12t6 5h251q4 0 6.5 -5t2.5 -12t-2.5 -12t-6.5 -5h-251q-4 0 -6 5.5z" />
    <glyph glyph-name="imacron" unicode="&#x12b;" horiz-adv-x="266" 
d="M41 6q0 6 3 6q34 0 45.5 14t11.5 55v182q0 34 -7 49.5t-24 15.5q-16 0 -40 -12h-1q-4 0 -6 5t1 7l144 67l3 1q4 0 8.5 -4.5t4.5 -7.5v-21q-2 -42 -2 -99v-183q0 -41 11.5 -55t45.5 -14q3 0 3 -6t-3 -6q-25 0 -40 1l-58 1l-58 -1q-14 -1 -39 -1q-3 0 -3 6zM3.5 482
q-2.5 5 -2.5 12t2.5 12t6.5 5h251q4 0 6.5 -5t2.5 -12t-2.5 -12t-6.5 -5h-251q-4 0 -6.5 5z" />
    <glyph glyph-name="Ibreve" unicode="&#x12c;" horiz-adv-x="339" 
d="M222.5 36q5.5 -14 21 -19t49.5 -5q3 0 3 -6t-3 -6q-32 0 -51 1l-74 1l-72 -1q-19 -1 -52 -1q-3 0 -3 6t3 6q34 0 49.5 5t21.5 19.5t6 44.5v463q0 30 -6 44t-21.5 19.5t-49.5 5.5q-3 0 -3 6t3 6l52 -1q44 -2 72 -2q31 0 75 2l50 1q3 0 3 -6t-3 -6q-33 0 -49 -6
t-21.5 -20.5t-5.5 -44.5v-461q0 -31 5.5 -45zM95.5 721q-26.5 31 -29.5 89q0 3 5.5 3.5t5.5 -1.5q2 -22 29 -39t63 -17q35 0 62 17t29 39q1 2 6.5 1.5t4.5 -3.5q-2 -58 -28 -89t-74 -31q-47 0 -73.5 31z" />
    <glyph glyph-name="ibreve" unicode="&#x12d;" horiz-adv-x="266" 
d="M41 6q0 6 3 6q34 0 45.5 14t11.5 55v182q0 34 -7 49.5t-24 15.5q-16 0 -40 -12h-1q-4 0 -6 5t1 7l144 67l3 1q4 0 8.5 -4.5t4.5 -7.5v-21q-2 -42 -2 -99v-183q0 -41 11.5 -55t45.5 -14q3 0 3 -6t-3 -6q-25 0 -40 1l-58 1l-58 -1q-14 -1 -39 -1q-3 0 -3 6zM38.5 628.5
q5.5 0.5 5.5 -2.5q0 -36 26.5 -62t65.5 -26q38 0 64.5 26t26.5 62q0 3 5.5 2.5t5.5 -4.5q0 -77 -26 -117.5t-76 -40.5t-76.5 40.5t-26.5 117.5q0 4 5.5 4.5z" />
    <glyph glyph-name="Iogonek" unicode="&#x12e;" horiz-adv-x="339" 
d="M222.5 36q5.5 -14 21 -19t49.5 -5q3 0 3 -6t-3 -6q-32 0 -51 1l-74 1l-72 -1q-19 -1 -52 -1q-3 0 -3 6t3 6q34 0 49.5 5t21.5 19.5t6 44.5v463q0 30 -6 44t-21.5 19.5t-49.5 5.5q-3 0 -3 6t3 6l52 -1q44 -2 72 -2q31 0 75 2l50 1q3 0 3 -6t-3 -6q-33 0 -49 -6
t-21.5 -20.5t-5.5 -44.5v-461q0 -31 5.5 -45zM101.5 -247q-27.5 28 -27.5 76q0 90 96 183l10 -5q-32 -53 -32 -114q0 -54 24.5 -90.5t60.5 -36.5q20 0 38 12h2q3 0 5.5 -3t-0.5 -5q-24 -24 -47 -34.5t-53 -10.5q-49 0 -76.5 28z" />
    <glyph glyph-name="iogonek" unicode="&#x12f;" horiz-adv-x="266" 
d="M41 6q0 6 3 6q34 0 45.5 14t11.5 55v182q0 34 -7 49.5t-24 15.5q-16 0 -40 -12h-1q-4 0 -6 5t1 7l144 67l3 1q4 0 8.5 -4.5t4.5 -7.5v-21q-2 -42 -2 -99v-183q0 -41 11.5 -55t45.5 -14q3 0 3 -6t-3 -6q-25 0 -40 1l-58 1l-58 -1q-14 -1 -39 -1q-3 0 -3 6zM95.5 515
q-14.5 14 -14.5 40q0 24 14.5 38t40.5 14q25 0 38.5 -14t13.5 -38q0 -26 -13.5 -40t-38.5 -14q-26 0 -40.5 14zM74.5 -243q-27.5 28 -27.5 76q0 92 95 183l10 -5q-32 -55 -32 -114q0 -53 24.5 -90t60.5 -37q19 0 39 12h2q3 0 5.5 -3t-0.5 -5q-24 -24 -47 -34.5t-54 -10.5
q-48 0 -75.5 28z" />
    <glyph glyph-name="Idotaccent" unicode="&#x130;" horiz-adv-x="339" 
d="M222.5 36q5.5 -14 21 -19t49.5 -5q3 0 3 -6t-3 -6q-32 0 -51 1l-74 1l-72 -1q-19 -1 -52 -1q-3 0 -3 6t3 6q34 0 49.5 5t21.5 19.5t6 44.5v463q0 30 -6 44t-21.5 19.5t-49.5 5.5q-3 0 -3 6t3 6l52 -1q44 -2 72 -2q31 0 75 2l50 1q3 0 3 -6t-3 -6q-33 0 -49 -6
t-21.5 -20.5t-5.5 -44.5v-461q0 -31 5.5 -45zM130 728q-15 15 -15 40q0 24 15 38t40 14t39 -14t14 -38q0 -26 -14 -40.5t-39 -14.5t-40 15z" />
    <glyph glyph-name="dotlessi" unicode="&#x131;" horiz-adv-x="266" 
d="M41 6q0 6 3 6q34 0 45.5 14t11.5 55v182q0 34 -7 49.5t-24 15.5q-16 0 -40 -12h-1q-4 0 -6 5t1 7l144 67l3 1q4 0 8.5 -4.5t4.5 -7.5v-21q-2 -42 -2 -99v-183q0 -41 11.5 -55t45.5 -14q3 0 3 -6t-3 -6q-25 0 -40 1l-58 1l-58 -1q-14 -1 -39 -1q-3 0 -3 6z" />
    <glyph glyph-name="IJ" unicode="&#x132;" horiz-adv-x="696" 
d="M217 305q5 -14 21 -19t51 -5q2 0 2 -6t-2 -6q-33 0 -52 1l-74 1l-70 -1q-20 -1 -54 -1q-2 0 -2 6t2 6q34 0 49.5 5t21.5 19.5t6 44.5v194q0 30 -6 44t-21.5 19.5t-49.5 5.5q-2 0 -2 6t2 6l54 -1q44 -2 70 -2q30 0 76 2l50 1q2 0 2 -6t-2 -6q-34 0 -50 -6t-21.5 -20.5
t-5.5 -44.5v-192q0 -31 5 -45zM668 619q0 -6 -3 -6q-28 0 -41.5 -6t-18 -20.5t-4.5 -44.5v-284q0 -86 -32 -147t-90 -92.5t-135 -31.5q-65 0 -119.5 21.5t-86 55t-31.5 68.5q0 22 13.5 36.5t39.5 14.5q28 0 39 -17.5t19 -52.5q8 -34 17.5 -55t35 -36.5t72.5 -15.5
q83 0 122.5 50.5t39.5 143.5v344q0 30 -6.5 44t-25 19.5t-57.5 5.5q-3 0 -3 6t3 6l61 -1q46 -2 74 -2q27 0 69 2l45 1q3 0 3 -6z" />
    <glyph glyph-name="ij" unicode="&#x133;" horiz-adv-x="530" 
d="M41 6q0 6 3 6q34 0 45.5 14t11.5 55v182q0 34 -7 49.5t-24 15.5q-16 0 -40 -12h-1q-4 0 -6 5t1 7l144 67l3 1q4 0 8.5 -4.5t4.5 -7.5v-21q-2 -42 -2 -99v-183q0 -41 11.5 -55t45.5 -14q3 0 3 -6t-3 -6q-25 0 -40 1l-58 1l-58 -1q-14 -1 -39 -1q-3 0 -3 6zM95.5 515
q-14.5 14 -14.5 40q0 24 14.5 38t40.5 14q25 0 38.5 -14t13.5 -38q0 -26 -13.5 -40t-38.5 -14q-26 0 -40.5 14zM450 363q-2 -42 -2 -99v-312q0 -68 -15.5 -111.5t-51 -72.5t-98.5 -50q-2 -1 -4.5 4.5t-0.5 6.5q49 21 69 67t20 133v334q0 34 -7 49.5t-23 15.5t-40 -12h-1
q-4 0 -6.5 5t0.5 7l144 67l3 1q4 0 8.5 -4.5t4.5 -7.5v-21zM359.5 515.5q-14.5 14.5 -14.5 39.5q0 24 15 38t40 14t39 -14t14 -38q0 -25 -14 -39.5t-39 -14.5q-26 0 -40.5 14.5z" />
    <glyph glyph-name="Jcircumflex" unicode="&#x134;" horiz-adv-x="333" 
d="M294 619q0 -6 -2 -6q-28 0 -41.5 -6t-18 -20.5t-4.5 -44.5v-554q0 -108 -52.5 -169.5t-147.5 -61.5q-36 0 -58.5 14.5t-22.5 39.5q0 19 11.5 32t34.5 13q22 0 34 -12.5t22 -34.5q8 -15 14.5 -23t16.5 -8q26 0 38.5 36.5t12.5 120.5v609q0 30 -6.5 44t-25 19.5t-57.5 5.5
q-2 0 -2 6t2 6l60 -1q48 -2 76 -2q27 0 69 2l45 1q2 0 2 -6zM172 816q6 0 11 -5l102 -109q1 0 1 -2t-2.5 -4t-3.5 -1l-108 45l-109 -45q-2 -1 -5 2.5t-1 4.5l103 109q5 5 12 5z" />
    <glyph glyph-name="jcircumflex" unicode="&#x135;" horiz-adv-x="261" 
d="M181 363q-2 -42 -2 -99v-312q0 -68 -15.5 -111.5t-51 -72.5t-98.5 -50q-2 -1 -4.5 4.5t-0.5 6.5q49 21 69 67t20 133v334q0 34 -7 49.5t-23 15.5t-40 -12h-1q-4 0 -6.5 5t0.5 7l144 67l3 1q4 0 8.5 -4.5t4.5 -7.5v-21zM210 475q0 -2 -4.5 -3t-5.5 2l-68 128l-69 -128
q0 -2 -4 -2q-3 0 -5.5 1.5t-1.5 2.5l68 249q1 5 11 5q11 0 12 -5l67 -249v-1z" />
    <glyph glyph-name="uni0136" unicode="&#x136;" horiz-adv-x="653" 
d="M103.5 588q-5.5 14 -21.5 19.5t-49 5.5q-2 0 -2 6t2 6l53 -1q44 -2 70 -2q30 0 74 2l50 1q3 0 3 -6t-3 -6q-33 0 -48.5 -6t-21.5 -20.5t-6 -44.5v-461q0 -31 5.5 -45t21 -19t49.5 -5q4 0 4 -6t-4 -6q-32 0 -51 1l-73 1l-71 -1q-19 -1 -53 -1q-2 0 -2 6t2 6q34 0 49.5 5
t21.5 19.5t6 44.5v463q0 30 -5.5 44zM224 335l70 64l150 -199q68 -93 103 -131.5t55 -47.5t54 -9q3 0 3 -6t-3 -6h-112l-39 -1q-14 0 -24 6t-23 22t-48 63l-41 55zM432 582q0 14 -15.5 22.5t-45.5 8.5q-2 0 -2 6t2 6l45 -1q44 -2 80 -2q39 0 79 2l43 1q3 0 3 -6t-3 -6
q-44 0 -96.5 -23.5t-95.5 -65.5l-256 -258l-27 2l258 262q31 30 31 52zM335 -276q-4 0 -6 4t1 6q46 37 46 75q0 21 -7.5 30t-20.5 12l24 15q3 -43 -42 -43q-20 0 -32.5 14t-12.5 37q0 25 17 38t41 13q31 0 48 -21t17 -57q0 -37 -18.5 -66t-52.5 -56z" />
    <glyph glyph-name="uni0137" unicode="&#x137;" horiz-adv-x="491" 
d="M20 6q0 6 3 6q34 0 45.5 14t11.5 55v511q0 35 -7 50.5t-23 15.5q-15 0 -41 -12h-1q-3 0 -5.5 5.5t0.5 6.5l139 66l5 1q4 0 8.5 -4t4.5 -7v-633q0 -41 11.5 -55t45.5 -14q4 0 4 -6t-4 -6q-25 0 -40 1l-57 1l-57 -1q-15 -1 -40 -1q-3 0 -3 6zM272 6q0 6 2 6q42 0 42 20
q0 9 -9 21l-123 161l60 46l137 -179q52 -69 111 -69q3 0 3 -6t-3 -6q-25 0 -40 1l-57 1l-75 -1q-17 -1 -46 -1q-2 0 -2 6zM125 170l142 129q28 24 28 47q0 12 -11.5 20t-32.5 8q-3 0 -3 6t3 6q28 0 44 -1l76 -1l71 1q14 1 38 1q3 0 3 -6t-3 -6q-41 0 -93 -20.5t-96 -59.5
l-161 -139zM237 -276q-4 0 -6 4t0 6q47 38 47 75q0 21 -7.5 30t-20.5 12l24 15q1 -43 -42 -43q-20 0 -32.5 14t-12.5 37q0 25 16.5 38t40.5 13q32 0 48.5 -20.5t16.5 -57.5t-18.5 -66t-51.5 -56z" />
    <glyph glyph-name="kgreenlandic" unicode="&#x138;" horiz-adv-x="509" 
d="M289 6q0 6 3 6q41 0 41 20q0 9 -9 21l-122 161l60 46l137 -179q51 -69 111 -69q2 0 2 -6t-2 -6q-25 0 -40 1l-58 1l-74 -1q-17 -1 -46 -1q-3 0 -3 6zM143 170l142 129q28 24 28 46q0 13 -11.5 21t-32.5 8q-3 0 -3 6t3 6q28 0 44 -1l76 -1l71 1q14 1 38 1q2 0 2 -6t-2 -6
q-41 0 -93 -20.5t-97 -59.5l-160 -139zM38 6q0 6 2 6q34 0 45.5 14t11.5 55v191q0 32 -7.5 47t-24.5 15q-16 0 -51 -15h-1q-4 0 -5.5 5t1.5 6l131 64l6 2q12 0 22 -24.5t10 -65.5v-225q0 -41 11.5 -55t45.5 -14q3 0 3 -6t-3 -6q-25 0 -40 1l-58 1l-57 -1q-15 -1 -40 -1
q-2 0 -2 6z" />
    <glyph glyph-name="Lacute" unicode="&#x139;" horiz-adv-x="541" 
d="M208 46.5q5 -12.5 18 -16.5t42 -4h60q71 0 120 39.5t65 106.5q0 2 4 2q2 0 4.5 -1.5t2.5 -2.5q-9 -92 -9 -155q0 -8 -3 -11.5t-12 -3.5h-468q-2 0 -2 6t2 6q34 0 49.5 5t21 19.5t5.5 44.5v463q0 30 -5.5 44t-21.5 19.5t-49 5.5q-2 0 -2 6t2 6l51 -1q44 -2 72 -2
q30 0 74 2l50 1q3 0 3 -6t-3 -6q-33 0 -49 -5.5t-21.5 -20t-5.5 -44.5v-458q0 -26 5 -38.5zM62 678q-4 0 -5 4.5t2 6.5q37 24 89 64l50 37q5 4 31.5 -4t47 -18t9.5 -12q-62 -15 -113.5 -33.5t-108.5 -43.5z" />
    <glyph glyph-name="lacute" unicode="&#x13a;" horiz-adv-x="265" 
d="M34 6q0 6 3 6q34 0 45.5 14t11.5 55v511q0 35 -6.5 50.5t-22.5 15.5q-15 0 -41 -12h-1q-4 0 -6 5t0 7l141 66l4 1q4 0 9 -4t5 -7v-633q0 -41 11.5 -55t45.5 -14q3 0 3 -6t-3 -6q-25 0 -40 1l-58 1l-58 -1q-15 -1 -40 -1q-3 0 -3 6zM30 727q-4 0 -5 4.5t2 6.5q37 24 89 64
l50 37q5 4 31.5 -4t47 -18t9.5 -12q-62 -15 -113.5 -33.5t-108.5 -43.5z" />
    <glyph glyph-name="uni013B" unicode="&#x13b;" horiz-adv-x="541" 
d="M208 46.5q5 -12.5 18 -16.5t42 -4h60q71 0 120 39.5t65 106.5q0 2 4 2q2 0 4.5 -1.5t2.5 -2.5q-9 -92 -9 -155q0 -8 -3 -11.5t-12 -3.5h-468q-2 0 -2 6t2 6q34 0 49.5 5t21 19.5t5.5 44.5v463q0 30 -5.5 44t-21.5 19.5t-49 5.5q-2 0 -2 6t2 6l51 -1q44 -2 72 -2
q30 0 74 2l50 1q3 0 3 -6t-3 -6q-33 0 -49 -5.5t-21.5 -20t-5.5 -44.5v-458q0 -26 5 -38.5zM281 -276q-4 0 -6 4t0 6q47 38 47 75q0 21 -7.5 30t-20.5 12l24 15q1 -43 -42 -43q-20 0 -32.5 14t-12.5 37q0 25 16.5 38t40.5 13q32 0 48.5 -20.5t16.5 -57.5t-18.5 -66
t-51.5 -56z" />
    <glyph glyph-name="uni013C" unicode="&#x13c;" horiz-adv-x="265" 
d="M34 6q0 6 3 6q34 0 45.5 14t11.5 55v511q0 35 -6.5 50.5t-22.5 15.5q-15 0 -41 -12h-1q-4 0 -6 5t0 7l141 66l4 1q4 0 9 -4t5 -7v-633q0 -41 11.5 -55t45.5 -14q3 0 3 -6t-3 -6q-25 0 -40 1l-58 1l-58 -1q-15 -1 -40 -1q-3 0 -3 6zM122 -276q-4 0 -6 4t1 6q47 38 47 75
q0 21 -7.5 30t-21.5 12l24 15q3 -43 -41 -43q-20 0 -33 14t-13 37q0 25 17 38t41 13q32 0 48.5 -20.5t16.5 -57.5t-18.5 -66t-52.5 -56z" />
    <glyph glyph-name="Lcaron" unicode="&#x13d;" horiz-adv-x="541" 
d="M208 46.5q5 -12.5 18 -16.5t42 -4h60q71 0 120 39.5t65 106.5q0 2 4 2q2 0 4.5 -1.5t2.5 -2.5q-9 -92 -9 -155q0 -8 -3 -11.5t-12 -3.5h-468q-2 0 -2 6t2 6q34 0 49.5 5t21 19.5t5.5 44.5v463q0 30 -5.5 44t-21.5 19.5t-49 5.5q-2 0 -2 6t2 6l51 -1q44 -2 72 -2
q30 0 74 2l50 1q3 0 3 -6t-3 -6q-33 0 -49 -5.5t-21.5 -20t-5.5 -44.5v-458q0 -26 5 -38.5zM371.5 624q18.5 -6 35 -16.5t15.5 -17.5l-50 -238q-1 -2 -6 -1.5t-5 2.5l-8 272q0 5 18.5 -1z" />
    <glyph glyph-name="lcaron" unicode="&#x13e;" horiz-adv-x="265" 
d="M34 6q0 6 3 6q34 0 45.5 14t11.5 55v511q0 35 -6.5 50.5t-22.5 15.5q-15 0 -41 -12h-1q-4 0 -6 5t0 7l141 66l4 1q4 0 9 -4t5 -7v-633q0 -41 11.5 -55t45.5 -14q3 0 3 -6t-3 -6q-25 0 -40 1l-58 1l-58 -1q-15 -1 -40 -1q-3 0 -3 6zM256.5 724q18.5 -6 35 -16.5
t14.5 -17.5l-49 -238q-1 -2 -6 -1.5t-5 2.5l-8 272q0 5 18.5 -1z" />
    <glyph glyph-name="Ldot" unicode="&#x13f;" horiz-adv-x="541" 
d="M208 46.5q5 -12.5 18 -16.5t42 -4h60q71 0 120 39.5t65 106.5q0 2 4 2q2 0 4.5 -1.5t2.5 -2.5q-9 -92 -9 -155q0 -8 -3 -11.5t-12 -3.5h-468q-2 0 -2 6t2 6q34 0 49.5 5t21 19.5t5.5 44.5v463q0 30 -5.5 44t-21.5 19.5t-49 5.5q-2 0 -2 6t2 6l51 -1q44 -2 72 -2
q30 0 74 2l50 1q3 0 3 -6t-3 -6q-33 0 -49 -5.5t-21.5 -20t-5.5 -44.5v-458q0 -26 5 -38.5zM388 279q-15 15 -15 40q0 24 15 38t40 14q26 0 40 -14t14 -38q0 -26 -14 -40.5t-40 -14.5q-25 0 -40 15z" />
    <glyph glyph-name="ldot" unicode="&#x140;" horiz-adv-x="265" 
d="M34 6q0 6 3 6q34 0 45.5 14t11.5 55v511q0 35 -6.5 50.5t-22.5 15.5q-15 0 -41 -12h-1q-4 0 -6 5t0 7l141 66l4 1q4 0 9 -4t5 -7v-633q0 -41 11.5 -55t45.5 -14q3 0 3 -6t-3 -6q-25 0 -40 1l-58 1l-58 -1q-15 -1 -40 -1q-3 0 -3 6zM225 288q-15 15 -15 40q0 24 15 38
t40 14q26 0 40 -14t14 -38q0 -26 -14 -40.5t-40 -14.5q-25 0 -40 15z" />
    <glyph glyph-name="Lslash" unicode="&#x141;" horiz-adv-x="538" 
d="M45.5 232q-6.5 11 -2.5 12l270 156q4 2 10 -9t2 -13l-269 -156q-4 -1 -10.5 10zM208 46.5q5 -12.5 18 -16.5t42 -4h60q71 0 120 39.5t65 106.5q0 2 4 2q2 0 4.5 -1.5t2.5 -2.5q-9 -92 -9 -155q0 -8 -3 -11.5t-12 -3.5h-468q-2 0 -2 6t2 6q34 0 49.5 5t21 19.5t5.5 44.5
v463q0 30 -5.5 44t-21.5 19.5t-49 5.5q-2 0 -2 6t2 6l51 -1q44 -2 72 -2q30 0 74 2l50 1q3 0 3 -6t-3 -6q-33 0 -49 -5.5t-21.5 -20t-5.5 -44.5v-458q0 -26 5 -38.5z" />
    <glyph glyph-name="lslash" unicode="&#x142;" horiz-adv-x="268" 
d="M38 288q-5 6 -7.5 14t0.5 10l198 119q4 2 9.5 -4t8 -14t-1.5 -10l-198 -119q-4 -2 -9 4zM38 6q0 6 3 6q34 0 45.5 14t11.5 55v511q0 35 -6.5 50.5t-22.5 15.5q-15 0 -41 -12h-1q-4 0 -6 5t0 7l141 66l4 1q4 0 9 -4t5 -7v-633q0 -41 11.5 -55t45.5 -14q3 0 3 -6t-3 -6
q-25 0 -40 1l-58 1l-58 -1q-15 -1 -40 -1q-3 0 -3 6z" />
    <glyph glyph-name="Nacute" unicode="&#x143;" horiz-adv-x="732" 
d="M125 602l27 -2v-479q0 -53 20.5 -81t60.5 -28q3 0 3 -6t-3 -6q-26 0 -40 1l-53 1l-59 -1q-16 -1 -46 -1q-3 0 -3 6t3 6q43 0 66.5 28t23.5 81v481zM628 -18q-5 -1 -7 1l-481 560q-34 39 -60 54.5t-51 15.5q-3 0 -3 6t3 6l40 -1q12 -1 36 -1l64 1q12 1 28 1q8 0 12 -4
t12 -16q17 -23 25 -32l379 -446l8 -141q0 -3 -5 -4zM633 -14l-27 30v487q0 53 -20.5 81.5t-60.5 28.5q-2 0 -2 6t2 6l41 -1q32 -2 53 -2q19 0 55 2l42 1q3 0 3 -6t-3 -6q-40 0 -61.5 -28.5t-21.5 -81.5v-517zM281 678q-4 0 -5 4.5t2 6.5q32 19 88 63q46 35 50 38q5 4 32 -4
t47.5 -18t9.5 -12q-62 -15 -113.5 -33.5t-108.5 -43.5z" />
    <glyph glyph-name="nacute" unicode="&#x144;" horiz-adv-x="523" 
d="M307 6q0 6 3 6q34 0 45 14t11 55v150q0 56 -20.5 82.5t-64.5 26.5q-33 0 -66.5 -18t-54.5 -48l-5 12q80 112 176 112q55 0 85.5 -33t30.5 -91v-193q0 -41 11.5 -55t45.5 -14q3 0 3 -6t-3 -6q-25 0 -40 1l-57 1l-57 -1q-15 -1 -40 -1q-3 0 -3 6zM38 6q0 6 3 6q34 0 45 14
t11 55v191q0 32 -7.5 47t-24.5 15q-15 0 -50 -15h-1q-4 0 -6 5t1 6l131 64q6 2 7 2q11 0 21 -25t10 -65v-225q0 -41 11.5 -55t45.5 -14q3 0 3 -6t-3 -6q-25 0 -40 1l-57 1l-58 -1q-14 -1 -39 -1q-3 0 -3 6zM269 472q-3 0 -5.5 1.5t-1.5 2.5l39 240q2 4 29 9.5t45 5.5
q12 0 11 -4l-113 -253q0 -2 -4 -2z" />
    <glyph glyph-name="uni0145" unicode="&#x145;" horiz-adv-x="732" 
d="M125 602l27 -2v-479q0 -53 20.5 -81t60.5 -28q3 0 3 -6t-3 -6q-26 0 -40 1l-53 1l-59 -1q-16 -1 -46 -1q-3 0 -3 6t3 6q43 0 66.5 28t23.5 81v481zM628 -18q-5 -1 -7 1l-481 560q-34 39 -60 54.5t-51 15.5q-3 0 -3 6t3 6l40 -1q12 -1 36 -1l64 1q12 1 28 1q8 0 12 -4
t12 -16q17 -23 25 -32l379 -446l8 -141q0 -3 -5 -4zM633 -14l-27 30v487q0 53 -20.5 81.5t-60.5 28.5q-2 0 -2 6t2 6l41 -1q32 -2 53 -2q19 0 55 2l42 1q3 0 3 -6t-3 -6q-40 0 -61.5 -28.5t-21.5 -81.5v-517zM361 -276q-4 0 -6 4t1 6q46 37 46 75q0 21 -7.5 30t-20.5 12
l24 15q3 -43 -42 -43q-20 0 -32.5 14t-12.5 37q0 25 16.5 38t40.5 13q32 0 49 -20.5t17 -57.5t-18.5 -66t-52.5 -56z" />
    <glyph glyph-name="uni0146" unicode="&#x146;" horiz-adv-x="523" 
d="M307 6q0 6 3 6q34 0 45 14t11 55v150q0 56 -20.5 82.5t-64.5 26.5q-33 0 -66.5 -18t-54.5 -48l-5 12q80 112 176 112q55 0 85.5 -33t30.5 -91v-193q0 -41 11.5 -55t45.5 -14q3 0 3 -6t-3 -6q-25 0 -40 1l-57 1l-57 -1q-15 -1 -40 -1q-3 0 -3 6zM38 6q0 6 3 6q34 0 45 14
t11 55v191q0 32 -7.5 47t-24.5 15q-15 0 -50 -15h-1q-4 0 -6 5t1 6l131 64q6 2 7 2q11 0 21 -25t10 -65v-225q0 -41 11.5 -55t45.5 -14q3 0 3 -6t-3 -6q-25 0 -40 1l-57 1l-58 -1q-14 -1 -39 -1q-3 0 -3 6zM248 -276q-4 0 -6 4t1 6q47 38 47 75q0 21 -7.5 30t-21.5 12l24 15
q3 -43 -41 -43q-20 0 -33 14t-13 37q0 25 17 38t41 13q32 0 48.5 -20.5t16.5 -57.5t-18.5 -66t-52.5 -56z" />
    <glyph glyph-name="Ncaron" unicode="&#x147;" horiz-adv-x="732" 
d="M125 602l27 -2v-479q0 -53 20.5 -81t60.5 -28q3 0 3 -6t-3 -6q-26 0 -40 1l-53 1l-59 -1q-16 -1 -46 -1q-3 0 -3 6t3 6q43 0 66.5 28t23.5 81v481zM628 -18q-5 -1 -7 1l-481 560q-34 39 -60 54.5t-51 15.5q-3 0 -3 6t3 6l40 -1q12 -1 36 -1l64 1q12 1 28 1q8 0 12 -4
t12 -16q17 -23 25 -32l379 -446l8 -141q0 -3 -5 -4zM633 -14l-27 30v487q0 53 -20.5 81.5t-60.5 28.5q-2 0 -2 6t2 6l41 -1q32 -2 53 -2q19 0 55 2l42 1q3 0 3 -6t-3 -6q-40 0 -61.5 -28.5t-21.5 -81.5v-517zM265 797q0 2 2.5 4.5t3.5 1.5l109 -45l108 46h1q3 0 4.5 -2.5
t-0.5 -4.5l-102 -110q-4 -4 -11 -4q-8 0 -12 4l-103 109v1z" />
    <glyph glyph-name="ncaron" unicode="&#x148;" horiz-adv-x="523" 
d="M307 6q0 6 3 6q34 0 45 14t11 55v150q0 56 -20.5 82.5t-64.5 26.5q-33 0 -66.5 -18t-54.5 -48l-5 12q80 112 176 112q55 0 85.5 -33t30.5 -91v-193q0 -41 11.5 -55t45.5 -14q3 0 3 -6t-3 -6q-25 0 -40 1l-57 1l-57 -1q-15 -1 -40 -1q-3 0 -3 6zM38 6q0 6 3 6q34 0 45 14
t11 55v191q0 32 -7.5 47t-24.5 15q-15 0 -50 -15h-1q-4 0 -6 5t1 6l131 64q6 2 7 2q11 0 21 -25t10 -65v-225q0 -41 11.5 -55t45.5 -14q3 0 3 -6t-3 -6q-25 0 -40 1l-57 1l-58 -1q-14 -1 -39 -1q-3 0 -3 6zM199 730q5 1 7 -1l69 -128l68 128q2 2 6.5 1t3.5 -4l-67 -249
q-2 -5 -11 -5t-12 5l-68 249q-1 3 4 4z" />
    <glyph glyph-name="napostrophe" unicode="&#x149;" horiz-adv-x="523" 
d="M139.5 629.5q18.5 -23.5 18.5 -70.5q0 -50 -23.5 -95.5t-67.5 -90.5q-1 -1 -3 -1q-3 0 -4.5 2.5t-0.5 5.5q25 32 34.5 63.5t9.5 68.5q0 28 -6 42.5t-17 24.5l37 7q1 -17 -9.5 -26t-28.5 -9q-24 0 -37 13.5t-13 36.5q0 25 15.5 38.5t42.5 13.5q34 0 52.5 -23.5zM307 6
q0 6 3 6q34 0 45 14t11 55v150q0 56 -20.5 82.5t-64.5 26.5q-33 0 -66.5 -18t-54.5 -48l-5 12q80 112 176 112q55 0 85.5 -33t30.5 -91v-193q0 -41 11.5 -55t45.5 -14q3 0 3 -6t-3 -6q-25 0 -40 1l-57 1l-57 -1q-15 -1 -40 -1q-3 0 -3 6zM38 6q0 6 3 6q34 0 45 14t11 55v191
q0 32 -7.5 47t-24.5 15q-15 0 -50 -15h-1q-4 0 -6 5t1 6l131 64q6 2 7 2q11 0 21 -25t10 -65v-225q0 -41 11.5 -55t45.5 -14q3 0 3 -6t-3 -6q-25 0 -40 1l-57 1l-58 -1q-14 -1 -39 -1q-3 0 -3 6z" />
    <glyph glyph-name="Eng" unicode="&#x14a;" horiz-adv-x="732" 
d="M80 597.5q-26 15.5 -51 15.5q-3 0 -3 6t3 6l40 -1q12 -1 36 -1l64 1q12 1 28 1q8 0 12 -4t12 -16q17 -23 25 -32l379 -446l8 -141l-12 -3l-481 560q-34 39 -60 54.5zM431.5 -173.5q-26.5 17.5 -26.5 44.5q0 21 12 34t33 13q25 0 33.5 -12t12.5 -35q4 -19 9.5 -28t21.5 -9
q37 0 58 41t21 110l27 1q0 -83 -34.5 -130t-96.5 -47q-44 0 -70.5 17.5zM32 6q0 6 3 6q43 0 66.5 28t23.5 81v481l27 -2v-479q0 -53 20.5 -81t60.5 -28q3 0 3 -6t-3 -6q-26 0 -40 1l-53 1l-59 -1q-16 -1 -46 -1q-3 0 -3 6zM585.5 584.5q-20.5 28.5 -60.5 28.5q-2 0 -2 6t2 6
l41 -1q32 -2 53 -2q19 0 55 2l42 1q3 0 3 -6t-3 -6q-40 0 -61.5 -28.5t-21.5 -81.5v-517l-27 -1v518q0 53 -20.5 81.5z" />
    <glyph glyph-name="eng" unicode="&#x14b;" horiz-adv-x="507" 
d="M277.5 -275.5q-2.5 5.5 0.5 6.5q48 21 68 66.5t20 131.5v302q0 56 -20.5 82.5t-64.5 26.5q-33 0 -66.5 -18t-54.5 -48l-5 12q79 112 176 112q54 0 85 -33.5t31 -90.5v-322q0 -68 -15.5 -111t-51 -71.5t-98.5 -49.5q-2 -1 -4.5 4.5zM38 6q0 6 2 6q34 0 45.5 14t11.5 55
v191q0 32 -7.5 47t-24.5 15q-16 0 -51 -15h-1q-4 0 -5.5 5t1.5 6l131 64l6 2q12 0 22 -24.5t10 -65.5v-225q0 -41 11.5 -55t45.5 -14q3 0 3 -6t-3 -6q-25 0 -40 1l-58 1l-57 -1q-15 -1 -40 -1q-2 0 -2 6z" />
    <glyph glyph-name="Omacron" unicode="&#x14c;" 
d="M200.5 31.5q-72.5 43.5 -112 118t-39.5 162.5q0 103 52 176.5t133.5 110.5t166.5 37q95 0 167 -44.5t110.5 -117.5t38.5 -155q0 -91 -48 -167t-128.5 -120t-174.5 -44q-93 0 -165.5 43.5zM507.5 44.5q47.5 32.5 75 95.5t27.5 150q0 93 -30.5 165.5t-87 113.5t-132.5 41
q-98 0 -151 -69.5t-53 -192.5q0 -96 31 -172.5t87 -120t126 -43.5q60 0 107.5 32.5zM255 721.5q-2 5.5 -2 11.5q0 7 2 12t6 5h251q4 0 6.5 -5t2.5 -12t-2.5 -12t-6.5 -5h-251q-4 0 -6 5.5z" />
    <glyph glyph-name="omacron" unicode="&#x14d;" horiz-adv-x="486" 
d="M129 15.5q-46 28.5 -71 77t-25 105.5q0 65 32.5 110.5t83 68t103.5 22.5q61 0 106.5 -29t69.5 -76.5t24 -101.5q0 -60 -29.5 -107t-79.5 -72.5t-108 -25.5q-60 0 -106 28.5zM333 46q24 39 24 114q0 67 -18.5 117t-50 76t-69.5 26q-45 0 -68.5 -37t-23.5 -109
q0 -65 18 -116.5t49.5 -80.5t70.5 -29q44 0 68 39zM112 482.5q-2 5.5 -2 11.5q0 7 2 12t6 5h251q4 0 6.5 -5t2.5 -12t-2.5 -12t-6.5 -5h-251q-4 0 -6 5.5z" />
    <glyph glyph-name="Obreve" unicode="&#x14e;" 
d="M200.5 31.5q-72.5 43.5 -112 118t-39.5 162.5q0 103 52 176.5t133.5 110.5t166.5 37q95 0 167 -44.5t110.5 -117.5t38.5 -155q0 -91 -48 -167t-128.5 -120t-174.5 -44q-93 0 -165.5 43.5zM507.5 44.5q47.5 32.5 75 95.5t27.5 150q0 93 -30.5 165.5t-87 113.5t-132.5 41
q-98 0 -151 -69.5t-53 -192.5q0 -96 31 -172.5t87 -120t126 -43.5q60 0 107.5 32.5zM312.5 721q-26.5 31 -28.5 89q0 3 5 3.5t6 -1.5q2 -22 29 -39t63 -17q35 0 62 17t29 39q0 2 4 2q2 0 4.5 -1.5t2.5 -2.5q-2 -58 -28 -89t-74 -31t-74.5 31z" />
    <glyph glyph-name="obreve" unicode="&#x14f;" horiz-adv-x="486" 
d="M129 15.5q-46 28.5 -71 77t-25 105.5q0 65 32.5 110.5t83 68t103.5 22.5q61 0 106.5 -29t69.5 -76.5t24 -101.5q0 -60 -29.5 -107t-79.5 -72.5t-108 -25.5q-60 0 -106 28.5zM333 46q24 39 24 114q0 67 -18.5 117t-50 76t-69.5 26q-45 0 -68.5 -37t-23.5 -109
q0 -65 18 -116.5t49.5 -80.5t70.5 -29q44 0 68 39zM146.5 628.5q5.5 0.5 5.5 -2.5q0 -36 26.5 -62t65.5 -26q38 0 64.5 26t26.5 62q0 3 5.5 2.5t5.5 -4.5q0 -77 -26 -117.5t-76 -40.5t-76.5 40.5t-26.5 117.5q0 4 5.5 4.5z" />
    <glyph glyph-name="Ohungarumlaut" unicode="&#x150;" 
d="M200.5 31.5q-72.5 43.5 -112 118t-39.5 162.5q0 103 52 176.5t133.5 110.5t166.5 37q95 0 167 -44.5t110.5 -117.5t38.5 -155q0 -91 -48 -167t-128.5 -120t-174.5 -44q-93 0 -165.5 43.5zM507.5 44.5q47.5 32.5 75 95.5t27.5 150q0 93 -30.5 165.5t-87 113.5t-132.5 41
q-98 0 -151 -69.5t-53 -192.5q0 -96 31 -172.5t87 -120t126 -43.5q60 0 107.5 32.5zM276 670q-4 0 -5.5 4.5t0.5 6.5q49 57 90 116q2 6 26.5 -0.5t44 -17t10.5 -14.5q-86 -38 -164 -94zM418 670q-3 0 -5 4.5t0 6.5q41 45 90 116q3 6 27 -0.5t43 -17t11 -14.5
q-88 -40 -164 -94z" />
    <glyph glyph-name="ohungarumlaut" unicode="&#x151;" horiz-adv-x="486" 
d="M129 15.5q-46 28.5 -71 77t-25 105.5q0 65 32.5 110.5t83 68t103.5 22.5q61 0 106.5 -29t69.5 -76.5t24 -101.5q0 -60 -29.5 -107t-79.5 -72.5t-108 -25.5q-60 0 -106 28.5zM333 46q24 39 24 114q0 67 -18.5 117t-50 76t-69.5 26q-45 0 -68.5 -37t-23.5 -109
q0 -65 18 -116.5t49.5 -80.5t70.5 -29q44 0 68 39zM168 472q-3 0 -5.5 1.5t-1.5 2.5l40 240q1 4 28 9.5t45 5.5q13 0 12 -4l-114 -253q0 -2 -4 -2zM305 472q-3 0 -5.5 1.5t-1.5 2.5l40 240q1 4 28 9.5t45 5.5q13 0 12 -4l-114 -253q0 -2 -4 -2z" />
    <glyph glyph-name="OE" unicode="&#x152;" horiz-adv-x="926" 
d="M222 36q-82 40 -127.5 109.5t-45.5 155.5q0 97 47.5 171t127.5 114.5t175 40.5q47 0 73 -1l77 -1h289q9 0 9 -9l2 -130q0 -2 -5.5 -2.5t-5.5 2.5q-5 26 -23.5 52.5t-47 44t-60.5 17.5h-49q-37 0 -51 -13t-14 -44v-458q0 -33 12 -46t44 -13h58q52 0 99.5 38t61.5 91
q0 2 5 2q7 0 7 -3q-10 -76 -10 -139q0 -8 -3 -11.5t-12 -3.5h-312q-20 0 -66 -2q-44 -2 -67 -2q-106 0 -188 40zM687 312h-140v26h142q109 0 109 74q0 3 6 3t6 -3l-1 -55q-1 -11 -1 -32l1 -47q2 -32 2 -52q0 -2 -6 -2t-6 2q0 86 -112 86zM462.5 21q19.5 5 27 18.5t7.5 41.5
v459q0 28 -6.5 42t-25 20t-55.5 6q-75 0 -132.5 -33t-89.5 -97.5t-32 -154.5q0 -86 30.5 -156t87 -110.5t130.5 -40.5q39 0 58.5 5z" />
    <glyph glyph-name="oe" unicode="&#x153;" horiz-adv-x="691" 
d="M115.5 16q-44.5 29 -69 77t-24.5 105q0 65 32 110.5t81.5 68t100.5 22.5q54 0 93.5 -26t60.5 -70t21 -96q0 -65 -25.5 -115t-70 -77.5t-98.5 -27.5q-57 0 -101.5 29zM303 48q22 43 22 122q0 95 -33.5 152.5t-88.5 57.5q-43 0 -67 -39.5t-24 -113.5q0 -60 17 -111
t47.5 -81t67.5 -30t59 43zM374.5 39.5q-49.5 51.5 -49.5 130.5q0 60 28.5 111.5t78.5 82.5t111 31t92 -28t31 -89q0 -14 -2.5 -20.5t-9.5 -6.5h-83q4 66 -12.5 95t-49.5 29q-46 0 -72 -46.5t-26 -121.5q0 -81 39.5 -128t104.5 -47q29 0 57 7.5t49 22.5l2 1q3 0 5 -4t0 -6
q-69 -65 -153 -65q-91 0 -140.5 51.5zM382 267l201 4v-20l-200 -1z" />
    <glyph glyph-name="Racute" unicode="&#x154;" horiz-adv-x="689" 
d="M449.5 84q-64.5 84 -156.5 234l80 24q84 -125 140.5 -195.5t100.5 -102.5t85 -32q2 0 2 -6t-2 -6h-161q-24 0 -88.5 84zM445 593.5q48 -34.5 48 -94.5q0 -56 -32 -101t-84.5 -70.5t-110.5 -25.5q-21 0 -51 2v-223q0 -31 5 -45t20.5 -19t50.5 -5q2 0 2 -6t-2 -6
q-33 0 -52 1l-73 1l-72 -1q-19 -1 -52 -1q-3 0 -3 6t3 6q34 0 49.5 5t21.5 19.5t6 44.5v463q0 30 -5.5 44t-21.5 19.5t-49 5.5q-2 0 -2 6t2 6l52 -1q44 -2 71 -2q33 0 72 3q13 1 31.5 2t41.5 1q86 0 134 -34.5zM366.5 577q-27.5 32 -79.5 32q-40 0 -56 -14.5t-16 -52.5v-211
q24 -4 58 -4q65 0 93 32.5t28 104.5q0 81 -27.5 113zM181 678q-4 0 -5.5 4.5t1.5 6.5q33 21 94 67q14 12 44 34q5 4 32 -4t47.5 -18t9.5 -12q-118 -30 -222 -78h-1z" />
    <glyph glyph-name="racute" unicode="&#x155;" horiz-adv-x="374" 
d="M234 371.5q32 24.5 57 24.5q22 0 43 -15t21 -36q0 -19 -11 -30.5t-31 -11.5q-13 0 -21 5t-18 15q-9 9 -16 13.5t-17 4.5q-13 0 -29.5 -13t-56.5 -57l-7 12q54 64 86 88.5zM38 6q0 6 3 6q34 0 45 14t11 55v191q0 32 -7.5 47t-24.5 15q-15 0 -50 -15h-1q-4 0 -6 5t1 6
l131 64q6 2 7 2q11 0 21 -25t10 -65v-225q0 -28 8 -42.5t27.5 -20.5t56.5 -6q4 0 4 -6t-4 -6q-34 0 -54 1l-78 1l-58 -1q-14 -1 -39 -1q-3 0 -3 6zM190 472q-3 0 -5.5 1.5t-1.5 2.5l40 240q1 4 28.5 9.5t45.5 5.5q12 0 11 -4l-114 -253q0 -2 -4 -2z" />
    <glyph glyph-name="uni0156" unicode="&#x156;" horiz-adv-x="689" 
d="M449.5 84q-64.5 84 -156.5 234l80 24q84 -125 140.5 -195.5t100.5 -102.5t85 -32q2 0 2 -6t-2 -6h-161q-24 0 -88.5 84zM445 593.5q48 -34.5 48 -94.5q0 -56 -32 -101t-84.5 -70.5t-110.5 -25.5q-21 0 -51 2v-223q0 -31 5 -45t20.5 -19t50.5 -5q2 0 2 -6t-2 -6
q-33 0 -52 1l-73 1l-72 -1q-19 -1 -52 -1q-3 0 -3 6t3 6q34 0 49.5 5t21.5 19.5t6 44.5v463q0 30 -5.5 44t-21.5 19.5t-49 5.5q-2 0 -2 6t2 6l52 -1q44 -2 71 -2q33 0 72 3q13 1 31.5 2t41.5 1q86 0 134 -34.5zM366.5 577q-27.5 32 -79.5 32q-40 0 -56 -14.5t-16 -52.5v-211
q24 -4 58 -4q65 0 93 32.5t28 104.5q0 81 -27.5 113zM331 -276q-4 0 -6 4t0 6q47 38 47 75q0 21 -7.5 30t-20.5 12l24 15q1 -43 -42 -43q-20 0 -32.5 14t-12.5 37q0 25 16.5 38t40.5 13q32 0 48.5 -20.5t16.5 -57.5t-18.5 -66t-51.5 -56z" />
    <glyph glyph-name="uni0157" unicode="&#x157;" horiz-adv-x="374" 
d="M234 371.5q32 24.5 57 24.5q22 0 43 -15t21 -36q0 -19 -11 -30.5t-31 -11.5q-13 0 -21 5t-18 15q-9 9 -16 13.5t-17 4.5q-13 0 -29.5 -13t-56.5 -57l-7 12q54 64 86 88.5zM38 6q0 6 3 6q34 0 45 14t11 55v191q0 32 -7.5 47t-24.5 15q-15 0 -50 -15h-1q-4 0 -6 5t1 6
l131 64q6 2 7 2q11 0 21 -25t10 -65v-225q0 -28 8 -42.5t27.5 -20.5t56.5 -6q4 0 4 -6t-4 -6q-34 0 -54 1l-78 1l-58 -1q-14 -1 -39 -1q-3 0 -3 6zM140 -276q-4 0 -6 4t1 6q47 38 47 75q0 21 -7.5 30t-21.5 12l24 15q3 -43 -41 -43q-20 0 -33 14t-13 37q0 25 17 38t41 13
q31 0 48 -21t17 -57q0 -37 -18.5 -66t-52.5 -56z" />
    <glyph glyph-name="Rcaron" unicode="&#x158;" horiz-adv-x="689" 
d="M449.5 84q-64.5 84 -156.5 234l80 24q84 -125 140.5 -195.5t100.5 -102.5t85 -32q2 0 2 -6t-2 -6h-161q-24 0 -88.5 84zM445 593.5q48 -34.5 48 -94.5q0 -56 -32 -101t-84.5 -70.5t-110.5 -25.5q-21 0 -51 2v-223q0 -31 5 -45t20.5 -19t50.5 -5q2 0 2 -6t-2 -6
q-33 0 -52 1l-73 1l-72 -1q-19 -1 -52 -1q-3 0 -3 6t3 6q34 0 49.5 5t21.5 19.5t6 44.5v463q0 30 -5.5 44t-21.5 19.5t-49 5.5q-2 0 -2 6t2 6l52 -1q44 -2 71 -2q33 0 72 3q13 1 31.5 2t41.5 1q86 0 134 -34.5zM366.5 577q-27.5 32 -79.5 32q-40 0 -56 -14.5t-16 -52.5v-211
q24 -4 58 -4q65 0 93 32.5t28 104.5q0 81 -27.5 113zM164 797q0 2 2.5 4.5t3.5 1.5l109 -45l108 46h1q3 0 4.5 -2.5t-0.5 -4.5l-102 -110q-4 -4 -11 -4q-8 0 -12 4l-103 109v1z" />
    <glyph glyph-name="rcaron" unicode="&#x159;" horiz-adv-x="374" 
d="M234 371.5q32 24.5 57 24.5q22 0 43 -15t21 -36q0 -19 -11 -30.5t-31 -11.5q-13 0 -21 5t-18 15q-9 9 -16 13.5t-17 4.5q-13 0 -29.5 -13t-56.5 -57l-7 12q54 64 86 88.5zM38 6q0 6 3 6q34 0 45 14t11 55v191q0 32 -7.5 47t-24.5 15q-15 0 -50 -15h-1q-4 0 -6 5t1 6
l131 64q6 2 7 2q11 0 21 -25t10 -65v-225q0 -28 8 -42.5t27.5 -20.5t56.5 -6q4 0 4 -6t-4 -6q-34 0 -54 1l-78 1l-58 -1q-14 -1 -39 -1q-3 0 -3 6zM120.5 730q5.5 1 6.5 -1l69 -128l68 128q2 2 6.5 1t3.5 -4l-67 -249q-2 -5 -11 -5t-12 5l-68 249q-1 3 4.5 4z" />
    <glyph glyph-name="Sacute" unicode="&#x15a;" horiz-adv-x="507" 
d="M182.5 453.5q18.5 -28.5 45.5 -49t74 -50.5q51 -32 80.5 -55t50.5 -56.5t21 -78.5q0 -51 -26.5 -91t-75 -62.5t-110.5 -22.5q-42 0 -86.5 11t-67.5 27q-9 6 -10 19l-6 151v1q0 4 5 4.5t6 -3.5q33 -82 75.5 -135t107.5 -53q44 0 73 23.5t29 78.5q0 44 -19.5 77t-48 55
t-77.5 54q-48 31 -75 52.5t-46 53t-19 73.5q0 52 29 88t75.5 53.5t97.5 17.5q33 0 67 -6.5t58 -16.5q15 -6 15 -19l2 -135q0 -4 -4.5 -5t-6.5 2q-20 61 -53.5 110.5t-100.5 49.5q-45 0 -71.5 -26.5t-26.5 -70.5q0 -37 18.5 -65.5zM167 678q-4 0 -5 4.5t2 6.5q26 16 52.5 36
t34.5 26q26 21 51 39q5 4 32 -4t47 -18t10 -12q-62 -15 -113.5 -33.5t-108.5 -43.5z" />
    <glyph glyph-name="sacute" unicode="&#x15b;" horiz-adv-x="337" 
d="M133.5 281q21.5 -21 62.5 -43q36 -20 55.5 -33t34 -35t14.5 -53q0 -34 -17 -63t-50.5 -47t-79.5 -18q-55 0 -101 28q-6 6 -6 12l-2 92q0 3 5.5 3.5t6.5 -2.5q17 -49 51.5 -81t73.5 -32q25 0 39 13t14 39q0 38 -22 60.5t-64 44.5q-34 18 -53 30.5t-32.5 34t-13.5 53.5
q0 57 41.5 85t100.5 28q39 0 80 -15q9 -4 9 -11q0 -23 -1 -36l-1 -48q0 -2 -6 -2t-6 2q0 20 -16 41.5t-41 35.5t-51 14q-46 0 -46 -44q0 -32 21.5 -53zM167 472q-3 0 -5.5 1.5t-1.5 2.5l39 240q2 4 29 9.5t45 5.5q12 0 11 -4l-113 -253q0 -2 -4 -2z" />
    <glyph glyph-name="Scircumflex" unicode="&#x15c;" horiz-adv-x="507" 
d="M182.5 453.5q18.5 -28.5 45.5 -49t74 -50.5q51 -32 80.5 -55t50.5 -56.5t21 -78.5q0 -51 -26.5 -91t-75 -62.5t-110.5 -22.5q-42 0 -86.5 11t-67.5 27q-9 6 -10 19l-6 151v1q0 4 5 4.5t6 -3.5q33 -82 75.5 -135t107.5 -53q44 0 73 23.5t29 78.5q0 44 -19.5 77t-48 55
t-77.5 54q-48 31 -75 52.5t-46 53t-19 73.5q0 52 29 88t75.5 53.5t97.5 17.5q33 0 67 -6.5t58 -16.5q15 -6 15 -19l2 -135q0 -4 -4.5 -5t-6.5 2q-20 61 -53.5 110.5t-100.5 49.5q-45 0 -71.5 -26.5t-26.5 -70.5q0 -37 18.5 -65.5zM267 813q6 0 11 -5l102 -109q1 0 1 -2
t-2.5 -4t-3.5 -1l-108 45l-109 -45q-2 -1 -5 2.5t-1 4.5l103 109q5 5 12 5z" />
    <glyph glyph-name="scircumflex" unicode="&#x15d;" horiz-adv-x="337" 
d="M133.5 281q21.5 -21 62.5 -43q36 -20 55.5 -33t34 -35t14.5 -53q0 -34 -17 -63t-50.5 -47t-79.5 -18q-55 0 -101 28q-6 6 -6 12l-2 92q0 3 5.5 3.5t6.5 -2.5q17 -49 51.5 -81t73.5 -32q25 0 39 13t14 39q0 38 -22 60.5t-64 44.5q-34 18 -53 30.5t-32.5 34t-13.5 53.5
q0 57 41.5 85t100.5 28q39 0 80 -15q9 -4 9 -11q0 -23 -1 -36l-1 -48q0 -2 -6 -2t-6 2q0 20 -16 41.5t-41 35.5t-51 14q-46 0 -46 -44q0 -32 21.5 -53zM248.5 472.5q-5.5 -1.5 -6.5 1.5l-68 128l-69 -128q-1 -3 -6.5 -1.5t-4.5 3.5l68 249q1 5 11 5q11 0 12 -5l67 -249
q2 -2 -3.5 -3.5z" />
    <glyph glyph-name="Scedilla" unicode="&#x15e;" horiz-adv-x="507" 
d="M182.5 453.5q18.5 -28.5 45.5 -49t74 -50.5q51 -32 80.5 -55t50.5 -56.5t21 -78.5q0 -51 -26.5 -91t-75 -62.5t-110.5 -22.5q-42 0 -86.5 11t-67.5 27q-9 6 -10 19l-6 151v1q0 4 5 4.5t6 -3.5q33 -82 75.5 -135t107.5 -53q44 0 73 23.5t29 78.5q0 44 -19.5 77t-48 55
t-77.5 54q-48 31 -75 52.5t-46 53t-19 73.5q0 52 29 88t75.5 53.5t97.5 17.5q33 0 67 -6.5t58 -16.5q15 -6 15 -19l2 -135q0 -4 -4.5 -5t-6.5 2q-20 61 -53.5 110.5t-100.5 49.5q-45 0 -71.5 -26.5t-26.5 -70.5q0 -37 18.5 -65.5zM267 -42q0 -17 9.5 -28.5t31.5 -24.5
q26 -16 40.5 -33.5t14.5 -44.5q0 -40 -29 -71t-87 -31q-34 0 -53 11t-19 34q0 14 11 24.5t26 10.5q17 0 24 -7.5t12 -21.5q6 -14 13 -21t23 -7q26 0 26 28q0 26 -18.5 47t-65.5 47q-5 2 -8 5t-3 7t5 17q14 33 29 76q5 9 9 24l16 -1q-7 -22 -7 -40z" />
    <glyph glyph-name="scedilla" unicode="&#x15f;" horiz-adv-x="337" 
d="M133.5 281q21.5 -21 62.5 -43q36 -20 55.5 -33t34 -35t14.5 -53q0 -34 -17 -63t-50.5 -47t-79.5 -18q-55 0 -101 28q-6 6 -6 12l-2 92q0 3 5.5 3.5t6.5 -2.5q17 -49 51.5 -81t73.5 -32q25 0 39 13t14 39q0 38 -22 60.5t-64 44.5q-34 18 -53 30.5t-32.5 34t-13.5 53.5
q0 57 41.5 85t100.5 28q39 0 80 -15q9 -4 9 -11q0 -23 -1 -36l-1 -48q0 -2 -6 -2t-6 2q0 20 -16 41.5t-41 35.5t-51 14q-46 0 -46 -44q0 -32 21.5 -53zM170 -42q0 -17 9.5 -28.5t31.5 -24.5q26 -16 40.5 -33.5t14.5 -44.5q0 -40 -29 -71t-87 -31q-71 0 -71 45
q0 14 10.5 24.5t25.5 10.5q17 0 24 -7.5t13 -21.5t12.5 -21t22.5 -7q26 0 26 28q0 26 -18.5 47t-65.5 47q-5 2 -7.5 5t-2.5 7q0 6 4 17q14 33 29 76q5 9 9 24l16 -1q-7 -28 -7 -40z" />
    <glyph glyph-name="Scaron" unicode="&#x160;" horiz-adv-x="507" 
d="M182.5 453.5q18.5 -28.5 45.5 -49t74 -50.5q51 -32 80.5 -55t50.5 -56.5t21 -78.5q0 -51 -26.5 -91t-75 -62.5t-110.5 -22.5q-42 0 -86.5 11t-67.5 27q-9 6 -10 19l-6 151v1q0 4 5 4.5t6 -3.5q33 -82 75.5 -135t107.5 -53q44 0 73 23.5t29 78.5q0 44 -19.5 77t-48 55
t-77.5 54q-48 31 -75 52.5t-46 53t-19 73.5q0 52 29 88t75.5 53.5t97.5 17.5q33 0 67 -6.5t58 -16.5q15 -6 15 -19l2 -135q0 -4 -4.5 -5t-6.5 2q-20 61 -53.5 110.5t-100.5 49.5q-45 0 -71.5 -26.5t-26.5 -70.5q0 -37 18.5 -65.5zM150 798q0 2 2.5 4t4.5 1l109 -45l108 46h1
q3 0 4.5 -2.5t-0.5 -4.5l-102 -110q-4 -4 -11 -4q-8 0 -12 4l-103 109z" />
    <glyph glyph-name="scaron" unicode="&#x161;" horiz-adv-x="337" 
d="M133.5 281q21.5 -21 62.5 -43q36 -20 55.5 -33t34 -35t14.5 -53q0 -34 -17 -63t-50.5 -47t-79.5 -18q-55 0 -101 28q-6 6 -6 12l-2 92q0 3 5.5 3.5t6.5 -2.5q17 -49 51.5 -81t73.5 -32q25 0 39 13t14 39q0 38 -22 60.5t-64 44.5q-34 18 -53 30.5t-32.5 34t-13.5 53.5
q0 57 41.5 85t100.5 28q39 0 80 -15q9 -4 9 -11q0 -23 -1 -36l-1 -48q0 -2 -6 -2t-6 2q0 20 -16 41.5t-41 35.5t-51 14q-46 0 -46 -44q0 -32 21.5 -53zM97 730q5 1 7 -1l69 -128l68 128q1 2 6 1t4 -4l-67 -249q-2 -5 -11 -5t-12 5l-68 249q-1 3 4 4z" />
    <glyph glyph-name="uni0162" unicode="&#x162;" horiz-adv-x="640" 
d="M110 566.5q-39 -37.5 -60 -112.5q0 -3 -5.5 -2.5t-5.5 2.5q4 39 9 100.5t5 92.5q0 5 5.5 5t5.5 -5q0 -22 56 -22q86 -3 201 -3q59 0 125 2l68 1q38 0 55.5 5t22.5 20q1 4 6 4t5 -4q-3 -31 -6 -94t-3 -102q0 -2 -5.5 -2t-6.5 2q-10 77 -47 113.5t-100 36.5q-28 0 -41.5 -5
t-18.5 -17.5t-5 -39.5v-461q0 -30 6.5 -44.5t24.5 -19.5t57 -5q3 0 3 -6t-3 -6q-35 0 -55 1l-82 1l-78 -1q-21 -1 -58 -1q-2 0 -2 6t2 6q39 0 57.5 5t25 19.5t6.5 44.5v463q0 26 -5 38.5t-18 17t-41 4.5q-61 0 -100 -37.5zM322 -44q0 -17 8.5 -28t29.5 -23q25 -15 39.5 -33
t14.5 -45q0 -40 -29 -71t-86 -31q-34 0 -53 11t-19 34q0 14 11 24.5t26 10.5q17 0 24 -7.5t12 -21.5q6 -14 13 -21t23 -7q26 0 26 28q0 26 -18.5 47t-65.5 47q-5 2 -8 5t-3 7t5 17q10 23 31 79l15 42l16 -1q-12 -42 -12 -63z" />
    <glyph glyph-name="uni0163" unicode="&#x163;" horiz-adv-x="337" 
d="M112.5 8.5q-29.5 20.5 -29.5 68.5v226q0 33 -10.5 44t-40.5 11q-1 0 -2.5 2.5t-1.5 5.5t1.5 5.5t2.5 2.5q94 4 118 81q1 4 8 4t7 -4v-345q0 -39 19.5 -57.5t54.5 -18.5q42 0 79 29l2 1q3 0 5.5 -4.5t-0.5 -6.5q-37 -34 -70 -49.5t-70 -15.5q-43 0 -72.5 20.5zM136 352v24
q64 0 162 10q2 0 4.5 -7.5t2.5 -16.5t-3.5 -18t-7.5 -8q-72 16 -158 16zM184 -42q0 -17 9.5 -28.5t31.5 -24.5q26 -16 40.5 -33.5t14.5 -44.5q0 -40 -29 -71t-87 -31q-34 0 -53 11t-19 34q0 14 11 24.5t26 10.5q17 0 24 -7.5t12 -21.5q6 -14 13 -21t23 -7q26 0 26 28
q0 26 -18.5 47t-65.5 47q-5 2 -8 5t-3 7t5 17q14 33 29 76q5 9 9 24l16 -1q-7 -22 -7 -40z" />
    <glyph glyph-name="Tcaron" unicode="&#x164;" horiz-adv-x="640" 
d="M110 566.5q-39 -37.5 -60 -112.5q0 -3 -5.5 -2.5t-5.5 2.5q4 39 9 100.5t5 92.5q0 5 5.5 5t5.5 -5q0 -22 56 -22q86 -3 201 -3q59 0 125 2l68 1q38 0 55.5 5t22.5 20q1 4 6 4t5 -4q-3 -31 -6 -94t-3 -102q0 -2 -5.5 -2t-6.5 2q-10 77 -47 113.5t-100 36.5q-28 0 -41.5 -5
t-18.5 -17.5t-5 -39.5v-461q0 -30 6.5 -44.5t24.5 -19.5t57 -5q3 0 3 -6t-3 -6q-35 0 -55 1l-82 1l-78 -1q-21 -1 -58 -1q-2 0 -2 6t2 6q39 0 57.5 5t25 19.5t6.5 44.5v463q0 26 -5 38.5t-18 17t-41 4.5q-61 0 -100 -37.5zM205 797q0 2 2.5 4.5t3.5 1.5l109 -45l108 46h1
q3 0 5 -2.5t-1 -4.5l-102 -110q-4 -4 -11 -4q-8 0 -12 4l-103 109v1z" />
    <glyph glyph-name="tcaron" unicode="&#x165;" horiz-adv-x="337" 
d="M112.5 8.5q-29.5 20.5 -29.5 68.5v226q0 33 -10.5 44t-40.5 11q-1 0 -2.5 2.5t-1.5 5.5t1.5 5.5t2.5 2.5q94 4 118 81q1 4 8 4t7 -4v-345q0 -39 19.5 -57.5t54.5 -18.5q42 0 79 29l2 1q3 0 5.5 -4.5t-0.5 -6.5q-37 -34 -70 -49.5t-70 -15.5q-43 0 -72.5 20.5zM136 352v24
q64 0 162 10q2 0 4.5 -7.5t2.5 -16.5t-3.5 -18t-7.5 -8q-72 16 -158 16zM223.5 699q18.5 -6 35 -16.5t15.5 -17.5l-50 -238q-1 -2 -6 -1.5t-5 2.5l-8 272q0 5 18.5 -1z" />
    <glyph glyph-name="Tbar" unicode="&#x166;" horiz-adv-x="632" 
d="M177.5 314q-1.5 4 -1.5 9t1 9t3 4h284q5 0 5 -13q0 -5 -1.5 -9t-3.5 -4h-284q-1 0 -2.5 4zM110 566.5q-39 -37.5 -60 -112.5q0 -3 -5.5 -2.5t-5.5 2.5q4 39 9 100.5t5 92.5q0 5 5.5 5t5.5 -5q0 -22 56 -22q86 -3 201 -3q59 0 125 2l68 1q38 0 55.5 5t22.5 20q1 4 6 4
t5 -4q-3 -31 -6 -94t-3 -102q0 -2 -5.5 -2t-6.5 2q-10 77 -47 113.5t-100 36.5q-28 0 -41.5 -5t-18.5 -17.5t-5 -39.5v-461q0 -30 6.5 -44.5t24.5 -19.5t57 -5q3 0 3 -6t-3 -6q-35 0 -55 1l-82 1l-78 -1q-21 -1 -58 -1q-2 0 -2 6t2 6q39 0 57.5 5t25 19.5t6.5 44.5v463
q0 26 -5 38.5t-18 17t-41 4.5q-61 0 -100 -37.5z" />
    <glyph glyph-name="tbar" unicode="&#x167;" horiz-adv-x="339" 
d="M48.5 205q-1.5 4 -1.5 9t1 9t3 4h229q4 0 4 -13t-4 -13h-229q-1 0 -2.5 4zM112.5 8.5q-29.5 20.5 -29.5 68.5v226q0 33 -10.5 44t-40.5 11q-1 0 -2.5 2.5t-1.5 5.5t1.5 5.5t2.5 2.5q94 4 118 81q1 4 8 4t7 -4v-345q0 -39 19.5 -57.5t54.5 -18.5q42 0 79 29l2 1
q3 0 5.5 -4.5t-0.5 -6.5q-37 -34 -70 -49.5t-70 -15.5q-43 0 -72.5 20.5zM136 352v24q64 0 162 10q2 0 4.5 -7.5t2.5 -16.5t-3.5 -18t-7.5 -8q-72 16 -158 16z" />
    <glyph glyph-name="Utilde" unicode="&#x168;" horiz-adv-x="701" 
d="M547.5 584q-23.5 29 -67.5 29q-2 0 -2 6t2 6l46 -1q38 -2 60 -2q18 0 54 2l44 1q2 0 2 -6t-2 -6q-39 0 -60.5 -29t-21.5 -81v-280q0 -72 -30.5 -125.5t-86 -82.5t-128.5 -29t-130 28.5t-88.5 82t-31.5 125.5v322q0 30 -6 44t-21.5 19.5t-48.5 5.5q-3 0 -3 6t3 6l52 -1
q44 -2 71 -2q30 0 74 2l50 1q3 0 3 -6t-3 -6q-33 0 -49 -6t-21.5 -20.5t-5.5 -44.5v-285q0 -119 49.5 -177.5t138.5 -58.5q85 0 133 52.5t48 148.5v281q0 52 -23.5 81zM476.5 766q10.5 6 22.5 21l2 1q2 0 4 -3t1 -5q-27 -44 -43.5 -59t-37.5 -15q-16 0 -34.5 5t-23.5 6
q-17 5 -35 9t-34 4q-19 0 -27.5 -5.5t-23.5 -21.5h-1q-3 0 -5.5 2.5t-0.5 4.5q44 75 86 75q16 0 49 -11q6 -2 29.5 -8t44.5 -6q17 0 27.5 6z" />
    <glyph glyph-name="utilde" unicode="&#x169;" horiz-adv-x="501" 
d="M105 22.5q-30 33.5 -30 91.5v149q0 35 -7.5 51.5t-23.5 16.5q-13 0 -28 -8h-1q-4 0 -6 5t1 7l126 59l5 1q4 0 9 -4t5 -7v-227q0 -56 20.5 -83.5t62.5 -27.5q32 0 64.5 18.5t53.5 48.5l6 -12q-82 -112 -173 -112q-54 0 -84 33.5zM424 64.5q7 -14.5 24 -14.5q12 0 45 12
l2 1q3 0 5 -5t-1 -7l-131 -63l-4 -1q-11 0 -19 25t-8 67v184q0 35 -7.5 51.5t-23.5 16.5q-12 0 -28 -8h-1q-4 0 -6 5.5t2 6.5l126 59l4 1q4 0 9 -4t5 -7v-271q0 -34 7 -48.5zM353.5 536q10.5 6 22.5 21l2 1q2 0 4 -3t1 -5q-27 -44 -43.5 -59t-37.5 -15t-58 11q-16 5 -34.5 9
t-34.5 4q-17 0 -25.5 -4.5t-15.5 -12t-10 -10.5h-1q-3 0 -5.5 2.5t-0.5 4.5q44 75 87 75q12 0 48 -10q49 -15 74 -15q17 0 27.5 6z" />
    <glyph glyph-name="Umacron" unicode="&#x16a;" horiz-adv-x="701" 
d="M547.5 584q-23.5 29 -67.5 29q-2 0 -2 6t2 6l46 -1q38 -2 60 -2q18 0 54 2l44 1q2 0 2 -6t-2 -6q-39 0 -60.5 -29t-21.5 -81v-280q0 -72 -30.5 -125.5t-86 -82.5t-128.5 -29t-130 28.5t-88.5 82t-31.5 125.5v322q0 30 -6 44t-21.5 19.5t-48.5 5.5q-3 0 -3 6t3 6l52 -1
q44 -2 71 -2q30 0 74 2l50 1q3 0 3 -6t-3 -6q-33 0 -49 -6t-21.5 -20.5t-5.5 -44.5v-285q0 -119 49.5 -177.5t138.5 -58.5q85 0 133 52.5t48 148.5v281q0 52 -23.5 81zM241 721.5q-2 5.5 -2 11.5q0 7 2 12t6 5h251q4 0 6.5 -5t2.5 -12t-2.5 -12t-6.5 -5h-251q-4 0 -6 5.5z
" />
    <glyph glyph-name="umacron" unicode="&#x16b;" horiz-adv-x="501" 
d="M105 22.5q-30 33.5 -30 91.5v149q0 35 -7.5 51.5t-23.5 16.5q-13 0 -28 -8h-1q-4 0 -6 5t1 7l126 59l5 1q4 0 9 -4t5 -7v-227q0 -56 20.5 -83.5t62.5 -27.5q32 0 64.5 18.5t53.5 48.5l6 -12q-82 -112 -173 -112q-54 0 -84 33.5zM424 64.5q7 -14.5 24 -14.5q12 0 45 12
l2 1q3 0 5 -5t-1 -7l-131 -63l-4 -1q-11 0 -19 25t-8 67v184q0 35 -7.5 51.5t-23.5 16.5q-12 0 -28 -8h-1q-4 0 -6 5.5t2 6.5l126 59l4 1q4 0 9 -4t5 -7v-271q0 -34 7 -48.5zM118 482.5q-2 5.5 -2 11.5q0 7 2 12t6 5h251q4 0 6.5 -5t2.5 -12t-2.5 -12t-6.5 -5h-251
q-4 0 -6 5.5z" />
    <glyph glyph-name="Ubreve" unicode="&#x16c;" horiz-adv-x="701" 
d="M547.5 584q-23.5 29 -67.5 29q-2 0 -2 6t2 6l46 -1q38 -2 60 -2q18 0 54 2l44 1q2 0 2 -6t-2 -6q-39 0 -60.5 -29t-21.5 -81v-280q0 -72 -30.5 -125.5t-86 -82.5t-128.5 -29t-130 28.5t-88.5 82t-31.5 125.5v322q0 30 -6 44t-21.5 19.5t-48.5 5.5q-3 0 -3 6t3 6l52 -1
q44 -2 71 -2q30 0 74 2l50 1q3 0 3 -6t-3 -6q-33 0 -49 -6t-21.5 -20.5t-5.5 -44.5v-285q0 -119 49.5 -177.5t138.5 -58.5q85 0 133 52.5t48 148.5v281q0 52 -23.5 81zM299.5 721q-26.5 31 -29.5 89q0 3 5.5 3.5t5.5 -1.5q2 -22 29 -39t63 -17q35 0 62 17t29 39q1 2 6.5 1.5
t4.5 -3.5q-2 -58 -28 -89t-74 -31q-47 0 -73.5 31z" />
    <glyph glyph-name="ubreve" unicode="&#x16d;" horiz-adv-x="501" 
d="M105 22.5q-30 33.5 -30 91.5v149q0 35 -7.5 51.5t-23.5 16.5q-13 0 -28 -8h-1q-4 0 -6 5t1 7l126 59l5 1q4 0 9 -4t5 -7v-227q0 -56 20.5 -83.5t62.5 -27.5q32 0 64.5 18.5t53.5 48.5l6 -12q-82 -112 -173 -112q-54 0 -84 33.5zM424 64.5q7 -14.5 24 -14.5q12 0 45 12
l2 1q3 0 5 -5t-1 -7l-131 -63l-4 -1q-11 0 -19 25t-8 67v184q0 35 -7.5 51.5t-23.5 16.5q-12 0 -28 -8h-1q-4 0 -6 5.5t2 6.5l126 59l4 1q4 0 9 -4t5 -7v-271q0 -34 7 -48.5zM152.5 628.5q5.5 0.5 5.5 -2.5q0 -36 26.5 -62t65.5 -26q38 0 64.5 26t26.5 62q0 3 5.5 2.5
t5.5 -4.5q0 -77 -26 -117.5t-76 -40.5t-76.5 40.5t-26.5 117.5q0 4 5.5 4.5z" />
    <glyph glyph-name="Uring" unicode="&#x16e;" horiz-adv-x="701" 
d="M547.5 584q-23.5 29 -67.5 29q-2 0 -2 6t2 6l46 -1q38 -2 60 -2q18 0 54 2l44 1q2 0 2 -6t-2 -6q-39 0 -60.5 -29t-21.5 -81v-280q0 -72 -30.5 -125.5t-86 -82.5t-128.5 -29t-130 28.5t-88.5 82t-31.5 125.5v322q0 30 -6 44t-21.5 19.5t-48.5 5.5q-3 0 -3 6t3 6l52 -1
q44 -2 71 -2q30 0 74 2l50 1q3 0 3 -6t-3 -6q-33 0 -49 -6t-21.5 -20.5t-5.5 -44.5v-285q0 -119 49.5 -177.5t138.5 -58.5q85 0 133 52.5t48 148.5v281q0 52 -23.5 81zM292 730.5q-27 23.5 -27 55.5q0 36 33.5 57t75.5 21q41 0 70.5 -23.5t29.5 -56.5q0 -35 -33.5 -56
t-76.5 -21q-45 0 -72 23.5zM410 766q0 35 -16.5 60t-39.5 25q-27 0 -27 -45q0 -33 14.5 -59.5t38.5 -26.5q30 0 30 46z" />
    <glyph glyph-name="uring" unicode="&#x16f;" horiz-adv-x="501" 
d="M105 22.5q-30 33.5 -30 91.5v149q0 35 -7.5 51.5t-23.5 16.5q-13 0 -28 -8h-1q-4 0 -6 5t1 7l126 59l5 1q4 0 9 -4t5 -7v-227q0 -56 20.5 -83.5t62.5 -27.5q32 0 64.5 18.5t53.5 48.5l6 -12q-82 -112 -173 -112q-54 0 -84 33.5zM424 64.5q7 -14.5 24 -14.5q12 0 45 12
l2 1q3 0 5 -5t-1 -7l-131 -63l-4 -1q-11 0 -19 25t-8 67v184q0 35 -7.5 51.5t-23.5 16.5q-12 0 -28 -8h-1q-4 0 -6 5.5t2 6.5l126 59l4 1q4 0 9 -4t5 -7v-271q0 -34 7 -48.5zM169 491.5q-27 23.5 -27 55.5q0 36 33.5 57t75.5 21q41 0 70.5 -23.5t29.5 -56.5q0 -35 -33.5 -56
t-76.5 -21q-45 0 -72 23.5zM280 492q7 11 7 35q0 35 -16.5 60t-39.5 25q-27 0 -27 -45q0 -33 14.5 -59.5t38.5 -26.5q16 0 23 11z" />
    <glyph glyph-name="Uhungarumlaut" unicode="&#x170;" horiz-adv-x="701" 
d="M547.5 584q-23.5 29 -67.5 29q-2 0 -2 6t2 6l46 -1q38 -2 60 -2q18 0 54 2l44 1q2 0 2 -6t-2 -6q-39 0 -60.5 -29t-21.5 -81v-280q0 -72 -30.5 -125.5t-86 -82.5t-128.5 -29t-130 28.5t-88.5 82t-31.5 125.5v322q0 30 -6 44t-21.5 19.5t-48.5 5.5q-3 0 -3 6t3 6l52 -1
q44 -2 71 -2q30 0 74 2l50 1q3 0 3 -6t-3 -6q-33 0 -49 -6t-21.5 -20.5t-5.5 -44.5v-285q0 -119 49.5 -177.5t138.5 -58.5q85 0 133 52.5t48 148.5v281q0 52 -23.5 81zM262 670q-3 0 -5 4.5t0 6.5q45 50 90 116q3 6 27.5 -0.5t44 -17t10.5 -14.5q-88 -39 -165 -94zM405 670
q-4 0 -5.5 4.5t0.5 6.5q23 25 46.5 56t43.5 60q2 6 26.5 -0.5t43.5 -17t10 -14.5q-85 -39 -163 -94z" />
    <glyph glyph-name="uhungarumlaut" unicode="&#x171;" horiz-adv-x="501" 
d="M105 22.5q-30 33.5 -30 91.5v149q0 35 -7.5 51.5t-23.5 16.5q-13 0 -28 -8h-1q-4 0 -6 5t1 7l126 59l5 1q4 0 9 -4t5 -7v-227q0 -56 20.5 -83.5t62.5 -27.5q32 0 64.5 18.5t53.5 48.5l6 -12q-82 -112 -173 -112q-54 0 -84 33.5zM424 64.5q7 -14.5 24 -14.5q12 0 45 12
l2 1q3 0 5 -5t-1 -7l-131 -63l-4 -1q-11 0 -19 25t-8 67v184q0 35 -7.5 51.5t-23.5 16.5q-12 0 -28 -8h-1q-4 0 -6 5.5t2 6.5l126 59l4 1q4 0 9 -4t5 -7v-271q0 -34 7 -48.5zM174 472q-3 0 -5.5 1.5t-1.5 2.5l40 240q1 4 28 9.5t45 5.5q13 0 12 -4l-114 -253q0 -2 -4 -2z
M311 472q-3 0 -5.5 1.5t-1.5 2.5l40 240q1 4 28 9.5t45 5.5q13 0 12 -4l-114 -253q0 -2 -4 -2z" />
    <glyph glyph-name="Uogonek" unicode="&#x172;" horiz-adv-x="701" 
d="M547.5 584q-23.5 29 -67.5 29q-2 0 -2 6t2 6l46 -1q38 -2 60 -2q18 0 54 2l44 1q2 0 2 -6t-2 -6q-39 0 -60.5 -29t-21.5 -81v-280q0 -72 -30.5 -125.5t-86 -82.5t-128.5 -29t-130 28.5t-88.5 82t-31.5 125.5v322q0 30 -6 44t-21.5 19.5t-48.5 5.5q-3 0 -3 6t3 6l52 -1
q44 -2 71 -2q30 0 74 2l50 1q3 0 3 -6t-3 -6q-33 0 -49 -6t-21.5 -20.5t-5.5 -44.5v-285q0 -119 49.5 -177.5t138.5 -58.5q85 0 133 52.5t48 148.5v281q0 52 -23.5 81zM388 -61q-15 -29 -15 -65q0 -50 25 -80.5t70 -30.5q27 0 51 15h2q3 0 5.5 -3t-0.5 -5q-53 -45 -111 -45
q-51 0 -83.5 30t-32.5 76q0 85 126 175l13 -5q-35 -33 -50 -62z" />
    <glyph glyph-name="uogonek" unicode="&#x173;" horiz-adv-x="501" 
d="M105 22.5q-30 33.5 -30 91.5v149q0 35 -7.5 51.5t-23.5 16.5q-13 0 -28 -8h-1q-4 0 -6 5t1 7l126 59l5 1q4 0 9 -4t5 -7v-227q0 -56 20.5 -83.5t62.5 -27.5q32 0 64.5 18.5t53.5 48.5l6 -12q-82 -112 -173 -112q-54 0 -84 33.5zM424 64.5q7 -14.5 24 -14.5q12 0 45 12
l2 1q3 0 5 -5t-1 -7l-131 -63l-4 -1q-11 0 -19 25t-8 67v184q0 35 -7.5 51.5t-23.5 16.5q-12 0 -28 -8h-1q-4 0 -6 5.5t2 6.5l126 59l4 1q4 0 9 -4t5 -7v-271q0 -34 7 -48.5zM362.5 -38.5q-39.5 -44.5 -39.5 -107.5q0 -93 80 -93q32 0 57 17h2q3 0 5.5 -3t-0.5 -5
q-53 -45 -116 -45q-54 0 -82 25.5t-28 70.5q0 63 64 124.5t188 116.5l6 -10q-97 -46 -136.5 -90.5z" />
    <glyph glyph-name="Wcircumflex" unicode="&#x174;" horiz-adv-x="918" 
d="M346 -3q-10 0 -11 4l-253 541q-21 44 -35.5 57.5t-43.5 13.5q-3 0 -3 6t3 6l26 -1q24 -2 50 -2q57 0 101 2q14 1 35 1q3 0 3 -6t-3 -6q-26 0 -38 -5.5t-12 -19.5q0 -15 19 -56l200 -427l-40 -62l120 312l18 -26l-125 -328q-1 -4 -11 -4zM925 619q0 -6 -2 -6
q-36 0 -66 -27t-50 -78l-194 -507q-1 -4 -11 -4t-11 4l-253 541q-17 36 -33 53.5t-37 17.5q-3 0 -3 6t3 6l24 -1q22 -2 44 -2q47 0 83 2q10 1 26 1q3 0 3 -6t-3 -6q-15 0 -22 -3.5t-7 -13.5q0 -8 6.5 -25t16.5 -39l202 -427l-40 -62l177 462q10 26 10 49q0 28 -16.5 43.5
t-46.5 15.5q-3 0 -3 6t3 6l44 -1q36 -2 65 -2q20 0 46 2l43 1q2 0 2 -6zM548 583q0 30 -30 30q-3 0 -3 6t3 6q9 0 21 -1.5t44 -1.5q18 0 42 2l39 1q2 0 2 -6t-2 -6q-34 0 -60 -25t-47 -80l-69 -179l-18 26l60 157q18 47 18 71zM471 813q6 0 11 -5l102 -109q1 0 1 -2t-2.5 -4
t-3.5 -1l-108 45l-109 -45q-2 -1 -5 2.5t-1 4.5l103 109q5 5 12 5z" />
    <glyph glyph-name="wcircumflex" unicode="&#x175;" horiz-adv-x="680" 
d="M272 360.5q-12 13.5 -31 13.5q-2 0 -2 6t2 6q17 0 28 -1l52 -1l68 1q15 1 41 1q2 0 2 -6t-2 -6q-23 0 -36.5 -6.5t-13.5 -18.5q0 -7 4 -14l122 -241l-42 -72l111 270q7 18 7 34q0 23 -17.5 35.5t-50.5 12.5q-3 0 -3 6t3 6q27 0 40 -1l60 -1l40 1q10 1 34 1q3 0 3 -6
t-3 -6q-27 0 -47.5 -19.5t-39.5 -64.5l-124 -289q-1 -4 -10 -4q-11 0 -12 4l-149 302q-22 44 -34 57.5zM27.5 360.5q-14.5 13.5 -36.5 13.5q-3 0 -3 6t3 6q18 0 29 -1l58 -1l68 1q15 1 41 1q3 0 3 -6t-3 -6q-53 0 -53 -23q0 -6 5 -16l126 -241l-44 -72l109 263l24 -5
l-120 -279q0 -4 -10 -4q-9 0 -12 4l-148 302q-22 44 -36.5 57.5zM411.5 472.5q-5.5 -1.5 -6.5 1.5l-68 128l-69 -128q-1 -3 -6.5 -1.5t-4.5 3.5l68 249q1 5 11 5q11 0 12 -5l67 -249q2 -2 -3.5 -3.5z" />
    <glyph glyph-name="Ycircumflex" unicode="&#x176;" horiz-adv-x="616" 
d="M469 569q0 44 -55 44q-2 0 -2 6t2 6l52 -1q42 -2 77 -2q17 0 41 2l37 1q2 0 2 -6t-2 -6q-33 0 -75 -34.5t-75 -88.5l-139 -225l-20 16l132 217q25 41 25 71zM50.5 592.5q-24.5 20.5 -47.5 20.5q-3 0 -3 6t3 6l33 -1q22 -2 32 -2q33 0 95 2l63 1q2 0 2 -6t-2 -6
q-42 0 -42 -27q0 -12 13 -33l153 -235l-80 -45l-161 246q-34 53 -58.5 73.5zM357 319v-238q0 -31 5 -45t20.5 -19t49.5 -5q3 0 3 -6t-3 -6q-32 0 -50 1l-73 1l-72 -1q-20 -1 -53 -1q-2 0 -2 6t2 6q34 0 50 5t22 19.5t6 44.5v229zM323 813q6 0 11 -5l102 -109q1 0 1 -2
t-2.5 -4t-3.5 -1l-108 45l-109 -45q-2 -1 -5 2.5t-1 4.5l103 109q5 5 12 5z" />
    <glyph glyph-name="ycircumflex" unicode="&#x177;" horiz-adv-x="430" 
d="M440 380q0 -6 -2 -6q-30 0 -51.5 -24t-39.5 -73l-115 -305q-36 -96 -69 -151t-67 -78.5t-75 -23.5q-28 0 -43.5 11.5t-15.5 34.5q0 19 12.5 30t30.5 11q12 0 19.5 -3t18.5 -10q17 -13 35 -13q25 0 45.5 21.5t44 70.5t57.5 141l-3 -46l-165 336q-23 44 -35 57.5t-31 13.5
q-2 0 -2 6t2 6q26 0 40 -1l39 -1l68 1q15 1 41 1q3 0 3 -6t-3 -6q-27 0 -40 -4.5t-13 -15.5q0 -8 6 -19l130 -267l-31 -53l91 262q8 26 8 43q0 54 -67 54q-2 0 -2 6t2 6q27 0 41 -1l60 -1l39 1q11 1 35 1q2 0 2 -6zM302 475q0 -2 -4.5 -3t-5.5 2l-68 128l-69 -128
q-1 -3 -6.5 -1.5t-4.5 3.5l68 249q1 5 11 5q11 0 12 -5l67 -249v-1z" />
    <glyph glyph-name="Ydieresis" unicode="&#x178;" horiz-adv-x="616" 
d="M469 569q0 44 -55 44q-2 0 -2 6t2 6l52 -1q42 -2 77 -2q17 0 41 2l37 1q2 0 2 -6t-2 -6q-33 0 -75 -34.5t-75 -88.5l-139 -225l-20 16l132 217q25 41 25 71zM50.5 592.5q-24.5 20.5 -47.5 20.5q-3 0 -3 6t3 6l33 -1q22 -2 32 -2q33 0 95 2l63 1q2 0 2 -6t-2 -6
q-42 0 -42 -27q0 -12 13 -33l153 -235l-80 -45l-161 246q-34 53 -58.5 73.5zM357 319v-238q0 -31 5 -45t20.5 -19t49.5 -5q3 0 3 -6t-3 -6q-32 0 -50 1l-73 1l-72 -1q-20 -1 -53 -1q-2 0 -2 6t2 6q34 0 50 5t22 19.5t6 44.5v229zM198.5 721q-13.5 13 -13.5 37
q0 23 13.5 35.5t37.5 12.5q23 0 35.5 -12.5t12.5 -35.5q0 -24 -12.5 -37t-35.5 -13q-24 0 -37.5 13zM373.5 721q-13.5 13 -13.5 37q0 22 13.5 34.5t36.5 12.5t35.5 -12t12.5 -35q0 -24 -12.5 -37t-35.5 -13t-36.5 13z" />
    </font>
</defs>
</svg>
