<?xml version="1.0" standalone="no"?>
<!DOCTYPE svg PUBLIC "-//W3C//DTD SVG 1.1//EN" "http://www.w3.org/Graphics/SVG/1.1/DTD/svg11.dtd" >
<svg xmlns="http://www.w3.org/2000/svg" xmlns:xlink="http://www.w3.org/1999/xlink" version="1.1">
<metadata>
Created by FontForge 20170812 at Wed Nov  2 04:02:05 2016
 By www-data
Copyright (c) 2016 by Martin Va'cha. All rights reserved.
</metadata>
<defs>
<font id="Roobert-Regular" horiz-adv-x="600" >
  <font-face 
    font-family="Roobert-Regular"
    font-weight="400"
    font-stretch="normal"
    units-per-em="1000"
    panose-1="0 0 5 0 0 0 0 0 0 0"
    ascent="800"
    descent="-200"
    x-height="504"
    cap-height="700"
    bbox="-348 -212 1231 1081"
    underline-thickness="50"
    underline-position="-200"
    unicode-range="U+000D-F8FF"
  />
<missing-glyph horiz-adv-x="804" 
d="M400 708q149 0 253.5 -104t104.5 -253q0 -148 -104.5 -253.5t-253.5 -105.5q-148 0 -253 105.5t-105 253.5t105 252.5t253 104.5zM290 306q21 0 36.5 35.5t15.5 84.5t-15.5 84t-36.5 35q-23 0 -39.5 -35t-16.5 -84t16.5 -84.5t39.5 -35.5zM511 306q23 0 39 35t16 85
t-16 84.5t-39 34.5q-21 0 -36.5 -35t-15.5 -84t15.5 -84.5t36.5 -35.5zM400 97q31 0 53 21.5t22 51.5q0 31 -21.5 52.5t-53.5 21.5q-31 0 -52 -21t-21 -53q0 -30 21 -51.5t52 -21.5z" />
    <glyph glyph-name=".notdef" horiz-adv-x="804" 
d="M400 708q149 0 253.5 -104t104.5 -253q0 -148 -104.5 -253.5t-253.5 -105.5q-148 0 -253 105.5t-105 253.5t105 252.5t253 104.5zM290 306q21 0 36.5 35.5t15.5 84.5t-15.5 84t-36.5 35q-23 0 -39.5 -35t-16.5 -84t16.5 -84.5t39.5 -35.5zM511 306q23 0 39 35t16 85
t-16 84.5t-39 34.5q-21 0 -36.5 -35t-15.5 -84t15.5 -84.5t36.5 -35.5zM400 97q31 0 53 21.5t22 51.5q0 31 -21.5 52.5t-53.5 21.5q-31 0 -52 -21t-21 -53q0 -30 21 -51.5t52 -21.5z" />
    <glyph glyph-name=".null" horiz-adv-x="0" 
 />
    <glyph glyph-name="nonmarkingreturn" horiz-adv-x="333" 
 />
    <glyph glyph-name="NULL" horiz-adv-x="0" 
 />
    <glyph glyph-name="NULL" horiz-adv-x="0" 
 />
    <glyph glyph-name="CR" unicode="&#xd;" horiz-adv-x="251" 
 />
    <glyph glyph-name="space" unicode=" " horiz-adv-x="251" 
 />
    <glyph glyph-name="exclam" unicode="!" horiz-adv-x="252" 
d="M97 195l-24 505h106l-24 -505h-58zM82 94h89v-94h-89v94z" />
    <glyph glyph-name="quotedbl" unicode="&#x22;" horiz-adv-x="405" 
d="M91 475l-24 233h106l-25 -233h-57zM257 475l-24 233h106l-24 -233h-58z" />
    <glyph glyph-name="numbersign" unicode="#" horiz-adv-x="728" 
d="M136 0l47 209h-127v65h140l34 153h-131v64h145l47 209h69l-46 -209h163l47 209h69l-47 -209h127v-64h-140l-35 -153h131v-65h-145l-46 -209h-69l46 209h-164l-46 -209h-69zM265 274h165l34 153h-165z" />
    <glyph glyph-name="dollar" unicode="$" horiz-adv-x="591" 
d="M557 191q0 -86 -61.5 -138t-162.5 -60v-88l-74 1v88q-99 12 -158.5 74.5t-65.5 160.5h82q7 -74 55 -117t129 -43q76 0 121.5 30.5t45.5 91.5q0 42 -30.5 70t-75.5 40.5t-98.5 29t-98.5 34.5t-75.5 58t-30.5 99q0 75 54.5 125t145.5 59v84h74v-84q90 -10 146.5 -64.5
t63.5 -140.5h-80q-6 59 -51.5 94.5t-115.5 35.5q-71 0 -111 -29t-40 -80q0 -36 22.5 -60.5t59 -38t80.5 -24t88 -24.5t80.5 -34.5t59 -58.5t22.5 -91z" />
    <glyph glyph-name="percent" unicode="%" horiz-adv-x="813" 
d="M201 388q-69 0 -114.5 46.5t-45.5 113.5t45.5 113.5t114.5 46.5q70 0 115 -46t45 -114t-45 -114t-115 -46zM96 0l508 700h75l-508 -700h-75zM201 449q43 0 69 28t26 71t-26 71t-69 28t-69 -28t-26 -71t26 -71t69 -28zM612 -8q-69 0 -114.5 46.5t-45.5 113.5t45.5 113.5
t114.5 46.5q70 0 115 -46t45 -114t-45 -114t-115 -46zM612 53q43 0 69 28t26 71t-26 71t-69 28t-69 -28t-26 -71t26 -71t69 -28z" />
    <glyph glyph-name="ampersand" unicode="&#x26;" horiz-adv-x="672" 
d="M643 0h-92l-78 83q-75 -91 -201 -91q-101 0 -159.5 52t-58.5 144q0 68 38.5 111.5t107.5 79.5q-85 96 -85 165q0 72 49.5 118t127.5 46q77 0 126 -44t49 -113q0 -71 -39.5 -115t-109.5 -80l145 -159l26 39q33 54 67.5 71t79.5 17v-77q-66 0 -98 -56l-26 -47zM192 542
q0 -48 75 -129q61 31 92.5 60.5t31.5 75.5q0 41 -28 67.5t-71 26.5q-44 0 -72 -28.5t-28 -72.5zM272 64q93 0 151 74l-171 184q-58 -29 -88.5 -59.5t-30.5 -75.5q0 -59 36 -91t103 -32z" />
    <glyph glyph-name="quotesingle" unicode="'" horiz-adv-x="239" 
d="M91 475l-24 233h106l-25 -233h-57z" />
    <glyph glyph-name="parenleft" unicode="(" horiz-adv-x="274" 
d="M198 -94q-72 89 -111 201t-39 228t39 228t111 201l54 -42q-127 -184 -127 -387t127 -387z" />
    <glyph glyph-name="parenright" unicode=")" horiz-adv-x="274" 
d="M76 -94l-54 42q127 184 127 387t-127 387l54 42q72 -89 111 -201t39 -228t-39 -228t-111 -201z" />
    <glyph glyph-name="asterisk" unicode="*" horiz-adv-x="493" 
d="M155 352l-55 40l91 112l-147 45l22 63l147 -45v141h67v-141l147 45l22 -63l-147 -45l91 -112l-55 -40l-92 113z" />
    <glyph glyph-name="plus" unicode="+" horiz-adv-x="551" 
d="M240 104v177h-191v70h191v177h71v-177h192v-70h-192v-177h-71z" />
    <glyph glyph-name="comma" unicode="," horiz-adv-x="269" 
d="M41 -50h35q43 0 43 65v87h80v-91q0 -63 -31.5 -97t-86.5 -34h-40v70z" />
    <glyph glyph-name="hyphen" unicode="-" horiz-adv-x="469" 
d="M52 282v70h365v-70h-365z" />
    <glyph glyph-name="period" unicode="." horiz-adv-x="250" 
d="M81 94h89v-94h-89v94z" />
    <glyph glyph-name="slash" unicode="/" horiz-adv-x="423" 
d="M19 -1l314 701h71l-315 -701h-70z" />
    <glyph glyph-name="zero" unicode="0" horiz-adv-x="609" 
d="M287 -8q-125 0 -182 82.5t-57 247.5v56q0 165 57 247.5t182 82.5h35q125 0 182 -82.5t57 -247.5v-56q0 -165 -57 -247.5t-182 -82.5h-35zM290 69h31q81 0 118 60t37 183v76q0 123 -37 183t-118 60h-31q-81 0 -118.5 -60t-37.5 -183v-76q0 -123 37.5 -183t118.5 -60z" />
    <glyph glyph-name="one" unicode="1" horiz-adv-x="344" 
d="M270 700v-700h-85v554q-16 -24 -63 -24h-67v77h57q35 0 52.5 20t21.5 73h84z" />
    <glyph glyph-name="two" unicode="2" horiz-adv-x="560" 
d="M63 473q-4 107 59.5 171t171.5 64q100 0 163.5 -57.5t63.5 -151.5q0 -140 -163 -221l-100 -51q-50 -25 -85.5 -64t-35.5 -86h388v-77h-471v61q0 84 51 144t119 94l107 55q102 52 102 147q0 59 -39 95.5t-100 36.5q-67 0 -106.5 -44t-36.5 -116h-88z" />
    <glyph glyph-name="three" unicode="3" horiz-adv-x="597" 
d="M308 -8q-108 0 -179.5 63.5t-71.5 164.5h84q0 -67 47.5 -109t119.5 -42q74 0 117 34t43 96q0 61 -42.5 93.5t-117.5 32.5h-56v75h55q61 0 97 34t36 88q0 52 -37 81.5t-101 29.5q-60 0 -96.5 -34.5t-40.5 -95.5h-81q4 93 64.5 149t154.5 56q98 0 161 -52t63 -132
q0 -50 -29 -93t-72 -63q57 -20 93 -64.5t36 -105.5q0 -96 -71.5 -151t-175.5 -55z" />
    <glyph glyph-name="four" unicode="4" horiz-adv-x="648" 
d="M409 0v175h-376v77l361 448h100v-448h109v-77h-109v-175h-85zM124 252h285v354z" />
    <glyph glyph-name="five" unicode="5" horiz-adv-x="596" 
d="M293 -8q-94 0 -160.5 58.5t-75.5 146.5h80q7 -61 49 -95t106 -34q78 0 124.5 43t46.5 118t-46.5 120.5t-124.5 45.5q-56 0 -96 -22t-56 -60h-69l54 387h374v-77h-309l-31 -211q26 24 65.5 39.5t76.5 15.5q110 0 178.5 -66t68.5 -172q0 -107 -70.5 -172t-184.5 -65z" />
    <glyph glyph-name="six" unicode="6" horiz-adv-x="628" 
d="M321 468q108 0 177 -67.5t69 -170.5t-71 -170.5t-179 -67.5q-119 0 -189.5 87.5t-70.5 233.5q0 191 76 293.5t197 102.5q95 0 161 -51.5t80 -135.5h-84q-11 52 -52.5 82t-103.5 30q-83 0 -136.5 -78.5t-58.5 -197.5q22 49 74 79.5t111 30.5zM317 67q73 0 119.5 46
t46.5 118q0 71 -46.5 116.5t-119.5 45.5t-119.5 -45.5t-46.5 -116.5q0 -72 46.5 -118t119.5 -46z" />
    <glyph glyph-name="seven" unicode="7" horiz-adv-x="565" 
d="M180 0q1 93 22.5 174.5t86.5 187.5l161 261h-408v77h505v-70l-192 -317q-54 -91 -71.5 -161.5t-17.5 -151.5h-86z" />
    <glyph glyph-name="eight" unicode="8" horiz-adv-x="612" 
d="M306 -8q-106 0 -177.5 55.5t-71.5 151.5q0 62 36.5 110.5t93.5 67.5q-45 22 -73.5 59.5t-28.5 87.5q0 81 61.5 132.5t159.5 51.5t159.5 -51.5t61.5 -132.5q0 -50 -28.5 -87.5t-73.5 -59.5q57 -19 93.5 -67.5t36.5 -110.5q0 -96 -71.5 -151.5t-177.5 -55.5zM306 410
q63 0 100 30.5t37 82.5t-37 81.5t-100 29.5t-99.5 -29.5t-36.5 -81.5t37 -82.5t99 -30.5zM306 68q74 0 118 35t44 96q0 62 -44 98t-118 36t-118.5 -36t-44.5 -98q0 -61 44.5 -96t118.5 -35z" />
    <glyph glyph-name="nine" unicode="9" horiz-adv-x="628" 
d="M307 232q-108 0 -177 67.5t-69 170.5t71 170.5t179 67.5q119 0 189.5 -87.5t70.5 -233.5q0 -191 -76 -293.5t-197 -102.5q-95 0 -161 51.5t-80 135.5h84q11 -52 52.5 -82t103.5 -30q83 0 136.5 78.5t58.5 197.5q-22 -49 -74 -79.5t-111 -30.5zM311 633q-73 0 -119.5 -46
t-46.5 -118q0 -71 46.5 -116.5t119.5 -45.5t119.5 45.5t46.5 116.5q0 72 -46.5 118t-119.5 46z" />
    <glyph glyph-name="colon" unicode=":" horiz-adv-x="250" 
d="M81 460h89v-94h-89v94zM81 94h89v-94h-89v94z" />
    <glyph glyph-name="semicolon" unicode=";" horiz-adv-x="269" 
d="M115 460h89v-94h-89v94zM41 -50h35q43 0 43 65v87h80v-91q0 -63 -31.5 -97t-86.5 -34h-40v70z" />
    <glyph glyph-name="less" unicode="&#x3c;" horiz-adv-x="457" 
d="M413 85l-372 186v78l372 186v-80l-300 -145l300 -145v-80z" />
    <glyph glyph-name="equal" unicode="=" horiz-adv-x="576" 
d="M74 361v70h428v-70h-428zM74 190v70h428v-70h-428z" />
    <glyph glyph-name="greater" unicode="&#x3e;" horiz-adv-x="457" 
d="M44 85v80l299 145l-299 145v80l372 -186v-78z" />
    <glyph glyph-name="question" unicode="?" horiz-adv-x="512" 
d="M240 155q-75 0 -117.5 33.5t-42.5 100.5q0 52 31.5 83t76.5 42t90 20.5t76.5 31.5t31.5 62q0 51 -33 79t-93 28q-61 0 -100.5 -33.5t-42.5 -92.5h-81q4 90 66 144.5t158 54.5q98 0 156 -48.5t58 -130.5q0 -47 -23 -79t-58 -47t-75.5 -27t-75.5 -19.5t-58 -24.5t-23 -42
q0 -66 83 -66h140v-69h-144zM215 94h89v-94h-89v94z" />
    <glyph glyph-name="at" unicode="@" horiz-adv-x="907" 
d="M551 718q143 0 230.5 -78.5t87.5 -207.5v-139q0 -93 -41.5 -143.5t-117.5 -50.5q-45 0 -78 19t-43 52q-15 -33 -54.5 -53.5t-93.5 -20.5q-92 0 -143.5 58t-50.5 149q0 91 51 149t142 58q41 0 78 -18t56 -47v59h72v-275q0 -27 18 -43.5t47 -16.5q82 0 82 124v139
q0 97 -66.5 156t-175.5 59h-174q-110 0 -177 -60t-67 -157v-245q0 -104 67 -168t177 -64h214v-69h-214q-144 0 -232.5 83t-88.5 218v245q0 129 88.5 208.5t232.5 79.5h174zM448 156q60 1 95 41t35 106q0 67 -35 107t-95 40q-59 0 -94.5 -40t-35.5 -107q0 -66 35.5 -106.5
t94.5 -40.5z" />
    <glyph glyph-name="A" unicode="A" horiz-adv-x="649" 
d="M553 0l-72 189h-312l-73 -189h-89l279 700h77l279 -700h-89zM198 265h253l-126 330z" />
    <glyph glyph-name="B" unicode="B" horiz-adv-x="611" 
d="M74 0v700h250q100 0 157 -47.5t57 -132.5q0 -46 -27.5 -83.5t-65.5 -53.5q57 -19 90.5 -64t33.5 -115q0 -95 -60.5 -149.5t-168.5 -54.5h-266zM159 410h163q131 0 131 108q0 107 -131 107h-163v-215zM159 77h167q156 0 156 128q0 129 -156 129h-167v-257z" />
    <glyph glyph-name="C" unicode="C" horiz-adv-x="708" 
d="M379 -8q-141 0 -239 93.5t-98 264.5q0 88 28 157.5t75.5 112.5t107 65.5t126.5 22.5q116 0 198.5 -63t97.5 -163h-90q-13 68 -69 108.5t-137 40.5q-112 0 -180.5 -74t-68.5 -207t68.5 -207t180.5 -74q83 0 140 41t67 108h88q-11 -100 -93.5 -163t-201.5 -63z" />
    <glyph glyph-name="D" unicode="D" horiz-adv-x="671" 
d="M74 0v700h206q152 0 250.5 -93.5t98.5 -256.5t-98.5 -256.5t-250.5 -93.5h-206zM159 77h119q112 0 187 68.5t75 204.5t-75 204.5t-187 68.5h-119v-546z" />
    <glyph glyph-name="E" unicode="E" horiz-adv-x="566" 
d="M74 0v700h438v-77h-353v-223h287v-77h-287v-246h364v-77h-449z" />
    <glyph glyph-name="F" unicode="F" horiz-adv-x="560" 
d="M74 0v700h445v-77h-360v-231h294v-77h-294v-315h-85z" />
    <glyph glyph-name="G" unicode="G" horiz-adv-x="730" 
d="M378 -8q-139 0 -237.5 94t-98.5 264t99 264t239 94q120 0 204.5 -64.5t96.5 -164.5h-90q-12 67 -71.5 109.5t-140.5 42.5q-111 0 -180.5 -74t-69.5 -207t69.5 -208t180.5 -75q89 0 153 46t64 120q0 24 -15 38.5t-40 14.5h-158v74h173q44 0 84 -32.5t40 -87.5v-240h-79
v122q-25 -58 -85.5 -94t-137.5 -36z" />
    <glyph glyph-name="H" unicode="H" horiz-adv-x="688" 
d="M530 700h84v-700h-84v323h-371v-323h-85v700h85v-300h371v300z" />
    <glyph glyph-name="I" unicode="I" horiz-adv-x="233" 
d="M74 0v700h85v-700h-85z" />
    <glyph glyph-name="J" unicode="J" horiz-adv-x="319" 
d="M18 77h87q67 0 67 102v521h84v-523q0 -87 -37 -132t-108 -45h-93v77z" />
    <glyph glyph-name="K" unicode="K" horiz-adv-x="635" 
d="M521 0l-258 358l-103 -106v-252h-86v700h86v-333l325 333h108l-272 -282l303 -418h-103z" />
    <glyph glyph-name="L" unicode="L" horiz-adv-x="523" 
d="M74 0v700h85v-623h350v-77h-435z" />
    <glyph glyph-name="M" unicode="M" horiz-adv-x="831" 
d="M74 0v700h103l239 -575l238 575h103v-700h-83v538l-222 -538h-73l-222 538v-538h-83z" />
    <glyph glyph-name="N" unicode="N" horiz-adv-x="686" 
d="M74 0v700h95l361 -565v565h83v-700h-96l-360 564v-564h-83z" />
    <glyph glyph-name="O" unicode="O" horiz-adv-x="770" 
d="M385 -8q-148 0 -245.5 102t-97.5 256t97.5 256t245.5 102t246 -102t98 -256t-98 -256t-246 -102zM385 69q110 0 183 80t73 201t-73 201t-183 80t-182.5 -80t-72.5 -201t72.5 -201t182.5 -80z" />
    <glyph glyph-name="P" unicode="P" horiz-adv-x="586" 
d="M74 0v700h263q103 0 163 -57t60 -150t-60 -150t-163 -57h-178v-286h-85zM159 362h178q70 0 103 37t33 94t-33 94t-103 37h-178v-262z" />
    <glyph glyph-name="Q" unicode="Q" horiz-adv-x="770" 
d="M729 350q0 -143 -85.5 -242.5t-218.5 -113.5v-38q0 -49 22.5 -70t71.5 -21h98v-69h-104q-166 0 -166 155v43q-133 14 -219 113t-86 243q0 154 97.5 256t245.5 102t246 -102t98 -256zM130 350q0 -121 72.5 -201t182.5 -80t183 80t73 201t-73 201t-183 80t-182.5 -80
t-72.5 -201z" />
    <glyph glyph-name="R" unicode="R" horiz-adv-x="646" 
d="M452 332q85 -46 93 -158l12 -174h-82l-12 169q-3 52 -34 84t-80 32h-190v-285h-85v700h265q103 0 163 -56.5t60 -148.5q0 -111 -110 -163zM159 624v-262h180q69 0 102 38t33 95t-33 93t-102 36h-180z" />
    <glyph glyph-name="S" unicode="S" horiz-adv-x="594" 
d="M301 -8q-117 0 -188 64.5t-78 172.5h82q7 -74 55 -117t129 -43q76 0 121.5 30.5t45.5 91.5q0 42 -30.5 70t-75.5 40.5t-98.5 29t-98.5 34.5t-75.5 58t-30.5 99q0 83 66 134.5t171 51.5t172.5 -56.5t74.5 -150.5h-80q-6 59 -51.5 94.5t-115.5 35.5q-71 0 -111 -29t-40 -80
q0 -36 22.5 -60.5t59 -38t80.5 -24t88 -24.5t80.5 -34.5t59 -58.5t22.5 -91q0 -93 -71.5 -146t-184.5 -53z" />
    <glyph glyph-name="T" unicode="T" horiz-adv-x="557" 
d="M236 0v623h-224v77h533v-77h-223v-623h-86z" />
    <glyph glyph-name="U" unicode="U" horiz-adv-x="652" 
d="M326 -8q-120 0 -192 67t-72 181v460h84v-464q0 -77 49 -122t131 -45t131.5 45t49.5 122v464h83v-460q0 -114 -72 -181t-192 -67z" />
    <glyph glyph-name="V" unicode="V" horiz-adv-x="631" 
d="M272 0l-265 700h88l220 -601l222 601h87l-265 -700h-87z" />
    <glyph glyph-name="W" unicode="W" horiz-adv-x="996" 
d="M239 0l-217 700h89l172 -571l177 571h76l176 -571l174 571h87l-214 -700h-88l-173 569l-174 -569h-85z" />
    <glyph glyph-name="X" unicode="X" horiz-adv-x="605" 
d="M572 0h-89l-180 284l-181 -284h-89l225 355l-219 345h89l175 -275l174 275h90l-220 -346z" />
    <glyph glyph-name="Y" unicode="Y" horiz-adv-x="590" 
d="M252 0v293l-248 407h97l194 -325l193 325h97l-248 -407v-293h-85z" />
    <glyph glyph-name="Z" unicode="Z" horiz-adv-x="597" 
d="M33 0v77l428 546h-405v77h503v-77l-420 -546h421v-77h-527z" />
    <glyph glyph-name="bracketleft" unicode="[" horiz-adv-x="303" 
d="M76 -56v812h195v-64h-124v-684h124v-64h-195z" />
    <glyph glyph-name="backslash" unicode="\" horiz-adv-x="423" 
d="M404 -1h-70l-315 701h71z" />
    <glyph glyph-name="bracketright" unicode="]" horiz-adv-x="303" 
d="M227 -56h-195v64h124v684h-124v64h195v-812z" />
    <glyph glyph-name="asciicircum" unicode="^" horiz-adv-x="541" 
d="M38 425l201 275h63l201 -275h-86l-146 204l-147 -204h-86z" />
    <glyph glyph-name="underscore" unicode="_" horiz-adv-x="499" 
d="M24 -68v68h451v-68h-451z" />
    <glyph glyph-name="grave" unicode="`" 
d="M204 560h-59l-105 148h80z" />
    <glyph glyph-name="a" unicode="a" horiz-adv-x="516" 
d="M251 512q93 0 154.5 -50.5t61.5 -130.5v-331h-78v87q-20 -43 -67 -69t-106 -26q-76 0 -125 42.5t-49 108.5q0 78 50.5 120t150.5 42h117q29 0 29 26v1q0 51 -39 81.5t-98 30.5q-55 0 -93 -30t-42 -72h-75q7 73 66.5 121.5t142.5 48.5zM228 60q76 0 118.5 44.5t42.5 122.5
v18h-141q-124 0 -124 -101q0 -37 29.5 -60.5t74.5 -23.5z" />
    <glyph glyph-name="b" unicode="b" horiz-adv-x="601" 
d="M317 -8q-56 0 -102.5 23.5t-64.5 59.5v-75h-80v708h80v-278q24 36 70.5 59t96.5 23q114 0 178.5 -73t64.5 -187t-64.5 -187t-178.5 -73zM310 64q76 0 122 51.5t46 136.5t-46 136.5t-122 51.5t-121.5 -51.5t-45.5 -136.5t45.5 -136.5t121.5 -51.5z" />
    <glyph glyph-name="c" unicode="c" horiz-adv-x="543" 
d="M286 -8q-114 0 -179.5 76.5t-65.5 183.5t65.5 183.5t179.5 76.5q88 0 153 -48t76 -130h-79q-8 46 -50 76t-99 30q-79 0 -121 -53t-42 -135t42.5 -135t120.5 -53q57 0 96 26.5t53 72.5h78q-13 -78 -73 -124.5t-155 -46.5z" />
    <glyph glyph-name="d" unicode="d" horiz-adv-x="601" 
d="M284 -8q-114 0 -178.5 73t-64.5 187t64.5 187t178.5 73q50 0 96.5 -23t70.5 -59v278h80v-708h-80v75q-18 -36 -64.5 -59.5t-102.5 -23.5zM291 64q76 0 121.5 51.5t45.5 136.5t-45.5 136.5t-121.5 51.5t-122 -51.5t-46 -136.5t46 -136.5t122 -51.5z" />
    <glyph glyph-name="e" unicode="e" horiz-adv-x="560" 
d="M440 162h81q-13 -78 -75.5 -124t-155.5 -46q-110 0 -179.5 76.5t-69.5 186.5q0 113 65.5 185t174.5 72q108 0 171.5 -66.5t63.5 -169.5q0 -21 -2 -35h-394q5 -78 52 -128t118 -50q125 0 150 99zM281 444q-64 0 -105 -36t-52 -103h310q-5 64 -45.5 101.5t-107.5 37.5z" />
    <glyph glyph-name="f" unicode="f" horiz-adv-x="387" 
d="M121 0v433h-105v71h105v48q0 72 42.5 114t114.5 42h80v-71h-77q-36 0 -58 -23.5t-22 -63.5v-46h157v-71h-157v-433h-80z" />
    <glyph glyph-name="g" unicode="g" horiz-adv-x="601" 
d="M451 504h80v-526q0 -80 -52 -131t-134 -51h-238v69h233q49 0 80 33t31 83v89q-18 -35 -64 -56.5t-103 -21.5q-114 0 -178.5 73t-64.5 187t64.5 187t178.5 73q51 0 97.5 -23t69.5 -59v74zM291 64q76 0 121.5 51.5t45.5 136.5t-45.5 136.5t-121.5 51.5t-122 -51t-46 -137
t46 -137t122 -51z" />
    <glyph glyph-name="h" unicode="h" horiz-adv-x="577" 
d="M70 0v708h80v-301q19 51 63 78t103 27q85 0 136.5 -56t51.5 -148v-308h-80v295q0 65 -34.5 104.5t-91.5 39.5q-65 0 -106.5 -47t-41.5 -120v-272h-80z" />
    <glyph glyph-name="i" unicode="i" horiz-adv-x="231" 
d="M69 712h93v-118h-93v118zM76 0v504h80v-504h-80z" />
    <glyph glyph-name="j" unicode="j" horiz-adv-x="233" 
d="M69 712h93v-118h-93v118zM77 504h79v-543q0 -83 -32.5 -124t-111.5 -41h-47v69h42q45 0 57.5 21.5t12.5 77.5v540z" />
    <glyph glyph-name="k" unicode="k" horiz-adv-x="525" 
d="M413 0l-196 252l-66 -60v-192h-81v708h81v-415l241 211h102l-216 -197l236 -307h-101z" />
    <glyph glyph-name="l" unicode="l" horiz-adv-x="220" 
d="M70 0v708h80v-708h-80z" />
    <glyph glyph-name="m" unicode="m" horiz-adv-x="871" 
d="M70 0v504h80v-97q15 47 55.5 76t96.5 29q63 0 108 -28t58 -79q14 46 60 76.5t103 30.5q82 0 128.5 -52t46.5 -143v-317h-80v296q0 65 -30.5 105t-83.5 40q-62 0 -98 -40t-36 -105v-296h-80v296q0 65 -30.5 105t-82.5 40q-63 0 -99 -40t-36 -105v-296h-80z" />
    <glyph glyph-name="n" unicode="n" horiz-adv-x="569" 
d="M70 0v504h80v-97q19 51 63 78t103 27q85 0 136.5 -56t51.5 -148v-308h-80v295q0 65 -34.5 104.5t-91.5 39.5q-65 0 -106.5 -47t-41.5 -120v-272h-80z" />
    <glyph glyph-name="o" unicode="o" horiz-adv-x="595" 
d="M297 -8q-112 0 -184 73.5t-72 186.5q0 114 72 187t184 73q113 0 185 -73t72 -187q0 -113 -72.5 -186.5t-184.5 -73.5zM297 64q78 0 126.5 52.5t48.5 135.5t-48.5 135.5t-126.5 52.5q-77 0 -125.5 -52.5t-48.5 -135.5t48.5 -135.5t125.5 -52.5z" />
    <glyph glyph-name="p" unicode="p" horiz-adv-x="601" 
d="M70 -204v708h80v-75q20 36 66.5 59.5t101.5 23.5q114 0 178 -73t64 -187t-65 -187t-179 -73q-48 0 -94.5 22.5t-71.5 58.5v-277h-80zM310 64q76 0 122 51t46 137t-46 137t-122 51q-75 0 -121 -51.5t-46 -136.5t46 -136.5t121 -51.5z" />
    <glyph glyph-name="q" unicode="q" horiz-adv-x="601" 
d="M531 -204h-80v277q-25 -36 -71.5 -58.5t-94.5 -22.5q-114 0 -179 73t-65 187t64 187t178 73q55 0 101.5 -23.5t66.5 -59.5v75h80v-708zM291 64q75 0 121 51.5t46 136.5t-46 136.5t-121 51.5q-76 0 -122 -51t-46 -137t46 -137t122 -51z" />
    <glyph glyph-name="r" unicode="r" horiz-adv-x="370" 
d="M351 433h-78q-71 0 -97 -51.5t-26 -151.5v-230h-80v504h80v-105q17 56 46.5 84.5t82.5 28.5h72v-79z" />
    <glyph glyph-name="s" unicode="s" horiz-adv-x="474" 
d="M243 -8q-87 0 -140.5 45t-59.5 124h76q11 -100 124 -100q48 0 77.5 22.5t29.5 54.5q0 35 -22 54.5t-54.5 24t-70.5 12.5t-70.5 18t-54.5 42t-22 84q0 62 49 100.5t129 38.5q82 0 134 -42t57 -112h-76q-5 44 -40.5 65.5t-76.5 21.5q-44 0 -71.5 -20t-27.5 -52t22 -49.5
t55 -21t71 -11.5t71 -19t55 -44.5t22 -87.5q0 -67 -51 -107.5t-135 -40.5z" />
    <glyph glyph-name="t" unicode="t" horiz-adv-x="408" 
d="M121 665h80v-161h155v-71h-155v-271q0 -42 21.5 -65.5t59.5 -23.5h74v-73h-77q-72 0 -115 42.5t-43 115.5v275h-105v71h105v161z" />
    <glyph glyph-name="u" unicode="u" horiz-adv-x="569" 
d="M499 504v-504h-80v97q-19 -51 -63 -78t-103 -27q-85 0 -136.5 56t-51.5 148v308h80v-295q0 -65 34.5 -104.5t91.5 -39.5q65 0 106.5 47t41.5 120v272h80z" />
    <glyph glyph-name="v" unicode="v" horiz-adv-x="479" 
d="M198 0l-185 504h83l143 -400l143 400h84l-185 -504h-83z" />
    <glyph glyph-name="w" unicode="w" horiz-adv-x="761" 
d="M192 0l-165 504h83l121 -392l111 392h77l110 -392l122 392h83l-165 -504h-79l-110 390l-110 -390h-78z" />
    <glyph glyph-name="x" unicode="x" horiz-adv-x="479" 
d="M467 0h-85l-142 203l-143 -203h-85l184 266l-167 238h89l122 -175l121 175h89l-167 -238z" />
    <glyph glyph-name="y" unicode="y" horiz-adv-x="480" 
d="M466 504l-184 -504l-28 -78q-23 -63 -55 -94.5t-83 -31.5h-96v69h92q22 0 39 15t31 56l19 56l-188 512h83l143 -400l144 400h83z" />
    <glyph glyph-name="z" unicode="z" horiz-adv-x="496" 
d="M41 0v71l312 362h-298v71h391v-71l-310 -362h324v-71h-419z" />
    <glyph glyph-name="braceleft" unicode="{" horiz-adv-x="316" 
d="M235 -50q-46 0 -74.5 28t-28.5 75v181q0 44 -19.5 63.5t-65.5 19.5v66q45 0 65 19.5t20 64.5v180q0 47 28.5 75t74.5 28h58v-69h-32q-28 0 -40.5 -11.5t-12.5 -37.5v-185q0 -44 -17.5 -65t-52.5 -32q35 -11 52.5 -32t17.5 -65v-185q0 -26 12.5 -37.5t40.5 -11.5h32v-69
h-58z" />
    <glyph glyph-name="bar" unicode="|" horiz-adv-x="225" 
d="M74 -50v800h78v-800h-78z" />
    <glyph glyph-name="braceright" unicode="}" horiz-adv-x="316" 
d="M81 -50h-58v69h32q28 0 40.5 11.5t12.5 37.5v185q0 44 17.5 65t52.5 32q-35 11 -52.5 32t-17.5 65v185q0 26 -12.5 37.5t-40.5 11.5h-32v69h58q46 0 74.5 -28t28.5 -75v-180q0 -45 20 -64.5t65 -19.5v-66q-46 0 -65.5 -19.5t-19.5 -63.5v-181q0 -47 -28.5 -75t-74.5 -28z
" />
    <glyph glyph-name="asciitilde" unicode="~" horiz-adv-x="605" 
d="M405 265q-44 0 -101 27.5t-96 27.5q-55 0 -97 -47l-49 47q25 37 61.5 61t76.5 24q43 0 100 -27.5t97 -27.5q55 0 97 47l49 -48q-60 -84 -138 -84z" />
    <glyph glyph-name="exclamdown" unicode="&#xa1;" horiz-adv-x="280" 
d="M77 402v94h89v-94h-89zM92 301h58l24 -505h-106z" />
    <glyph glyph-name="cent" unicode="&#xa2;" 
 />
    <glyph glyph-name="sterling" unicode="&#xa3;" 
 />
    <glyph glyph-name="currency" unicode="&#xa4;" 
 />
    <glyph glyph-name="yen" unicode="&#xa5;" 
 />
    <glyph glyph-name="brokenbar" unicode="&#xa6;" horiz-adv-x="225" 
d="M74 401v349h78v-349h-78zM74 -50v349h78v-349h-78z" />
    <glyph glyph-name="section" unicode="&#xa7;" horiz-adv-x="540" 
d="M271 -212q-79 0 -130 37.5t-70 109.5l72 23q32 -99 128 -99q46 0 76 28t30 81q0 23 -9.5 41t-33 34t-43.5 26.5t-62 29.5t-67 32q-59 30 -86 64.5t-27 87.5q0 79 86 130q-51 51 -51 112q0 85 54.5 134t133.5 49q78 0 129 -37.5t70 -109.5l-71 -23q-32 99 -129 99
q-46 0 -76 -28t-30 -81q0 -23 9.5 -41t33 -34t43.5 -26.5t62 -29.5t67 -32q59 -30 86 -64.5t27 -86.5q0 -80 -86 -131q51 -51 51 -112q0 -85 -54.5 -134t-132.5 -49zM347 129q69 32 69 84q0 11 -3 21t-11 19.5t-16 17.5t-22.5 17t-25.5 15t-31.5 15.5t-34 15.5t-38.5 16.5
t-39 16.5q-69 -33 -69 -84q0 -11 3 -21t10.5 -19t15.5 -16.5t22.5 -16.5t26 -15.5t31 -15.5t33.5 -15.5t38.5 -17t40.5 -17.5z" />
    <glyph glyph-name="dieresis" unicode="&#xa8;" 
d="M28 712h93v-118h-93v118zM223 712h93v-118h-93v118z" />
    <glyph glyph-name="copyright" unicode="&#xa9;" horiz-adv-x="924" 
d="M463 -40q-164 0 -277 113t-113 277q0 165 113 277.5t277 112.5q165 0 277.5 -112.5t112.5 -277.5q0 -164 -112.5 -277t-277.5 -113zM463 11q142 0 238.5 98t97.5 241q-1 144 -97.5 242t-238.5 98q-141 0 -238 -98t-98 -242q1 -143 98 -241t238 -98zM469 116
q-93 0 -158 61.5t-65 174.5q0 114 65 175.5t158 61.5q77 0 131 -41.5t64 -107.5h-59q-8 44 -45.5 71t-90.5 27q-75 0 -120 -48.5t-45 -137.5q0 -88 45 -136.5t120 -48.5q55 0 92 27t45 71h58q-7 -66 -62 -107.5t-133 -41.5z" />
    <glyph glyph-name="ordfeminine" unicode="&#xaa;" 
 />
    <glyph glyph-name="guillemotleft" unicode="&#xab;" horiz-adv-x="605" 
d="M312 84l-292 201v50l292 201v-84l-210 -142l210 -142v-84zM572 84l-292 201v50l292 201v-84l-210 -142l210 -142v-84z" />
    <glyph glyph-name="logicalnot" unicode="&#xac;" horiz-adv-x="577" 
d="M437 138v177h-386v73h468v-250h-82z" />
    <glyph glyph-name="uni00AD" unicode="&#xad;" 
d="M52 282v70h365v-70h-365z" />
    <glyph glyph-name="registered" unicode="&#xae;" horiz-adv-x="924" 
d="M463 740q165 0 277.5 -112.5t112.5 -277.5q0 -164 -112.5 -277t-277.5 -113q-164 0 -277 113t-113 277q0 165 113 277.5t277 112.5zM463 11q142 0 238.5 98t97.5 241q-1 144 -97.5 242t-238.5 98q-141 0 -238 -98t-98 -242q1 -143 98 -241t238 -98zM637 448
q0 -73 -73 -108q56 -31 61 -104l8 -115h-54l-8 112q-2 34 -22.5 55t-52.5 21h-126v-188h-56v463h175q68 0 108 -37.5t40 -98.5zM489 360q46 0 68 25.5t22 62.5q0 38 -22 62t-68 24h-119v-174h119z" />
    <glyph glyph-name="macron" unicode="&#xaf;" 
d="M10 591v67h266v-67h-266z" />
    <glyph glyph-name="degree" unicode="&#xb0;" horiz-adv-x="342" 
d="M170 473q-54 0 -88 33t-34 84q0 50 34 83t88 33t88.5 -33t34.5 -83q0 -51 -34.5 -84t-88.5 -33zM170 529q29 0 46.5 17t17.5 44t-17.5 43.5t-46.5 16.5q-28 0 -46 -17t-18 -43q0 -27 18 -44t46 -17z" />
    <glyph glyph-name="plusminus" unicode="&#xb1;" horiz-adv-x="552" 
d="M241 192v177h-192v70h192v176h71v-176h192v-70h-192v-177h-71zM50 0v70h454v-70h-454z" />
    <glyph glyph-name="uni00B2" unicode="&#xb2;" 
 />
    <glyph glyph-name="uni00B3" unicode="&#xb3;" 
 />
    <glyph glyph-name="acute" unicode="&#xb4;" 
d="M29 560l84 148h80l-105 -148h-59z" />
    <glyph glyph-name="uni00B5" unicode="&#xb5;" horiz-adv-x="567" 
d="M419 504h80v-504h-80v97q-19 -51 -63 -78t-103 -27q-63 0 -108 31v-227h-80v708h80v-295q0 -65 34.5 -104.5t91.5 -39.5q65 0 106.5 47t41.5 120v272z" />
    <glyph glyph-name="paragraph" unicode="&#xb6;" horiz-adv-x="677" 
d="M240 -204v535q-82 0 -139 53.5t-57 130.5t57 131t139 54h388v-72h-64v-832h-80v832h-163v-832h-81z" />
    <glyph glyph-name="periodcentered" unicode="&#xb7;" horiz-adv-x="240" 
d="M74 407h93v-118h-93v118z" />
    <glyph glyph-name="cedilla" unicode="&#xb8;" 
d="M104 -205h-96l109 146h68z" />
    <glyph glyph-name="uni00B9" unicode="&#xb9;" 
 />
    <glyph glyph-name="ordmasculine" unicode="&#xba;" 
 />
    <glyph glyph-name="guillemotright" unicode="&#xbb;" horiz-adv-x="605" 
d="M36 84v84l210 142l-210 142v84l292 -201v-50zM295 84v84l210 142l-210 142v84l292 -201v-50z" />
    <glyph glyph-name="onequarter" unicode="&#xbc;" 
 />
    <glyph glyph-name="onehalf" unicode="&#xbd;" 
 />
    <glyph glyph-name="threequarters" unicode="&#xbe;" 
 />
    <glyph glyph-name="questiondown" unicode="&#xbf;" horiz-adv-x="442" 
d="M257 402h-89v94h89v-94zM232 341q75 0 117.5 -33.5t42.5 -100.5q0 -52 -31.5 -83t-76.5 -42t-90 -20.5t-76.5 -31.5t-31.5 -62q0 -51 33 -79t93 -28q61 0 100.5 33.5t42.5 92.5h81q-4 -90 -66 -144.5t-158 -54.5q-98 0 -156 48.5t-58 130.5q0 47 23 79t58 47t75.5 27
t75.5 19.5t58 24.5t23 42q0 66 -83 66h-140v69h144z" />
    <glyph glyph-name="Agrave" unicode="&#xc0;" horiz-adv-x="649" 
d="M381 756h-59l-105 148h80zM553 0l-72 189h-312l-73 -189h-89l279 700h77l279 -700h-89zM198 265h253l-126 330z" />
    <glyph glyph-name="Aacute" unicode="&#xc1;" horiz-adv-x="649" 
d="M458 904l-105 -148h-59l84 148h80zM553 0l-72 189h-312l-73 -189h-89l279 700h77l279 -700h-89zM198 265h253l-126 330z" />
    <glyph glyph-name="Acircumflex" unicode="&#xc2;" horiz-adv-x="649" 
d="M337 847l-73 -91h-76l117 148h62l118 -148h-76zM553 0l-72 189h-312l-73 -189h-89l279 700h77l279 -700h-89zM198 265h253l-126 330z" />
    <glyph glyph-name="Atilde" unicode="&#xc3;" horiz-adv-x="649" 
d="M267 823q-33 0 -40 -36h-63q5 48 31 76.5t65 28.5q33 0 69 -20.5t52 -20.5q32 0 40 36h62q-5 -49 -30 -77.5t-65 -28.5q-32 0 -69 21t-52 21zM553 0l-72 189h-312l-73 -189h-89l279 700h77l279 -700h-89zM198 265h253l-126 330z" />
    <glyph glyph-name="Adieresis" unicode="&#xc4;" horiz-adv-x="649" 
d="M274 908v-118h-93v118h93zM469 908v-118h-93v118h93zM553 0l-72 189h-312l-73 -189h-89l279 700h77l279 -700h-89zM198 265h253l-126 330z" />
    <glyph glyph-name="Aring" unicode="&#xc5;" horiz-adv-x="649" 
d="M298 755q-45 11 -67.5 46t-10.5 78q12 42 50 62.5t83 9.5q45 -10 67 -45.5t10 -77.5t-49.5 -62.5t-82.5 -10.5zM315 912q-26 -4 -40.5 -23t-10.5 -44q4 -26 24 -40.5t46 -10.5q27 5 41.5 23.5t10.5 44.5t-24 40t-47 10zM553 0l-72 189h-312l-73 -189h-89l279 700h77
l279 -700h-89zM198 265h253l-126 330z" />
    <glyph glyph-name="AE" unicode="&#xc6;" horiz-adv-x="880" 
d="M474 77h364v-77h-449v189h-206l-87 -189h-89l335 700h485v-77h-353v-223h287v-77h-287v-246zM218 266h171v371z" />
    <glyph glyph-name="Ccedilla" unicode="&#xc7;" horiz-adv-x="708" 
d="M379 -8q-141 0 -239 93.5t-98 264.5q0 88 28 157.5t75.5 112.5t107 65.5t126.5 22.5q116 0 198.5 -63t97.5 -163h-90q-13 68 -69 108.5t-137 40.5q-112 0 -180.5 -74t-68.5 -207t68.5 -207t180.5 -74q83 0 140 41t67 108h88q-11 -100 -93.5 -163t-201.5 -63zM346 -205
h-96l109 146h68z" />
    <glyph glyph-name="Egrave" unicode="&#xc8;" horiz-adv-x="566" 
d="M358 756h-59l-105 148h80zM74 0v700h438v-77h-353v-223h287v-77h-287v-246h364v-77h-449z" />
    <glyph glyph-name="Eacute" unicode="&#xc9;" horiz-adv-x="566" 
d="M271 756l84 148h80l-105 -148h-59zM74 0v700h438v-77h-353v-223h287v-77h-287v-246h364v-77h-449z" />
    <glyph glyph-name="Ecircumflex" unicode="&#xca;" horiz-adv-x="566" 
d="M282 904h62l118 -148h-76l-72 91l-73 -91h-76zM74 0v700h438v-77h-353v-223h287v-77h-287v-246h364v-77h-449z" />
    <glyph glyph-name="Edieresis" unicode="&#xcb;" horiz-adv-x="566" 
d="M158 908h93v-118h-93v118zM353 908h93v-118h-93v118zM74 0v700h438v-77h-353v-223h287v-77h-287v-246h364v-77h-449z" />
    <glyph glyph-name="Igrave" unicode="&#xcc;" horiz-adv-x="233" 
d="M172 756h-59l-105 148h80zM74 0v700h85v-700h-85z" />
    <glyph glyph-name="Iacute" unicode="&#xcd;" horiz-adv-x="233" 
d="M85 756l84 148h80l-105 -148h-59zM74 0v700h85v-700h-85z" />
    <glyph glyph-name="Icircumflex" unicode="&#xce;" horiz-adv-x="233" 
d="M96 904h62l118 -148h-76l-72 91l-73 -91h-76zM74 0v700h85v-700h-85z" />
    <glyph glyph-name="Idieresis" unicode="&#xcf;" horiz-adv-x="233" 
d="M-28 908h93v-118h-93v118zM167 908h93v-118h-93v118zM74 0v700h85v-700h-85z" />
    <glyph glyph-name="Eth" unicode="&#xd0;" horiz-adv-x="669" 
d="M280 700q152 0 250.5 -93.5t98.5 -256.5t-98.5 -256.5t-250.5 -93.5h-206v318h-53v64h53v318h206zM278 77q112 0 187 68.5t75 204.5t-75 204.5t-187 68.5h-119v-241h162v-64h-162v-241h119z" />
    <glyph glyph-name="Ntilde" unicode="&#xd1;" horiz-adv-x="686" 
d="M246 787h-63q5 48 31 76.5t65 28.5q33 0 69 -20.5t52 -20.5q32 0 40 36h62q-5 -49 -30 -77.5t-65 -28.5q-32 0 -69 21t-52 21q-33 0 -40 -36zM74 0v700h95l361 -565v565h83v-700h-96l-360 564v-564h-83z" />
    <glyph glyph-name="Ograve" unicode="&#xd2;" horiz-adv-x="770" 
d="M441 756h-59l-105 148h80zM385 -8q-148 0 -245.5 102t-97.5 256t97.5 256t245.5 102t246 -102t98 -256t-98 -256t-246 -102zM385 69q110 0 183 80t73 201t-73 201t-183 80t-182.5 -80t-72.5 -201t72.5 -201t182.5 -80z" />
    <glyph glyph-name="Oacute" unicode="&#xd3;" horiz-adv-x="770" 
d="M354 756l84 148h80l-105 -148h-59zM385 -8q-148 0 -245.5 102t-97.5 256t97.5 256t245.5 102t246 -102t98 -256t-98 -256t-246 -102zM385 69q110 0 183 80t73 201t-73 201t-183 80t-182.5 -80t-72.5 -201t72.5 -201t182.5 -80z" />
    <glyph glyph-name="Ocircumflex" unicode="&#xd4;" horiz-adv-x="770" 
d="M365 904h62l118 -148h-76l-72 91l-73 -91h-76zM385 -8q-148 0 -245.5 102t-97.5 256t97.5 256t245.5 102t246 -102t98 -256t-98 -256t-246 -102zM385 69q110 0 183 80t73 201t-73 201t-183 80t-182.5 -80t-72.5 -201t72.5 -201t182.5 -80z" />
    <glyph glyph-name="Otilde" unicode="&#xd5;" horiz-adv-x="770" 
d="M287 787h-63q5 48 31 76.5t65 28.5q33 0 69 -20.5t52 -20.5q32 0 40 36h62q-5 -49 -30 -77.5t-65 -28.5q-32 0 -69 21t-52 21q-33 0 -40 -36zM385 -8q-148 0 -245.5 102t-97.5 256t97.5 256t245.5 102t246 -102t98 -256t-98 -256t-246 -102zM385 69q110 0 183 80t73 201
t-73 201t-183 80t-182.5 -80t-72.5 -201t72.5 -201t182.5 -80z" />
    <glyph glyph-name="Odieresis" unicode="&#xd6;" horiz-adv-x="770" 
d="M241 908h93v-118h-93v118zM436 908h93v-118h-93v118zM385 -8q-148 0 -245.5 102t-97.5 256t97.5 256t245.5 102t246 -102t98 -256t-98 -256t-246 -102zM385 69q110 0 183 80t73 201t-73 201t-183 80t-182.5 -80t-72.5 -201t72.5 -201t182.5 -80z" />
    <glyph glyph-name="multiply" unicode="&#xd7;" horiz-adv-x="532" 
d="M99 113l-50 49l167 154l-167 154l50 49l167 -154l165 154l51 -50l-167 -153l167 -154l-50 -49l-166 153z" />
    <glyph glyph-name="Oslash" unicode="&#xd8;" horiz-adv-x="723" 
d="M369 708q148 0 246 -102t98 -256t-98 -256t-246 -102t-245.5 102t-97.5 256t97.5 256t245.5 102zM114 350q0 -111 62 -189l352 413q-68 57 -159 57q-110 0 -182.5 -80t-72.5 -201zM369 69q110 0 183 80t73 201q0 97 -49 171l-347 -409q62 -43 140 -43z" />
    <glyph glyph-name="Ugrave" unicode="&#xd9;" horiz-adv-x="652" 
d="M382 756h-59l-105 148h80zM326 -8q-120 0 -192 67t-72 181v460h84v-464q0 -77 49 -122t131 -45t131.5 45t49.5 122v464h83v-460q0 -114 -72 -181t-192 -67z" />
    <glyph glyph-name="Uacute" unicode="&#xda;" horiz-adv-x="652" 
d="M295 756l84 148h80l-105 -148h-59zM326 -8q-120 0 -192 67t-72 181v460h84v-464q0 -77 49 -122t131 -45t131.5 45t49.5 122v464h83v-460q0 -114 -72 -181t-192 -67z" />
    <glyph glyph-name="Ucircumflex" unicode="&#xdb;" horiz-adv-x="652" 
d="M306 904h62l118 -148h-76l-72 91l-73 -91h-76zM326 -8q-120 0 -192 67t-72 181v460h84v-464q0 -77 49 -122t131 -45t131.5 45t49.5 122v464h83v-460q0 -114 -72 -181t-192 -67z" />
    <glyph glyph-name="Udieresis" unicode="&#xdc;" horiz-adv-x="652" 
d="M182 908h93v-118h-93v118zM377 908h93v-118h-93v118zM326 -8q-120 0 -192 67t-72 181v460h84v-464q0 -77 49 -122t131 -45t131.5 45t49.5 122v464h83v-460q0 -114 -72 -181t-192 -67z" />
    <glyph glyph-name="Yacute" unicode="&#xdd;" horiz-adv-x="590" 
d="M264 756l84 148h80l-105 -148h-59zM252 0v293l-248 407h97l194 -325l193 325h97l-248 -407v-293h-85z" />
    <glyph glyph-name="Thorn" unicode="&#xde;" horiz-adv-x="586" 
d="M74 0v700h85v-153h178q104 0 163.5 -52.5t59.5 -144.5t-59.5 -144.5t-163.5 -52.5h-178v-153h-85zM159 229h178q71 0 103.5 32.5t32.5 88.5t-32.5 88.5t-103.5 32.5h-178v-242z" />
    <glyph glyph-name="germandbls" unicode="&#xdf;" horiz-adv-x="577" 
d="M311 -8q-41 0 -83 7v71q35 -8 75 -8q77 0 118 38t41 105q0 70 -49.5 106t-130.5 36h-34v70h39q61 0 95.5 30t34.5 81t-34.5 81t-91.5 30t-90.5 -38.5t-33.5 -110.5v-490h-82v347h-56v70h56v73q0 104 58.5 161t147.5 57q93 0 147.5 -48.5t54.5 -125.5q0 -54 -29 -94
t-73 -51q63 -17 107.5 -63t44.5 -118q0 -104 -63.5 -160t-168.5 -56z" />
    <glyph glyph-name="agrave" unicode="&#xe0;" horiz-adv-x="516" 
d="M319 560h-59l-105 148h80zM251 512q93 0 154.5 -50.5t61.5 -130.5v-331h-78v87q-20 -43 -67 -69t-106 -26q-76 0 -125 42.5t-49 108.5q0 78 50.5 120t150.5 42h117q29 0 29 26v1q0 51 -39 81.5t-98 30.5q-55 0 -93 -30t-42 -72h-75q7 73 66.5 121.5t142.5 48.5zM228 60
q76 0 118.5 44.5t42.5 122.5v18h-141q-124 0 -124 -101q0 -37 29.5 -60.5t74.5 -23.5z" />
    <glyph glyph-name="aacute" unicode="&#xe1;" horiz-adv-x="516" 
d="M396 708l-105 -148h-59l84 148h80zM251 512q93 0 154.5 -50.5t61.5 -130.5v-331h-78v87q-20 -43 -67 -69t-106 -26q-76 0 -125 42.5t-49 108.5q0 78 50.5 120t150.5 42h117q29 0 29 26v1q0 51 -39 81.5t-98 30.5q-55 0 -93 -30t-42 -72h-75q7 73 66.5 121.5t142.5 48.5z
M228 60q76 0 118.5 44.5t42.5 122.5v18h-141q-124 0 -124 -101q0 -37 29.5 -60.5t74.5 -23.5z" />
    <glyph glyph-name="acircumflex" unicode="&#xe2;" horiz-adv-x="516" 
d="M275 651l-73 -91h-76l117 148h62l118 -148h-76zM251 512q93 0 154.5 -50.5t61.5 -130.5v-331h-78v87q-20 -43 -67 -69t-106 -26q-76 0 -125 42.5t-49 108.5q0 78 50.5 120t150.5 42h117q29 0 29 26v1q0 51 -39 81.5t-98 30.5q-55 0 -93 -30t-42 -72h-75q7 73 66.5 121.5
t142.5 48.5zM228 60q76 0 118.5 44.5t42.5 122.5v18h-141q-124 0 -124 -101q0 -37 29.5 -60.5t74.5 -23.5z" />
    <glyph glyph-name="atilde" unicode="&#xe3;" horiz-adv-x="516" 
d="M205 627q-33 0 -40 -36h-63q5 48 31 76.5t65 28.5q33 0 69 -20.5t52 -20.5q32 0 40 36h62q-5 -49 -30 -77.5t-65 -28.5q-32 0 -69 21t-52 21zM251 512q93 0 154.5 -50.5t61.5 -130.5v-331h-78v87q-20 -43 -67 -69t-106 -26q-76 0 -125 42.5t-49 108.5q0 78 50.5 120
t150.5 42h117q29 0 29 26v1q0 51 -39 81.5t-98 30.5q-55 0 -93 -30t-42 -72h-75q7 73 66.5 121.5t142.5 48.5zM228 60q76 0 118.5 44.5t42.5 122.5v18h-141q-124 0 -124 -101q0 -37 29.5 -60.5t74.5 -23.5z" />
    <glyph glyph-name="adieresis" unicode="&#xe4;" horiz-adv-x="516" 
d="M212 712v-118h-93v118h93zM407 712v-118h-93v118h93zM251 512q93 0 154.5 -50.5t61.5 -130.5v-331h-78v87q-20 -43 -67 -69t-106 -26q-76 0 -125 42.5t-49 108.5q0 78 50.5 120t150.5 42h117q29 0 29 26v1q0 51 -39 81.5t-98 30.5q-55 0 -93 -30t-42 -72h-75
q7 73 66.5 121.5t142.5 48.5zM228 60q76 0 118.5 44.5t42.5 122.5v18h-141q-124 0 -124 -101q0 -37 29.5 -60.5t74.5 -23.5z" />
    <glyph glyph-name="aring" unicode="&#xe5;" horiz-adv-x="516" 
d="M236 559q-45 11 -67.5 46t-10.5 78q12 42 50 62.5t83 9.5q45 -10 67 -45.5t10 -77.5t-49.5 -62.5t-82.5 -10.5zM253 716q-26 -4 -40.5 -23t-10.5 -44q4 -26 24 -40.5t46 -10.5q27 5 41.5 23.5t10.5 44.5t-24 40t-47 10zM251 512q93 0 154.5 -50.5t61.5 -130.5v-331h-78
v87q-20 -43 -67 -69t-106 -26q-76 0 -125 42.5t-49 108.5q0 78 50.5 120t150.5 42h117q29 0 29 26v1q0 51 -39 81.5t-98 30.5q-55 0 -93 -30t-42 -72h-75q7 73 66.5 121.5t142.5 48.5zM228 60q76 0 118.5 44.5t42.5 122.5v18h-141q-124 0 -124 -101q0 -37 29.5 -60.5
t74.5 -23.5z" />
    <glyph glyph-name="ae" unicode="&#xe6;" horiz-adv-x="912" 
d="M790 162h81q-13 -78 -75.5 -124t-155.5 -46q-69 0 -124 32t-87 87q-28 -57 -81.5 -88t-127.5 -31q-81 0 -130 41.5t-49 107.5q0 72 61 112.5t187 53.5l101 10v12q0 52 -36 83.5t-95 31.5q-53 0 -89 -29.5t-39 -71.5l-75 15q11 67 67.5 110.5t135.5 43.5q129 0 184 -88
q67 88 188 88q108 0 171.5 -66.5t63.5 -169.5q0 -21 -2 -35h-394q5 -78 52 -128t118 -50q125 0 150 99zM631 444q-64 0 -105 -36t-52 -103h310q-5 64 -45.5 101.5t-107.5 37.5zM227 59q77 0 120 45t43 124v26l-101 -10q-166 -16 -166 -103q0 -37 29 -59.5t75 -22.5z" />
    <glyph glyph-name="ccedilla" unicode="&#xe7;" horiz-adv-x="543" 
d="M286 -8q-114 0 -179.5 76.5t-65.5 183.5t65.5 183.5t179.5 76.5q88 0 153 -48t76 -130h-79q-8 46 -50 76t-99 30q-79 0 -121 -53t-42 -135t42.5 -135t120.5 -53q57 0 96 26.5t53 72.5h78q-13 -78 -73 -124.5t-155 -46.5zM249 -205h-96l109 146h68z" />
    <glyph glyph-name="egrave" unicode="&#xe8;" horiz-adv-x="560" 
d="M335 560h-59l-105 148h80zM440 162h81q-13 -78 -75.5 -124t-155.5 -46q-110 0 -179.5 76.5t-69.5 186.5q0 113 65.5 185t174.5 72q108 0 171.5 -66.5t63.5 -169.5q0 -21 -2 -35h-394q5 -78 52 -128t118 -50q125 0 150 99zM281 444q-64 0 -105 -36t-52 -103h310
q-5 64 -45.5 101.5t-107.5 37.5z" />
    <glyph glyph-name="eacute" unicode="&#xe9;" horiz-adv-x="560" 
d="M412 708l-105 -148h-59l84 148h80zM440 162h81q-13 -78 -75.5 -124t-155.5 -46q-110 0 -179.5 76.5t-69.5 186.5q0 113 65.5 185t174.5 72q108 0 171.5 -66.5t63.5 -169.5q0 -21 -2 -35h-394q5 -78 52 -128t118 -50q125 0 150 99zM281 444q-64 0 -105 -36t-52 -103h310
q-5 64 -45.5 101.5t-107.5 37.5z" />
    <glyph glyph-name="ecircumflex" unicode="&#xea;" horiz-adv-x="560" 
d="M291 651l-73 -91h-76l117 148h62l118 -148h-76zM440 162h81q-13 -78 -75.5 -124t-155.5 -46q-110 0 -179.5 76.5t-69.5 186.5q0 113 65.5 185t174.5 72q108 0 171.5 -66.5t63.5 -169.5q0 -21 -2 -35h-394q5 -78 52 -128t118 -50q125 0 150 99zM281 444q-64 0 -105 -36
t-52 -103h310q-5 64 -45.5 101.5t-107.5 37.5z" />
    <glyph glyph-name="edieresis" unicode="&#xeb;" horiz-adv-x="560" 
d="M228 712v-118h-93v118h93zM423 712v-118h-93v118h93zM440 162h81q-13 -78 -75.5 -124t-155.5 -46q-110 0 -179.5 76.5t-69.5 186.5q0 113 65.5 185t174.5 72q108 0 171.5 -66.5t63.5 -169.5q0 -21 -2 -35h-394q5 -78 52 -128t118 -50q125 0 150 99zM281 444
q-64 0 -105 -36t-52 -103h310q-5 64 -45.5 101.5t-107.5 37.5z" />
    <glyph glyph-name="igrave" unicode="&#xec;" horiz-adv-x="231" 
d="M171 560h-59l-105 148h80zM76 0v504h80v-504h-80z" />
    <glyph glyph-name="iacute" unicode="&#xed;" horiz-adv-x="231" 
d="M84 560l84 148h80l-105 -148h-59zM76 0v504h80v-504h-80z" />
    <glyph glyph-name="icircumflex" unicode="&#xee;" horiz-adv-x="231" 
d="M95 708h62l118 -148h-76l-72 91l-73 -91h-76zM76 0v504h80v-504h-80z" />
    <glyph glyph-name="idieresis" unicode="&#xef;" horiz-adv-x="231" 
d="M-29 712h93v-118h-93v118zM166 712h93v-118h-93v118zM76 0v504h80v-504h-80z" />
    <glyph glyph-name="eth" unicode="&#xf0;" horiz-adv-x="589" 
d="M295 -8q-116 0 -185 77t-69 183t69 183t185 77q85 0 136 -49q-25 68 -136 145l-45 -61l-51 35l45 59q-45 25 -87 40l36 55q62 -26 90 -40l41 55l50 -35l-39 -52q109 -70 161.5 -169.5t52.5 -238.5q0 -109 -68.5 -186.5t-185.5 -77.5zM295 64q83 0 126.5 55t43.5 133
t-43.5 133t-126.5 55t-127 -55t-44 -133t44 -133t127 -55z" />
    <glyph glyph-name="ntilde" unicode="&#xf1;" horiz-adv-x="569" 
d="M187 591h-63q5 48 31 76.5t65 28.5q33 0 69 -20.5t52 -20.5q32 0 40 36h62q-5 -49 -30 -77.5t-65 -28.5q-32 0 -69 21t-52 21q-33 0 -40 -36zM70 0v504h80v-97q19 51 63 78t103 27q85 0 136.5 -56t51.5 -148v-308h-80v295q0 65 -34.5 104.5t-91.5 39.5q-65 0 -106.5 -47
t-41.5 -120v-272h-80z" />
    <glyph glyph-name="ograve" unicode="&#xf2;" horiz-adv-x="595" 
d="M353 560h-59l-105 148h80zM297 -8q-112 0 -184 73.5t-72 186.5q0 114 72 187t184 73q113 0 185 -73t72 -187q0 -113 -72.5 -186.5t-184.5 -73.5zM297 64q78 0 126.5 52.5t48.5 135.5t-48.5 135.5t-126.5 52.5q-77 0 -125.5 -52.5t-48.5 -135.5t48.5 -135.5t125.5 -52.5z
" />
    <glyph glyph-name="oacute" unicode="&#xf3;" horiz-adv-x="595" 
d="M266 560l84 148h80l-105 -148h-59zM297 -8q-112 0 -184 73.5t-72 186.5q0 114 72 187t184 73q113 0 185 -73t72 -187q0 -113 -72.5 -186.5t-184.5 -73.5zM297 64q78 0 126.5 52.5t48.5 135.5t-48.5 135.5t-126.5 52.5q-77 0 -125.5 -52.5t-48.5 -135.5t48.5 -135.5
t125.5 -52.5z" />
    <glyph glyph-name="ocircumflex" unicode="&#xf4;" horiz-adv-x="595" 
d="M277 708h62l118 -148h-76l-72 91l-73 -91h-76zM297 -8q-112 0 -184 73.5t-72 186.5q0 114 72 187t184 73q113 0 185 -73t72 -187q0 -113 -72.5 -186.5t-184.5 -73.5zM297 64q78 0 126.5 52.5t48.5 135.5t-48.5 135.5t-126.5 52.5q-77 0 -125.5 -52.5t-48.5 -135.5
t48.5 -135.5t125.5 -52.5z" />
    <glyph glyph-name="otilde" unicode="&#xf5;" horiz-adv-x="595" 
d="M199 591h-63q5 48 31 76.5t65 28.5q33 0 69 -20.5t52 -20.5q32 0 40 36h62q-5 -49 -30 -77.5t-65 -28.5q-32 0 -69 21t-52 21q-33 0 -40 -36zM297 -8q-112 0 -184 73.5t-72 186.5q0 114 72 187t184 73q113 0 185 -73t72 -187q0 -113 -72.5 -186.5t-184.5 -73.5zM297 64
q78 0 126.5 52.5t48.5 135.5t-48.5 135.5t-126.5 52.5q-77 0 -125.5 -52.5t-48.5 -135.5t48.5 -135.5t125.5 -52.5z" />
    <glyph glyph-name="odieresis" unicode="&#xf6;" horiz-adv-x="595" 
d="M153 712h93v-118h-93v118zM348 712h93v-118h-93v118zM297 -8q-112 0 -184 73.5t-72 186.5q0 114 72 187t184 73q113 0 185 -73t72 -187q0 -113 -72.5 -186.5t-184.5 -73.5zM297 64q78 0 126.5 52.5t48.5 135.5t-48.5 135.5t-126.5 52.5q-77 0 -125.5 -52.5t-48.5 -135.5
t48.5 -135.5t125.5 -52.5z" />
    <glyph glyph-name="divide" unicode="&#xf7;" horiz-adv-x="527" 
d="M262 443q-26 0 -42.5 16.5t-16.5 41.5t17 41.5t42 16.5q26 0 43.5 -16.5t17.5 -41.5t-17.5 -41.5t-43.5 -16.5zM37 283v67h454v-67h-454zM262 74q-25 0 -42 16.5t-17 41.5t17 41.5t42 16.5q26 0 43.5 -16.5t17.5 -41.5t-17.5 -41.5t-43.5 -16.5z" />
    <glyph glyph-name="oslash" unicode="&#xf8;" horiz-adv-x="595" 
d="M488 432q66 -72 66 -180q0 -113 -72.5 -186.5t-184.5 -73.5q-82 0 -146 42l-66 -78l-55 40l71 83q-60 71 -60 173q0 114 72 187t184 73q79 0 139 -37l62 73l55 -40zM123 252q0 -64 30 -111l234 276q-40 23 -90 23q-77 0 -125.5 -52.5t-48.5 -135.5zM297 64
q78 0 126.5 52.5t48.5 135.5q0 68 -35 119l-237 -279q42 -28 97 -28z" />
    <glyph glyph-name="ugrave" unicode="&#xf9;" horiz-adv-x="569" 
d="M341 560h-59l-105 148h80zM499 504v-504h-80v97q-19 -51 -63 -78t-103 -27q-85 0 -136.5 56t-51.5 148v308h80v-295q0 -65 34.5 -104.5t91.5 -39.5q65 0 106.5 47t41.5 120v272h80z" />
    <glyph glyph-name="uacute" unicode="&#xfa;" horiz-adv-x="569" 
d="M254 560l84 148h80l-105 -148h-59zM499 504v-504h-80v97q-19 -51 -63 -78t-103 -27q-85 0 -136.5 56t-51.5 148v308h80v-295q0 -65 34.5 -104.5t91.5 -39.5q65 0 106.5 47t41.5 120v272h80z" />
    <glyph glyph-name="ucircumflex" unicode="&#xfb;" horiz-adv-x="569" 
d="M265 708h62l118 -148h-76l-72 91l-73 -91h-76zM499 504v-504h-80v97q-19 -51 -63 -78t-103 -27q-85 0 -136.5 56t-51.5 148v308h80v-295q0 -65 34.5 -104.5t91.5 -39.5q65 0 106.5 47t41.5 120v272h80z" />
    <glyph glyph-name="udieresis" unicode="&#xfc;" horiz-adv-x="569" 
d="M141 712h93v-118h-93v118zM336 712h93v-118h-93v118zM499 504v-504h-80v97q-19 -51 -63 -78t-103 -27q-85 0 -136.5 56t-51.5 148v308h80v-295q0 -65 34.5 -104.5t91.5 -39.5q65 0 106.5 47t41.5 120v272h80z" />
    <glyph glyph-name="yacute" unicode="&#xfd;" horiz-adv-x="480" 
d="M377 708l-105 -148h-59l84 148h80zM466 504l-184 -504l-28 -78q-23 -63 -55 -94.5t-83 -31.5h-96v69h92q22 0 39 15t31 56l19 56l-188 512h83l143 -400l144 400h83z" />
    <glyph glyph-name="thorn" unicode="&#xfe;" horiz-adv-x="601" 
d="M70 -204v911h82v-269q29 33 75 53.5t91 20.5q114 0 178 -73t64 -187t-65 -187t-179 -73q-50 0 -96 19.5t-68 48.5v-264h-82zM310 64q80 0 124 52t44 136q0 83 -44.5 135.5t-123.5 52.5t-123 -52.5t-44 -135.5q0 -84 43.5 -136t123.5 -52z" />
    <glyph glyph-name="ydieresis" unicode="&#xff;" horiz-adv-x="480" 
d="M193 712v-118h-93v118h93zM388 712v-118h-93v118h93zM466 504l-184 -504l-28 -78q-23 -63 -55 -94.5t-83 -31.5h-96v69h92q22 0 39 15t31 56l19 56l-188 512h83l143 -400l144 400h83z" />
    <glyph glyph-name="Amacron" unicode="&#x100;" horiz-adv-x="649" 
d="M457 854v-67h-266v67h266zM553 0l-72 189h-312l-73 -189h-89l279 700h77l279 -700h-89zM198 265h253l-126 330z" />
    <glyph glyph-name="amacron" unicode="&#x101;" horiz-adv-x="516" 
d="M395 658v-67h-266v67h266zM251 512q93 0 154.5 -50.5t61.5 -130.5v-331h-78v87q-20 -43 -67 -69t-106 -26q-76 0 -125 42.5t-49 108.5q0 78 50.5 120t150.5 42h117q29 0 29 26v1q0 51 -39 81.5t-98 30.5q-55 0 -93 -30t-42 -72h-75q7 73 66.5 121.5t142.5 48.5zM228 60
q76 0 118.5 44.5t42.5 122.5v18h-141q-124 0 -124 -101q0 -37 29.5 -60.5t74.5 -23.5z" />
    <glyph glyph-name="Abreve" unicode="&#x102;" horiz-adv-x="649" 
d="M325 780q-50 0 -83 33.5t-33 82.5h60q0 -26 15.5 -43t40.5 -17t41.5 17t16.5 43h60q0 -49 -33.5 -82.5t-84.5 -33.5zM553 0l-72 189h-312l-73 -189h-89l279 700h77l279 -700h-89zM198 265h253l-126 330z" />
    <glyph glyph-name="abreve" unicode="&#x103;" horiz-adv-x="516" 
d="M263 584q-50 0 -83 33.5t-33 82.5h60q0 -26 15.5 -43t40.5 -17t41.5 17t16.5 43h60q0 -49 -33.5 -82.5t-84.5 -33.5zM251 512q93 0 154.5 -50.5t61.5 -130.5v-331h-78v87q-20 -43 -67 -69t-106 -26q-76 0 -125 42.5t-49 108.5q0 78 50.5 120t150.5 42h117q29 0 29 26v1
q0 51 -39 81.5t-98 30.5q-55 0 -93 -30t-42 -72h-75q7 73 66.5 121.5t142.5 48.5zM228 60q76 0 118.5 44.5t42.5 122.5v18h-141q-124 0 -124 -101q0 -37 29.5 -60.5t74.5 -23.5z" />
    <glyph glyph-name="Aogonek" unicode="&#x104;" horiz-adv-x="649" 
d="M662 -86l34 -49q-38 -41 -92 -41q-41 0 -64.5 22t-23.5 59q0 54 62 95h-25l-72 189h-312l-73 -189h-89l279 700h77l279 -700q-32 -28 -46 -45t-14 -34q0 -32 34 -32q23 0 46 25zM198 265h253l-126 330z" />
    <glyph glyph-name="aogonek" unicode="&#x105;" horiz-adv-x="516" 
d="M486 -86l34 -49q-38 -41 -92 -41q-41 0 -64.5 22t-23.5 59q0 54 62 95h-13v87q-20 -43 -67 -69t-106 -26q-76 0 -125 42.5t-49 108.5q0 78 50.5 120t150.5 42h117q29 0 29 26v1q0 51 -39 81.5t-98 30.5q-55 0 -93 -30t-42 -72h-75q7 73 66.5 121.5t142.5 48.5
q93 0 154.5 -50.5t61.5 -130.5v-331h-1q-32 -28 -46 -45t-14 -34q0 -32 34 -32q23 0 46 25zM228 60q76 0 118.5 44.5t42.5 122.5v18h-141q-124 0 -124 -101q0 -37 29.5 -60.5t74.5 -23.5z" />
    <glyph glyph-name="Cacute" unicode="&#x106;" horiz-adv-x="708" 
d="M338 756l84 148h80l-105 -148h-59zM379 -8q-141 0 -239 93.5t-98 264.5q0 88 28 157.5t75.5 112.5t107 65.5t126.5 22.5q116 0 198.5 -63t97.5 -163h-90q-13 68 -69 108.5t-137 40.5q-112 0 -180.5 -74t-68.5 -207t68.5 -207t180.5 -74q83 0 140 41t67 108h88
q-11 -100 -93.5 -163t-201.5 -63z" />
    <glyph glyph-name="cacute" unicode="&#x107;" horiz-adv-x="543" 
d="M254 560l84 148h80l-105 -148h-59zM286 -8q-114 0 -179.5 76.5t-65.5 183.5t65.5 183.5t179.5 76.5q88 0 153 -48t76 -130h-79q-8 46 -50 76t-99 30q-79 0 -121 -53t-42 -135t42.5 -135t120.5 -53q57 0 96 26.5t53 72.5h78q-13 -78 -73 -124.5t-155 -46.5z" />
    <glyph glyph-name="Ccircumflex" unicode="&#x108;" horiz-adv-x="708" 
d="M349 904h62l118 -148h-76l-72 91l-73 -91h-76zM379 -8q-141 0 -239 93.5t-98 264.5q0 88 28 157.5t75.5 112.5t107 65.5t126.5 22.5q116 0 198.5 -63t97.5 -163h-90q-13 68 -69 108.5t-137 40.5q-112 0 -180.5 -74t-68.5 -207t68.5 -207t180.5 -74q83 0 140 41t67 108h88
q-11 -100 -93.5 -163t-201.5 -63z" />
    <glyph glyph-name="ccircumflex" unicode="&#x109;" horiz-adv-x="543" 
d="M265 708h62l118 -148h-76l-72 91l-73 -91h-76zM286 -8q-114 0 -179.5 76.5t-65.5 183.5t65.5 183.5t179.5 76.5q88 0 153 -48t76 -130h-79q-8 46 -50 76t-99 30q-79 0 -121 -53t-42 -135t42.5 -135t120.5 -53q57 0 96 26.5t53 72.5h78q-13 -78 -73 -124.5t-155 -46.5z
" />
    <glyph glyph-name="Cdotaccent" unicode="&#x10a;" horiz-adv-x="708" 
d="M323 908h93v-118h-93v118zM379 -8q-141 0 -239 93.5t-98 264.5q0 88 28 157.5t75.5 112.5t107 65.5t126.5 22.5q116 0 198.5 -63t97.5 -163h-90q-13 68 -69 108.5t-137 40.5q-112 0 -180.5 -74t-68.5 -207t68.5 -207t180.5 -74q83 0 140 41t67 108h88
q-11 -100 -93.5 -163t-201.5 -63z" />
    <glyph glyph-name="cdotaccent" unicode="&#x10b;" horiz-adv-x="543" 
d="M239 712h93v-118h-93v118zM286 -8q-114 0 -179.5 76.5t-65.5 183.5t65.5 183.5t179.5 76.5q88 0 153 -48t76 -130h-79q-8 46 -50 76t-99 30q-79 0 -121 -53t-42 -135t42.5 -135t120.5 -53q57 0 96 26.5t53 72.5h78q-13 -78 -73 -124.5t-155 -46.5z" />
    <glyph glyph-name="Ccaron" unicode="&#x10c;" horiz-adv-x="708" 
d="M337 756l-117 148h76l73 -91l72 91h76l-118 -148h-62zM379 -8q-141 0 -239 93.5t-98 264.5q0 88 28 157.5t75.5 112.5t107 65.5t126.5 22.5q116 0 198.5 -63t97.5 -163h-90q-13 68 -69 108.5t-137 40.5q-112 0 -180.5 -74t-68.5 -207t68.5 -207t180.5 -74q83 0 140 41
t67 108h88q-11 -100 -93.5 -163t-201.5 -63z" />
    <glyph glyph-name="ccaron" unicode="&#x10d;" horiz-adv-x="543" 
d="M253 560l-117 148h76l73 -91l72 91h76l-118 -148h-62zM286 -8q-114 0 -179.5 76.5t-65.5 183.5t65.5 183.5t179.5 76.5q88 0 153 -48t76 -130h-79q-8 46 -50 76t-99 30q-79 0 -121 -53t-42 -135t42.5 -135t120.5 -53q57 0 96 26.5t53 72.5h78q-13 -78 -73 -124.5
t-155 -46.5z" />
    <glyph glyph-name="Dcaron" unicode="&#x10e;" horiz-adv-x="671" 
d="M255 756l-117 148h76l73 -91l72 91h76l-118 -148h-62zM74 0v700h206q152 0 250.5 -93.5t98.5 -256.5t-98.5 -256.5t-250.5 -93.5h-206zM159 77h119q112 0 187 68.5t75 204.5t-75 204.5t-187 68.5h-119v-546z" />
    <glyph glyph-name="dcaron" unicode="&#x10f;" horiz-adv-x="601" 
d="M585 560l33 165h94l-74 -165h-53zM284 -8q-114 0 -178.5 73t-64.5 187t64.5 187t178.5 73q50 0 96.5 -23t70.5 -59v278h80v-708h-80v75q-18 -36 -64.5 -59.5t-102.5 -23.5zM291 64q76 0 121.5 51.5t45.5 136.5t-45.5 136.5t-121.5 51.5t-122 -51.5t-46 -136.5t46 -136.5
t122 -51.5z" />
    <glyph glyph-name="Dcroat" unicode="&#x110;" horiz-adv-x="669" 
d="M280 700q152 0 250.5 -93.5t98.5 -256.5t-98.5 -256.5t-250.5 -93.5h-206v318h-53v64h53v318h206zM278 77q112 0 187 68.5t75 204.5t-75 204.5t-187 68.5h-119v-241h162v-64h-162v-241h119z" />
    <glyph glyph-name="dcroat" unicode="&#x111;" horiz-adv-x="601" 
d="M584 638v-64h-53v-574h-80v75q-18 -36 -64.5 -59.5t-102.5 -23.5q-114 0 -178.5 73t-64.5 187t64.5 187t178.5 73q50 0 96.5 -23t70.5 -59v144h-167v64h167v70h80v-70h53zM291 64q76 0 121.5 51.5t45.5 136.5t-45.5 136.5t-121.5 51.5t-122 -51.5t-46 -136.5t46 -136.5
t122 -51.5z" />
    <glyph glyph-name="Emacron" unicode="&#x112;" horiz-adv-x="566" 
d="M168 787v67h266v-67h-266zM74 0v700h438v-77h-353v-223h287v-77h-287v-246h364v-77h-449z" />
    <glyph glyph-name="emacron" unicode="&#x113;" horiz-adv-x="560" 
d="M411 658v-67h-266v67h266zM440 162h81q-13 -78 -75.5 -124t-155.5 -46q-110 0 -179.5 76.5t-69.5 186.5q0 113 65.5 185t174.5 72q108 0 171.5 -66.5t63.5 -169.5q0 -21 -2 -35h-394q5 -78 52 -128t118 -50q125 0 150 99zM281 444q-64 0 -105 -36t-52 -103h310
q-5 64 -45.5 101.5t-107.5 37.5z" />
    <glyph glyph-name="Ebreve" unicode="&#x114;" horiz-adv-x="566" 
d="M302 780q-50 0 -83 33.5t-33 82.5h60q0 -26 15.5 -43t40.5 -17t41.5 17t16.5 43h60q0 -49 -33.5 -82.5t-84.5 -33.5zM74 0v700h438v-77h-353v-223h287v-77h-287v-246h364v-77h-449z" />
    <glyph glyph-name="ebreve" unicode="&#x115;" horiz-adv-x="560" 
d="M279 584q-50 0 -83 33.5t-33 82.5h60q0 -26 15.5 -43t40.5 -17t41.5 17t16.5 43h60q0 -49 -33.5 -82.5t-84.5 -33.5zM440 162h81q-13 -78 -75.5 -124t-155.5 -46q-110 0 -179.5 76.5t-69.5 186.5q0 113 65.5 185t174.5 72q108 0 171.5 -66.5t63.5 -169.5q0 -21 -2 -35
h-394q5 -78 52 -128t118 -50q125 0 150 99zM281 444q-64 0 -105 -36t-52 -103h310q-5 64 -45.5 101.5t-107.5 37.5z" />
    <glyph glyph-name="Edotaccent" unicode="&#x116;" horiz-adv-x="566" 
d="M256 908h93v-118h-93v118zM74 0v700h438v-77h-353v-223h287v-77h-287v-246h364v-77h-449z" />
    <glyph glyph-name="edotaccent" unicode="&#x117;" horiz-adv-x="560" 
d="M326 712v-118h-93v118h93zM440 162h81q-13 -78 -75.5 -124t-155.5 -46q-110 0 -179.5 76.5t-69.5 186.5q0 113 65.5 185t174.5 72q108 0 171.5 -66.5t63.5 -169.5q0 -21 -2 -35h-394q5 -78 52 -128t118 -50q125 0 150 99zM281 444q-64 0 -105 -36t-52 -103h310
q-5 64 -45.5 101.5t-107.5 37.5z" />
    <glyph glyph-name="Eogonek" unicode="&#x118;" horiz-adv-x="566" 
d="M543 -86l34 -49q-38 -41 -92 -41q-41 0 -64.5 22t-23.5 59q0 54 62 95h-385v700h438v-77h-353v-223h287v-77h-287v-246h364v-77q-32 -28 -46 -45t-14 -34q0 -32 34 -32q23 0 46 25z" />
    <glyph glyph-name="eogonek" unicode="&#x119;" horiz-adv-x="560" 
d="M335 -5q-54 -48 -54 -74q0 -32 34 -32q23 0 46 25l34 -49q-38 -41 -92 -41q-41 0 -64.5 22t-23.5 59q0 48 52 88q-100 9 -163 83.5t-63 178.5q0 113 65.5 185t174.5 72q108 0 171.5 -66.5t63.5 -169.5q0 -21 -2 -35h-394q5 -78 52 -128t118 -50q125 0 150 99h81
q-11 -68 -60.5 -112.5t-125.5 -54.5zM281 444q-64 0 -105 -36t-52 -103h310q-5 64 -45.5 101.5t-107.5 37.5z" />
    <glyph glyph-name="Ecaron" unicode="&#x11a;" horiz-adv-x="566" 
d="M270 756l-117 148h76l73 -91l72 91h76l-118 -148h-62zM74 0v700h438v-77h-353v-223h287v-77h-287v-246h364v-77h-449z" />
    <glyph glyph-name="ecaron" unicode="&#x11b;" horiz-adv-x="560" 
d="M309 560h-62l-117 148h76l73 -91l72 91h76zM440 162h81q-13 -78 -75.5 -124t-155.5 -46q-110 0 -179.5 76.5t-69.5 186.5q0 113 65.5 185t174.5 72q108 0 171.5 -66.5t63.5 -169.5q0 -21 -2 -35h-394q5 -78 52 -128t118 -50q125 0 150 99zM281 444q-64 0 -105 -36
t-52 -103h310q-5 64 -45.5 101.5t-107.5 37.5z" />
    <glyph glyph-name="Gcircumflex" unicode="&#x11c;" horiz-adv-x="730" 
d="M346 904h62l118 -148h-76l-72 91l-73 -91h-76zM378 -8q-139 0 -237.5 94t-98.5 264t99 264t239 94q120 0 204.5 -64.5t96.5 -164.5h-90q-12 67 -71.5 109.5t-140.5 42.5q-111 0 -180.5 -74t-69.5 -207t69.5 -208t180.5 -75q89 0 153 46t64 120q0 24 -15 38.5t-40 14.5
h-158v74h173q44 0 84 -32.5t40 -87.5v-240h-79v122q-25 -58 -85.5 -94t-137.5 -36z" />
    <glyph glyph-name="gcircumflex" unicode="&#x11d;" horiz-adv-x="601" 
d="M308 651l-73 -91h-76l117 148h62l118 -148h-76zM451 504h80v-526q0 -80 -52 -131t-134 -51h-238v69h233q49 0 80 33t31 83v89q-18 -35 -64 -56.5t-103 -21.5q-114 0 -178.5 73t-64.5 187t64.5 187t178.5 73q51 0 97.5 -23t69.5 -59v74zM291 64q76 0 121.5 51.5
t45.5 136.5t-45.5 136.5t-121.5 51.5t-122 -51t-46 -137t46 -137t122 -51z" />
    <glyph glyph-name="Gbreve" unicode="&#x11e;" horiz-adv-x="730" 
d="M366 780q-50 0 -83 33.5t-33 82.5h60q0 -26 15.5 -43t40.5 -17t41.5 17t16.5 43h60q0 -49 -33.5 -82.5t-84.5 -33.5zM378 -8q-139 0 -237.5 94t-98.5 264t99 264t239 94q120 0 204.5 -64.5t96.5 -164.5h-90q-12 67 -71.5 109.5t-140.5 42.5q-111 0 -180.5 -74t-69.5 -207
t69.5 -208t180.5 -75q89 0 153 46t64 120q0 24 -15 38.5t-40 14.5h-158v74h173q44 0 84 -32.5t40 -87.5v-240h-79v122q-25 -58 -85.5 -94t-137.5 -36z" />
    <glyph glyph-name="gbreve" unicode="&#x11f;" horiz-adv-x="601" 
d="M296 584q-50 0 -83 33.5t-33 82.5h60q0 -26 15.5 -43t40.5 -17t41.5 17t16.5 43h60q0 -49 -33.5 -82.5t-84.5 -33.5zM451 504h80v-526q0 -80 -52 -131t-134 -51h-238v69h233q49 0 80 33t31 83v89q-18 -35 -64 -56.5t-103 -21.5q-114 0 -178.5 73t-64.5 187t64.5 187
t178.5 73q51 0 97.5 -23t69.5 -59v74zM291 64q76 0 121.5 51.5t45.5 136.5t-45.5 136.5t-121.5 51.5t-122 -51t-46 -137t46 -137t122 -51z" />
    <glyph glyph-name="Gdotaccent" unicode="&#x120;" horiz-adv-x="730" 
d="M320 908h93v-118h-93v118zM378 -8q-139 0 -237.5 94t-98.5 264t99 264t239 94q120 0 204.5 -64.5t96.5 -164.5h-90q-12 67 -71.5 109.5t-140.5 42.5q-111 0 -180.5 -74t-69.5 -207t69.5 -208t180.5 -75q89 0 153 46t64 120q0 24 -15 38.5t-40 14.5h-158v74h173
q44 0 84 -32.5t40 -87.5v-240h-79v122q-25 -58 -85.5 -94t-137.5 -36z" />
    <glyph glyph-name="gdotaccent" unicode="&#x121;" horiz-adv-x="601" 
d="M343 712v-118h-93v118h93zM451 504h80v-526q0 -80 -52 -131t-134 -51h-238v69h233q49 0 80 33t31 83v89q-18 -35 -64 -56.5t-103 -21.5q-114 0 -178.5 73t-64.5 187t64.5 187t178.5 73q51 0 97.5 -23t69.5 -59v74zM291 64q76 0 121.5 51.5t45.5 136.5t-45.5 136.5
t-121.5 51.5t-122 -51t-46 -137t46 -137t122 -51z" />
    <glyph glyph-name="uni0122" unicode="&#x122;" horiz-adv-x="730" 
d="M378 -8q-139 0 -237.5 94t-98.5 264t99 264t239 94q120 0 204.5 -64.5t96.5 -164.5h-90q-12 67 -71.5 109.5t-140.5 42.5q-111 0 -180.5 -74t-69.5 -207t69.5 -208t180.5 -75q89 0 153 46t64 120q0 24 -15 38.5t-40 14.5h-158v74h173q44 0 84 -32.5t40 -87.5v-240h-79
v122q-25 -58 -85.5 -94t-137.5 -36zM345 -205h-96l109 146h68z" />
    <glyph glyph-name="uni0123" unicode="&#x123;" horiz-adv-x="601" 
d="M352 560h-59l-105 148h80zM451 504h80v-526q0 -80 -52 -131t-134 -51h-238v69h233q49 0 80 33t31 83v89q-18 -35 -64 -56.5t-103 -21.5q-114 0 -178.5 73t-64.5 187t64.5 187t178.5 73q51 0 97.5 -23t69.5 -59v74zM291 64q76 0 121.5 51.5t45.5 136.5t-45.5 136.5
t-121.5 51.5t-122 -51t-46 -137t46 -137t122 -51z" />
    <glyph glyph-name="Hcircumflex" unicode="&#x124;" horiz-adv-x="688" 
d="M356 847l-73 -91h-76l117 148h62l118 -148h-76zM530 700h84v-700h-84v323h-371v-323h-85v700h85v-300h371v300z" />
    <glyph glyph-name="hcircumflex" unicode="&#x125;" horiz-adv-x="577" 
d="M89 904h62l118 -148h-76l-72 91l-73 -91h-76zM70 0v708h80v-301q19 51 63 78t103 27q85 0 136.5 -56t51.5 -148v-308h-80v295q0 65 -34.5 104.5t-91.5 39.5q-65 0 -106.5 -47t-41.5 -120v-272h-80z" />
    <glyph glyph-name="Hbar" unicode="&#x126;" horiz-adv-x="688" 
d="M684 594v-69h-70v-525h-84v323h-371v-323h-85v525h-70v69h70v106h85v-106h371v106h84v-106h70zM530 400v125h-371v-125h371z" />
    <glyph glyph-name="hbar" unicode="&#x127;" horiz-adv-x="559" 
d="M308 512q85 0 136.5 -56t51.5 -148v-308h-80v295q0 65 -34.5 104.5t-91.5 39.5q-65 0 -106.5 -47t-41.5 -120v-272h-80v574h-75v64h75v70h80v-70h145v-64h-145v-167q19 51 63 78t103 27z" />
    <glyph glyph-name="Itilde" unicode="&#x128;" horiz-adv-x="233" 
d="M18 787h-63q5 48 31 76.5t65 28.5q33 0 69 -20.5t52 -20.5q32 0 40 36h62q-5 -49 -30 -77.5t-65 -28.5q-32 0 -69 21t-52 21q-33 0 -40 -36zM74 0v700h85v-700h-85z" />
    <glyph glyph-name="itilde" unicode="&#x129;" horiz-adv-x="231" 
d="M17 591h-63q5 48 31 76.5t65 28.5q33 0 69 -20.5t52 -20.5q32 0 40 36h62q-5 -49 -30 -77.5t-65 -28.5q-32 0 -69 21t-52 21q-33 0 -40 -36zM76 0v504h80v-504h-80z" />
    <glyph glyph-name="Imacron" unicode="&#x12a;" horiz-adv-x="233" 
d="M-18 787v67h266v-67h-266zM74 0v700h85v-700h-85z" />
    <glyph glyph-name="imacron" unicode="&#x12b;" horiz-adv-x="231" 
d="M-19 591v67h266v-67h-266zM76 0v504h80v-504h-80z" />
    <glyph glyph-name="Ibreve" unicode="&#x12c;" horiz-adv-x="233" 
d="M116 780q-50 0 -83 33.5t-33 82.5h60q0 -26 15.5 -43t40.5 -17t41.5 17t16.5 43h60q0 -49 -33.5 -82.5t-84.5 -33.5zM74 0v700h85v-700h-85z" />
    <glyph glyph-name="ibreve" unicode="&#x12d;" horiz-adv-x="231" 
d="M115 584q-50 0 -83 33.5t-33 82.5h60q0 -26 15.5 -43t40.5 -17t41.5 17t16.5 43h60q0 -49 -33.5 -82.5t-84.5 -33.5zM76 0v504h80v-504h-80z" />
    <glyph glyph-name="Iogonek" unicode="&#x12e;" horiz-adv-x="233" 
d="M179 -86l34 -49q-38 -41 -92 -41q-41 0 -64.5 22t-23.5 59q0 54 62 95h-21v700h85v-700q-32 -28 -46 -45t-14 -34q0 -32 34 -32q23 0 46 25z" />
    <glyph glyph-name="iogonek" unicode="&#x12f;" horiz-adv-x="231" 
d="M162 712v-118h-93v118h93zM176 -86l34 -49q-38 -41 -92 -41q-41 0 -64.5 22t-23.5 59q0 54 62 95h-16v504h80v-504q-32 -28 -46 -45t-14 -34q0 -32 34 -32q23 0 46 25z" />
    <glyph glyph-name="Idotaccent" unicode="&#x130;" horiz-adv-x="233" 
d="M70 908h93v-118h-93v118zM74 0v700h85v-700h-85z" />
    <glyph glyph-name="dotlessi" unicode="&#x131;" horiz-adv-x="231" 
d="M76 0v504h80v-504h-80z" />
    <glyph glyph-name="IJ" unicode="&#x132;" horiz-adv-x="552" 
d="M74 0v700h85v-700h-85zM251 77h87q67 0 67 102v521h84v-523q0 -87 -37 -132t-108 -45h-93v77z" />
    <glyph glyph-name="ij" unicode="&#x133;" 
 />
    <glyph glyph-name="Jcircumflex" unicode="&#x134;" horiz-adv-x="319" 
d="M194 904h62l118 -148h-76l-72 91l-73 -91h-76zM18 77h87q67 0 67 102v521h84v-523q0 -87 -37 -132t-108 -45h-93v77z" />
    <glyph glyph-name="jcircumflex" unicode="&#x135;" horiz-adv-x="233" 
d="M157 708l118 -148h-76l-72 91l-73 -91h-76l117 148h62zM77 504h79v-543q0 -83 -32.5 -124t-111.5 -41h-47v69h42q45 0 57.5 21.5t12.5 77.5v540z" />
    <glyph glyph-name="uni0136" unicode="&#x136;" horiz-adv-x="635" 
d="M321 418l303 -418h-103l-258 358l-103 -106v-252h-86v700h86v-333l325 333h108zM181 -205l109 146h68l-81 -146h-96z" />
    <glyph glyph-name="uni0137" unicode="&#x137;" horiz-adv-x="525" 
d="M278 307l236 -307h-101l-196 252l-66 -60v-192h-81v708h81v-415l241 211h102zM129 -205l109 146h68l-81 -146h-96z" />
    <glyph glyph-name="kgreenlandic" unicode="&#x138;" 
 />
    <glyph glyph-name="Lacute" unicode="&#x139;" horiz-adv-x="523" 
d="M105 756l84 148h80l-105 -148h-59zM74 0v700h85v-623h350v-77h-435z" />
    <glyph glyph-name="lacute" unicode="&#x13a;" horiz-adv-x="220" 
d="M76 756l84 148h80l-105 -148h-59zM70 0v708h80v-708h-80z" />
    <glyph glyph-name="uni013B" unicode="&#x13b;" horiz-adv-x="533" 
d="M63 0v700h85v-623h350v-77h-435zM279 -205h-96l109 146h68z" />
    <glyph glyph-name="uni013C" unicode="&#x13c;" horiz-adv-x="220" 
d="M70 0v708h80v-708h-80zM86 -205h-96l109 146h68z" />
    <glyph glyph-name="Lcaron" unicode="&#x13d;" horiz-adv-x="523" 
d="M299 560l33 165h94l-74 -165h-53zM74 0v700h85v-623h350v-77h-435z" />
    <glyph glyph-name="lcaron" unicode="&#x13e;" horiz-adv-x="294" 
d="M181 560l33 165h94l-74 -165h-53zM60 0v708h80v-708h-80z" />
    <glyph glyph-name="Ldot" unicode="&#x13f;" horiz-adv-x="523" 
d="M74 0v700h85v-623h350v-77h-435zM318 412h93v-118h-93v118z" />
    <glyph glyph-name="ldot" unicode="&#x140;" horiz-adv-x="321" 
d="M60 0v708h80v-708h-80zM189 403h93v-118h-93v118z" />
    <glyph glyph-name="Lslash" unicode="&#x141;" horiz-adv-x="523" 
d="M159 77h350v-77h-435v256l-61 -29l-29 64l90 42v367h85v-327l175 81l30 -63l-205 -96v-218z" />
    <glyph glyph-name="lslash" unicode="&#x142;" horiz-adv-x="208" 
d="M255 411l-105 -55v-356h-80v314l-89 -47l-29 52l118 62v327h80v-284l76 40z" />
    <glyph glyph-name="Nacute" unicode="&#x143;" horiz-adv-x="686" 
d="M313 756l84 148h80l-105 -148h-59zM74 0v700h95l361 -565v565h83v-700h-96l-360 564v-564h-83z" />
    <glyph glyph-name="nacute" unicode="&#x144;" horiz-adv-x="569" 
d="M254 560l84 148h80l-105 -148h-59zM70 0v504h80v-97q19 51 63 78t103 27q85 0 136.5 -56t51.5 -148v-308h-80v295q0 65 -34.5 104.5t-91.5 39.5q-65 0 -106.5 -47t-41.5 -120v-272h-80z" />
    <glyph glyph-name="uni0145" unicode="&#x145;" horiz-adv-x="659" 
d="M63 0v700h95l361 -565v565h83v-700h-96l-360 564v-564h-83zM337 -205h-96l109 146h68z" />
    <glyph glyph-name="uni0146" unicode="&#x146;" horiz-adv-x="569" 
d="M70 0v504h80v-97q19 51 63 78t103 27q85 0 136.5 -56t51.5 -148v-308h-80v295q0 65 -34.5 104.5t-91.5 39.5q-65 0 -106.5 -47t-41.5 -120v-272h-80zM264 -205h-96l109 146h68z" />
    <glyph glyph-name="Ncaron" unicode="&#x147;" horiz-adv-x="686" 
d="M312 756l-117 148h76l73 -91l72 91h76l-118 -148h-62zM74 0v700h95l361 -565v565h83v-700h-96l-360 564v-564h-83z" />
    <glyph glyph-name="ncaron" unicode="&#x148;" horiz-adv-x="569" 
d="M253 560l-117 148h76l73 -91l72 91h76l-118 -148h-62zM70 0v504h80v-97q19 51 63 78t103 27q85 0 136.5 -56t51.5 -148v-308h-80v295q0 65 -34.5 104.5t-91.5 39.5q-65 0 -106.5 -47t-41.5 -120v-272h-80z" />
    <glyph glyph-name="Eng" unicode="&#x14a;" horiz-adv-x="688" 
d="M530 700h85v-753q0 -73 -46 -117.5t-120 -37.5v74q43 -4 62.5 20t19.5 74v27l-373 577v-564h-84v700h96l360 -565v565z" />
    <glyph glyph-name="eng" unicode="&#x14b;" horiz-adv-x="569" 
d="M316 512q85 0 136.5 -56t51.5 -148v-361q0 -73 -46 -117.5t-120 -37.5v74q44 -4 65 20t21 74v335q0 65 -34.5 104.5t-91.5 39.5q-65 0 -106.5 -47t-41.5 -120v-272h-80v504h80v-97q19 51 63 78t103 27z" />
    <glyph glyph-name="Omacron" unicode="&#x14c;" horiz-adv-x="770" 
d="M251 787v67h266v-67h-266zM385 -8q-148 0 -245.5 102t-97.5 256t97.5 256t245.5 102t246 -102t98 -256t-98 -256t-246 -102zM385 69q110 0 183 80t73 201t-73 201t-183 80t-182.5 -80t-72.5 -201t72.5 -201t182.5 -80z" />
    <glyph glyph-name="omacron" unicode="&#x14d;" horiz-adv-x="595" 
d="M163 591v67h266v-67h-266zM297 -8q-112 0 -184 73.5t-72 186.5q0 114 72 187t184 73q113 0 185 -73t72 -187q0 -113 -72.5 -186.5t-184.5 -73.5zM297 64q78 0 126.5 52.5t48.5 135.5t-48.5 135.5t-126.5 52.5q-77 0 -125.5 -52.5t-48.5 -135.5t48.5 -135.5t125.5 -52.5z
" />
    <glyph glyph-name="Obreve" unicode="&#x14e;" horiz-adv-x="770" 
d="M385 780q-50 0 -83 33.5t-33 82.5h60q0 -26 15.5 -43t40.5 -17t41.5 17t16.5 43h60q0 -49 -33.5 -82.5t-84.5 -33.5zM385 -8q-148 0 -245.5 102t-97.5 256t97.5 256t245.5 102t246 -102t98 -256t-98 -256t-246 -102zM385 69q110 0 183 80t73 201t-73 201t-183 80
t-182.5 -80t-72.5 -201t72.5 -201t182.5 -80z" />
    <glyph glyph-name="obreve" unicode="&#x14f;" horiz-adv-x="595" 
d="M297 584q-50 0 -83 33.5t-33 82.5h60q0 -26 15.5 -43t40.5 -17t41.5 17t16.5 43h60q0 -49 -33.5 -82.5t-84.5 -33.5zM297 -8q-112 0 -184 73.5t-72 186.5q0 114 72 187t184 73q113 0 185 -73t72 -187q0 -113 -72.5 -186.5t-184.5 -73.5zM297 64q78 0 126.5 52.5
t48.5 135.5t-48.5 135.5t-126.5 52.5q-77 0 -125.5 -52.5t-48.5 -135.5t48.5 -135.5t125.5 -52.5z" />
    <glyph glyph-name="Ohungarumlaut" unicode="&#x150;" horiz-adv-x="770" 
d="M284 756l84 148h80l-105 -148h-59zM419 756l84 148h80l-105 -148h-59zM385 -8q-148 0 -245.5 102t-97.5 256t97.5 256t245.5 102t246 -102t98 -256t-98 -256t-246 -102zM385 69q110 0 183 80t73 201t-73 201t-183 80t-182.5 -80t-72.5 -201t72.5 -201t182.5 -80z" />
    <glyph glyph-name="ohungarumlaut" unicode="&#x151;" horiz-adv-x="595" 
d="M196 560l84 148h80l-105 -148h-59zM331 560l84 148h80l-105 -148h-59zM297 -8q-112 0 -184 73.5t-72 186.5q0 114 72 187t184 73q113 0 185 -73t72 -187q0 -113 -72.5 -186.5t-184.5 -73.5zM297 64q78 0 126.5 52.5t48.5 135.5t-48.5 135.5t-126.5 52.5
q-77 0 -125.5 -52.5t-48.5 -135.5t48.5 -135.5t125.5 -52.5z" />
    <glyph glyph-name="OE" unicode="&#x152;" horiz-adv-x="1123" 
d="M379 -8q-140 0 -238.5 97.5t-98.5 260.5t98.5 260.5t238.5 97.5q74 0 140 -30t112 -85v107h438v-77h-353v-211h287v-77h-287v-258h363v-77h-448v107q-46 -55 -112 -85t-140 -30zM379 69q108 0 178.5 73t70.5 208t-70.5 208t-178.5 73t-178.5 -73t-70.5 -208t70.5 -208
t178.5 -73z" />
    <glyph glyph-name="oe" unicode="&#x153;" horiz-adv-x="1000" 
d="M881 162h81q-13 -78 -75.5 -124t-155.5 -46q-70 0 -125.5 33t-87.5 89q-33 -57 -90.5 -89.5t-130.5 -32.5q-112 0 -184 73.5t-72 186.5q0 114 72 187t184 73q71 0 128.5 -30.5t90.5 -85.5q30 54 83 85t123 31q108 0 171.5 -66.5t63.5 -169.5q0 -21 -2 -35h-394
q5 -78 52 -128t118 -50q125 0 150 99zM722 444q-64 0 -105 -36t-52 -103h310q-5 64 -45.5 101.5t-107.5 37.5zM297 64q78 0 126.5 52.5t48.5 135.5t-48.5 135.5t-126.5 52.5q-77 0 -125.5 -52.5t-48.5 -135.5t48.5 -135.5t125.5 -52.5z" />
    <glyph glyph-name="Racute" unicode="&#x154;" horiz-adv-x="646" 
d="M427 904l-105 -148h-59l84 148h80zM452 332q85 -46 93 -158l12 -174h-82l-12 169q-3 52 -34 84t-80 32h-190v-285h-85v700h265q103 0 163 -56.5t60 -148.5q0 -111 -110 -163zM159 624v-262h180q69 0 102 38t33 95t-33 93t-102 36h-180z" />
    <glyph glyph-name="racute" unicode="&#x155;" horiz-adv-x="370" 
d="M182 560l84 148h80l-105 -148h-59zM351 433h-78q-71 0 -97 -51.5t-26 -151.5v-230h-80v504h80v-105q17 56 46.5 84.5t82.5 28.5h72v-79z" />
    <glyph glyph-name="uni0156" unicode="&#x156;" horiz-adv-x="616" 
d="M441 332q85 -46 93 -158l12 -174h-82l-12 169q-3 52 -34 84t-80 32h-190v-285h-85v700h265q103 0 163 -56.5t60 -148.5q0 -111 -110 -163zM148 624v-262h180q69 0 102 38t33 95t-33 93t-102 36h-180zM183 -205l109 146h68l-81 -146h-96z" />
    <glyph glyph-name="uni0157" unicode="&#x157;" horiz-adv-x="370" 
d="M351 433h-78q-71 0 -97 -51.5t-26 -151.5v-230h-80v504h80v-105q17 56 46.5 84.5t82.5 28.5h72v-79zM88 -205h-96l109 146h68z" />
    <glyph glyph-name="Rcaron" unicode="&#x158;" horiz-adv-x="646" 
d="M324 756h-62l-117 148h76l73 -91l72 91h76zM452 332q85 -46 93 -158l12 -174h-82l-12 169q-3 52 -34 84t-80 32h-190v-285h-85v700h265q103 0 163 -56.5t60 -148.5q0 -111 -110 -163zM159 624v-262h180q69 0 102 38t33 95t-33 93t-102 36h-180z" />
    <glyph glyph-name="rcaron" unicode="&#x159;" horiz-adv-x="370" 
d="M181 560l-117 148h76l73 -91l72 91h76l-118 -148h-62zM351 433h-78q-71 0 -97 -51.5t-26 -151.5v-230h-80v504h80v-105q17 56 46.5 84.5t82.5 28.5h72v-79z" />
    <glyph glyph-name="Sacute" unicode="&#x15a;" horiz-adv-x="594" 
d="M262 756l84 148h80l-105 -148h-59zM301 -8q-117 0 -188 64.5t-78 172.5h82q7 -74 55 -117t129 -43q76 0 121.5 30.5t45.5 91.5q0 42 -30.5 70t-75.5 40.5t-98.5 29t-98.5 34.5t-75.5 58t-30.5 99q0 83 66 134.5t171 51.5t172.5 -56.5t74.5 -150.5h-80q-6 59 -51.5 94.5
t-115.5 35.5q-71 0 -111 -29t-40 -80q0 -36 22.5 -60.5t59 -38t80.5 -24t88 -24.5t80.5 -34.5t59 -58.5t22.5 -91q0 -93 -71.5 -146t-184.5 -53z" />
    <glyph glyph-name="sacute" unicode="&#x15b;" horiz-adv-x="474" 
d="M201 560l84 148h80l-105 -148h-59zM243 -8q-87 0 -140.5 45t-59.5 124h76q11 -100 124 -100q48 0 77.5 22.5t29.5 54.5q0 35 -22 54.5t-54.5 24t-70.5 12.5t-70.5 18t-54.5 42t-22 84q0 62 49 100.5t129 38.5q82 0 134 -42t57 -112h-76q-5 44 -40.5 65.5t-76.5 21.5
q-44 0 -71.5 -20t-27.5 -52t22 -49.5t55 -21t71 -11.5t71 -19t55 -44.5t22 -87.5q0 -67 -51 -107.5t-135 -40.5z" />
    <glyph glyph-name="Scircumflex" unicode="&#x15c;" horiz-adv-x="594" 
d="M273 904h62l118 -148h-76l-72 91l-73 -91h-76zM301 -8q-117 0 -188 64.5t-78 172.5h82q7 -74 55 -117t129 -43q76 0 121.5 30.5t45.5 91.5q0 42 -30.5 70t-75.5 40.5t-98.5 29t-98.5 34.5t-75.5 58t-30.5 99q0 83 66 134.5t171 51.5t172.5 -56.5t74.5 -150.5h-80
q-6 59 -51.5 94.5t-115.5 35.5q-71 0 -111 -29t-40 -80q0 -36 22.5 -60.5t59 -38t80.5 -24t88 -24.5t80.5 -34.5t59 -58.5t22.5 -91q0 -93 -71.5 -146t-184.5 -53z" />
    <glyph glyph-name="scircumflex" unicode="&#x15d;" horiz-adv-x="474" 
d="M212 708h62l118 -148h-76l-72 91l-73 -91h-76zM243 -8q-87 0 -140.5 45t-59.5 124h76q11 -100 124 -100q48 0 77.5 22.5t29.5 54.5q0 35 -22 54.5t-54.5 24t-70.5 12.5t-70.5 18t-54.5 42t-22 84q0 62 49 100.5t129 38.5q82 0 134 -42t57 -112h-76q-5 44 -40.5 65.5
t-76.5 21.5q-44 0 -71.5 -20t-27.5 -52t22 -49.5t55 -21t71 -11.5t71 -19t55 -44.5t22 -87.5q0 -67 -51 -107.5t-135 -40.5z" />
    <glyph glyph-name="Scedilla" unicode="&#x15e;" horiz-adv-x="594" 
d="M301 -8q-117 0 -188 64.5t-78 172.5h82q7 -74 55 -117t129 -43q76 0 121.5 30.5t45.5 91.5q0 42 -30.5 70t-75.5 40.5t-98.5 29t-98.5 34.5t-75.5 58t-30.5 99q0 83 66 134.5t171 51.5t172.5 -56.5t74.5 -150.5h-80q-6 59 -51.5 94.5t-115.5 35.5q-71 0 -111 -29t-40 -80
q0 -36 22.5 -60.5t59 -38t80.5 -24t88 -24.5t80.5 -34.5t59 -58.5t22.5 -91q0 -93 -71.5 -146t-184.5 -53zM272 -205h-96l109 146h68z" />
    <glyph glyph-name="scedilla" unicode="&#x15f;" horiz-adv-x="474" 
d="M243 -8q-87 0 -140.5 45t-59.5 124h76q11 -100 124 -100q48 0 77.5 22.5t29.5 54.5q0 35 -22 54.5t-54.5 24t-70.5 12.5t-70.5 18t-54.5 42t-22 84q0 62 49 100.5t129 38.5q82 0 134 -42t57 -112h-76q-5 44 -40.5 65.5t-76.5 21.5q-44 0 -71.5 -20t-27.5 -52t22 -49.5
t55 -21t71 -11.5t71 -19t55 -44.5t22 -87.5q0 -67 -51 -107.5t-135 -40.5zM211 -205h-96l109 146h68z" />
    <glyph glyph-name="Scaron" unicode="&#x160;" horiz-adv-x="594" 
d="M261 756l-117 148h76l73 -91l72 91h76l-118 -148h-62zM301 -8q-117 0 -188 64.5t-78 172.5h82q7 -74 55 -117t129 -43q76 0 121.5 30.5t45.5 91.5q0 42 -30.5 70t-75.5 40.5t-98.5 29t-98.5 34.5t-75.5 58t-30.5 99q0 83 66 134.5t171 51.5t172.5 -56.5t74.5 -150.5h-80
q-6 59 -51.5 94.5t-115.5 35.5q-71 0 -111 -29t-40 -80q0 -36 22.5 -60.5t59 -38t80.5 -24t88 -24.5t80.5 -34.5t59 -58.5t22.5 -91q0 -93 -71.5 -146t-184.5 -53z" />
    <glyph glyph-name="scaron" unicode="&#x161;" horiz-adv-x="474" 
d="M200 560l-117 148h76l73 -91l72 91h76l-118 -148h-62zM243 -8q-87 0 -140.5 45t-59.5 124h76q11 -100 124 -100q48 0 77.5 22.5t29.5 54.5q0 35 -22 54.5t-54.5 24t-70.5 12.5t-70.5 18t-54.5 42t-22 84q0 62 49 100.5t129 38.5q82 0 134 -42t57 -112h-76
q-5 44 -40.5 65.5t-76.5 21.5q-44 0 -71.5 -20t-27.5 -52t22 -49.5t55 -21t71 -11.5t71 -19t55 -44.5t22 -87.5q0 -67 -51 -107.5t-135 -40.5z" />
    <glyph glyph-name="uni0162" unicode="&#x162;" horiz-adv-x="557" 
d="M236 0v623h-224v77h533v-77h-223v-623h-86zM258 -205h-96l109 146h68z" />
    <glyph glyph-name="uni0163" unicode="&#x163;" horiz-adv-x="408" 
d="M121 665h80v-161h155v-71h-155v-271q0 -42 21.5 -65.5t59.5 -23.5h74v-73h-77q-72 0 -115 42.5t-43 115.5v275h-105v71h105v161zM180 -205h-96l109 146h68z" />
    <glyph glyph-name="Tcaron" unicode="&#x164;" horiz-adv-x="557" 
d="M247 756l-117 148h76l73 -91l72 91h76l-118 -148h-62zM236 0v623h-224v77h533v-77h-223v-623h-86z" />
    <glyph glyph-name="tcaron" unicode="&#x165;" horiz-adv-x="408" 
d="M278 560l33 165h94l-74 -165h-53zM121 665h80v-161h155v-71h-155v-271q0 -42 21.5 -65.5t59.5 -23.5h74v-73h-77q-72 0 -115 42.5t-43 115.5v275h-105v71h105v161z" />
    <glyph glyph-name="Tbar" unicode="&#x166;" horiz-adv-x="529" 
d="M541 623h-223v-158h194v-70h-194v-395h-86v395h-186v70h186v158h-224v77h533v-77z" />
    <glyph glyph-name="tbar" unicode="&#x167;" horiz-adv-x="363" 
d="M356 433h-155v-111h118v-64h-118v-96q0 -42 21.5 -65.5t59.5 -23.5h74v-73h-77q-72 0 -115 42.5t-43 115.5v100h-102v64h102v111h-105v71h105v161h80v-161h155v-71z" />
    <glyph glyph-name="Utilde" unicode="&#x168;" horiz-adv-x="652" 
d="M228 787h-63q5 48 31 76.5t65 28.5q33 0 69 -20.5t52 -20.5q32 0 40 36h62q-5 -49 -30 -77.5t-65 -28.5q-32 0 -69 21t-52 21q-33 0 -40 -36zM326 -8q-120 0 -192 67t-72 181v460h84v-464q0 -77 49 -122t131 -45t131.5 45t49.5 122v464h83v-460q0 -114 -72 -181t-192 -67
z" />
    <glyph glyph-name="utilde" unicode="&#x169;" horiz-adv-x="569" 
d="M187 591h-63q5 48 31 76.5t65 28.5q33 0 69 -20.5t52 -20.5q32 0 40 36h62q-5 -49 -30 -77.5t-65 -28.5q-32 0 -69 21t-52 21q-33 0 -40 -36zM499 504v-504h-80v97q-19 -51 -63 -78t-103 -27q-85 0 -136.5 56t-51.5 148v308h80v-295q0 -65 34.5 -104.5t91.5 -39.5
q65 0 106.5 47t41.5 120v272h80z" />
    <glyph glyph-name="Umacron" unicode="&#x16a;" horiz-adv-x="652" 
d="M192 787v67h266v-67h-266zM326 -8q-120 0 -192 67t-72 181v460h84v-464q0 -77 49 -122t131 -45t131.5 45t49.5 122v464h83v-460q0 -114 -72 -181t-192 -67z" />
    <glyph glyph-name="umacron" unicode="&#x16b;" horiz-adv-x="569" 
d="M151 591v67h266v-67h-266zM499 504v-504h-80v97q-19 -51 -63 -78t-103 -27q-85 0 -136.5 56t-51.5 148v308h80v-295q0 -65 34.5 -104.5t91.5 -39.5q65 0 106.5 47t41.5 120v272h80z" />
    <glyph glyph-name="Ubreve" unicode="&#x16c;" horiz-adv-x="652" 
d="M326 780q-50 0 -83 33.5t-33 82.5h60q0 -26 15.5 -43t40.5 -17t41.5 17t16.5 43h60q0 -49 -33.5 -82.5t-84.5 -33.5zM326 -8q-120 0 -192 67t-72 181v460h84v-464q0 -77 49 -122t131 -45t131.5 45t49.5 122v464h83v-460q0 -114 -72 -181t-192 -67z" />
    <glyph glyph-name="ubreve" unicode="&#x16d;" horiz-adv-x="569" 
d="M285 584q-50 0 -83 33.5t-33 82.5h60q0 -26 15.5 -43t40.5 -17t41.5 17t16.5 43h60q0 -49 -33.5 -82.5t-84.5 -33.5zM499 504v-504h-80v97q-19 -51 -63 -78t-103 -27q-85 0 -136.5 56t-51.5 148v308h80v-295q0 -65 34.5 -104.5t91.5 -39.5q65 0 106.5 47t41.5 120v272h80
z" />
    <glyph glyph-name="Uring" unicode="&#x16e;" horiz-adv-x="652" 
d="M431 828q-12 -42 -49.5 -62.5t-82.5 -10.5q-45 11 -67.5 46t-10.5 78q12 42 50 62.5t83 9.5q45 -10 67 -45.5t10 -77.5zM265 845q4 -26 24 -40.5t46 -10.5q27 5 41.5 23.5t10.5 44.5t-24 40t-47 10q-26 -4 -40.5 -23t-10.5 -44zM326 -8q-120 0 -192 67t-72 181v460h84
v-464q0 -77 49 -122t131 -45t131.5 45t49.5 122v464h83v-460q0 -114 -72 -181t-192 -67z" />
    <glyph glyph-name="uring" unicode="&#x16f;" horiz-adv-x="569" 
d="M390 632q-12 -42 -49.5 -62.5t-82.5 -10.5q-45 11 -67.5 46t-10.5 78q12 42 50 62.5t83 9.5q45 -10 67 -45.5t10 -77.5zM224 649q4 -26 24 -40.5t46 -10.5q27 5 41.5 23.5t10.5 44.5t-24 40t-47 10q-26 -4 -40.5 -23t-10.5 -44zM499 504v-504h-80v97q-19 -51 -63 -78
t-103 -27q-85 0 -136.5 56t-51.5 148v308h80v-295q0 -65 34.5 -104.5t91.5 -39.5q65 0 106.5 47t41.5 120v272h80z" />
    <glyph glyph-name="Uhungarumlaut" unicode="&#x170;" horiz-adv-x="652" 
d="M225 756l84 148h80l-105 -148h-59zM360 756l84 148h80l-105 -148h-59zM326 -8q-120 0 -192 67t-72 181v460h84v-464q0 -77 49 -122t131 -45t131.5 45t49.5 122v464h83v-460q0 -114 -72 -181t-192 -67z" />
    <glyph glyph-name="uhungarumlaut" unicode="&#x171;" horiz-adv-x="569" 
d="M184 560l84 148h80l-105 -148h-59zM319 560l84 148h80l-105 -148h-59zM499 504v-504h-80v97q-19 -51 -63 -78t-103 -27q-85 0 -136.5 56t-51.5 148v308h80v-295q0 -65 34.5 -104.5t91.5 -39.5q65 0 106.5 47t41.5 120v272h80z" />
    <glyph glyph-name="Uogonek" unicode="&#x172;" horiz-adv-x="652" 
d="M507 700h83v-460q0 -106 -62 -171.5t-167 -74.5q-53 -47 -53 -73q0 -32 34 -32q23 0 46 25l34 -49q-38 -41 -92 -41q-41 0 -64.5 22t-23.5 59q0 50 52 88q-107 9 -169.5 75t-62.5 172v460h84v-464q0 -77 49 -122t131 -45t131.5 45t49.5 122v464z" />
    <glyph glyph-name="uogonek" unicode="&#x173;" horiz-adv-x="569" 
d="M519 -86l34 -49q-38 -41 -92 -41q-41 0 -64.5 22t-23.5 59q0 54 62 95h-16v97q-19 -51 -63 -78t-103 -27q-85 0 -136.5 56t-51.5 148v308h80v-295q0 -65 34.5 -104.5t91.5 -39.5q65 0 106.5 47t41.5 120v272h80v-504q-32 -28 -46 -45t-14 -34q0 -32 34 -32q23 0 46 25z
" />
    <glyph glyph-name="Wcircumflex" unicode="&#x174;" horiz-adv-x="996" 
d="M479 904h62l118 -148h-76l-72 91l-73 -91h-76zM239 0l-217 700h89l172 -571l177 571h76l176 -571l174 571h87l-214 -700h-88l-173 569l-174 -569h-85z" />
    <glyph glyph-name="wcircumflex" unicode="&#x175;" horiz-adv-x="761" 
d="M360 708h62l118 -148h-76l-72 91l-73 -91h-76zM192 0l-165 504h83l121 -392l111 392h77l110 -392l122 392h83l-165 -504h-79l-110 390l-110 -390h-78z" />
    <glyph glyph-name="Ycircumflex" unicode="&#x176;" horiz-adv-x="590" 
d="M275 904h62l118 -148h-76l-72 91l-73 -91h-76zM252 0v293l-248 407h97l194 -325l193 325h97l-248 -407v-293h-85z" />
    <glyph glyph-name="ycircumflex" unicode="&#x177;" horiz-adv-x="480" 
d="M256 651l-73 -91h-76l117 148h62l118 -148h-76zM466 504l-184 -504l-28 -78q-23 -63 -55 -94.5t-83 -31.5h-96v69h92q22 0 39 15t31 56l19 56l-188 512h83l143 -400l144 400h83z" />
    <glyph glyph-name="Ydieresis" unicode="&#x178;" horiz-adv-x="590" 
d="M151 908h93v-118h-93v118zM346 908h93v-118h-93v118zM252 0v293l-248 407h97l194 -325l193 325h97l-248 -407v-293h-85z" />
    <glyph glyph-name="Zacute" unicode="&#x179;" horiz-adv-x="597" 
d="M263 756l84 148h80l-105 -148h-59zM33 0v77l428 546h-405v77h503v-77l-420 -546h421v-77h-527z" />
    <glyph glyph-name="zacute" unicode="&#x17a;" horiz-adv-x="496" 
d="M228 560l84 148h80l-105 -148h-59zM41 0v71l312 362h-298v71h391v-71l-310 -362h324v-71h-419z" />
    <glyph glyph-name="Zdotaccent" unicode="&#x17b;" horiz-adv-x="597" 
d="M248 908h93v-118h-93v118zM33 0v77l428 546h-405v77h503v-77l-420 -546h421v-77h-527z" />
    <glyph glyph-name="zdotaccent" unicode="&#x17c;" horiz-adv-x="496" 
d="M213 712h93v-118h-93v118zM41 0v71l312 362h-298v71h391v-71l-310 -362h324v-71h-419z" />
    <glyph glyph-name="Zcaron" unicode="&#x17d;" horiz-adv-x="597" 
d="M262 756l-117 148h76l73 -91l72 91h76l-118 -148h-62zM33 0v77l428 546h-405v77h503v-77l-420 -546h421v-77h-527z" />
    <glyph glyph-name="zcaron" unicode="&#x17e;" horiz-adv-x="496" 
d="M227 560l-117 148h76l73 -91l72 91h76l-118 -148h-62zM41 0v71l312 362h-298v71h391v-71l-310 -362h324v-71h-419z" />
    <glyph glyph-name="longs" unicode="&#x17f;" horiz-adv-x="372" 
d="M118 0v435h-83v69h83v28q0 88 45.5 132t129.5 44q42 0 70 -15l-17 -67q-26 12 -56 12q-92 0 -92 -96v-542h-80z" />
    <glyph glyph-name="uni018E" unicode="&#x18e;" horiz-adv-x="566" 
d="M492 0h-449v77h364v246h-287v77h287v223h-353v77h438v-700z" />
    <glyph glyph-name="uni018F" unicode="&#x18f;" horiz-adv-x="539" 
d="M301 512q110 0 179.5 -76.5t69.5 -186.5q0 -113 -65.5 -185t-174.5 -72q-108 0 -171.5 66.5t-63.5 169.5q0 21 2 35h394q-5 78 -52 128t-118 50q-125 0 -150 -99h-81q13 78 75.5 124t155.5 46zM310 60q64 0 105 36t52 103h-310q5 -64 45.5 -101.5t107.5 -37.5z" />
    <glyph glyph-name="florin" unicode="&#x192;" horiz-adv-x="536" 
d="M18 -212q-50 0 -74 14l30 71q26 -13 54 -13q49 0 75 23.5t37 73.5l102 478h-96l15 69h95l7 31q20 92 70.5 132.5t135.5 40.5q46 0 71 -15l-29 -68q-22 13 -56 13q-91 0 -111 -96l-8 -38h128l-15 -69h-128l-100 -474q-20 -93 -69 -133t-134 -40z" />
    <glyph glyph-name="uni01B5" unicode="&#x1b5;" horiz-adv-x="563" 
d="M33 0v42l183 283h-143v70h185l149 228h-360v77h471v-42l-168 -263h141v-70h-183l-159 -248h377v-77h-493z" />
    <glyph glyph-name="Aringacute" unicode="&#x1fa;" horiz-adv-x="649" 
d="M298 755q-45 11 -67.5 46t-10.5 78q19 64 86 74l72 128h80l-94 -133q40 -13 58.5 -46.5t7.5 -73.5q-12 -42 -49.5 -62.5t-82.5 -10.5zM315 912q-26 -4 -40.5 -23t-10.5 -44q4 -26 24 -40.5t46 -10.5q27 5 41.5 23.5t10.5 44.5t-24 40t-47 10zM553 0l-72 189h-312
l-73 -189h-89l279 700h77l279 -700h-89zM198 265h253l-126 330z" />
    <glyph glyph-name="aringacute" unicode="&#x1fb;" horiz-adv-x="507" 
d="M236 559q-45 11 -67.5 46t-10.5 78q9 32 34.5 52.5t58.5 22.5l74 131h80l-98 -139q38 -14 55 -47t6 -71q-12 -42 -49.5 -62.5t-82.5 -10.5zM253 716q-26 -4 -40.5 -23t-10.5 -44q4 -26 24 -40.5t46 -10.5q27 5 41.5 23.5t10.5 44.5t-24 40t-47 10zM251 512
q93 0 154.5 -50.5t61.5 -130.5v-331h-78v87q-20 -43 -67 -69t-106 -26q-76 0 -125 42.5t-49 108.5q0 78 50.5 120t150.5 42h117q29 0 29 26v1q0 51 -39 81.5t-98 30.5q-55 0 -93 -30t-42 -72h-75q7 73 66.5 121.5t142.5 48.5zM228 60q76 0 118.5 44.5t42.5 122.5v18h-141
q-124 0 -124 -101q0 -37 29.5 -60.5t74.5 -23.5z" />
    <glyph glyph-name="AEacute" unicode="&#x1fc;" horiz-adv-x="880" 
d="M750 904l-105 -148h-59l84 148h80zM474 77h364v-77h-449v189h-206l-87 -189h-89l335 700h485v-77h-353v-223h287v-77h-287v-246zM218 266h171v371z" />
    <glyph glyph-name="aeacute" unicode="&#x1fd;" horiz-adv-x="865" 
d="M570 708l-105 -148h-59l84 148h80zM790 162h81q-13 -78 -75.5 -124t-155.5 -46q-69 0 -124 32t-87 87q-28 -57 -81.5 -88t-127.5 -31q-81 0 -130 41.5t-49 107.5q0 72 61 112.5t187 53.5l101 10v12q0 52 -36 83.5t-95 31.5q-53 0 -89 -29.5t-39 -71.5l-75 15
q11 67 67.5 110.5t135.5 43.5q129 0 184 -88q67 88 188 88q108 0 171.5 -66.5t63.5 -169.5q0 -21 -2 -35h-394q5 -78 52 -128t118 -50q125 0 150 99zM631 444q-64 0 -105 -36t-52 -103h310q-5 64 -45.5 101.5t-107.5 37.5zM227 59q77 0 120 45t43 124v26l-101 -10
q-166 -16 -166 -103q0 -37 29 -59.5t75 -22.5z" />
    <glyph glyph-name="Scommaaccent" unicode="&#x218;" horiz-adv-x="594" 
d="M301 -8q-117 0 -188 64.5t-78 172.5h82q7 -74 55 -117t129 -43q76 0 121.5 30.5t45.5 91.5q0 42 -30.5 70t-75.5 40.5t-98.5 29t-98.5 34.5t-75.5 58t-30.5 99q0 83 66 134.5t171 51.5t172.5 -56.5t74.5 -150.5h-80q-6 59 -51.5 94.5t-115.5 35.5q-71 0 -111 -29t-40 -80
q0 -36 22.5 -60.5t59 -38t80.5 -24t88 -24.5t80.5 -34.5t59 -58.5t22.5 -91q0 -93 -71.5 -146t-184.5 -53zM216 -212l47 144h110l-90 -144h-67z" />
    <glyph glyph-name="scommaaccent" unicode="&#x219;" horiz-adv-x="474" 
d="M243 -8q-87 0 -140.5 45t-59.5 124h76q11 -100 124 -100q48 0 77.5 22.5t29.5 54.5q0 35 -22 54.5t-54.5 24t-70.5 12.5t-70.5 18t-54.5 42t-22 84q0 62 49 100.5t129 38.5q82 0 134 -42t57 -112h-76q-5 44 -40.5 65.5t-76.5 21.5q-44 0 -71.5 -20t-27.5 -52t22 -49.5
t55 -21t71 -11.5t71 -19t55 -44.5t22 -87.5q0 -67 -51 -107.5t-135 -40.5zM155 -212l47 144h110l-90 -144h-67z" />
    <glyph glyph-name="uni021A" unicode="&#x21a;" horiz-adv-x="557" 
d="M236 0v623h-224v77h533v-77h-223v-623h-86zM202 -212l47 144h110l-90 -144h-67z" />
    <glyph glyph-name="uni021B" unicode="&#x21b;" horiz-adv-x="408" 
d="M121 665h80v-161h155v-71h-155v-271q0 -42 21.5 -65.5t59.5 -23.5h74v-73h-77q-72 0 -115 42.5t-43 115.5v275h-105v71h105v161zM124 -212l47 144h110l-90 -144h-67z" />
    <glyph glyph-name="uni0237" unicode="&#x237;" horiz-adv-x="233" 
d="M77 504h79v-543q0 -83 -32.5 -124t-111.5 -41h-47v69h42q45 0 57.5 21.5t12.5 77.5v540z" />
    <glyph glyph-name="circumflex" unicode="&#x2c6;" 
d="M142 708h62l118 -148h-76l-72 91l-73 -91h-76z" />
    <glyph glyph-name="tilde" unicode="&#x2dc;" 
d="M91 591h-63q5 48 31 76.5t65 28.5q33 0 69 -20.5t52 -20.5q32 0 40 36h62q-5 -49 -30 -77.5t-65 -28.5q-32 0 -69 21t-52 21q-33 0 -40 -36z" />
    <glyph glyph-name="gravecomb" unicode="&#x300;" horiz-adv-x="0" 
d="M-10 560h-59l-105 148h80z" />
    <glyph glyph-name="acutecomb" unicode="&#x301;" horiz-adv-x="0" 
d="M-191 560l84 148h80l-105 -148h-59z" />
    <glyph glyph-name="uni0302" unicode="&#x302;" horiz-adv-x="0" 
d="M-211 708h62l118 -148h-76l-72 91l-73 -91h-76z" />
    <glyph glyph-name="tildecomb" unicode="&#x303;" horiz-adv-x="0" 
d="M-285 591h-63q5 48 31 76.5t65 28.5q33 0 69 -20.5t52 -20.5q32 0 40 36h62q-5 -49 -30 -77.5t-65 -28.5q-32 0 -69 21t-52 21q-33 0 -40 -36z" />
    <glyph glyph-name="uni0304" unicode="&#x304;" horiz-adv-x="0" 
d="M-276 591v67h266v-67h-266z" />
    <glyph glyph-name="uni0306" unicode="&#x306;" horiz-adv-x="0" 
d="M-131 584q-50 0 -83 33.5t-33 82.5h60q0 -26 15.5 -43t40.5 -17t41.5 17t16.5 43h60q0 -49 -33.5 -82.5t-84.5 -33.5z" />
    <glyph glyph-name="uni0307" unicode="&#x307;" horiz-adv-x="0" 
d="M-160 712h93v-118h-93v118z" />
    <glyph glyph-name="uni0308" unicode="&#x308;" horiz-adv-x="0" 
d="M-316 712h93v-118h-93v118zM-121 712h93v-118h-93v118z" />
    <glyph glyph-name="uni030A" unicode="&#x30a;" horiz-adv-x="0" 
d="M-50 632q-12 -42 -49.5 -62.5t-82.5 -10.5q-45 11 -67.5 46t-10.5 78q12 42 50 62.5t83 9.5q45 -10 67 -45.5t10 -77.5zM-216 649q4 -26 24 -40.5t46 -10.5q27 5 41.5 23.5t10.5 44.5t-24 40t-47 10q-26 -4 -40.5 -23t-10.5 -44z" />
    <glyph glyph-name="uni030B" unicode="&#x30b;" horiz-adv-x="0" 
d="M-302 560l84 148h80l-105 -148h-59zM-167 560l84 148h80l-105 -148h-59z" />
    <glyph glyph-name="uni030C" unicode="&#x30c;" horiz-adv-x="0" 
d="M-225 560l-117 148h76l73 -91l72 91h76l-118 -148h-62z" />
    <glyph glyph-name="uni0312" unicode="&#x312;" horiz-adv-x="0" 
 />
    <glyph glyph-name="uni0326" unicode="&#x326;" horiz-adv-x="0" 
d="M-209 -212l47 144h110l-90 -144h-67z" />
    <glyph glyph-name="uni0327" unicode="&#x327;" horiz-adv-x="0" 
d="M-90 -205h-96l109 146h68z" />
    <glyph glyph-name="uni0328" unicode="&#x328;" horiz-adv-x="0" 
d="M-34 -135q-38 -41 -92 -41q-41 0 -64.5 22t-23.5 59q0 54 62 95h64q-32 -28 -46 -45t-14 -34q0 -32 34 -32q23 0 46 25z" />
    <glyph glyph-name="uni0335" unicode="&#x335;" horiz-adv-x="0" 
 />
    <glyph glyph-name="uni0336" unicode="&#x336;" horiz-adv-x="0" 
 />
    <glyph glyph-name="uni0337" unicode="&#x337;" horiz-adv-x="0" 
 />
    <glyph glyph-name="uni0338" unicode="&#x338;" horiz-adv-x="0" 
 />
    <glyph glyph-name="pi" unicode="&#x3c0;" horiz-adv-x="615" 
d="M137 0v434h-95v70h531v-70h-97v-434h-78v434h-182v-434h-79z" />
    <glyph glyph-name="uni0400" unicode="&#x400;" horiz-adv-x="566" 
d="M358 756h-59l-105 148h80zM74 0v700h438v-77h-353v-223h287v-77h-287v-246h364v-77h-449z" />
    <glyph glyph-name="uni0401" unicode="&#x401;" horiz-adv-x="566" 
d="M158 908h93v-118h-93v118zM353 908h93v-118h-93v118zM74 0v700h438v-77h-353v-223h287v-77h-287v-246h364v-77h-449z" />
    <glyph glyph-name="uni0402" unicode="&#x402;" horiz-adv-x="746" 
d="M535 -8l-18 71q46 12 66.5 34t20.5 68v165q0 52 -28 80.5t-81 28.5q-73 0 -123 -61t-50 -162v-216h-86v623h-224v77h533v-77h-223v-220q26 53 78.5 81t111.5 28q82 0 127 -43.5t45 -123.5v-185q0 -146 -149 -168z" />
    <glyph glyph-name="uni0403" unicode="&#x403;" horiz-adv-x="533" 
d="M228 754l75 143h115l-129 -143h-61zM74 0v700h447v-77h-362v-623h-85z" />
    <glyph glyph-name="uni0404" unicode="&#x404;" horiz-adv-x="683" 
d="M358 -8q-139 0 -227.5 92t-88.5 266t88.5 266t227.5 92q106 0 184.5 -55.5t106.5 -146.5l-79 -23q-22 66 -77.5 107t-134.5 41q-101 0 -160.5 -63.5t-68.5 -179.5h363v-75h-363q9 -117 68 -180.5t161 -63.5q78 0 134 40.5t78 107.5l79 -23q-29 -91 -107 -146.5
t-184 -55.5z" />
    <glyph glyph-name="uni0405" unicode="&#x405;" horiz-adv-x="594" 
d="M301 -8q-117 0 -188 64.5t-78 172.5h82q7 -74 55 -117t129 -43q76 0 121.5 30.5t45.5 91.5q0 42 -30.5 70t-75.5 40.5t-98.5 29t-98.5 34.5t-75.5 58t-30.5 99q0 83 66 134.5t171 51.5t172.5 -56.5t74.5 -150.5h-80q-6 59 -51.5 94.5t-115.5 35.5q-71 0 -111 -29t-40 -80
q0 -36 22.5 -60.5t59 -38t80.5 -24t88 -24.5t80.5 -34.5t59 -58.5t22.5 -91q0 -93 -71.5 -146t-184.5 -53z" />
    <glyph glyph-name="uni0406" unicode="&#x406;" horiz-adv-x="233" 
d="M74 0v700h85v-700h-85z" />
    <glyph glyph-name="uni0407" unicode="&#x407;" horiz-adv-x="295" 
d="M61 793q-25 0 -41.5 15t-16.5 38q0 24 16.5 40t41.5 16t41 -16t16 -40q0 -23 -16 -38t-41 -15zM232 793q-23 0 -39 15.5t-16 37.5q0 23 16 39.5t39 16.5q25 0 42 -16.5t17 -39.5q0 -22 -17 -37.5t-42 -15.5zM104 0v700h86v-700h-86z" />
    <glyph glyph-name="uni0408" unicode="&#x408;" horiz-adv-x="319" 
d="M18 77h87q67 0 67 102v521h84v-523q0 -87 -37 -132t-108 -45h-93v77z" />
    <glyph glyph-name="uni0409" unicode="&#x409;" horiz-adv-x="966" 
d="M12 0v77q57 0 85 24t33 90l39 509h341v-290h177q109 0 173 -54.5t64 -150.5q0 -95 -64 -150t-173 -55h-262v623h-180l-34 -447q-7 -90 -54 -133t-145 -43zM510 77h164q81 0 122.5 30t41.5 98t-41.5 98.5t-122.5 30.5h-164v-257z" />
    <glyph glyph-name="uni040A" unicode="&#x40a;" horiz-adv-x="980" 
d="M74 0v700h85v-290h289v290h85v-290h169q110 0 173.5 -54.5t63.5 -150.5t-64 -150.5t-173 -54.5h-254v334h-289v-334h-85zM533 77h155q82 0 123 30t41 98q0 69 -41 99t-123 30h-155v-257z" />
    <glyph glyph-name="uni040B" unicode="&#x40b;" horiz-adv-x="749" 
d="M236 0v623h-224v77h533v-77h-223v-220q26 53 78.5 81t111.5 28q82 0 127 -43.5t45 -123.5v-345h-80v330q0 52 -28 80.5t-81 28.5q-73 0 -123 -61t-50 -162v-216h-86z" />
    <glyph glyph-name="uni040C" unicode="&#x40c;" horiz-adv-x="635" 
d="M431 904l-105 -148h-59l84 148h80zM521 0l-258 358l-103 -106v-252h-86v700h86v-333l325 333h108l-272 -282l303 -418h-103z" />
    <glyph glyph-name="uni040D" unicode="&#x40d;" horiz-adv-x="688" 
d="M341 754l-129 143h116l74 -143h-61zM74 0v700h83v-565l361 565h97v-700h-84v564l-361 -564h-96z" />
    <glyph glyph-name="uni040E" unicode="&#x40e;" horiz-adv-x="541" 
d="M271 785q-54 0 -85.5 31t-31.5 80h62q0 -24 14 -39t41 -15t41 15t14 39h62q0 -49 -31.5 -80t-85.5 -31zM142 -8l87 199l-228 509h88l183 -402l179 402h87l-313 -708h-83z" />
    <glyph glyph-name="uni040F" unicode="&#x40f;" horiz-adv-x="675" 
d="M296 -124v124h-222v700h84v-623h359v623h84v-700h-222v-124h-83z" />
    <glyph glyph-name="uni0410" unicode="&#x410;" horiz-adv-x="649" 
d="M553 0l-72 189h-312l-73 -189h-89l279 700h77l279 -700h-89zM198 265h253l-126 330z" />
    <glyph glyph-name="uni0411" unicode="&#x411;" horiz-adv-x="619" 
d="M74 0v700h430v-75h-345v-215h181q109 0 173 -54.5t64 -150.5q0 -95 -64 -150t-173 -55h-266zM159 77h167q82 0 123.5 30t41.5 98t-41.5 98.5t-123.5 30.5h-167v-257z" />
    <glyph glyph-name="uni0412" unicode="&#x412;" horiz-adv-x="611" 
d="M74 0v700h250q100 0 157 -47.5t57 -132.5q0 -46 -27.5 -83.5t-65.5 -53.5q57 -19 90.5 -64t33.5 -115q0 -95 -60.5 -149.5t-168.5 -54.5h-266zM159 410h163q131 0 131 108q0 107 -131 107h-163v-215zM159 77h167q156 0 156 128q0 129 -156 129h-167v-257z" />
    <glyph glyph-name="uni0413" unicode="&#x413;" horiz-adv-x="533" 
d="M74 0v700h447v-77h-362v-623h-85z" />
    <glyph glyph-name="uni0414" unicode="&#x414;" horiz-adv-x="716" 
d="M58 -124l-15 203h55l111 621h401v-621h65l-13 -203h-80v124h-445v-124h-79zM186 79h339v543h-246z" />
    <glyph glyph-name="uni0415" unicode="&#x415;" horiz-adv-x="566" 
d="M74 0v700h438v-77h-353v-223h287v-77h-287v-246h364v-77h-449z" />
    <glyph glyph-name="uni0416" unicode="&#x416;" horiz-adv-x="954" 
d="M11 0l337 386l-312 314h108l290 -288v288h86v-288l290 288h108l-312 -314l337 -386h-106l-317 360v-360h-86v360l-317 -360h-106z" />
    <glyph glyph-name="uni0417" unicode="&#x417;" horiz-adv-x="565" 
d="M282 -8q-92 0 -158 47.5t-85 132.5l76 23q31 -133 167 -133q67 0 111.5 39.5t44.5 100.5q0 71 -53 105.5t-125 34.5h-28v64h29q67 0 105.5 30t38.5 90q0 51 -35 82t-96 31q-54 0 -88.5 -28t-45.5 -80l-75 15q13 74 71 118t137 44q102 0 157 -50t55 -128q0 -100 -98 -151
q59 -22 95.5 -66.5t36.5 -105.5q0 -93 -65.5 -154t-171.5 -61z" />
    <glyph glyph-name="uni0418" unicode="&#x418;" horiz-adv-x="686" 
d="M612 0h-83v564l-360 -564h-96v700h83v-565l361 565h95v-700z" />
    <glyph glyph-name="uni0419" unicode="&#x419;" horiz-adv-x="688" 
d="M343 785q-53 0 -84.5 31t-31.5 80h61q0 -24 14.5 -39t40.5 -15q55 0 55 54h63q0 -49 -31.5 -80t-86.5 -31zM74 0v700h83v-565l361 565h97v-700h-84v564l-361 -564h-96z" />
    <glyph glyph-name="uni041A" unicode="&#x41a;" horiz-adv-x="635" 
d="M521 0l-258 358l-103 -106v-252h-86v700h86v-333l325 333h108l-272 -282l303 -418h-103z" />
    <glyph glyph-name="uni041B" unicode="&#x41b;" horiz-adv-x="660" 
d="M13 0v77q56 0 84 24.5t33 89.5l41 509h416v-700h-86v623h-254l-35 -447q-8 -89 -54.5 -132.5t-144.5 -43.5z" />
    <glyph glyph-name="uni041C" unicode="&#x41c;" horiz-adv-x="831" 
d="M74 0v700h103l239 -575l238 575h103v-700h-83v538l-222 -538h-73l-222 538v-538h-83z" />
    <glyph glyph-name="uni041D" unicode="&#x41d;" horiz-adv-x="688" 
d="M530 700h84v-700h-84v323h-371v-323h-85v700h85v-300h371v300z" />
    <glyph glyph-name="uni041E" unicode="&#x41e;" horiz-adv-x="770" 
d="M385 -8q-148 0 -245.5 102t-97.5 256t97.5 256t245.5 102t246 -102t98 -256t-98 -256t-246 -102zM385 69q110 0 183 80t73 201t-73 201t-183 80t-182.5 -80t-72.5 -201t72.5 -201t182.5 -80z" />
    <glyph glyph-name="uni041F" unicode="&#x41f;" horiz-adv-x="674" 
d="M74 0v700h526v-700h-85v623h-356v-623h-85z" />
    <glyph glyph-name="uni0420" unicode="&#x420;" horiz-adv-x="586" 
d="M74 0v700h263q103 0 163 -57t60 -150t-60 -150t-163 -57h-178v-286h-85zM159 362h178q70 0 103 37t33 94t-33 94t-103 37h-178v-262z" />
    <glyph glyph-name="uni0421" unicode="&#x421;" horiz-adv-x="708" 
d="M379 -8q-141 0 -239 93.5t-98 264.5q0 88 28 157.5t75.5 112.5t107 65.5t126.5 22.5q116 0 198.5 -63t97.5 -163h-90q-13 68 -69 108.5t-137 40.5q-112 0 -180.5 -74t-68.5 -207t68.5 -207t180.5 -74q83 0 140 41t67 108h88q-11 -100 -93.5 -163t-201.5 -63z" />
    <glyph glyph-name="uni0422" unicode="&#x422;" horiz-adv-x="557" 
d="M236 0v623h-224v77h533v-77h-223v-623h-86z" />
    <glyph glyph-name="uni0423" unicode="&#x423;" horiz-adv-x="541" 
d="M142 -8l87 199l-228 509h88l183 -402l179 402h87l-313 -708h-83z" />
    <glyph glyph-name="uni0424" unicode="&#x424;" horiz-adv-x="792" 
d="M354 0v72q-145 1 -230.5 77t-85.5 201t86 201t230 77v72h84v-72q146 -1 230.5 -77t84.5 -201t-86 -201t-229 -77v-72h-84zM354 142v416q-109 -1 -171 -58t-62 -150q0 -94 62.5 -150.5t170.5 -57.5zM438 142q109 1 171 58t62 150q0 94 -62.5 150.5t-170.5 57.5v-416z" />
    <glyph glyph-name="uni0425" unicode="&#x425;" horiz-adv-x="605" 
d="M572 0h-89l-180 284l-181 -284h-89l225 355l-219 345h89l175 -275l174 275h90l-220 -346z" />
    <glyph glyph-name="uni0426" unicode="&#x426;" horiz-adv-x="705" 
d="M578 -124v124h-504v700h85v-623h356v623h85v-623h71l-14 -201h-79z" />
    <glyph glyph-name="uni0427" unicode="&#x427;" horiz-adv-x="639" 
d="M480 0v326q-87 -55 -202 -55q-100 0 -157.5 53t-57.5 162v214h85v-207q0 -143 151 -143q49 0 98 18.5t83 49.5v282h86v-700h-86z" />
    <glyph glyph-name="uni0428" unicode="&#x428;" horiz-adv-x="987" 
d="M74 0v700h85v-623h292v623h85v-623h292v623h86v-700h-840z" />
    <glyph glyph-name="uni0429" unicode="&#x429;" horiz-adv-x="1015" 
d="M887 -124v124h-813v700h85v-623h292v623h85v-623h292v623h86v-623h68l-15 -201h-80z" />
    <glyph glyph-name="uni042A" unicode="&#x42a;" horiz-adv-x="694" 
d="M149 0v623h-135v77h221v-290h181q110 0 173.5 -54.5t63.5 -150.5t-64 -150.5t-173 -54.5h-267zM235 77h167q82 0 123 30t41 98q0 69 -41 99t-123 30h-167v-257z" />
    <glyph glyph-name="uni042B" unicode="&#x42b;" horiz-adv-x="851" 
d="M698 0v708h80v-708h-80zM74 0v700h85v-290h181q109 0 173 -54.5t64 -150.5q0 -95 -64 -150t-173 -55h-266zM159 77h167q82 0 123.5 30t41.5 98t-41.5 98.5t-123.5 30.5h-167v-257z" />
    <glyph glyph-name="uni042C" unicode="&#x42c;" horiz-adv-x="586" 
d="M74 700h85v-286h178q103 0 163 -57t60 -150t-60 -150t-163 -57h-263v700zM159 338v-262h178q70 0 103 37t33 94t-33 94t-103 37h-178z" />
    <glyph glyph-name="uni042D" unicode="&#x42d;" horiz-adv-x="683" 
d="M325 -8q-106 0 -185 56t-106 146l80 23q22 -67 77.5 -107.5t133.5 -40.5q101 0 160 63.5t68 180.5h-363v75h363q-9 116 -68 179.5t-160 63.5q-79 0 -134.5 -41t-76.5 -107l-80 23q29 91 107.5 146.5t183.5 55.5q139 0 227.5 -92t88.5 -266q0 -173 -89 -265.5t-227 -92.5z
" />
    <glyph glyph-name="uni042E" unicode="&#x42e;" horiz-adv-x="1056" 
d="M677 -8q-132 0 -228 86.5t-107 232.5h-183v-311h-85v700h85v-310h183q11 145 107 231.5t228 86.5q140 0 238.5 -97.5t98.5 -260.5t-98.5 -260.5t-238.5 -97.5zM677 69q108 0 178.5 73t70.5 208t-70.5 208t-178.5 73t-178.5 -73.5t-70.5 -207.5t70.5 -207.5t178.5 -73.5z
" />
    <glyph glyph-name="uni042F" unicode="&#x42f;" horiz-adv-x="646" 
d="M307 700h265v-700h-85v285h-190q-49 0 -80 -32t-34 -84l-12 -169h-82l12 174q8 112 93 158q-110 52 -110 163q0 92 60 148.5t163 56.5zM307 624q-69 0 -102 -36t-33 -93t33 -95t102 -38h180v262h-180z" />
    <glyph glyph-name="uni0430" unicode="&#x430;" horiz-adv-x="516" 
d="M251 512q93 0 154.5 -50.5t61.5 -130.5v-331h-78v87q-20 -43 -67 -69t-106 -26q-76 0 -125 42.5t-49 108.5q0 78 50.5 120t150.5 42h117q29 0 29 26v1q0 51 -39 81.5t-98 30.5q-55 0 -93 -30t-42 -72h-75q7 73 66.5 121.5t142.5 48.5zM228 60q76 0 118.5 44.5t42.5 122.5
v18h-141q-124 0 -124 -101q0 -37 29.5 -60.5t74.5 -23.5z" />
    <glyph glyph-name="uni0431" unicode="&#x431;" horiz-adv-x="603" 
d="M301 -8q-121 0 -190.5 83t-69.5 238q0 205 72.5 296t206.5 91h37q43 0 61 10t26 37h62q-4 -59 -38 -88t-91 -29h-52q-93 0 -140 -52.5t-56 -139.5q72 74 194 74q109 0 174 -74t65 -186t-71.5 -186t-189.5 -74zM302 64q83 0 130 55.5t47 132.5t-47 132.5t-130 55.5
t-130 -55.5t-47 -132.5t47 -132.5t130 -55.5z" />
    <glyph glyph-name="uni0432" unicode="&#x432;" horiz-adv-x="497" 
d="M70 0v504h208q70 0 112.5 -33.5t42.5 -92.5q0 -65 -60 -102q83 -37 83 -123q0 -69 -47 -111t-129 -42h-210zM147 302h128q81 0 81 68t-81 68h-128v-136zM147 68h125q107 0 107 83q0 84 -107 84h-125v-167z" />
    <glyph glyph-name="uni0433" unicode="&#x433;" horiz-adv-x="428" 
d="M70 0v504h344v-70h-262v-434h-82z" />
    <glyph glyph-name="uni0434" unicode="&#x434;" horiz-adv-x="591" 
d="M47 -114l-15 184h37l75 434h369v-434h38l-12 -184h-75v114h-342v-114h-75zM152 70h282v364h-221z" />
    <glyph glyph-name="uni0435" unicode="&#x435;" horiz-adv-x="560" 
d="M440 162h81q-13 -78 -75.5 -124t-155.5 -46q-110 0 -179.5 76.5t-69.5 186.5q0 113 65.5 185t174.5 72q108 0 171.5 -66.5t63.5 -169.5q0 -21 -2 -35h-394q5 -78 52 -128t118 -50q125 0 150 99zM281 444q-64 0 -105 -36t-52 -103h310q-5 64 -45.5 101.5t-107.5 37.5z" />
    <glyph glyph-name="uni0436" unicode="&#x436;" horiz-adv-x="774" 
d="M11 0l253 273l-234 231h100l217 -211v211h80v-211l217 211h100l-234 -231l253 -273h-100l-236 252v-252h-80v252l-235 -252h-101z" />
    <glyph glyph-name="uni0437" unicode="&#x437;" horiz-adv-x="436" 
d="M224 -8q-78 0 -129.5 39.5t-58.5 106.5l76 9q6 -37 34.5 -62t76.5 -25q42 0 69 24t27 61q0 41 -31.5 64.5t-88.5 23.5h-21v63h20q47 0 75.5 19t28.5 56q0 34 -24.5 54t-66.5 20q-32 0 -57.5 -18t-33.5 -49l-70 18q11 52 55 84t109 32q73 0 118 -34.5t45 -91.5
q0 -80 -70 -118q91 -33 91 -124q0 -68 -49.5 -110t-124.5 -42z" />
    <glyph glyph-name="uni0438" unicode="&#x438;" horiz-adv-x="574" 
d="M70 0v504h78v-383l273 383h83v-504h-78v384l-273 -384h-83z" />
    <glyph glyph-name="uni0439" unicode="&#x439;" horiz-adv-x="574" 
d="M287 589q-54 0 -85.5 31t-31.5 80h61q0 -24 14.5 -39t41.5 -15t41 15t14 39h62q0 -49 -31.5 -80t-85.5 -31zM70 0v504h78v-383l273 383h83v-504h-78v384l-273 -384h-83z" />
    <glyph glyph-name="uni043A" unicode="&#x43a;" horiz-adv-x="496" 
d="M70 0v504h80v-211l218 211h99l-235 -231l253 -273h-99l-236 252v-252h-80z" />
    <glyph glyph-name="uni043B" unicode="&#x43b;" horiz-adv-x="601" 
d="M33 0v69q55 0 78 21.5t28 71.5l36 342h356v-504h-78v434h-206l-33 -294q-9 -76 -50.5 -108t-130.5 -32z" />
    <glyph glyph-name="uni043C" unicode="&#x43c;" horiz-adv-x="639" 
d="M70 0v504h99l150 -340l150 340h100v-504h-78v373l-144 -327h-55l-145 327v-373h-77z" />
    <glyph glyph-name="uni043D" unicode="&#x43d;" horiz-adv-x="550" 
d="M70 0v504h79v-201h253v201h79v-504h-79v233h-253v-233h-79z" />
    <glyph glyph-name="uni043E" unicode="&#x43e;" horiz-adv-x="595" 
d="M297 -8q-112 0 -184 73.5t-72 186.5q0 114 72 187t184 73q113 0 185 -73t72 -187q0 -113 -72.5 -186.5t-184.5 -73.5zM297 64q78 0 126.5 52.5t48.5 135.5t-48.5 135.5t-126.5 52.5q-77 0 -125.5 -52.5t-48.5 -135.5t48.5 -135.5t125.5 -52.5z" />
    <glyph glyph-name="uni043F" unicode="&#x43f;" horiz-adv-x="550" 
d="M70 0v504h410v-504h-79v434h-253v-434h-78z" />
    <glyph glyph-name="uni0440" unicode="&#x440;" horiz-adv-x="601" 
d="M70 -204v708h80v-75q20 36 66.5 59.5t101.5 23.5q114 0 178 -73t64 -187t-65 -187t-179 -73q-48 0 -94.5 22.5t-71.5 58.5v-277h-80zM310 64q76 0 122 51t46 137t-46 137t-122 51q-75 0 -121 -51.5t-46 -136.5t46 -136.5t121 -51.5z" />
    <glyph glyph-name="uni0441" unicode="&#x441;" horiz-adv-x="543" 
d="M286 -8q-114 0 -179.5 76.5t-65.5 183.5t65.5 183.5t179.5 76.5q88 0 153 -48t76 -130h-79q-8 46 -50 76t-99 30q-79 0 -121 -53t-42 -135t42.5 -135t120.5 -53q57 0 96 26.5t53 72.5h78q-13 -78 -73 -124.5t-155 -46.5z" />
    <glyph glyph-name="uni0442" unicode="&#x442;" horiz-adv-x="443" 
d="M182 0v434h-153v70h384v-70h-152v-434h-79z" />
    <glyph glyph-name="uni0443" unicode="&#x443;" horiz-adv-x="480" 
d="M466 504l-184 -504l-28 -78q-23 -63 -55 -94.5t-83 -31.5h-96v69h92q22 0 39 15t31 56l19 56l-188 512h83l143 -400l144 400h83z" />
    <glyph glyph-name="uni0444" unicode="&#x444;" horiz-adv-x="725" 
d="M322 -204v196q-129 1 -205 76t-76 184t76 184t205 76v196h80v-196q130 -1 206.5 -76t76.5 -184t-76.5 -184t-206.5 -76v-196h-80zM322 62v380q-94 -1 -146.5 -52t-52.5 -138t53 -138t146 -52zM402 62q94 1 147 52t53 138t-53.5 138t-146.5 52v-380z" />
    <glyph glyph-name="uni0445" unicode="&#x445;" horiz-adv-x="479" 
d="M467 0h-85l-142 203l-143 -203h-85l184 266l-167 238h89l122 -175l121 175h89l-167 -238z" />
    <glyph glyph-name="uni0446" unicode="&#x446;" horiz-adv-x="559" 
d="M430 -114v114h-360v504h78v-433h254v433h78v-433h38l-11 -185h-77z" />
    <glyph glyph-name="uni0447" unicode="&#x447;" horiz-adv-x="552" 
d="M402 0v228q-75 -74 -180 -74q-72 0 -114.5 40t-42.5 109v201h80v-191q0 -44 25.5 -66t68.5 -22q93 0 163 96v183h80v-504h-80z" />
    <glyph glyph-name="uni0448" unicode="&#x448;" horiz-adv-x="833" 
d="M70 0v504h79v-433h228v433h79v-433h228v433h79v-504h-693z" />
    <glyph glyph-name="uni0449" unicode="&#x449;" horiz-adv-x="842" 
d="M714 -114v114h-644v504h79v-433h228v433h79v-433h228v433h79v-433h39l-12 -185h-76z" />
    <glyph glyph-name="uni044A" unicode="&#x44a;" horiz-adv-x="558" 
d="M142 0v435h-110v69h188v-192h114q88 0 135.5 -41t47.5 -115t-47.5 -115t-135.5 -41h-192zM220 68h85q67 0 97 21t30 67q0 45 -30 66.5t-97 21.5h-85v-176z" />
    <glyph glyph-name="uni044B" unicode="&#x44b;" horiz-adv-x="700" 
d="M70 0v504h78v-192h114q88 0 135 -41t47 -115t-47 -115t-135 -41h-192zM556 0v504h80v-504h-80zM148 68h85q67 0 97 21t30 67q0 45 -30 66.5t-97 21.5h-85v-176z" />
    <glyph glyph-name="uni044C" unicode="&#x44c;" horiz-adv-x="485" 
d="M70 0v504h78v-192h114q88 0 135 -41t47 -115t-47 -115t-135 -41h-192zM148 68h85q67 0 97 21t30 67q0 45 -30 66.5t-97 21.5h-85v-176z" />
    <glyph glyph-name="uni044D" unicode="&#x44d;" horiz-adv-x="539" 
d="M258 -8q-157 0 -225 134l71 33q46 -97 156 -97q71 0 109 43t45 114h-253v66h253q-7 71 -45 114t-109 43q-111 0 -156 -97l-71 33q67 134 225 134q116 0 178.5 -76t62.5 -184t-62.5 -184t-178.5 -76z" />
    <glyph glyph-name="uni044E" unicode="&#x44e;" horiz-adv-x="858" 
d="M558 -8q-108 0 -177.5 65.5t-80.5 159.5h-151v-217h-79v504h79v-217h151q11 94 80.5 159.5t177.5 65.5q117 0 188 -77.5t71 -182.5t-71 -182.5t-188 -77.5zM558 64q82 0 129 55.5t47 132.5t-47 132.5t-129 55.5q-83 0 -129.5 -55.5t-46.5 -132.5t46.5 -132.5t129.5 -55.5
z" />
    <glyph glyph-name="uni044F" unicode="&#x44f;" horiz-adv-x="492" 
d="M21 0l142 231q-50 15 -79.5 49t-29.5 84q0 63 49 101.5t125 38.5h195v-504h-79v225h-103l-133 -225h-87zM228 292h116v145h-116q-96 0 -96 -73q0 -72 96 -72z" />
    <glyph glyph-name="uni0450" unicode="&#x450;" horiz-adv-x="567" 
d="M281 558l-128 143h115l75 -143h-62zM287 -8q-111 0 -178.5 74.5t-67.5 185.5t67.5 185.5t178.5 74.5q110 0 176.5 -66.5t66.5 -168.5v-33h-406q1 -82 44.5 -131.5t118.5 -49.5q59 0 95.5 23t66.5 77l69 -31q-41 -75 -96 -107.5t-135 -32.5zM127 311h322q-9 62 -50.5 97.5
t-111.5 35.5q-62 0 -103.5 -36.5t-56.5 -96.5z" />
    <glyph glyph-name="uni0451" unicode="&#x451;" horiz-adv-x="567" 
d="M202 597q-24 0 -40.5 15.5t-16.5 37.5q0 23 16.5 39.5t40.5 16.5t40.5 -16t16.5 -40q0 -23 -16 -38t-41 -15zM374 597q-23 0 -39.5 15.5t-16.5 37.5q0 23 16.5 39.5t39.5 16.5q25 0 42 -16.5t17 -39.5q0 -22 -17 -37.5t-42 -15.5zM287 -8q-111 0 -178.5 74.5t-67.5 185.5
t67.5 185.5t178.5 74.5q110 0 176.5 -66.5t66.5 -168.5v-33h-406q1 -82 44.5 -131.5t118.5 -49.5q59 0 95.5 23t66.5 77l69 -31q-41 -75 -96 -107.5t-135 -32.5zM127 311h322q-9 62 -50.5 97.5t-111.5 35.5q-62 0 -103.5 -36.5t-56.5 -96.5z" />
    <glyph glyph-name="uni0452" unicode="&#x452;" horiz-adv-x="601" 
d="M388 -212l-18 71q46 12 66.5 34t20.5 68v369q0 52 -28 80.5t-81 28.5q-74 0 -124 -61t-50 -162v-216h-80v573h-78v66h78v69h80v-69h142v-66h-142v-170q27 53 79 81t112 28q81 0 126 -43.5t45 -123.5v-389q0 -146 -148 -168z" />
    <glyph glyph-name="uni0453" unicode="&#x453;" horiz-adv-x="428" 
d="M169 558l74 143h115l-127 -143h-62zM70 0v504h344v-70h-262v-434h-82z" />
    <glyph glyph-name="uni0454" unicode="&#x454;" horiz-adv-x="539" 
d="M281 -8q-116 0 -178 75.5t-62 184.5t62 184.5t178 75.5q157 0 225 -134l-71 -33q-45 97 -156 97q-71 0 -109 -43t-46 -114h255v-66h-255q8 -71 46 -114t109 -43q111 0 157 96l70 -32q-68 -134 -225 -134z" />
    <glyph glyph-name="uni0455" unicode="&#x455;" horiz-adv-x="474" 
d="M243 -8q-87 0 -140.5 45t-59.5 124h76q11 -100 124 -100q48 0 77.5 22.5t29.5 54.5q0 35 -22 54.5t-54.5 24t-70.5 12.5t-70.5 18t-54.5 42t-22 84q0 62 49 100.5t129 38.5q82 0 134 -42t57 -112h-76q-5 44 -40.5 65.5t-76.5 21.5q-44 0 -71.5 -20t-27.5 -52t22 -49.5
t55 -21t71 -11.5t71 -19t55 -44.5t22 -87.5q0 -67 -51 -107.5t-135 -40.5z" />
    <glyph glyph-name="uni0456" unicode="&#x456;" horiz-adv-x="231" 
d="M69 712h93v-118h-93v118zM76 0v504h80v-504h-80z" />
    <glyph glyph-name="uni0457" unicode="&#x457;" horiz-adv-x="231" 
d="M-29 712h93v-118h-93v118zM166 712h93v-118h-93v118zM76 0v504h80v-504h-80z" />
    <glyph glyph-name="uni0458" unicode="&#x458;" horiz-adv-x="233" 
d="M69 712h93v-118h-93v118zM77 504h79v-543q0 -83 -32.5 -124t-111.5 -41h-47v69h42q45 0 57.5 21.5t12.5 77.5v540z" />
    <glyph glyph-name="uni0459" unicode="&#x459;" horiz-adv-x="819" 
d="M33 0v69q55 0 78 21.5t28 71.5l36 342h307v-192h114q88 0 135 -41t47 -115t-47 -115t-135 -41h-193v434h-156l-33 -294q-9 -76 -50.5 -108t-130.5 -32zM482 68h85q67 0 97 21t30 67q0 45 -30 66.5t-97 21.5h-85v-176z" />
    <glyph glyph-name="uni045A" unicode="&#x45a;" horiz-adv-x="823" 
d="M70 0v504h79v-191h253v191h79v-191h118q88 0 135.5 -41t47.5 -115t-47.5 -115.5t-135.5 -41.5h-197v245h-253v-245h-79zM481 68h90q67 0 96.5 21.5t29.5 67.5t-29.5 67.5t-96.5 21.5h-90v-178z" />
    <glyph glyph-name="uni045B" unicode="&#x45b;" horiz-adv-x="602" 
d="M95 0v573h-78v66h78v69h80v-69h142v-66h-142v-170q26 53 79 81t112 28q82 0 127 -43.5t45 -123.5v-345h-80v330q0 52 -28 80.5t-81 28.5q-74 0 -124 -61t-50 -162v-216h-80z" />
    <glyph glyph-name="uni045C" unicode="&#x45c;" horiz-adv-x="496" 
d="M198 558l76 143h115l-129 -143h-62zM70 0v504h80v-211l218 211h99l-235 -231l253 -273h-99l-236 252v-252h-80z" />
    <glyph glyph-name="uni045D" unicode="&#x45d;" horiz-adv-x="574" 
d="M276 558l-127 143h115l74 -143h-62zM70 0v504h78v-383l273 383h83v-504h-78v384l-273 -384h-83z" />
    <glyph glyph-name="uni045E" unicode="&#x45e;" horiz-adv-x="480" 
d="M244 584q-50 0 -83 33.5t-33 82.5h60q0 -26 15.5 -43t40.5 -17t41.5 17t16.5 43h60q0 -49 -33.5 -82.5t-84.5 -33.5zM466 504l-184 -504l-28 -78q-23 -63 -55 -94.5t-83 -31.5h-96v69h92q22 0 39 15t31 56l19 56l-188 512h83l143 -400l144 400h83z" />
    <glyph glyph-name="uni045F" unicode="&#x45f;" horiz-adv-x="549" 
d="M236 -114v114h-166v504h78v-434h253v434h79v-504h-166v-114h-78z" />
    <glyph glyph-name="Wgrave" unicode="&#x1e80;" horiz-adv-x="996" 
d="M555 756h-59l-105 148h80zM239 0l-217 700h89l172 -571l177 571h76l176 -571l174 571h87l-214 -700h-88l-173 569l-174 -569h-85z" />
    <glyph glyph-name="wgrave" unicode="&#x1e81;" horiz-adv-x="761" 
d="M436 560h-59l-105 148h80zM192 0l-165 504h83l121 -392l111 392h77l110 -392l122 392h83l-165 -504h-79l-110 390l-110 -390h-78z" />
    <glyph glyph-name="Wacute" unicode="&#x1e82;" horiz-adv-x="996" 
d="M468 756l84 148h80l-105 -148h-59zM239 0l-217 700h89l172 -571l177 571h76l176 -571l174 571h87l-214 -700h-88l-173 569l-174 -569h-85z" />
    <glyph glyph-name="wacute" unicode="&#x1e83;" horiz-adv-x="761" 
d="M349 560l84 148h80l-105 -148h-59zM192 0l-165 504h83l121 -392l111 392h77l110 -392l122 392h83l-165 -504h-79l-110 390l-110 -390h-78z" />
    <glyph glyph-name="Wdieresis" unicode="&#x1e84;" horiz-adv-x="996" 
d="M355 908h93v-118h-93v118zM550 908h93v-118h-93v118zM239 0l-217 700h89l172 -571l177 571h76l176 -571l174 571h87l-214 -700h-88l-173 569l-174 -569h-85z" />
    <glyph glyph-name="wdieresis" unicode="&#x1e85;" horiz-adv-x="761" 
d="M236 712h93v-118h-93v118zM431 712h93v-118h-93v118zM192 0l-165 504h83l121 -392l111 392h77l110 -392l122 392h83l-165 -504h-79l-110 390l-110 -390h-78z" />
    <glyph glyph-name="Ygrave" unicode="&#x1ef2;" horiz-adv-x="590" 
d="M351 756h-59l-105 148h80zM252 0v293l-248 407h97l194 -325l193 325h97l-248 -407v-293h-85z" />
    <glyph glyph-name="ygrave" unicode="&#x1ef3;" horiz-adv-x="480" 
d="M300 560h-59l-105 148h80zM466 504l-184 -504l-28 -78q-23 -63 -55 -94.5t-83 -31.5h-96v69h92q22 0 39 15t31 56l19 56l-188 512h83l143 -400l144 400h83z" />
    <glyph glyph-name="endash" unicode="&#x2013;" horiz-adv-x="559" 
d="M52 282v70h452v-70h-452z" />
    <glyph glyph-name="emdash" unicode="&#x2014;" horiz-adv-x="779" 
d="M52 282v70h671v-70h-671z" />
    <glyph glyph-name="quoteleft" unicode="&#x2018;" horiz-adv-x="235" 
d="M196 557v-69h-19q-55 0 -86.5 34t-31.5 97v89h80v-86q0 -65 43 -65h14z" />
    <glyph glyph-name="quoteright" unicode="&#x2019;" horiz-adv-x="264" 
d="M62 557h14q43 0 43 65v86h80v-89q0 -63 -31.5 -97t-86.5 -34h-19v69z" />
    <glyph glyph-name="quotesinglbase" unicode="&#x201a;" horiz-adv-x="236" 
d="M56 -51h14q43 0 43 65v86h80v-89q0 -63 -31.5 -97t-86.5 -34h-19v69z" />
    <glyph glyph-name="quotedblleft" unicode="&#x201c;" horiz-adv-x="378" 
d="M181 557v-69h-19q-55 0 -86.5 34t-31.5 97v89h80v-86q0 -65 43 -65h14zM336 557v-69h-19q-55 0 -86.5 34t-31.5 97v89h80v-86q0 -65 43 -65h14z" />
    <glyph glyph-name="quotedblright" unicode="&#x201d;" horiz-adv-x="377" 
d="M44 557h14q43 0 43 65v86h80v-89q0 -63 -31.5 -97t-86.5 -34h-19v69zM199 557h14q43 0 43 65v86h80v-89q0 -63 -31.5 -97t-86.5 -34h-19v69z" />
    <glyph glyph-name="quotedblbase" unicode="&#x201e;" horiz-adv-x="384" 
d="M44 30h14q43 0 43 65v86h80v-89q0 -63 -31.5 -97t-86.5 -34h-19v69zM199 30h14q43 0 43 65v86h80v-89q0 -63 -31.5 -97t-86.5 -34h-19v69z" />
    <glyph glyph-name="dagger" unicode="&#x2020;" horiz-adv-x="466" 
d="M194 -50v485h-147v69h147v246h78v-246h147v-69h-147v-485h-78z" />
    <glyph glyph-name="daggerdbl" unicode="&#x2021;" horiz-adv-x="466" 
d="M194 -50v246h-147v69h147v170h-147v69h147v246h78v-246h147v-69h-147v-170h147v-69h-147v-246h-78z" />
    <glyph glyph-name="bullet" unicode="&#x2022;" horiz-adv-x="263" 
d="M131 177q-37 0 -63.5 26.5t-26.5 64.5t26.5 64.5t63.5 26.5t64 -26.5t27 -64.5t-27 -64.5t-64 -26.5z" />
    <glyph glyph-name="ellipsis" unicode="&#x2026;" horiz-adv-x="808" 
d="M127 -3q-26 0 -43 16.5t-17 41.5t17 41.5t43 16.5t43 -16.5t17 -41.5t-17 -41.5t-43 -16.5zM404 -3q-26 0 -43 16.5t-17 41.5t17 41.5t43 16.5t43 -16.5t17 -41.5t-17 -41.5t-43 -16.5zM680 -3q-26 0 -42.5 16.5t-16.5 41.5t17 41.5t42 16.5q26 0 43.5 -16.5t17.5 -41.5
t-17.5 -41.5t-43.5 -16.5z" />
    <glyph glyph-name="perthousand" unicode="&#x2030;" horiz-adv-x="1068" 
d="M361 548q0 -68 -45 -114t-115 -46q-69 0 -114.5 46.5t-45.5 113.5t45.5 113.5t114.5 46.5q70 0 115 -46t45 -114zM604 700h75l-508 -700h-75zM106 548q0 -43 26 -71t69 -28t69 28t26 71t-26 71t-69 28t-69 -28t-26 -71zM868 312q69 0 114 -46t45 -114t-45 -114t-114 -46
q-82 0 -128 61q-48 -61 -128 -61q-69 0 -114.5 46.5t-45.5 113.5t45.5 113.5t114.5 46.5q80 0 128 -61q46 61 128 61zM612 53q43 0 69 28t26 71t-26 71t-69 28t-69 -28t-26 -71t26 -71t69 -28zM868 53q43 0 68.5 28t25.5 71t-25.5 71t-68.5 28t-69.5 -28t-26.5 -71t26.5 -71
t69.5 -28z" />
    <glyph glyph-name="guilsinglleft" unicode="&#x2039;" horiz-adv-x="372" 
d="M329 84l-292 201v50l292 201v-84l-210 -142l210 -142v-84z" />
    <glyph glyph-name="guilsinglright" unicode="&#x203a;" horiz-adv-x="358" 
d="M56 84v84l210 142l-210 142v84l292 -201v-50z" />
    <glyph glyph-name="fraction" unicode="&#x2044;" horiz-adv-x="621" 
d="M19 0l508 700h75l-508 -700h-75z" />
    <glyph glyph-name="uni2070" unicode="&#x2070;" 
 />
    <glyph glyph-name="uni2074" unicode="&#x2074;" 
 />
    <glyph glyph-name="uni2075" unicode="&#x2075;" 
 />
    <glyph glyph-name="uni2076" unicode="&#x2076;" 
 />
    <glyph glyph-name="uni2077" unicode="&#x2077;" 
 />
    <glyph glyph-name="uni2078" unicode="&#x2078;" 
 />
    <glyph glyph-name="uni2079" unicode="&#x2079;" 
 />
    <glyph glyph-name="uni2080" unicode="&#x2080;" 
 />
    <glyph glyph-name="uni2081" unicode="&#x2081;" 
 />
    <glyph glyph-name="uni2082" unicode="&#x2082;" 
 />
    <glyph glyph-name="uni2083" unicode="&#x2083;" 
 />
    <glyph glyph-name="uni2084" unicode="&#x2084;" 
 />
    <glyph glyph-name="uni2085" unicode="&#x2085;" 
 />
    <glyph glyph-name="uni2086" unicode="&#x2086;" 
 />
    <glyph glyph-name="uni2087" unicode="&#x2087;" 
 />
    <glyph glyph-name="uni2088" unicode="&#x2088;" 
 />
    <glyph glyph-name="uni2089" unicode="&#x2089;" 
 />
    <glyph glyph-name="Euro" unicode="&#x20ac;" horiz-adv-x="640" 
d="M503 165h89q-16 -82 -68.5 -127.5t-139.5 -45.5h-37q-214 0 -243 247h-84v69h80v14v56v23h-80v69h86q31 238 241 238h37q86 0 138 -44t68 -124h-89q-11 42 -42 66.5t-77 24.5h-32q-135 0 -159 -161h244v-69h-249v-13v-76v-4h249v-69h-245q23 -170 160 -170h32
q47 0 78.5 26t42.5 70z" />
    <glyph glyph-name="trademark" unicode="&#x2122;" horiz-adv-x="845" 
d="M144 300v347h-122v53h305v-53h-123v-347h-60zM405 300v400h64l124 -270l125 270h64v-400h-61v274l-110 -237h-35l-110 237v-274h-61z" />
    <glyph glyph-name="uni2126" unicode="&#x2126;" horiz-adv-x="691" 
d="M58 0v68h149q-5 8 -13.5 22t-30.5 56.5t-38.5 84.5t-30 100t-13.5 109q0 119 71.5 193.5t193.5 74.5q121 0 193 -74.5t72 -193.5q0 -51 -13 -108t-31.5 -102t-37 -83t-31.5 -59l-13 -20h148v-68h-235v29q0 1 14.5 28t31.5 66t35 88.5t30 110.5t12 116q0 92 -48.5 145
t-126.5 53q-79 0 -127 -53t-48 -145q0 -55 12 -116t30 -110.5t35 -88.5t31.5 -66t14.5 -28v-29h-236z" />
    <glyph glyph-name="uni2153" unicode="&#x2153;" 
 />
    <glyph glyph-name="uni2154" unicode="&#x2154;" 
 />
    <glyph glyph-name="oneeighth" unicode="&#x215b;" 
 />
    <glyph glyph-name="threeeighths" unicode="&#x215c;" 
 />
    <glyph glyph-name="fiveeighths" unicode="&#x215d;" 
 />
    <glyph glyph-name="seveneighths" unicode="&#x215e;" 
 />
    <glyph glyph-name="partialdiff" unicode="&#x2202;" horiz-adv-x="595" 
d="M309 -8q-102 0 -174.5 69.5t-72.5 169.5q0 98 70.5 167t172.5 69q59 0 113 -30.5t76 -78.5q-1 90 -41 159t-98.5 100t-128 26t-125.5 -53l-44 62q42 34 96.5 50t111 13t111 -30.5t97.5 -74t69 -124t26 -175.5q0 -145 -70 -232t-189 -87zM309 67q76 0 124 46.5t48 118.5
q0 71 -48 116.5t-124 45.5q-75 0 -122.5 -45.5t-47.5 -116.5q0 -72 47.5 -118.5t122.5 -46.5z" />
    <glyph glyph-name="uni2206" unicode="&#x2206;" horiz-adv-x="678" 
d="M42 0v22l257 678h80l256 -678v-22h-593zM145 71h388l-195 517z" />
    <glyph glyph-name="product" unicode="&#x220f;" horiz-adv-x="532" 
d="M68 0v700h395v-700h-80v630h-234v-630h-81z" />
    <glyph glyph-name="summation" unicode="&#x2211;" horiz-adv-x="548" 
d="M43 0v24l228 326l-228 326v24h456v-69h-338l190 -270v-22l-190 -270h338v-69h-456z" />
    <glyph glyph-name="minus" unicode="&#x2212;" horiz-adv-x="552" 
d="M49 282v70h455v-70h-455z" />
    <glyph glyph-name="radical" unicode="&#x221a;" horiz-adv-x="579" 
d="M263 0l-115 319h-105v72h155l96 -264l192 581h73l-233 -708h-63z" />
    <glyph glyph-name="infinity" unicode="&#x221e;" horiz-adv-x="910" 
d="M240 167q-89 0 -143 53.5t-54 138.5t54 138.5t143 53.5q123 0 215 -127q94 127 215 127q89 0 143 -53.5t54 -138.5t-54 -138.5t-143 -53.5q-121 0 -215 127q-92 -127 -215 -127zM255 236q96 0 164 123q-68 123 -164 123q-61 0 -97.5 -33t-36.5 -90t36.5 -90t97.5 -33z
M655 236q62 0 98 33t36 90t-36 90t-98 33q-94 0 -164 -123q70 -123 164 -123z" />
    <glyph glyph-name="integral" unicode="&#x222b;" horiz-adv-x="536" 
d="M18 -212q-50 0 -74 14l30 71q26 -13 54 -13q49 0 75 23.5t37 73.5l123 578q19 92 70 132.5t136 40.5q46 0 71 -15l-29 -68q-22 13 -56 13q-91 0 -111 -96l-123 -581q-20 -93 -69 -133t-134 -40z" />
    <glyph glyph-name="approxequal" unicode="&#x2248;" horiz-adv-x="583" 
d="M394 365q-43 0 -100.5 27.5t-96.5 27.5q-56 0 -97 -47l-49 48q60 84 138 84q43 0 100 -27t97 -27q58 0 97 46l49 -47q-59 -85 -138 -85zM395 164q-44 0 -101 27.5t-96 27.5q-55 0 -97 -47l-50 48q60 84 138 84q44 0 101 -27.5t96 -27.5q54 0 98 47l48 -47
q-25 -37 -61 -61t-76 -24z" />
    <glyph glyph-name="notequal" unicode="&#x2260;" horiz-adv-x="550" 
d="M173 79l-61 34l49 77h-100v70h141l64 101h-205v70h246l70 111l61 -35l-49 -76h100v-70h-141l-64 -101h205v-70h-247z" />
    <glyph glyph-name="lessequal" unicode="&#x2264;" horiz-adv-x="542" 
d="M453 183l-371 184v79l371 184v-80l-297 -143l297 -144v-80zM43 0v70h454v-70h-454z" />
    <glyph glyph-name="greaterequal" unicode="&#x2265;" horiz-adv-x="542" 
d="M88 183v80l298 144l-298 143v80l371 -184v-79zM48 0v70h454v-70h-454z" />
    <glyph glyph-name="lozenge" unicode="&#x25ca;" horiz-adv-x="567" 
d="M245 0l-196 350l196 350h77l195 -350l-195 -350h-77zM283 76l154 274l-154 274l-153 -274z" />
    <glyph glyph-name="uni25CF" unicode="&#x25cf;" horiz-adv-x="799" 
d="M42 350q0 148 105 253t253 105t253 -105t105 -253q0 -149 -104.5 -253.5t-253.5 -104.5t-253.5 104.5t-104.5 253.5z" />
    <glyph glyph-name="musicalnote" unicode="&#x266a;" horiz-adv-x="766" 
d="M516 700q80 0 132 -52t52 -133v-53h-58v53q0 53 -35.5 87.5t-90.5 34.5h-90v-637q0 -75 -52.5 -127.5t-126.5 -52.5q-75 0 -127.5 52.5t-52.5 127.5q0 74 52.5 126.5t127.5 52.5q63 0 113 -40v561h156z" />
    <glyph glyph-name="uniF8FF" unicode="&#xf8ff;" 
 />
    <glyph glyph-name="A.ss03" horiz-adv-x="628" 
d="M576 114h39v-114h-86v91h-35v72h-360v-72h-35v-91h-86v114h38v100h38v104h39v104h39v117h48v100h49v61h99v-61h48v-100h48v-117h41v-104h37v-104h39v-100zM205 292h-35v-67h288v67h-36v97h-33v113h-44v91h-61v-91h-43v-113h-36v-97z" />
    <glyph glyph-name="C.ss03" horiz-adv-x="742" 
d="M681 240v-96h-61v-67h-67v-44h-71v-33h-191v33h-73v44h-66v64h-56v77h-35v264h35v77h56v64h66v44h73v33h191v-33h71v-44h67v-66h61v-90h-82v45h-40v51h-48v34h-57v25h-135v-25h-56v-34h-50v-51h-41v-60h-30v-203h30v-61h41v-51h50v-34h56v-25h135v25h57v34h48v51h40v52
h82z" />
    <glyph glyph-name="E.ss03" horiz-adv-x="566" 
d="M519 623h-360v-231h294v-77h-294v-238h361v-77h-382v29h-37v37h-27v568h27v38h37v28h381v-77z" />
    <glyph glyph-name="F.ss03" horiz-adv-x="560" 
d="M519 623h-360v-231h294v-77h-294v-315h-85v634h27v38h37v28h381v-77z" />
    <glyph glyph-name="G.ss03" horiz-adv-x="740" 
d="M601 476v38h-40v52h-50v35h-56v23h-137v-23h-57v-35h-49v-52h-41v-61h-27v-206h27v-61h41v-52h49v-35h57v-23h143v32h60v62h79v89h-30v32h-186v73l211 -1v-30h42v-35h42v-298h-79v107h-47v-63h-65v-44h-197v33h-73v44h-66v64h-56v77h-35v264h35v77h56v64h66v44h73v33h191
v-33h71v-44h67v-64h59v-83h-78z" />
    <glyph glyph-name="M.ss03" horiz-adv-x="849" 
d="M73 0v700h91v-44h82v-115h44v-103h45v-117h37v-110h29v-88h47v88h29v110h38v117h45v103h43v115h82v44h91v-700h-83v565h-48v-105h-44v-108h-40v-113h-37v-98h-36v-89h-31v-52h-64v52h-32v89h-35v98h-38v113h-40v108h-44v105h-47v-565h-84z" />
    <glyph glyph-name="N.ss03" horiz-adv-x="723" 
d="M74 0v700h91v-42h90v-99h74v-96h67v-111h57v-102h61v-116h50v566h85v-700h-91v51h-89v112h-60v101h-62v114h-65v105h-73v92h-50v-575h-85z" />
    <glyph glyph-name="O.ss03" horiz-adv-x="771" 
d="M291 0v33h-73v44h-66v64h-56v77h-35v264h35v77h56v64h66v44h73v33h191v-33h71v-44h67v-64h55v-77h35v-264h-35v-77h-55v-64h-67v-44h-71v-33h-191zM319 78h135v25h57v34h48v51h40v61h31v203h-31v60h-40v51h-48v34h-57v25h-135v-25h-56v-34h-50v-51h-41v-60h-30v-203h30
v-61h41v-51h50v-34h56v-25z" />
    <glyph glyph-name="S.ss03" horiz-adv-x="606" 
d="M183 0v33h-49v44h-54v61h-38v93h86v-62h23v-40h32v-27h53v-27h139v19h69v50h36v93h-38v43h-78v26h-77v27h-62v30h-68v32h-53v48h-40v123h29v57h40v44h57v33h224v-33h59v-44h36v-42h26v-33h21v-52h-89v57h-34v45h-68v28h-130v-19h-56v-45h-28v-76h27v-38h56v-28h60v-28h70
v-27h72v-29h49v-31l45 -1v-36h33v-154h-33v-37h-40v-44h-70v-33h-237z" />
    <glyph glyph-name="V.ss03" horiz-adv-x="632" 
d="M264 0v61h-49v100h-48v117h-39v104h-39v104h-38v100h-38v114h86v-91h35v-100h36v-101h35v-97h36v-113h43v-91h61v91h44v113h33v97h36v101h36v100h35v91h86v-114h-39v-100h-39v-104h-37v-104h-41v-117h-48v-100h-48v-61h-99z" />
    <glyph glyph-name="Z.ss03" horiz-adv-x="596" 
d="M134 77h423v-77h-516v164h51v58h52v57h52v58h51v57h51v58h52v57h52v57h52v57h-393v77h486v-163h-51v-58h-52v-58h-52v-57h-52v-58h-51v-57h-51v-58h-52v-57h-52v-57z" />
    <glyph glyph-name="A.ss04" horiz-adv-x="632" 
d="M597 114q8 0 13.5 -8.5t5.5 -20.5v-85h-85v62q0 12 -5.5 20.5t-12.5 8.5t-12 8.5t-5 19.5v15q0 12 -8.5 20.5t-20.5 8.5h-304q-12 0 -20.5 -8.5t-8.5 -20.5v-15q0 -11 -5.5 -19.5t-12.5 -8.5t-12 -8.5t-5 -20.5v-62h-86v85q0 12 5.5 20.5t13.5 8.5t13.5 8.5t5.5 20.5v42
q0 12 5.5 20.5t14.5 8.5q7 0 12.5 8.5t5.5 20.5v46q0 13 6 21t14 8t13.5 8.5t5.5 20.5v46q0 12 6 20.5t14 8.5h3q7 0 11.5 8.5t4.5 19.5v35q0 12 6.5 20.5t16.5 8.5h4q9 0 15 8.5t6 20.5v67q0 12 7 20.5t17 8.5h8q20 0 20 25v8q0 12 8.5 20t20.5 8h38q12 0 20.5 -8t8.5 -20
v-8q0 -25 20 -25h8q10 0 17 -8.5t7 -20.5v-67q0 -11 6 -20t14 -9h4q10 0 16.5 -8.5t6.5 -20.5v-35q0 -28 17 -28h3q8 0 13.5 -8.5t5.5 -20.5v-46q0 -12 5.5 -20.5t13.5 -8.5q9 0 15 -8t6 -21v-46q0 -12 5.5 -20.5t12.5 -8.5q9 0 14.5 -8.5t5.5 -20.5v-42q0 -12 5.5 -20.5
t12.5 -8.5zM187 292q-7 0 -12 -8.5t-5 -19.5v-10q0 -12 8.5 -20.5t20.5 -8.5h231q12 0 21 8.5t9 20.5v10q0 11 -5.5 19.5t-12.5 8.5q-17 0 -17 29v39q0 12 -5.5 20.5t-13.5 8.5q-7 0 -12 8.5t-5 20.5v26q0 12 -6.5 20.5t-15.5 8.5t-15.5 8.5t-6.5 20.5v62q0 28 -30 28
q-31 0 -31 -28v-62q0 -12 -6 -20.5t-15 -8.5t-15.5 -8.5t-6.5 -20.5v-26q0 -12 -5.5 -20.5t-12.5 -8.5t-12.5 -8.5t-5.5 -20.5v-39q0 -12 -5.5 -20.5t-12.5 -8.5z" />
    <glyph glyph-name="C.ss04" horiz-adv-x="742" 
d="M320 0q-12 0 -20.5 5t-8.5 12q0 16 -29 16h-15q-12 0 -20.5 5.5t-8.5 14.5v5q0 7 -9 13t-20 6h-8q-12 0 -20.5 8.5t-8.5 20.5v6q0 29 -21 29h-8q-11 0 -19 8.5t-8 20.5v19q0 29 -17 29q-7 0 -12.5 8.5t-5.5 20.5v206q0 12 5.5 20.5t12.5 8.5t12 8.5t5 20.5v19
q0 12 6.5 20.5t17.5 8.5h6q11 0 18.5 8.5t7.5 20.5v6q0 12 8.5 20.5t20.5 8.5h8q29 0 29 17v6q0 8 8.5 14.5t20.5 6.5h15q12 0 20.5 5t8.5 12q0 16 29 16h133q29 0 29 -16q0 -7 8.5 -12t20.5 -5h13q12 0 20.5 -6.5t8.5 -14.5v-5q0 -18 29 -18h9q12 0 20.5 -8.5t8.5 -20.5
v-10q0 -11 7 -19t17 -8h10q11 0 19 -8.5t8 -20.5v-61h-82v16q0 12 -6 20.5t-14 8.5t-14 7.5t-6 18.5t-7 18t-17 7t-17 5t-7 12q0 17 -23 17h-12q-22 0 -22 13q0 12 -29 12h-77q-29 0 -29 -12q0 -13 -27 -13h-7q-10 0 -16 -5t-6 -12t-7 -12t-17 -5q-11 0 -18.5 -7.5
t-7.5 -17.5q0 -26 -20 -26q-8 0 -14.5 -8.5t-6.5 -20.5v-6q0 -25 -15 -25q-6 0 -10.5 -8.5t-4.5 -20.5v-145q0 -12 4.5 -20.5t10.5 -8.5t10.5 -8.5t4.5 -20.5v-5q0 -12 6 -19.5t15 -7.5q20 0 20 -25q0 -11 7.5 -18.5t18.5 -7.5q10 0 17 -5t7 -12q0 -17 27 -17h9q20 0 20 -13
q0 -12 29 -12h77q29 0 29 12q0 13 26 13h6q10 0 17.5 5t7.5 12t7 12t17 5t17 7.5t7 18.5q0 10 6 17.5t14 7.5t14 8.5t6 20.5v23h82v-67q0 -12 -8 -20.5t-19 -8.5h-10q-11 0 -17.5 -9t-6.5 -20v-9q0 -12 -8.5 -20.5t-20.5 -8.5h-9q-12 0 -20.5 -6.5t-8.5 -15.5t-8.5 -15.5
t-20.5 -6.5h-13q-29 0 -29 -16q0 -7 -8.5 -12t-20.5 -5h-133z" />
    <glyph glyph-name="E.ss04" horiz-adv-x="566" 
d="M519 623h-335q-25 0 -25 -25v-181q0 -25 25 -25h269v-77h-269q-25 0 -25 -25v-188q0 -25 25 -25h336v-77h-357q-25 0 -25 15q0 14 -18 14q-19 0 -19 19q0 18 -14 18q-13 0 -13 25v518q0 25 13 25q14 0 14 19t19 19q18 0 18 14t25 14h356v-77z" />
    <glyph glyph-name="F.ss04" horiz-adv-x="560" 
d="M519 623h-335q-25 0 -25 -25v-181q0 -25 25 -25h269v-77h-269q-25 0 -25 -25v-290h-85v609q0 25 13 25q14 0 14 19t19 19q18 0 18 14t25 14h356v-77z" />
    <glyph glyph-name="G.ss04" horiz-adv-x="740" 
d="M320 0q-12 0 -20.5 5t-8.5 12q0 16 -29 16h-15q-13 0 -21 6.5t-8 16.5q0 8 -8.5 14.5t-20.5 6.5q-37 0 -37 29q0 35 -26 35q-13 0 -21.5 8t-8.5 21v19q0 29 -17 29q-7 0 -12.5 8.5t-5.5 20.5v206q0 12 5.5 20.5t12.5 8.5t12 8.5t5 20.5v19q0 12 8 20.5t19 8.5
q13 0 21 8.5t8 22.5q0 33 37 33q13 0 21 6.5t8 16.5q0 8 8.5 14.5t20.5 6.5h15q12 0 20.5 5t8.5 12q0 16 29 16h133q29 0 29 -16q0 -7 8.5 -12t20.5 -5h13q12 0 20.5 -6.5t8.5 -14.5q0 -10 8.5 -16.5t20.5 -6.5h9q12 0 20.5 -8.5t8.5 -20.5v-6q0 -11 7 -20t17 -9h8
q11 0 19 -8.5t8 -20.5v-54h-78v9q0 12 -5.5 20.5t-14.5 8.5q-8 0 -14 7.5t-6 18.5t-7.5 18.5t-17.5 7.5t-17.5 5t-7.5 13q0 7 -7.5 12t-19.5 5q-29 0 -29 11q0 12 -29 12h-79q-29 0 -29 -12q0 -11 -29 -11q-11 0 -19.5 -5t-8.5 -12q0 -18 -24 -18q-11 0 -18 -7.5t-7 -18.5
t-6 -18.5t-14 -7.5q-21 0 -21 -31q0 -30 -13 -30q-14 0 -14 -29v-148q0 -29 14 -29q13 0 13 -31q0 -12 6 -21t15 -9q8 0 14 -7t6 -18t7.5 -19t17.5 -8q24 0 24 -17q0 -18 30 -18q27 0 27 -11q0 -12 29 -12h85q12 0 20.5 5t8.5 11q0 7 9 11.5t22 4.5q29 0 29 34q0 12 8.5 22
t20.5 10h25q25 0 25 25v40q0 20 -15 20q-7 0 -11.5 5t-4.5 11q0 16 -29 16h-156v73l183 -1q28 0 28 -15t21 -15t21 -17q0 -18 22 -18q8 0 14 -8.5t6 -20.5v-269h-79v89q0 27 -23 27q-24 0 -24 -27v-17q0 -28 -36 -28q-12 0 -20.5 -6.5t-8.5 -15.5t-8.5 -15.5t-20.5 -6.5
h-139z" />
    <glyph glyph-name="M.ss04" horiz-adv-x="849" 
d="M73 0v676q0 24 24 24h43q24 0 24 -19v-7q0 -18 23 -18h35q24 0 24 -24v-67q0 -24 22 -24t22 -24v-55q0 -24 22 -24q23 0 23 -24v-69q0 -24 19 -24q18 0 18 -24v-62q0 -24 15 -24q14 0 14 -24v-40q0 -24 24 -24q23 0 23 24v40q0 24 14 24q15 0 15 24v62q0 24 18 24
q20 0 20 24v69q0 24 22 24q23 0 23 24v55q0 24 21 24q22 0 22 24v67q0 24 24 24h35q23 0 23 18v7q0 19 24 19h43q24 0 24 -24v-676h-83v541q0 24 -24 24t-24 -24v-57q0 -24 -22 -24t-22 -24v-60q0 -24 -20 -24t-20 -24v-65q0 -24 -19 -24q-18 0 -18 -24v-50q0 -24 -18 -24
t-18 -24v-41q0 -24 -16 -24q-15 0 -15 -24v-4q0 -24 -21 -24h-23q-20 0 -20 24v4q0 24 -16 24t-16 24v41q0 24 -17 24q-18 0 -18 24v50q0 24 -19 24t-19 24v65q0 24 -20 24t-20 24v60q0 24 -22 24t-22 24v57q0 24 -24 24q-23 0 -23 -24v-541h-84z" />
    <glyph glyph-name="N.ss04" horiz-adv-x="723" 
d="M564 700h85v-676q0 -24 -24 -24h-43q-24 0 -24 24v5q0 22 -24 22h-41q-24 0 -24 24v64q0 24 -24 24h-12q-24 0 -24 24v53q0 24 -24 24h-14q-24 0 -24 24v66q0 24 -24 24h-17q-24 0 -24 24v57q0 24 -23 24h-26q-24 0 -24 24v44q0 24 -24 24h-2q-24 0 -24 -24v-551h-85v676
q0 24 24 24h43q24 0 24 -21v-6q0 -15 24 -15h42q24 0 24 -24v-51q0 -24 24 -24h26q24 0 24 -24v-48q0 -24 24 -24h19q24 0 24 -24v-63q0 -24 23 -24h10q24 0 24 -24v-54q0 -24 24 -24h13q24 0 24 -24v-68q0 -24 24 -24h2q24 0 24 24v542z" />
    <glyph glyph-name="O.ss04" horiz-adv-x="771" 
d="M320 0q-12 0 -20.5 5t-8.5 12q0 16 -29 16h-15q-12 0 -20.5 5.5t-8.5 14.5v5q0 7 -9 13t-20 6h-8q-12 0 -20.5 8.5t-8.5 20.5v6q0 29 -21 29h-8q-11 0 -19 8.5t-8 20.5v19q0 29 -17 29q-7 0 -12.5 8.5t-5.5 20.5v206q0 12 5.5 20.5t12.5 8.5t12 8.5t5 20.5v19
q0 12 6.5 20.5t17.5 8.5h6q11 0 18.5 8.5t7.5 20.5v6q0 12 8.5 20.5t20.5 8.5h8q29 0 29 17v6q0 8 8.5 14.5t20.5 6.5h15q12 0 20.5 5t8.5 12q0 16 29 16h132q29 0 29 -16q0 -7 8.5 -12t20.5 -5h14q12 0 20.5 -6.5t8.5 -14.5v-6q0 -17 29 -17h9q12 0 20.5 -8.5t8.5 -20.5v-6
q0 -12 7.5 -20.5t17.5 -8.5h6q11 0 17.5 -8.5t6.5 -20.5v-19q0 -12 5 -20.5t12 -8.5t12.5 -8.5t5.5 -20.5v-206q0 -12 -5.5 -20.5t-12.5 -8.5q-17 0 -17 -29v-19q0 -12 -7.5 -20.5t-19.5 -8.5h-8q-20 0 -20 -29v-6q0 -12 -8.5 -20.5t-20.5 -8.5h-9q-11 0 -20 -6t-9 -13v-5
q0 -9 -8.5 -14.5t-20.5 -5.5h-14q-29 0 -29 -16q0 -7 -8.5 -12t-20.5 -5h-132zM348 78h76q29 0 29 12q0 13 19 13h9q27 0 27 17q0 7 7.5 12t17.5 5q11 0 18 7.5t7 18.5q0 10 6 17.5t14 7.5q9 0 15 7.5t6 19.5v5q0 12 4.5 20.5t10.5 8.5t11 8.5t5 20.5v145q0 12 -5 20.5
t-11 8.5q-15 0 -15 25v6q0 12 -6.5 20.5t-14.5 8.5t-14 7.5t-6 18.5q0 10 -7 17.5t-18 7.5q-10 0 -17.5 5t-7.5 12t-6 12t-16 5h-7q-26 0 -26 13q0 12 -29 12h-76q-29 0 -29 -12q0 -13 -27 -13h-7q-10 0 -16 -5t-6 -12t-7 -12t-17 -5q-11 0 -18.5 -7.5t-7.5 -17.5
q0 -26 -20 -26q-8 0 -14.5 -8.5t-6.5 -20.5v-6q0 -25 -15 -25q-6 0 -10.5 -8.5t-4.5 -20.5v-145q0 -12 4.5 -20.5t10.5 -8.5t10.5 -8.5t4.5 -20.5v-5q0 -12 6 -19.5t15 -7.5q20 0 20 -25q0 -11 7.5 -18.5t18.5 -7.5q10 0 17 -5t7 -12q0 -17 27 -17h9q20 0 20 -13
q0 -12 29 -12z" />
    <glyph glyph-name="S.ss04" horiz-adv-x="606" 
d="M207 0q-24 0 -24 17q0 16 -20 16h-6q-23 0 -23 21v3q0 20 -24 20h-6q-24 0 -24 24v13q0 24 -15 24h-6q-17 0 -17 24v69h86v-39q0 -23 12 -23q11 0 11 -20t16 -20t16 -14q0 -13 23 -13h7q23 0 23 -13q0 -14 24 -14h91q24 0 24 10q0 9 23 9h23q23 0 23 23q0 27 18 27t18 24
v45q0 24 -19 24t-19 22q0 21 -24 21h-30q-24 0 -24 13t-24 13h-29q-24 0 -24 14q0 13 -24 13h-14q-24 0 -24 15t-24 15h-20q-24 0 -24 16t-24 16h-5q-24 0 -24 21v4q0 23 -20 23t-20 24v75q0 24 15 24q14 0 14 24v9q0 24 20 24t20 23q0 21 24 21h9q24 0 24 17q0 16 24 16
h176q24 0 24 -16q0 -17 24 -17h11q24 0 24 -21v-5q0 -18 14 -18h6q16 0 16 -21v-3q0 -18 14 -18q12 0 12 -16q0 -17 10 -17q11 0 11 -16v-36h-89v33q0 24 -17 24t-17 23q0 22 -23 22h-22q-23 0 -23 15q0 13 -24 13h-82q-24 0 -24 -9q0 -10 -24 -10h-8q-24 0 -24 -25
q0 -20 -14 -20t-14 -24v-28q0 -24 14 -24q13 0 13 -19t24 -19h8q24 0 24 -14t24 -14h12q24 0 24 -14t24 -14h22q24 0 24 -13q0 -14 24 -14h24q24 0 24 -14q0 -15 25 -15q24 0 24 -15q0 -16 23 -16q22 -2 22 -19q0 -18 17 -18q16 0 16 -24v-106q0 -24 -16 -24q-17 0 -17 -19
q0 -18 -21 -18q-19 0 -19 -22t-24 -22h-22q-24 0 -24 -16q0 -17 -24 -17h-189z" />
    <glyph glyph-name="V.ss04" horiz-adv-x="632" 
d="M296 0q-12 0 -20.5 8t-8.5 20v8q0 25 -20 25h-8q-10 0 -17 8.5t-7 20.5v67q0 12 -6 20.5t-15 8.5h-4q-10 0 -16.5 8.5t-6.5 20.5v35q0 11 -4.5 19.5t-11.5 8.5h-3q-8 0 -14 8.5t-6 20.5v46q0 12 -5.5 20.5t-13.5 8.5t-14 8.5t-6 20.5v46q0 12 -5.5 20.5t-12.5 8.5
q-9 0 -14.5 8.5t-5.5 20.5v42q0 12 -5.5 20.5t-13.5 8.5t-13.5 8.5t-5.5 20.5v85h86v-62q0 -12 5 -20.5t12 -8.5t12.5 -8.5t5.5 -20.5v-42q0 -29 18 -29q7 0 12.5 -8.5t5.5 -20.5v-43q0 -12 5 -20.5t12 -8.5t12.5 -8.5t5.5 -20.5v-39q0 -12 5.5 -20.5t12.5 -8.5t12.5 -8.5
t5.5 -20.5v-26q0 -12 6.5 -20.5t15.5 -8.5t15 -8.5t6 -19.5v-63q0 -28 31 -28q30 0 30 28v63q0 11 6.5 19.5t15.5 8.5t15.5 8.5t6.5 20.5v26q0 12 5 20.5t12 8.5q8 0 13.5 8.5t5.5 20.5v39q0 29 17 29t17 29v43q0 12 5.5 20.5t13.5 8.5q7 0 12.5 8.5t5.5 20.5v42
q0 12 5 20.5t12 8.5t12.5 8.5t5.5 20.5v62h85v-85q0 -12 -5.5 -20.5t-13.5 -8.5q-7 0 -12.5 -8.5t-5.5 -20.5v-42q0 -12 -5.5 -20.5t-14.5 -8.5q-7 0 -12.5 -8.5t-5.5 -20.5v-46q0 -12 -6 -20.5t-15 -8.5q-8 0 -13.5 -8.5t-5.5 -20.5v-46q0 -12 -5.5 -20.5t-13.5 -8.5h-3
q-17 0 -17 -28v-35q0 -12 -6.5 -20.5t-16.5 -8.5h-4q-8 0 -14 -9t-6 -20v-67q0 -12 -7 -20.5t-17 -8.5h-8q-20 0 -20 -25v-8q0 -12 -8.5 -20t-20.5 -8h-38z" />
    <glyph glyph-name="Z.ss04" horiz-adv-x="596" 
d="M65 0q-21 0 -21 20v120q0 19 21 19h3q28 0 28 29v10q0 20 20 20h4q27 0 27 27v10q0 20 21 20h4q27 0 27 28v10q0 20 21 20h3q27 0 27 28v9q0 20 21 20h3q28 0 28 28v10q0 20 20 20h4q27 0 27 28v10q0 19 21 19h4q27 0 27 28v9q0 20 21 20h4q27 0 27 27v10q0 24 -27 24
h-366v77h459q21 0 21 -20v-119q0 -20 -21 -20h-3q-27 0 -27 -28v-10q0 -20 -21 -20h-4q-28 0 -28 -28v-10q0 -19 -20 -19h-4q-27 0 -27 -29v-9q0 -20 -21 -20h-4q-27 0 -27 -28v-10q0 -20 -21 -20h-3q-27 0 -27 -28v-9q0 -20 -21 -20h-3q-28 0 -28 -28v-11q0 -19 -20 -19h-4
q-28 0 -28 -28v-10q0 -19 -20 -19h-4q-27 0 -27 -26v-10q0 -25 27 -25h396v-77h-489z" />
    <glyph glyph-name="S.ss06" horiz-adv-x="606" 
d="M207 0q-24 0 -24 17q0 16 -20 16h-6q-23 0 -23 21v3q0 20 -24 20h-6q-24 0 -24 24v13q0 24 -15 24h-6q-17 0 -17 24v69h141v-14q0 -23 12 -23q11 0 11 -20t16 -20t16 -14q0 -13 18 -13h6q19 0 19 -13q0 -14 21 -14h12q22 0 22 14q0 4 5.5 8.5t14.5 4.5h22q23 0 23 20
q0 22 18 22q15 0 15 24v3q0 24 -17 24q-19 0 -19 21q0 19 -18 19h-11q-11 0 -17.5 7.5t-6.5 14.5q0 13 -24 13h-12q-11 0 -17.5 7.5t-6.5 14.5q0 13 -24 13h-12q-24 0 -24 18q0 15 -24 15h-20q-24 0 -24 16t-24 16h-5q-24 0 -24 21v4q0 23 -20 23t-20 24v75q0 24 15 24
q14 0 14 24v9q0 24 20 24t20 23q0 21 24 21h9q24 0 24 17q0 16 24 16h176q24 0 24 -16q0 -17 24 -17h11q24 0 24 -21v-5q0 -18 14 -18h6q16 0 16 -21v-3q0 -18 14 -18q12 0 12 -16q0 -17 10 -17q11 0 11 -16v-36h-77v42q0 23 -17 23t-17 23t-23 23h-27q-23 0 -23 14
q0 13 -24 13h-89q-24 0 -24 -9q0 -10 -24 -10h-15q-24 0 -24 -24q0 -22 -14 -22t-14 -25v-34q0 -24 14 -24t14 -19t24 -19h11q24 0 24 -14t24 -14h13q24 0 24 -14t24 -14h33q24 0 24 -13q0 -14 24 -14h15q24 0 24 -14q0 -15 25 -15q24 0 24 -15q0 -14 23 -16q22 -2 22 -19
q0 -18 17 -18q16 0 16 -24v-106q0 -24 -16 -24q-17 0 -17 -19q0 -18 -21 -18q-19 0 -19 -22t-24 -22h-22q-24 0 -24 -16q0 -17 -24 -17h-189z" />
    <glyph glyph-name="i.loclTRK" horiz-adv-x="231" 
d="M69 712h93v-118h-93v118zM76 0v504h80v-504h-80z" />
    <glyph glyph-name="a.ss01" horiz-adv-x="601" 
d="M284 -8q-114 0 -178.5 73t-64.5 187t64.5 187t178.5 73q50 0 96.5 -23t70.5 -59v74h80v-504h-80v75q-18 -36 -64.5 -59.5t-102.5 -23.5zM291 64q76 0 121.5 51.5t45.5 136.5t-45.5 136.5t-121.5 51.5t-122 -51.5t-46 -136.5t46 -136.5t122 -51.5z" />
    <glyph glyph-name="g.ss03" horiz-adv-x="601" 
d="M531 504v-560h-25v-65h-32v-54h-50v-29h-317v69h310v65h34v140q-18 -35 -64 -56.5t-103 -21.5q-114 0 -178.5 73t-64.5 187t64.5 187t178.5 73q51 0 97.5 -23t69.5 -59v74h80zM291 64q76 0 121.5 51.5t45.5 136.5t-45.5 136.5t-121.5 51.5t-122 -51t-46 -137t46 -137
t122 -51z" />
    <glyph glyph-name="t.ss03" horiz-adv-x="388" 
d="M225 0v29h-50v37h-32v82h-25v285h-94v71h94v161h80v-161h146v-71h-146v-319h24v-41h131v-73h-128z" />
    <glyph glyph-name="g.ss04" horiz-adv-x="601" 
d="M531 504v-554q0 -6 -6 -6h-12q-7 0 -7 -6v-53q0 -6 -6 -6h-20q-6 0 -6 -6v-42q0 -6 -7 -6h-37q-6 0 -6 -6v-17q0 -6 -6 -6h-311v69h312q6 0 6 7l1 45q0 6 7 6h12q6 0 6 7v140q-18 -35 -64 -56.5t-103 -21.5q-114 0 -178.5 73t-64.5 187t64.5 187t178.5 73q51 0 97.5 -23
t69.5 -59v74h80zM291 64q76 0 121.5 51.5t45.5 136.5t-45.5 136.5t-121.5 51.5t-122 -51t-46 -137t46 -137t122 -51z" />
    <glyph glyph-name="t.ss04" horiz-adv-x="388" 
d="M234 0q-9 0 -9 9v11q0 9 -9 9h-32q-9 0 -9 9v19q0 9 -9 9h-11q-11 0 -11 11v62q0 9 -10 9h-7q-9 0 -9 9v276h-94v71h94v161h80v-161h146v-71h-146v-310q0 -9 9 -9h6q9 0 9 -9v-23q0 -9 9 -9h122v-73h-119z" />
    <glyph glyph-name="f_f.dlig" horiz-adv-x="609" 
d="M528 637q-36 0 -58 -23.5t-22 -63.5v-46h157v-71h-157v-433h-80v433h-167v-433h-80v433h-105v71h105v48q0 72 42.5 114t114.5 42h80v-71h-77q-36 0 -58 -23.5t-22 -63.5v-46h167v48q0 72 42.5 114t114.5 42h80v-71h-77z" />
    <glyph glyph-name="o_o.dlig" horiz-adv-x="1037" 
d="M284 -8q-109 0 -176 73t-67 187t67 187t176 73q41 0 76 -12.5t57.5 -30t40.5 -34.5t33.5 -29.5t27.5 -12.5t27.5 12.5t33.5 30t40.5 34.5t57.5 29.5t76 12.5q109 0 176 -73t67 -187t-67 -187t-176 -73q-41 0 -76 12.5t-57.5 30t-40.5 34.5t-33.5 29.5t-27.5 12.5
t-27.5 -12.5t-33.5 -29.5t-40.5 -34.5t-57.5 -30t-76 -12.5zM292 65q38 0 73 19t56.5 42t47.5 42t50 19t50 -19t47.5 -42t56.5 -42t73 -19q76 0 122 52t46 135t-46 135t-122 52q-38 0 -73 -19t-56.5 -42t-47.5 -42t-50 -19t-50 19t-47.5 42t-56.5 42t-73 19q-76 0 -122 -52
t-46 -135t46 -135t122 -52z" />
    <glyph glyph-name="f_f_i.lig" 
 />
    <glyph glyph-name="f_f_l.lig" 
 />
    <glyph glyph-name="f_i.lig" 
 />
    <glyph glyph-name="f_l.lig" 
 />
    <glyph glyph-name="eight.ss02" horiz-adv-x="570" 
d="M57 518q0 82 64.5 136t163.5 54t163 -54t64 -136q0 -43 -15 -73.5t-32.5 -42.5t-32.5 -25t-15 -24t16.5 -24.5t36 -27t36 -44.5t16.5 -74q0 -83 -66.5 -137t-170.5 -54t-171 54t-67 137q0 35 11 62t26.5 42t31 26t26.5 20.5t11 19.5q0 11 -15 24t-33 25t-33 42.5
t-15 73.5zM138 511q0 -32 15.5 -56.5t34.5 -36.5t34.5 -29t15.5 -36t-17 -36.5t-37 -30.5t-37 -38.5t-17 -57.5q0 -52 43.5 -85t111.5 -33q67 0 111 33.5t44 84.5q0 32 -17.5 57.5t-38 38.5t-38 30.5t-17.5 36.5t16 36t35.5 29t35.5 36.5t16 56.5q0 52 -41.5 84.5
t-105.5 32.5q-65 0 -106 -32.5t-41 -84.5z" />
    <glyph glyph-name="zero.ss03" horiz-adv-x="617" 
d="M535 542h34v-384h-34v-52h-52v-73h-83v-33h-182v33h-85v73h-51v52h-34v384h34v52h51v73h85v33h182v-33h83v-73h52v-52zM487 191v318h-49v71h-53v43h-154v-43h-53v-71h-48v-318h48v-70h53v-43h154v43h53v70h49z" />
    <glyph glyph-name="two.ss03" horiz-adv-x="587" 
d="M183 78h349v-78h-479l1 117h50v56h75v73h76v62h80v76h59v70h42v102h-59v67h-140v-38h-61v-76h-30v-48h-84v81h33v75h37v50h90v33h159v-33h63v-48h48v-60h35v-136h-50v-85h-69v-80h-68v-59h-82v-73h-75v-48z" />
    <glyph glyph-name="four.ss03" horiz-adv-x="658" 
d="M510 253h105v-83h-105v-170h-94v170h-373v178h68v77h75v74h71v82h73v78h86v41h94v-447zM416 253v329h-46v-64h-62v-75h-63v-69h-68v-69h-55v-52h294z" />
    <glyph glyph-name="seven.ss03" horiz-adv-x="562" 
d="M42 700h477v-193h-73v-101h-61v-123h-57v-118h-56v-93h-65v-72h-78v122h69v94h61v118h55v114h58v112h67v56h-397v84z" />
    <glyph glyph-name="zero.tn" horiz-adv-x="638" 
d="M301 -8q-125 0 -182 82.5t-57 247.5v56q0 165 57 247.5t182 82.5h35q125 0 182 -82.5t57 -247.5v-56q0 -165 -57 -247.5t-182 -82.5h-35zM304 69h31q81 0 118 60t37 183v76q0 123 -37 183t-118 60h-31q-81 0 -118.5 -60t-37.5 -183v-76q0 -123 37.5 -183t118.5 -60z" />
    <glyph glyph-name="one.tn" horiz-adv-x="638" 
d="M369 77h149v-77h-403v77h169v477q-16 -24 -63 -24h-67v77h57q35 0 52.5 20t21.5 73h84v-623z" />
    <glyph glyph-name="two.tn" horiz-adv-x="638" 
d="M88 473q-4 107 59.5 171t171.5 64q100 0 163.5 -57.5t63.5 -151.5q0 -140 -163 -221l-100 -51q-50 -25 -85.5 -64t-35.5 -86h388v-77h-471v61q0 84 51 144t119 94l107 55q102 52 102 147q0 59 -39 95.5t-100 36.5q-67 0 -106.5 -44t-36.5 -116h-88z" />
    <glyph glyph-name="three.tn" horiz-adv-x="638" 
d="M324 -8q-108 0 -179.5 63.5t-71.5 164.5h84q0 -67 47.5 -109t119.5 -42q74 0 117 34t43 96q0 61 -42.5 93.5t-117.5 32.5h-56v75h55q61 0 97 34t36 88q0 52 -37 81.5t-101 29.5q-60 0 -96.5 -34.5t-40.5 -95.5h-81q4 93 64.5 149t154.5 56q98 0 161 -52t63 -132
q0 -50 -29 -93t-72 -63q57 -20 93 -64.5t36 -105.5q0 -96 -71.5 -151t-175.5 -55z" />
    <glyph glyph-name="four.tn" horiz-adv-x="638" 
d="M412 0v175h-376v77l361 448h100v-448h109v-77h-109v-175h-85zM127 252h285v354z" />
    <glyph glyph-name="five.tn" horiz-adv-x="638" 
d="M315 -8q-94 0 -160.5 58.5t-75.5 146.5h80q7 -61 49 -95t106 -34q78 0 124.5 43t46.5 118t-46.5 120.5t-124.5 45.5q-56 0 -96 -22t-56 -60h-69l54 387h374v-77h-309l-31 -211q26 24 65.5 39.5t76.5 15.5q110 0 178.5 -66t68.5 -172q0 -107 -70.5 -172t-184.5 -65z" />
    <glyph glyph-name="six.tn" horiz-adv-x="638" 
d="M326 468q108 0 177 -67.5t69 -170.5t-71 -170.5t-179 -67.5q-119 0 -189.5 87.5t-70.5 233.5q0 191 76 293.5t197 102.5q95 0 161 -51.5t80 -135.5h-84q-11 52 -52.5 82t-103.5 30q-83 0 -136.5 -78.5t-58.5 -197.5q22 49 74 79.5t111 30.5zM322 67q73 0 119.5 46
t46.5 118q0 71 -46.5 116.5t-119.5 45.5t-119.5 -45.5t-46.5 -116.5q0 -72 46.5 -118t119.5 -46z" />
    <glyph glyph-name="seven.tn" horiz-adv-x="638" 
d="M217 0q1 93 22.5 174.5t86.5 187.5l161 261h-408v77h505v-70l-192 -317q-54 -91 -71.5 -161.5t-17.5 -151.5h-86z" />
    <glyph glyph-name="eight.tn" horiz-adv-x="638" 
d="M319 -8q-106 0 -177.5 55.5t-71.5 151.5q0 62 36.5 110.5t93.5 67.5q-45 22 -73.5 59.5t-28.5 87.5q0 81 61.5 132.5t159.5 51.5t159.5 -51.5t61.5 -132.5q0 -50 -28.5 -87.5t-73.5 -59.5q57 -19 93.5 -67.5t36.5 -110.5q0 -96 -71.5 -151.5t-177.5 -55.5zM319 410
q63 0 100 30.5t37 82.5t-37 81.5t-100 29.5t-99.5 -29.5t-36.5 -81.5t37 -82.5t99 -30.5zM319 68q74 0 118 35t44 96q0 62 -44 98t-118 36t-118.5 -36t-44.5 -98q0 -61 44.5 -96t118.5 -35z" />
    <glyph glyph-name="nine.tn" horiz-adv-x="638" 
d="M313 239q-108 0 -177 67.5t-69 170.5t71 170.5t179 67.5q119 0 189.5 -87.5t70.5 -233.5q0 -191 -76 -293.5t-197 -102.5q-95 0 -161 51.5t-80 135.5h84q11 -52 52.5 -82t103.5 -30q83 0 136.5 78.5t58.5 197.5q-22 -49 -74 -79.5t-111 -30.5zM317 640q-73 0 -119.5 -46
t-46.5 -118q0 -71 46.5 -116.5t119.5 -45.5t119.5 45.5t46.5 116.5q0 72 -46.5 118t-119.5 46z" />
    <glyph glyph-name="colon.cap" horiz-adv-x="250" 
d="M81 572h89v-94h-89v94zM81 206h89v-94h-89v94z" />
    <glyph glyph-name="bullet.case" horiz-adv-x="263" 
d="M131 275q-37 0 -63.5 26.5t-26.5 64.5t26.5 64.5t63.5 26.5t64 -26.5t27 -64.5t-27 -64.5t-64 -26.5z" />
    <glyph glyph-name="slash.ss03" horiz-adv-x="483" 
d="M409 701v-155h-51v-109h-52v-110h-51v-109h-51v-109h-52v-109h-78v156h51v109h52v109h51v109h52v109h51v109h78z" />
    <glyph glyph-name="emdash.ss20" horiz-adv-x="1105" 
d="M52 282v70h1000v-70h-1000z" />
    <glyph glyph-name="quotedblbase.00" horiz-adv-x="388" 
d="M63 -91l-14 17q26 19 43.5 46t17.5 52q-52 15 -52 61q0 25 16.5 42t42.5 17t44 -19t18 -48q0 -47 -33.5 -92t-82.5 -76zM220 -91l-14 17q26 19 43.5 46t17.5 52q-52 15 -52 61q0 25 16.5 42t42.5 17t44 -19t18 -48q0 -47 -33.5 -92t-82.5 -76z" />
    <glyph glyph-name="quotedblleft.00" horiz-adv-x="388" 
d="M168 711l14 -17q-26 -19 -43.5 -46t-17.5 -52q52 -15 52 -61q0 -25 -16.5 -42t-42.5 -17t-44 19t-18 48q0 47 33.5 92t82.5 76zM325 711l14 -17q-26 -19 -43.5 -46t-17.5 -52q52 -15 52 -61q0 -25 -16.5 -42t-42.5 -17t-44 19t-18 48q0 47 33.5 92t82.5 76z" />
    <glyph glyph-name="quotedblright.00" horiz-adv-x="388" 
d="M63 480l-14 17q26 19 43.5 46t17.5 52q-52 15 -52 61q0 25 16.5 42t42.5 17t44 -19t18 -48q0 -48 -33.5 -92.5t-82.5 -75.5zM220 480l-14 17q26 19 43.5 46t17.5 52q-52 15 -52 61q0 25 16.5 42t42.5 17t44 -19t18 -48q0 -48 -33.5 -92.5t-82.5 -75.5z" />
    <glyph glyph-name="quoteleft.00" horiz-adv-x="217" 
d="M198 708l14 -17q-26 -19 -43.5 -46t-17.5 -52q52 -15 52 -61q0 -25 -16.5 -42t-42.5 -17t-44 19t-18 48q0 48 33.5 92.5t82.5 75.5z" />
    <glyph glyph-name="quoteright.00" horiz-adv-x="222" 
d="M63 473l-14 17q26 19 43.5 46t17.5 52q-52 15 -52 61q0 25 16.5 42t42.5 17t44 -19t18 -48q0 -47 -33.5 -92t-82.5 -76z" />
    <glyph glyph-name="quotesinglbase.00" horiz-adv-x="217" 
d="M55 -91l-14 17q26 19 43.5 46t17.5 52q-52 15 -52 61q0 25 16.5 42t42.5 17t44 -19t18 -48q0 -47 -33.5 -92t-82.5 -76z" />
    <glyph glyph-name="circle.rights" horiz-adv-x="924" 
d="M463 -40q-164 0 -277 113t-113 277q0 165 113 277.5t277 112.5q165 0 277.5 -112.5t112.5 -277.5q0 -164 -112.5 -277t-277.5 -113zM463 11q142 0 238.5 98t97.5 241q-1 144 -97.5 242t-238.5 98q-141 0 -238 -98t-98 -242q1 -143 98 -241t238 -98z" />
    <glyph glyph-name="caroncomb.alt" horiz-adv-x="0" 
d="M-165 560l33 165h94l-74 -165h-53z" />
    <glyph glyph-name="No" horiz-adv-x="1272" 
d="M972 188q-117 0 -188.5 77.5t-71.5 182.5t71.5 182.5t188.5 77.5t188 -77.5t71 -182.5t-71 -182.5t-188 -77.5zM74 0v700h96l361 -565v565h84v-700h-97l-361 564v-564h-83zM972 260q83 0 129.5 55.5t46.5 132.5t-46.5 132.5t-129.5 55.5t-130 -55.5t-47 -132.5t47 -132.5
t130 -55.5zM747 0v68h451v-68h-451z" />
    <glyph glyph-name="edition" 
 />
    <glyph glyph-name="arrow.l" horiz-adv-x="664" 
d="M284 118l-250 232l250 232l51 -51l-158 -146h445v-70h-445l158 -146z" />
    <glyph glyph-name="arrow.r" horiz-adv-x="664" 
d="M380 118l-52 51l158 146h-445v70h445l-158 146l52 51l249 -232z" />
    <glyph glyph-name="arrow.u" horiz-adv-x="627" 
d="M277 77v408l-161 -143l-51 49l248 233l250 -233l-53 -49l-161 143v-408h-72z" />
    <glyph glyph-name="arrow.d" horiz-adv-x="627" 
d="M313 77l-248 232l51 49l161 -143v409h72v-409l161 143l53 -49z" />
    <glyph glyph-name="arrow.ul" horiz-adv-x="611" 
d="M471 144l-313 287v-204h-75v329h351v-74h-224l314 -287z" />
    <glyph glyph-name="arrow.ur" horiz-adv-x="611" 
d="M140 144l-53 51l314 287h-224v74h351v-329h-75v204z" />
    <glyph glyph-name="arrow.dl" horiz-adv-x="611" 
d="M83 145v328h75v-204l313 288l53 -51l-314 -287h224v-74h-351z" />
    <glyph glyph-name="arrow.dr" horiz-adv-x="611" 
d="M177 145v74h224l-314 287l53 51l313 -288v204h75v-328h-351z" />
    <glyph glyph-name="croat" horiz-adv-x="376" 
d="M38 574v64h300v-64h-300z" />
    </font>
</defs>
</svg>
